<?xml version="1.0" encoding="UTF-8"?>
<svg width="50px" height="50px" viewBox="0 0 50 50" version="1.1" xmlns="http://www.w3.org/2000/svg" xmlns:xlink="http://www.w3.org/1999/xlink">
    <!-- Generator: Sketch 58 (84663) - https://sketch.com -->
    <title>Currency/Large/TestNet-BCH</title>
    <desc>Created with Sketch.</desc>
    <defs>
        <path d="M25,50 C38.8071187,50 50,38.8071187 50,25 C50,11.1928813 38.8071187,0 25,0 C11.1928813,0 0,11.1928813 0,25 C0,38.8071187 11.1928813,50 25,50 Z" id="path-1"></path>
    </defs>
    <g id="Currency/Large/TestNet-BCH" stroke="none" stroke-width="1" fill="none" fill-rule="evenodd">
        <g id="item-ico-backup">
            <mask id="mask-2" fill="white">
                <use xlink:href="#path-1"></use>
            </mask>
            <use id="Mask" fill="#9BA3AE" opacity="0.100000001" xlink:href="#path-1"></use>
        </g>
        <path d="M30.9381768,22.0549617 C30.2632278,24.7729437 25.8275387,23.4593671 24.381323,23.1235759 L25.6030385,18.2986418 C27.0166655,18.634433 31.6449903,19.2151866 30.9381768,22.0549617 L30.9381768,22.0549617 Z M30.2306391,29.8421522 C29.4919611,32.8346848 24.1560986,31.2775219 22.452794,30.8804901 L23.7708274,25.5670073 C25.5059965,25.9640391 31.0019059,26.6968621 30.2306391,29.8421522 Z M35.9517728,22.0549617 C36.3696328,19.1229816 34.0232438,17.5960951 30.8092702,16.5577571 L31.8057614,12.5881272 L29.2667367,12.0080617 L28.3028343,15.8861747 C27.6278854,15.7334173 26.9529364,15.5806598 26.2779875,15.4588667 L27.2418899,11.5800655 L24.6710007,11 L23.6745095,14.970318 C23.127743,14.8478368 22.5817006,14.7563199 22.034934,14.6338387 L18.5320069,13.8404632 L17.8889225,16.4056877 C17.8889225,16.4056877 19.785587,16.8020314 19.7211337,16.8329958 C20.7494894,17.0772701 20.942125,17.7185763 20.9102605,18.2071249 L19.785587,22.7265441 C19.8493161,22.7575085 19.9463581,22.7575085 20.0426759,22.818061 C19.9463581,22.7877847 19.8819048,22.7877847 19.785587,22.7575085 L18.2423293,29.0783648 C18.1141469,29.3838798 17.7926047,29.8111878 17.0857912,29.6591185 C17.1176558,29.6893947 15.2217155,29.2311223 15.2217155,29.2311223 L14,32.0103449 L17.3102914,32.7431679 C17.9215113,32.8959254 18.5320069,33.0177185 19.1106381,33.170476 L18.1141469,37.1710702 L20.6531716,37.7511358 L21.6496627,33.7815058 C22.3564762,33.9645396 23.0314251,34.117297 23.6745095,34.2700545 L22.6780184,38.2094082 L25.2170431,38.7894737 L26.2135342,34.7895675 C30.5521813,35.5223905 33.7980194,35.1859112 35.1160528,31.4302794 C36.1769972,28.4370587 35.019735,26.7271384 32.7059347,25.5972836 C34.4092393,25.230528 35.6302306,24.1928782 35.9517728,22.0549617 L35.9517728,22.0549617 Z" id="Shape" fill="#434D5A" transform="translate(25.000000, 24.894737) rotate(-32.000000) translate(-25.000000, -24.894737) "></path>
    </g>
</svg>