<?xml version="1.0" encoding="UTF-8"?>
<svg width="50px" height="50px" viewBox="0 0 50 50" version="1.1" xmlns="http://www.w3.org/2000/svg" xmlns:xlink="http://www.w3.org/1999/xlink">
    <!-- Generator: Sketch 58 (84663) - https://sketch.com -->
    <title>Currency/Large/TestNet-BTC</title>
    <desc>Created with Sketch.</desc>
    <defs>
        <path d="M25,50 C38.8071187,50 50,38.8071187 50,25 C50,11.1928813 38.8071187,0 25,0 C11.1928813,0 0,11.1928813 0,25 C0,38.8071187 11.1928813,50 25,50 Z" id="path-1"></path>
    </defs>
    <g id="Currency/Large/TestNet-BTC" stroke="none" stroke-width="1" fill="none" fill-rule="evenodd">
        <g id="item-ico-backup">
            <mask id="mask-2" fill="white">
                <use xlink:href="#path-1"></use>
            </mask>
            <use id="Mask" fill="#9BA3AE" opacity="0.100000001" xlink:href="#path-1"></use>
        </g>
        <g id="Group" transform="translate(4.000000, 4.000000)" fill="#9BA3AE">
            <g id="Shape-2" transform="translate(10.000000, 7.000000)">
                <path d="M16.9381768,11.1387114 C16.2632278,13.8772842 11.8275387,12.5537563 10.381323,12.2154212 L11.6030385,7.35393453 C13.0166655,7.6922696 17.6449903,8.27742287 16.9381768,11.1387114 L16.9381768,11.1387114 Z M16.2306391,18.9848958 C15.4919611,22.000099 10.1560986,20.4311395 8.45279402,20.0310999 L9.77082735,14.6773634 C11.5059965,15.0774031 17.0019059,15.8157777 16.2306391,18.9848958 Z M21.9517728,11.1387114 C22.3696328,8.18451939 20.0232438,6.64606547 16.8092702,5.59986134 L17.8057614,1.60015847 L15.2667367,1.01569851 L14.3028343,4.9231912 C13.6278854,4.76927648 12.9529364,4.61536176 12.2779875,4.49264597 L13.2418899,0.584459961 L10.6710007,0 L9.67450953,4.00039618 C9.12774296,3.87698707 8.58170057,3.7847769 8.034934,3.6613678 L4.53200694,2.86198187 L3.88892254,5.44663992 C3.88892254,5.44663992 5.78558699,5.84598623 5.72113372,5.87718516 C6.7494894,6.12331006 6.94212504,6.76947457 6.9102605,7.26172436 L5.78558699,11.8153816 C5.84931608,11.8465805 5.94635809,11.8465805 6.04267591,11.9075917 C5.94635809,11.8770861 5.88190482,11.8770861 5.78558699,11.8465805 L4.24232928,18.2153221 C4.11414692,18.5231516 3.79260472,18.9536968 3.08579124,18.8004754 C3.11765578,18.830981 1.22171552,18.3692369 1.22171552,18.3692369 L0,21.1695142 L3.31029142,21.9078889 C3.92151127,22.0618036 4.53200694,22.1845194 5.11063805,22.3384341 L4.11414692,26.3693359 L6.65317158,26.9537959 L7.64966271,22.954093 C8.3564762,23.1385133 9.03142514,23.2924281 9.67450953,23.4463428 L8.67801839,27.41554 L11.2170431,28 L12.2135342,23.9697915 C16.5521813,24.7081662 19.7980194,24.3691378 21.1160528,20.5850542 C22.1769972,17.5691576 21.019735,15.8462834 18.7059347,14.7078691 C20.4092393,14.3383351 21.6302306,13.2928242 21.9517728,11.1387114 L21.9517728,11.1387114 Z" id="Shape"></path>
            </g>
        </g>
    </g>
</svg>