<svg width="50" height="50" viewBox="0 0 50 50" fill="none" xmlns="http://www.w3.org/2000/svg">
<rect width="50" height="50" fill="#E5E5E5"/>
<path d="M25 50C38.8071 50 50 38.8071 50 25C50 11.1929 38.8071 0 25 0C11.1929 0 0 11.1929 0 25C0 38.8071 11.1929 50 25 50Z" fill="#828282"/>
<path d="M25 49.1992C38.3648 49.1992 49.1992 38.3648 49.1992 25C49.1992 11.6351 38.3648 0.800781 25 0.800781C11.6351 0.800781 0.800781 11.6351 0.800781 25C0.800781 38.3648 11.6351 49.1992 25 49.1992Z" fill="#696969"/>
<path d="M25 48.6893C38.0833 48.6893 48.6893 38.0833 48.6893 25C48.6893 11.9167 38.0833 1.31067 25 1.31067C11.9167 1.31067 1.31067 11.9167 1.31067 25C1.31067 38.0833 11.9167 48.6893 25 48.6893Z" fill="#9D9D9D"/>
<path fill-rule="evenodd" clip-rule="evenodd" d="M10.9304 22.3301C10.7888 22.2008 10.6392 22.0712 10.5016 21.9418C10.364 21.8125 10.2226 21.6829 10.081 21.5536L9.66022 21.1536C9.59142 21.0848 9.51863 21.0242 9.44983 20.9552C9.38103 20.8946 9.30023 20.8258 9.23143 20.765C8.67303 20.2352 8.11143 19.7053 7.56077 19.1752C8.13117 19.697 8.68956 20.2152 9.25996 20.7448L9.4581 20.9432C9.5269 21.0117 9.5997 21.0725 9.6685 21.1413L10.089 21.5296C10.2306 21.6589 10.3682 21.7885 10.5098 21.9296C10.6514 22.0706 10.789 22.2005 10.9306 22.3296L10.9304 22.3301ZM3.51942 22.2501C3.51942 22.2501 5.55009 22.4602 6.54129 22.6018C7.45942 22.7314 10.3317 23.1722 10.3317 23.1722L3.51942 22.2501ZM3.51942 22.2501C4.08982 22.2986 4.66022 22.3592 5.23062 22.42C5.52182 22.4482 5.80103 22.4805 6.08023 22.5088L6.50876 22.5576C6.65036 22.5776 6.78797 22.5978 6.92957 22.6181L8.62877 22.889L9.4781 23.0306C9.7573 23.0792 10.0365 23.132 10.3277 23.1805C10.0485 23.1522 9.7573 23.1117 9.4781 23.0712L8.62877 22.9498L6.92957 22.6992C6.78797 22.6789 6.65036 22.6504 6.50876 22.6304L6.07996 22.581C5.80076 22.5528 5.50957 22.5122 5.23037 22.4797C4.65997 22.4112 4.08957 22.3381 3.51917 22.2493L3.51942 22.2501ZM10.1296 23.7013C10.1296 23.7013 7.9613 24.2517 7.22903 24.4621C6.50903 24.6602 4.32849 25.3237 4.32849 25.3237L10.1293 23.7016L10.1296 23.7013Z" fill="#B6B6B6"/>
<path fill-rule="evenodd" clip-rule="evenodd" d="M10.1294 23.7014C9.64805 23.843 9.16938 23.9806 8.68112 24.1102L7.23285 24.4985C6.75152 24.6401 6.27285 24.7777 5.79285 24.9193L5.07285 25.1174C4.83418 25.1862 4.59152 25.2468 4.34485 25.3158C4.58325 25.2358 4.82618 25.154 5.06485 25.0852L5.78485 24.8548C6.26618 24.7049 6.74485 24.5633 7.22485 24.4137C7.71418 24.2924 8.19578 24.1628 8.68512 24.0454C9.15018 23.9281 9.63978 23.811 10.1294 23.7017V23.7014ZM4.63205 26.6588C4.87045 26.5697 7.62138 25.2876 8.26058 24.9881C8.58058 24.8382 9.51072 24.5081 9.51072 24.5081L4.63205 26.6588Z" fill="#B6B6B6"/>
<path fill-rule="evenodd" clip-rule="evenodd" d="M4.63198 26.6586C4.84211 26.5786 5.04051 26.4808 5.24265 26.3877L5.84131 26.1085L7.04291 25.5301C7.44291 25.34 7.83172 25.1301 8.24425 24.9514C8.45465 24.8626 8.66505 24.7898 8.87518 24.721L9.19518 24.62C9.30425 24.5917 9.40558 24.5592 9.51518 24.5309C9.11518 24.721 8.69412 24.8829 8.29358 25.0688C7.89358 25.2672 7.48452 25.429 7.07172 25.6069L5.85011 26.1448C5.43998 26.3109 5.03998 26.4888 4.63171 26.6586H4.63198ZM4.89865 27.7786C4.89865 27.7786 7.39038 26.3184 8.24798 25.849C8.69705 25.5984 10.1493 24.8781 10.1493 24.8781L4.89865 27.7786Z" fill="#B6B6B6"/>
<path fill-rule="evenodd" clip-rule="evenodd" d="M4.89893 27.7791C5.31946 27.5202 5.74826 27.2573 6.17706 26.9903L6.81706 26.6018C7.03546 26.4725 7.24586 26.3511 7.46853 26.2218C7.68693 26.0922 7.89732 25.9629 8.11972 25.8415C8.2256 25.7762 8.33653 25.7194 8.45146 25.6717L8.79119 25.5018C9.24026 25.2834 9.68932 25.0607 10.1627 24.8706C9.73386 25.1418 9.29279 25.3725 8.85199 25.6109C8.63359 25.7322 8.41092 25.8415 8.19252 25.9629C7.97412 26.0842 7.76373 26.2138 7.54106 26.3311C7.32266 26.4605 7.11226 26.5818 6.88986 26.6991L6.23039 27.0591L4.89946 27.7791H4.89893ZM10.1293 25.1981C10.1293 25.1981 8.57999 26.3874 8.07839 26.7677C7.57679 27.1479 6.10026 28.2159 6.10026 28.2159L10.1293 25.1981Z" fill="#B6B6B6"/>
<path fill-rule="evenodd" clip-rule="evenodd" d="M19.0211 34.7896L18.2283 33.2888L18.6893 31.4117L21.9781 30.1416L20.5784 27.2696L21.2701 24.3691L22.5688 21.7717L26.5819 21.1408L29.5307 18.3293L35.8981 18.8107L37.148 25.6189L34.7411 34.191L33.3699 38.6288L27.8115 38.8392L25.2307 37.0512L22.2088 35.7888L19.0211 34.7896Z" fill="#CCCCCC"/>
<path fill-rule="evenodd" clip-rule="evenodd" d="M28.7704 34.741C28.7704 34.741 28.0016 35.093 26.6904 35.0119C26.3109 34.5023 23.6533 34.2637 23.6533 34.2637C23.6533 34.2637 23.3216 34.1626 22.7349 34.4053C22.1445 34.6453 21.5861 34.6157 21.0643 34.745C20.5424 34.8743 20.0243 34.1949 19.6243 34.0533C19.2243 33.9037 18.6939 33.5437 18.6939 33.5437L17.5739 33.4344L15.3248 32.4837L11.7517 28.924L10.7808 30.444L10.4813 32.325L11.5616 34.5541L14.4701 37.2037L20.1416 38.6437L23.5032 37.6533L27.7144 35.8733L28.7704 34.7408V34.741Z" fill="#D7D7D7"/>
<path fill-rule="evenodd" clip-rule="evenodd" d="M8.62044 22.1602L9.34044 19.98L10.1983 18.572L12.961 18.3413L12.1316 20.7605L9.82204 24.8706L10.7807 28.5397L9.08177 29.389L8.55964 28.5882L8.13911 26.7517L8.11084 24.6885L8.62044 22.1602Z" fill="#EAEAEA"/>
<path fill-rule="evenodd" clip-rule="evenodd" d="M11.7192 34.5915L11.1894 33.8512C11.1894 33.8512 11.0478 33.4992 11.1288 33.1917C11.2088 32.8802 11.1974 32.86 11.1571 32.7427C11.1168 32.6253 10.7768 32.2208 10.7971 31.8728C10.8171 31.5208 10.7688 31.4035 11.0275 31.1245C11.2984 30.8536 11.2176 30.3843 11.2176 30.3843L11.5696 30.6026L11.6496 30.4813C11.6496 30.4813 11.779 30.5824 11.779 30.7403C11.8072 30.5219 11.6899 29.5104 11.9568 29.28C12.2238 29.0496 12.6971 30.36 12.6971 30.36L12.4059 28.4586L11.6574 26.509L10.3264 24.729L10.2464 22.7669V22.597C10.2464 22.597 9.63548 23.5357 9.46562 24.277C9.34429 24.7866 9.63549 25.4056 9.57495 26.1378C9.52615 26.8661 9.46562 26.8093 9.64349 27.0978C9.82135 27.3864 10.2544 27.9797 10.0846 28.4085C9.93495 28.7768 9.42509 28.5179 9.42509 28.5179C9.42509 28.5179 9.32402 28.817 9.18642 28.9264C9.13789 28.7485 9.08535 28.6352 8.98829 28.5264C8.98002 28.5952 8.96002 28.6883 8.96002 28.6883C8.96002 28.6883 8.87095 28.409 8.78189 28.057C8.66082 27.588 8.53122 26.969 8.41389 26.6373C8.36535 26.8274 8.24402 27.4058 8.24402 27.4058L8.31282 28.296L8.64455 29.5176L8.96455 30.3176L9.27602 31.2965L9.54669 31.9541L9.76509 32.4557L9.95522 33.5845L10.8734 34.5552L11.363 34.7739L11.7187 34.5917L11.7192 34.5915Z" fill="#E0E0E0"/>
<path fill-rule="evenodd" clip-rule="evenodd" d="M9.10192 20.3802C9.10192 20.3802 8.44245 21.5002 8.25258 22.6293C8.06272 23.7584 7.89258 24.9514 8.01258 26.4885C8.13392 28.0381 8.36458 28.9885 8.55072 29.6682C8.87072 30.797 9.69952 32.3666 9.69952 32.3666L9.72778 32.3058C9.58847 32.0418 9.47728 31.7638 9.39605 31.4765C9.28672 31.0477 9.24618 30.5381 9.14512 30.3074C9.05605 30.077 8.90645 29.8786 8.83365 29.5954C8.76485 29.3245 8.75365 28.8957 8.54245 28.5762C8.45338 28.4466 8.34405 28.1069 8.31178 27.7672C8.27125 27.2573 8.33205 26.6869 8.28352 26.2178C8.19445 25.437 8.13392 24.9072 8.21472 24.4984C8.29552 24.0896 8.71658 22.929 8.97552 22.0066C9.14538 21.416 9.04405 20.9184 9.35552 20.4045C9.66698 19.8949 9.85738 19.4458 9.92592 19.1344C10.0059 18.8512 9.10085 20.3802 9.10085 20.3802H9.10192Z" fill="#E6E6E6"/>
<path fill-rule="evenodd" clip-rule="evenodd" d="M12.229 19.9312C12.229 19.9312 11.8893 20.0325 11.7274 20.2104C11.5655 20.3802 11.4967 20.5218 11.2783 20.809C11.0599 21.0962 11.0477 21.3309 10.8695 21.6909C10.6917 22.0429 10.2991 22.5728 10.2506 22.7629C10.2021 22.953 10.1213 23.8429 10.0202 24.2637C9.93114 24.6845 10.1213 25.2024 10.1213 25.2024L10.3517 25.1536C10.3517 25.1536 10.3517 25.453 10.5823 25.6554C10.8127 25.8536 10.8533 24.9837 10.8533 24.9837L11.7149 22.0752L13.0133 21.1933L13.1549 20.4813L12.2285 19.9312H12.229Z" fill="#ECECEC"/>
<path fill-rule="evenodd" clip-rule="evenodd" d="M12.8601 21.2501C12.8601 21.2501 12.2492 21.2904 11.95 21.5091C11.8286 21.5979 11.7801 21.6707 11.6508 21.78C11.4121 21.9781 11.1692 22.1603 11.0521 22.42C10.9225 22.6787 10.7809 23.0712 10.6838 23.8115C10.6433 24.1229 10.6433 24.4101 10.615 24.6611C10.5745 25.0008 10.514 25.2717 10.5462 25.4611C10.5868 25.8493 10.9873 26.0517 11.0262 26.4925L11.8556 26.072L12.6364 22.9933L14.295 21.9533L13.3564 20.9016L12.859 21.2483L12.8601 21.2501Z" fill="#D9D9D9"/>
<path fill-rule="evenodd" clip-rule="evenodd" d="M8.48476 41.981C8.48823 41.9506 8.4917 41.9202 8.49516 41.889C8.61623 40.849 8.63676 40.0608 8.72556 39.5672C8.8549 38.8674 8.94396 38.6072 8.9237 38.3453C8.89543 37.9248 8.86316 37.6173 8.9037 37.2936C8.96423 36.8648 9.38503 36.3552 9.37303 36.0032C9.36476 35.724 9.22316 35.5421 9.10183 35.3722C8.9805 35.2024 8.88343 35.0608 8.88343 35.0608C8.88343 35.0608 9.71276 34.4904 9.70476 32.1925C9.7217 32.1973 9.738 32.2041 9.7533 32.2128L10.1618 33.3736L10.441 33.7133L11.513 35.7117L12.8925 37.0509L14.9312 38.4221L16.2096 39.8133L16.3389 43.5229L14.6682 45.6912L14.3946 46.1866C12.221 45.0954 10.2277 43.6769 8.4845 41.9808L8.48476 41.981Z" fill="#CBCBCB"/>
<path fill-rule="evenodd" clip-rule="evenodd" d="M13.5883 45.5299C13.5883 45.5299 13.6165 45.0688 13.9968 44.7693C14.0576 44.8704 14.0979 44.9677 14.0859 45.0403C14.1547 44.9192 14.636 44.1424 15.7243 43.94C16.8125 43.7419 17.0755 42.9491 17.0755 42.9491L19.3851 40.8496L22.0267 38.4184L25.2387 37.2896L26.7397 36.9213C26.7397 36.9213 26.768 37.0307 26.7115 37.2733C26.9904 37.2533 27.6093 37.1117 28.2525 36.8851C28.5115 36.784 28.7544 36.7435 28.8837 36.8771C29.0739 37.0549 29.1021 37.4757 29.1141 37.7264C29.4256 37.6576 29.7856 37.3584 30.0741 37.3867C30.5355 37.4352 30.944 37.9773 31.4133 37.9773C32.0323 37.9773 32.3112 37.5971 32.7443 37.2976C33.0032 37.1197 33.3752 36.8976 33.5856 36.7475C34.0872 36.3792 39.3947 34.7571 39.3947 34.7571L41.2555 34.8784L41.5549 36.8768L41.3949 42.1008C41.3752 42.1197 41.3555 42.1395 41.3355 42.1584L32.8747 46.5773L21.1467 48.3752C18.5195 47.946 15.9843 47.074 13.6491 45.7963L13.5891 45.5296L13.5883 45.5299Z" fill="#C0C0C0"/>
<path fill-rule="evenodd" clip-rule="evenodd" d="M9.19604 42.6456C9.36271 42.2971 9.51258 42.0056 9.53898 41.9014C9.55978 42.1115 9.59792 42.5726 9.67472 43.0627C9.51348 42.9256 9.35391 42.7865 9.19604 42.6454V42.6456Z" fill="#D7D7D7"/>
<path fill-rule="evenodd" clip-rule="evenodd" d="M17.7632 47.5618L19.28 47.14L19.4094 47.1805C19.4094 47.1805 19.4782 47.221 19.4782 47.3584C19.6683 47.2493 19.8302 47.2693 19.9475 47.1968C20.008 47.3261 20.0686 47.7549 20.3358 47.8074C20.6147 47.8682 20.9142 47.6861 21.2176 47.4557C21.5168 47.217 21.8576 46.9176 22.1155 46.7962C22.2101 46.9702 22.2939 47.1498 22.3664 47.3341C22.7062 47.0632 23.2968 45.9629 24.1382 45.9829C24.3813 45.4082 24.7876 44.9174 25.3067 44.5712C26.0875 44.0413 26.5768 44.0008 27.1878 44.0493C27.4304 43.7341 27.7294 43.4666 28.0696 43.2605C28.1707 43.301 28.4499 43.4709 28.7979 43.309C29.1499 43.1474 29.5462 42.5202 30.068 42.4394C30.3492 42.4007 30.6352 42.4608 30.8771 42.6093C30.8771 42.6093 32.3971 41.1002 33.4459 40.5986C33.4054 40.4773 33.3246 40.0202 34.5542 39.0088C34.623 39.0696 34.5744 39.2394 34.623 39.2488C34.643 39.2488 34.943 39.1194 35.3227 38.828C35.792 38.4762 36.3542 38.108 36.6939 38.0069C37.3339 37.8168 38.0128 38.205 38.0128 38.205C38.0706 38.1645 38.1349 38.1344 38.203 38.116C38.3646 38.0877 38.4819 38.0674 38.571 38.036C38.563 38.2464 38.6803 38.6064 38.571 38.9178C38.6976 38.989 38.8318 39.046 38.971 39.0877C38.9024 39.2373 38.7526 39.6176 38.5019 39.7997C38.712 39.9008 38.7403 40.0181 39.0398 40.1197C38.9184 40.2896 38.7198 40.581 38.6312 40.7597C38.5422 40.9498 38.2224 41.7386 38.0808 42.0378C37.9312 42.3373 37.7291 42.8874 37.6318 42.9978C37.5344 43.1082 37.1827 43.5762 36.9118 43.8066C37.1518 43.7176 38.1336 43.4184 38.5502 43.305C38.4262 43.4869 37.7976 44.4194 37.1934 45.3162C34.3001 47.0503 31.0706 48.1479 27.7199 48.5358C24.3691 48.9237 20.9742 48.593 17.7614 47.5658L17.7632 47.5618Z" fill="#CCCCCC"/>
<path fill-rule="evenodd" clip-rule="evenodd" d="M12.9601 21.1408C12.9601 21.1408 12.6083 21.1408 12.5395 21.1893C12.4707 21.2379 12.8915 21.3392 13.0209 21.3877C13.1502 21.4363 13.4294 21.6587 13.5022 21.8368C13.571 22.0067 16.0305 22.9976 16.0305 22.9976L17.7699 22.9085L18.3697 22.08L17.2289 21.0808L18.0289 18.7224L16.9691 18.8923L14.4206 20.4123L13.1422 20.9019L12.9601 21.1408Z" fill="#C5C5C5"/>
<path fill-rule="evenodd" clip-rule="evenodd" d="M16.78 21.9216C16.8051 21.9623 16.8406 21.9957 16.8827 22.0184C16.9248 22.0411 16.9722 22.0524 17.02 22.051C17.38 22.051 17.7115 22.14 17.8491 22.3219C18.0797 22.6134 18.7189 23.5438 18.7189 23.5438L20.248 24.0939L20.3467 22.2934L18.676 21.1326L16.7747 21.8323V21.9214H16.7789L16.78 21.9216Z" fill="#CCCCCC"/>
<path fill-rule="evenodd" clip-rule="evenodd" d="M16.48 22.589C16.48 22.589 16.7589 22.6093 17.1109 22.4797C17.4629 22.3501 18.0413 22.0712 18.2922 22.1805C18.644 22.3301 18.5712 22.7994 18.9517 23.2205C19.1821 23.4794 19.6029 23.4714 19.8416 23.7506C20.0802 24.0298 20.9013 23.9002 20.9013 23.9002L21.2128 25.5802L19.9629 27.1824L19.5541 29.1725H17.864L16.32 28.56L15.5594 26.72L15.9397 24.8592L16.48 22.589Z" fill="#C1C1C1"/>
<path fill-rule="evenodd" clip-rule="evenodd" d="M19.7493 22.6699C19.7913 22.6828 19.8348 22.6896 19.8787 22.6901C19.8301 22.7307 19.7288 22.8195 19.7693 23.0501C19.8099 23.2808 19.9392 23.572 19.8301 23.7499C19.9172 23.8451 19.9821 23.9583 20.0203 24.0816C20.0891 24.28 20.1093 24.4619 20.5581 24.4904C20.4934 24.5303 20.4337 24.5778 20.3803 24.632C20.3803 24.632 20.6917 24.9029 20.8496 25.1536C21.0112 25.1467 21.44 25.0133 21.44 25.0133L21.5291 25.0741L21.7192 24.9941C21.7192 24.9941 21.5413 24.9253 21.6707 24.4925C21.792 24.1123 21.9013 24.1325 21.9107 24.1043C21.92 24.076 21.9997 23.6755 21.9997 23.5136C22.0603 23.3035 22.1088 22.6643 22.1088 22.6643L21.9795 21.2525L21.2515 20.8115L20.6595 20.24L20.1011 21.2917L19.7333 21.6584L19.7051 22.5685L19.7493 22.6699Z" fill="#C3C3C3"/>
<path fill-rule="evenodd" clip-rule="evenodd" d="M21.5007 21.4888C21.5007 21.4888 21.6301 21.8568 21.6789 22.14C21.6961 22.0849 21.7056 22.0278 21.7071 21.9701C21.7071 21.9701 21.8082 22.5285 21.8282 22.7592C21.8687 22.7509 21.9082 22.7389 21.9173 22.7792C21.9263 22.8194 22.0186 23.2688 21.9973 23.5194C22.1657 23.2415 22.3988 23.0084 22.6767 22.84C22.8386 22.7386 23.0287 22.6296 23.2271 22.6213C23.5386 22.6133 23.765 22.8197 24.1373 22.8197C25.0351 22.8197 25.8485 22.1602 26.4471 21.9581C26.8879 21.8082 27.2682 21.6992 27.5351 21.4562C27.6647 21.3472 27.8954 21.1045 28.1055 20.7442C28.3847 20.2642 28.6759 19.8464 28.9674 19.7938C28.8355 19.8181 28.7014 19.8276 28.5674 19.8221C28.5674 19.8221 28.6565 19.733 28.8074 19.6117C28.9583 19.4904 29.1391 19.3408 29.3978 19.3408C29.8591 19.3408 30.0895 19.4093 30.3485 19.4093C30.6074 19.4013 30.757 19.3408 30.757 19.3408C30.757 19.3408 31.0282 19.5309 31.6389 19.5309C32.2498 19.5389 32.6583 19.5914 32.9781 19.62C33.2978 19.6485 34.3695 19.5309 34.677 19.54C34.8775 19.5477 35.0743 19.5959 35.2557 19.6816L34.2645 16.8016L30.7039 13.6896L28.5842 15.1904L25.3234 18.4509L22.1682 19.62L21.5087 20.3602V21.4888H21.5007Z" fill="#B2B2B2"/>
<path fill-rule="evenodd" clip-rule="evenodd" d="M28.5802 19.8382C28.5802 19.8382 28.6693 19.7494 28.8186 19.628C28.968 19.5067 29.1506 19.3568 29.4093 19.3568C29.8704 19.3568 30.101 19.4256 30.36 19.4256C30.6189 19.4176 30.7685 19.3568 30.7685 19.3568C30.7685 19.3568 31.04 19.5467 31.6504 19.5467C32.2613 19.5547 32.6698 19.6072 32.9896 19.6355C33.3093 19.6638 34.381 19.5467 34.6885 19.5555C34.8889 19.563 35.0857 19.6112 35.2669 19.6971L34.8178 18.3984L34.2962 17.4075L32.8074 15.7771C32.8074 15.7771 31.0208 14.7254 31.0072 14.7174C30.9992 14.7094 30.3882 14.5475 30.3882 14.5475L28.7701 15.5264L27.3018 19.3251L27.2736 20.1251L28.224 20.5742C28.4626 20.1742 28.7258 19.8542 28.9725 19.8136C28.7498 19.8379 28.58 19.8379 28.58 19.8379L28.5802 19.8382Z" fill="#B4B4B4"/>
<path fill-rule="evenodd" clip-rule="evenodd" d="M28.5601 20.1093C28.4185 20.1173 28.3014 20.089 28.2689 19.9879C28.1476 19.6482 28.0505 19.5997 27.9489 19.5997C27.8473 19.5997 27.7102 19.8181 27.6289 19.8381C27.5476 19.8581 27.451 19.5874 27.451 19.5874L27.362 19.5469C27.362 19.5469 26.8401 19.8866 26.4721 20.2871C26.1041 20.6877 25.5012 21.3674 25.2302 21.4885C24.9593 21.6095 24.0286 21.6503 23.7102 21.7191C23.3918 21.7879 23.0388 22.0186 22.9902 22.0711C22.9417 22.1237 23.1321 22.1802 23.1604 22.2327C23.1886 22.2813 22.8486 22.261 22.8204 22.3127C22.8004 22.3533 22.9004 22.5837 22.95 22.701C23.0367 22.6579 23.132 22.6344 23.2289 22.6322C23.5404 22.6242 23.767 22.8306 24.139 22.8306C25.0372 22.8306 25.8502 22.1711 26.4489 21.9687C26.89 21.8191 27.2702 21.7098 27.5372 21.4671C27.6665 21.3581 27.8972 21.1151 28.1076 20.7551C28.2612 20.5085 28.411 20.2778 28.5609 20.1079L28.5601 20.1093Z" fill="#B2B2B2"/>
<path fill-rule="evenodd" clip-rule="evenodd" d="M15.68 40.1296C15.68 40.1296 15.6 39.8301 14.8586 39.0576C14.6482 38.8392 14.5189 38.6576 14.3773 38.5277C14.0253 38.1957 13.8189 38.1069 13.5682 37.9168C13.0181 37.5083 12.4194 37.5083 11.9584 37.0067C11.4973 36.5051 10.96 35.5467 10.5866 34.5672C10.2186 33.5883 10.1173 33.2768 10.1173 33.2485C10.1173 33.2203 10.2186 33.0301 10.348 33.0584C10.4773 33.0867 10.4773 33.3373 10.5098 33.3981C10.5743 33.4974 10.6474 33.5907 10.7282 33.6771C10.9184 33.8957 11.1893 34.1571 11.3269 34.5469C11.2986 34.2152 11.1853 33.8472 11.1853 33.8472C11.1853 33.8472 11.8973 34.2963 12.504 34.7653C13.1149 35.2347 13.3656 35.3965 13.544 35.6957C13.7224 35.9949 14.1426 36.784 14.344 37.0147C14.5453 37.2453 17.304 38.1149 17.304 38.1149L18.6162 39.0933L19.2677 40.5213L18.7578 41.3213L17.7789 41.5317L16.189 40.8197L15.68 40.1293V40.1296Z" fill="#B2B2B2"/>
<path fill-rule="evenodd" clip-rule="evenodd" d="M12.1479 35.2104C12.1479 35.2104 12.4797 35.7403 13.2887 36.2419C14.017 36.683 15.1698 37.0835 16.1975 37.3222C16.7879 37.4638 17.3786 37.5728 17.9085 37.5811C19.3365 37.6011 20.3194 37.1928 21.5373 37.0592C22.1968 36.9904 23.0058 36.9379 23.8472 36.7392C24.9272 36.4803 25.5664 36.1888 26.4362 35.7792C27.0672 35.488 27.6458 35.2696 28.1149 34.9904C28.7744 34.6022 29.2557 34.1694 29.8141 34.04C29.7453 34.2302 29.6725 34.5699 29.1224 34.9219C29.4136 34.9136 29.8141 34.8936 29.8141 34.8936C29.8141 34.8936 29.4258 35.124 28.7421 35.6419C28.3213 35.9619 27.7632 36.5035 27.1928 36.8635C26.8245 37.0942 26.424 37.2635 26.161 37.4016C25.521 37.7536 25.2629 37.9315 24.8424 38.3616C24.992 38.3536 25.0042 38.3616 25.0042 38.3616C25.0042 38.3616 24.4741 38.4304 24.0941 38.6326C24.0141 38.6326 23.8754 38.6043 23.6328 38.6731C23.4426 38.7336 23.1917 38.8715 22.933 38.944C22.5648 39.0534 22.4437 39.0048 22.4437 39.0048L22.5042 39.1262C22.5042 39.1262 22.0242 39.1179 21.8642 39.1342C21.8925 39.1422 21.8845 39.1544 21.8845 39.1544C21.8564 39.1591 21.8293 39.1687 21.8045 39.1827C21.7275 39.2326 21.6428 39.2694 21.5538 39.2918C21.5053 39.2998 21.4648 39.2998 21.404 39.312C21.4242 39.3606 21.5821 39.632 21.6549 39.792C21.5944 39.8326 20.684 40.5203 20.684 40.5203C20.7122 40.5647 20.7353 40.6122 20.7528 40.6619C20.781 40.7507 20.7933 40.8803 20.8216 40.9408C20.8901 41.0622 20.9306 41.0824 20.9306 41.0824C20.9306 41.0824 20.8216 41.1027 20.6312 41.1512C20.4696 41.1918 20.2712 41.2603 19.9912 41.3008C19.9052 41.312 19.8188 41.3188 19.7322 41.3211C19.7728 41.4102 19.9506 41.7499 19.6229 42.1422C19.2952 42.5344 19.1941 42.5915 19.093 42.8422C19.0421 42.8037 18.988 42.7698 18.9312 42.7408C18.8221 42.6923 18.6722 42.6198 18.6197 42.5224C18.5891 42.6521 18.5485 42.7793 18.4984 42.9027C18.3973 43.1736 18.2477 43.4408 18.2194 43.643C18.1101 43.5216 17.908 43.283 17.6288 43.3315C17.3496 43.38 17.1272 43.7603 17.0786 43.8696C17.0786 43.8008 17.0301 43.7483 17.0181 43.8291C17.0098 43.9182 16.8562 44.8483 15.9986 45.6008C15.9906 45.4107 15.9906 44.9899 15.9704 44.8526C15.8904 44.9326 15.7925 45.0507 15.2098 45.3016C14.6394 45.5523 14.7298 45.8032 14.7298 45.8032C14.7298 45.8032 14.6813 45.4032 14.9888 44.9819C15.3002 44.5614 15.4904 44.363 15.4904 44.3307C15.4853 44.2978 15.4713 44.267 15.4498 44.2416C15.4093 44.2011 15.3285 44.1526 15.3285 44.1203C15.377 44.1003 15.8584 43.8696 15.8301 43.392C15.8018 42.9635 15.62 42.7408 15.4904 42.5832C15.4704 42.563 15.6808 42.4134 15.6522 42.3648C15.632 42.3366 15.3733 42.1462 15.3408 42.0448C15.3484 41.9844 15.362 41.9248 15.3813 41.867C15.4095 41.7779 15.4298 41.7171 15.4218 41.6566C15.4016 41.5555 15.2922 41.2763 15.26 41.248C15.2882 41.256 15.4904 41.248 15.4904 41.248C15.4904 41.248 15.3288 40.9891 15.3002 40.8678C15.2717 40.7464 15.2112 40.4267 15.1789 40.3662C15.2477 40.3742 15.4175 40.3862 15.4175 40.3662C15.4258 40.3054 15.2679 40.2043 15.3375 40.1262C15.3861 40.1342 15.4791 40.1747 15.5679 40.288C15.5194 40.1584 15.4386 39.9078 15.2685 39.8067C15.3485 39.7784 15.6205 39.7054 15.8591 39.847C16.0978 39.9886 16.1791 40.1867 16.1791 40.1867C16.1791 40.1867 16.3207 40.296 16.5394 40.4579C16.7901 40.656 17.1095 40.9379 17.6194 41.1374C17.7287 41.1982 18.0077 41.1982 18.2101 41.1576C18.2982 41.1366 18.3827 41.1026 18.4608 41.0566C18.4889 41.04 18.5188 41.0264 18.5498 41.016C18.5063 40.9288 18.4563 40.8449 18.4002 40.7651C18.469 40.7651 18.5498 40.7734 18.5498 40.7734C18.5498 40.7734 18.5984 40.664 18.38 40.4534C18.4285 40.4048 18.4893 40.3734 18.4893 40.2915C18.4205 40.2835 18.2991 40.1824 18.2709 40.1419C18.3111 40.1136 18.372 40.0206 18.4408 39.9923C18.38 39.9438 18.2304 39.7414 18.1616 39.7214C18.2273 39.697 18.2909 39.6672 18.3517 39.6323C18.3517 39.6323 18.0119 39.5432 17.9026 39.4704C17.7933 39.3904 17.6317 39.252 17.5346 39.2115C17.4333 39.171 17.2554 39.151 17.1826 39.0699C17.2511 39.0902 17.3605 39.0699 17.4416 39.0699C17.5021 39.0699 17.5306 39.0779 17.5506 39.0779C17.5426 39.0496 17.5426 38.9888 17.7005 38.9688C17.7764 38.9574 17.8501 38.9342 17.9189 38.9C17.9189 38.9 17.769 38.892 17.5989 38.7302C17.4288 38.5683 17.2874 38.439 17.1904 38.4187C17.0893 38.3984 16.8992 38.4875 16.7818 38.4792C16.62 38.4592 16.5511 38.3782 16.5511 38.3782C16.5511 38.3782 16.0133 38.4267 14.8199 37.6987C13.7882 37.0675 13.3391 36.5094 13.3391 36.5094C13.2426 36.4743 13.1493 36.431 13.0602 36.3798C12.6719 36.1776 12.1338 35.7568 12.1501 35.2064L12.1479 35.2104Z" fill="#A4A4A4"/>
<path fill-rule="evenodd" clip-rule="evenodd" d="M27.0307 10.9305C27.1243 10.9609 27.2074 11.0169 27.2707 11.0923C27.4608 11.3107 27.5821 11.7233 27.1493 12.1643C27.3192 12.2249 27.3893 12.2443 27.5376 12.2249C27.388 12.403 27.0483 12.7833 27.028 13.115C27.0077 13.3859 27.1776 13.467 27.1776 13.467C27.1776 13.467 26.9187 13.7662 26.9067 14.267C27.0289 14.1291 27.1628 14.0019 27.3067 13.8867C27.6061 13.6481 28.0187 13.3771 28.2979 13.2073C28.2941 13.2785 28.3037 13.3497 28.3261 13.4174C28.3261 13.4174 28.8477 12.9886 29.2861 13.179C29.4843 13.2681 29.3952 13.547 29.3952 13.547C29.3952 13.547 29.6664 13.4459 29.8565 13.6361C30.0467 13.8262 30.3155 14.3166 30.4533 14.5067C30.5139 14.5958 30.6717 14.7657 30.8333 15.0286C31.0541 15.3967 31.2384 15.7855 31.3837 16.1894C31.3917 15.979 31.4443 15.6515 32.0432 15.8577C32.6419 16.0681 33.3213 16.5091 33.8917 17.3777C34.4621 18.2462 34.6035 19.2267 34.8907 19.6001C35.1819 19.9601 35.4813 20.5587 35.5016 20.8097C35.5219 21.0606 35.4125 21.8694 36.0112 24.0579C36.1811 23.3785 36.44 21.8694 36.44 21.8694L36.5816 20.5385L36.7435 16.4203L32.4432 12.8478L29.0816 10.4083L26.8931 10.6187L27.0304 10.9302L27.0307 10.9305Z" fill="#A3A3A3"/>
<path fill-rule="evenodd" clip-rule="evenodd" d="M35.0203 17.0589C35.0203 17.0589 34.9595 16.6589 33.9483 15.9789C32.9368 15.3074 32.148 15.3074 31.42 14.737C30.8616 14.288 30.2792 13.2562 29.9 12.9165C29.5317 12.5808 29.4712 11.6098 29.4712 11.6098L30.7131 10.5698L32.56 7.90023L34.1213 6.18103L34.8696 7.22103L35.9096 8.44263L36.488 10.8941L36.6984 14.4824L35.0184 17.0592L35.0203 17.0589Z" fill="#969696"/>
<path fill-rule="evenodd" clip-rule="evenodd" d="M36.2704 21.3599C36.301 20.8158 36.2338 20.2705 36.072 19.7501C35.8053 18.9207 35.2226 17.4482 34.952 16.8968C34.8426 16.2858 34.9237 16.2373 35.041 16.1685C35.1584 16.0997 35.5994 15.8485 35.841 14.9672C36.0826 14.0858 36.8322 14.057 36.8322 14.057L37.2933 13.7173L37.9933 15.4688L38.604 17.0506L38.7941 18.2602L38.9357 19.2917L38.604 21.4722L36.9658 22.9527L36.2701 21.3599H36.2704Z" fill="#9F9F9F"/>
<path fill-rule="evenodd" clip-rule="evenodd" d="M13.4104 45.6637V45.6189C13.4444 45.5976 13.4745 45.5705 13.4992 45.5389C13.5275 45.4984 13.548 45.4498 13.568 45.4378C13.6085 45.4176 13.7987 45.3578 13.8997 45.377C14.0008 45.3962 14.268 45.5064 14.4096 45.4984C14.7008 45.4904 15.0405 45.2677 15.5787 45.369C16.3877 45.5186 16.5779 46.0688 17.0472 46.3802C17.3672 46.5989 17.6984 46.5016 17.7469 46.5016H17.856C17.8763 46.5016 18.0259 46.3317 18.1069 46.34C18.2688 46.348 18.2848 46.4816 18.3859 46.4896C18.6245 46.5178 19.0859 46.3682 19.3165 46.429C19.3849 46.4505 19.4471 46.4881 19.4978 46.5388C19.5485 46.5894 19.5862 46.6516 19.6077 46.72C19.6563 46.8696 19.6157 47.0597 19.4984 47.169C19.2477 47.3994 19.0091 47.6181 18.9605 47.809C19.0223 47.8561 19.0815 47.9063 19.1381 47.9594C17.1366 47.4495 15.2108 46.6784 13.4104 45.6661V45.6637Z" fill="#B0B0B0"/>
<path fill-rule="evenodd" clip-rule="evenodd" d="M34.9514 37.581C34.9514 37.581 35.5823 36.7397 35.801 36.3229C36.0194 35.8933 35.1093 30.4533 35.1093 30.4533L36.9378 24.4623L36.889 22.5125C36.889 22.5125 36.9781 20.7122 37.1885 19.9314C37.4394 20.3805 38.2202 20.9226 38.3901 21.2098C38.4701 20.6594 38.7418 19.4986 38.7016 18.2607C38.8512 18.4911 39.2112 20.8093 39.2112 20.8093L39.5712 22.3706L40.0405 24.0293L40.5624 25.781L40.8738 26.9906L41.0517 27.2818L41.2016 27.7914L41.3432 28.3418L41.7517 29.6322L41.9917 30.6919L42.1818 32.6135C42.2232 32.7607 42.253 32.9108 42.2709 33.0626C42.2789 33.273 42.2426 33.3943 42.2426 33.4309C42.2426 33.4674 42.3114 33.8919 42.2832 34.2117C42.2426 34.5317 42.2426 34.7821 41.9917 35.0117C41.7408 35.2413 41.5832 36.6135 41.5832 36.6135L41.1341 36.3143C41.1341 36.3143 41.2232 35.9055 41.0128 35.5335C40.8024 35.1615 40.3938 35.0845 40.1632 35.1453C39.9328 35.1938 39.4717 35.2663 39.3218 35.3959C39.1802 35.5253 38.8325 35.9258 38.5128 36.1079C38.1128 36.3479 37.461 36.3669 37.1133 36.4477C36.7613 36.5277 36.373 36.7677 35.9642 37.0463C35.6437 37.2539 35.3053 37.4323 34.953 37.5797L34.9514 37.581Z" fill="#A9A9A9"/>
<path fill-rule="evenodd" clip-rule="evenodd" d="M34.9514 46.42C34.9514 46.42 34.9781 46.4373 35.0295 46.4656C37.9036 45.1191 40.4787 43.2104 42.6029 40.8523C42.5797 40.0336 42.5495 39.1944 42.5165 38.8835C42.4479 38.224 42.4965 37.5525 42.4762 37.1643C42.4559 36.776 42.2375 35.1941 42.1365 34.7856C42.0271 34.3771 41.8165 34.1747 41.7845 34.1747C41.7562 34.1829 41.5861 34.9435 41.5861 35.1347C41.5861 35.3259 41.5455 35.7861 41.5455 35.9035C41.5173 35.8952 41.5053 35.8235 41.5053 35.7941C41.4647 35.8952 41.4162 36.0733 41.3959 36.0936C41.3757 36.1139 41.4242 35.9237 41.3959 35.8832C41.3677 35.8427 41.3159 35.8629 41.3271 35.7619C41.3319 35.7019 41.3414 35.6425 41.3554 35.584C41.3554 35.584 41.2341 35.7619 41.1453 36.2149C41.0562 36.664 41.0562 36.6763 41.0239 36.7165C40.9957 36.7653 40.8338 36.9269 40.8255 36.9877C40.8175 37.0968 40.9754 37.2061 40.9874 37.2667C40.9954 37.368 40.8458 37.8371 40.7973 38.0667C40.7487 38.2963 40.769 38.7461 40.7173 38.9768C40.6767 39.1872 40.6373 39.3085 40.4989 39.3973C40.5999 39.4176 40.697 39.4459 40.697 39.4459C40.697 39.4459 40.8386 40.0445 40.4786 40.5544C40.3493 40.7323 40.317 40.8133 40.1794 40.9752C39.9082 41.2744 39.6978 41.6152 39.6775 41.8368C39.6636 41.7714 39.6541 41.7051 39.6493 41.6384C39.6493 41.6384 39.2287 42.128 39.0506 42.4072C38.8202 42.7672 38.5005 42.7469 38.4106 42.836C38.3207 42.9251 38.3013 43.0867 38.3306 43.2163C38.2506 43.2363 38.1002 43.2648 37.9989 43.5763C37.9503 43.7379 37.829 43.8963 37.6389 44.0051C37.4487 44.1139 37.2181 44.1467 37.1007 44.1749C37.2018 44.2032 37.2423 44.2032 37.2909 44.2355C37.2303 44.3365 36.9511 44.4944 36.6397 44.6968C36.3282 44.8869 36.1783 45.1659 36.1015 45.348C36.0215 45.5179 35.9034 45.6272 35.7133 45.6475C35.7933 45.696 35.9117 45.8091 35.9722 45.8456C35.8831 45.8659 35.7322 45.8659 35.4626 46.0965C35.1794 46.3312 35.0823 46.4 34.9527 46.4203L34.9514 46.42Z" fill="#9E9E9E"/>
<path fill-rule="evenodd" clip-rule="evenodd" d="M29.3227 48.2947C29.4776 48.1861 29.6454 48.0971 29.8222 48.0299C30.4531 47.7792 31.1206 47.7307 31.3835 47.6499C31.6345 47.5699 31.8326 47.4595 32.1441 47.3989C32.1358 47.4699 32.1289 47.5365 32.1214 47.5995C31.2032 47.8881 30.2681 48.1203 29.3214 48.2947H29.3227Z" fill="#B9B9B9"/>
<path fill-rule="evenodd" clip-rule="evenodd" d="M40.96 31.6992C40.96 31.6992 40.8307 32.3989 40.6 32.84C40.3694 33.2811 40.12 33.8917 40.12 33.8917C40.1216 33.7541 40.1378 33.6171 40.1686 33.4829C39.8774 33.6528 39.1694 34.0616 38.9686 34.2435C38.7784 34.4133 38.4587 34.7128 38.3779 34.8544C38.568 34.2963 38.7662 33.7947 38.7987 33.564C38.5075 33.7744 37.148 34.8949 36.4403 35.6352L34.2355 37.4192C33.9811 37.5564 33.7191 37.6791 33.4507 37.7867C33.0707 37.9483 32.6216 38.0859 32.2899 38.2155C32.379 37.9768 32.5203 37.7661 32.7187 37.564C32.9291 37.3659 33.56 36.6821 33.6571 36.364C33.7462 36.0323 33.7664 35.8341 33.6491 35.5549C33.5398 35.5832 33.2891 35.5955 33.1192 35.644C32.9494 35.6925 32.7672 35.8744 32.7672 35.8744C32.7672 35.8744 32.8966 35.1341 33.1758 34.4344C32.9654 34.4424 32.6054 34.5029 32.6054 34.5029C32.6054 34.5029 33.107 33.6616 33.9654 33.0752C33.7025 33.1311 33.4452 33.2109 33.1968 33.3136C32.6952 33.524 32.1451 33.8354 31.7366 34.0053C31.967 33.6853 33.5851 31.376 34.548 29.2237C35.508 27.0757 35.8667 26.5256 36.0771 25.3728C36.1862 24.8024 36.1571 23.9594 36.1862 23.2045C36.2144 22.456 36.3075 21.7845 36.247 21.3354C36.4976 21.6469 37.4363 22.5248 37.4686 24.4869C37.4968 26.4488 36.5707 29.0986 35.5875 30.5264C35.8275 30.5952 36.4494 30.6763 37.0883 29.5664C37.7272 28.4565 37.7195 28.1466 37.9502 27.6853C37.9784 27.916 37.9702 27.9968 37.9702 27.9968C37.9702 27.9968 38.9008 26.8682 39.3416 25.4482C39.4307 26.0592 39.6936 26.5973 39.2808 27.7179C38.9128 28.7291 38.4315 28.976 38.4315 28.976C38.4315 28.976 38.6702 28.9354 39.0219 28.725C39.0827 28.8746 39.0707 29.045 39.1718 29.1053C39.2728 29.1656 39.4104 29.2672 39.4307 29.3643C39.5398 29.2024 39.7096 28.996 39.7624 28.8424C39.7219 29.1624 39.6936 30.5616 39.8424 31.2736C40.1542 31.2453 40.4736 31.225 40.692 30.6626C40.5424 31.213 40.5424 31.5445 40.6435 32.0139C40.8094 31.9008 40.959 31.6984 40.959 31.6984L40.96 31.6992Z" fill="#9A9A9A"/>
<path fill-rule="evenodd" clip-rule="evenodd" d="M30.4491 9.40132C30.4491 9.40132 30.1377 9.53065 29.6078 9.53065C29.1467 9.53065 29.2761 9.35278 28.5561 9.35278C27.4478 9.35278 23.5763 9.99278 22.8966 9.98372C22.4555 9.97572 24.3851 10.1738 24.3851 10.1738L29.3166 10.2427L30.3075 10.1626L30.6758 9.41332L30.4491 9.40132Z" fill="#8E8E8E"/>
<path fill-rule="evenodd" clip-rule="evenodd" d="M17.6619 19.0413C17.6619 19.0413 17.0307 19.5226 16.7638 19.8909C16.4968 20.2592 16.3552 20.5016 16.0518 20.801C16.123 20.8038 16.1942 20.7942 16.2622 20.7728C16.2622 20.7728 16.2622 20.8528 16.2136 20.8738C16.2556 20.8691 16.298 20.8739 16.3379 20.8877C16.3778 20.9016 16.414 20.9242 16.444 20.9538C16.355 21.0024 16.1123 21.2453 16.3024 21.5325C16.444 21.7509 16.7435 21.7709 16.7435 21.7709C16.7435 21.7709 16.6747 21.9693 16.9619 21.949C17.5808 21.9208 18.2726 21.6496 18.592 21.7184C18.912 21.7984 19.0939 21.8277 19.3203 22.2202C19.5603 22.6085 19.7694 22.6693 19.7694 22.6693C19.7694 22.6693 19.911 22.309 19.8787 21.7712C19.9948 21.4812 20.0591 21.1732 20.0688 20.861L19.8584 19.3117L18.9403 18.1506L17.751 18.8101L17.6619 19.0405V19.0413Z" fill="#C5C5C5"/>
<path fill-rule="evenodd" clip-rule="evenodd" d="M18.7904 18.8106C18.7904 18.8106 18.8795 19.021 19.2517 19.041C19.2112 19.1301 19.2112 19.1424 19.2235 19.2109C19.2315 19.2797 19.2435 19.3808 19.2435 19.3808C19.2845 19.361 19.3215 19.3338 19.3528 19.3008C19.3731 19.3898 19.3325 19.5312 19.3528 19.6325C19.3653 19.6941 19.3857 19.7539 19.4133 19.8104C19.4192 19.7965 19.426 19.7831 19.4336 19.7701C19.4416 19.7498 19.5136 19.9885 19.7128 20.1701C19.7126 20.1422 19.7195 20.1147 19.7328 20.0901C19.7359 20.1408 19.7526 20.1898 19.7813 20.2317C19.7664 20.2246 19.7528 20.2151 19.7411 20.2034C19.7411 20.2034 19.7611 20.8434 19.8704 21.1744C19.8887 21.153 19.9049 21.13 19.9189 21.1056C19.9189 21.0856 19.9109 21.2837 19.8907 21.4256C19.8624 21.5672 19.8827 21.7653 19.8827 21.7653C19.9556 21.7079 20.0358 21.6603 20.1211 21.6237C20.2424 21.5749 20.4411 21.4253 20.5621 21.0936C20.6324 20.9057 20.6865 20.7122 20.724 20.5152C20.7631 20.5905 20.7901 20.6715 20.804 20.7552C20.8123 20.8562 21.0024 20.8037 21.0024 20.8037L21.0429 20.3626L21.2829 19.3634L21.5013 18.7445L22.5531 17.1064L24.4533 15.6429L26.112 16.0232L27.5115 14.1219L25.1005 12.6736L22.8189 12.9123L20.7483 15.7803L19.0899 18.3816L18.7904 18.8104V18.8106Z" fill="#B7B7B7"/>
<path fill-rule="evenodd" clip-rule="evenodd" d="M30.7403 14.6603C30.7403 14.6603 30.5987 14.6885 30.1901 14.9003C29.7816 15.112 29.4984 15.1792 29.3405 15.4907C29.1827 15.8021 29.1707 16.0491 29.1707 16.0491C29.1707 16.0491 29.4499 15.9277 29.6117 15.8872C29.7816 15.8469 29.9717 15.8589 29.9515 15.9277C29.932 15.9749 29.905 16.0186 29.8715 16.0571C29.8715 16.0571 30.1915 16.0491 30.1829 16.2069C30.1744 16.3648 30.1224 16.5387 30.0619 16.6155C30.0011 16.6955 29.7504 16.8139 29.7221 16.9069C29.6533 17.0971 29.7504 17.1051 29.7139 17.2587C29.6856 17.4085 29.5523 17.6997 29.1152 18.2093C28.6661 18.7192 28.4752 19.0792 28.4752 19.0792C28.4752 19.0792 28.2568 18.6707 28.1435 18.3187C28.0635 18.3589 27.6339 18.5976 27.6339 18.5976L26.6387 15.1309L26.6587 14.9003C26.6587 14.9003 26.7477 14.7912 26.768 14.5888C26.6184 14.5403 26.5981 14.4997 26.3997 14.3099C26.2013 14.12 26.0397 13.8891 25.7083 13.7312C25.6597 13.6421 25.5989 13.5211 25.3563 13.4723C25.1136 13.4235 24.968 13.3835 24.968 13.3835C24.968 13.3835 25.0973 13.3347 25.1581 13.2336C25.0083 13.2539 24.8872 13.3024 24.5595 13.2944C24.2277 13.2861 24.1912 13.2741 24.0093 13.3024C23.8275 13.3307 23.6093 13.4117 23.528 13.1325C23.4389 13.0637 23.2488 13.1245 23.0869 13.3629C22.9251 13.6013 22.8685 13.7917 22.5571 13.8848C22.5352 14.0221 22.4871 14.1539 22.4155 14.2731C22.3264 14.4229 22.1848 14.5725 21.9947 14.7949C21.6952 15.1469 21.7437 15.7253 21.2664 16.1664C20.7851 16.6072 21.3464 14.9445 21.3464 14.9445L22.1149 13.1045L24.3035 10.9645L27.7016 10.7341L28.0333 12.4941L29.692 13.0645L30.7397 14.6624L30.7403 14.6603Z" fill="#AFAFAF"/>
<path fill-rule="evenodd" clip-rule="evenodd" d="M31.2784 15.0485L29.8504 12.9895L28.8512 12.2207C28.8512 12.2207 28.1392 10.9103 28.0907 10.8698C28.0501 10.8415 27.3787 10.7687 26.9499 10.7405L27.0299 10.9386C27.1235 10.969 27.2066 11.0251 27.2699 11.1005C27.46 11.3189 27.5813 11.7314 27.1486 12.1725C27.3184 12.233 27.3885 12.2525 27.5368 12.233C27.3872 12.4111 27.0475 12.7914 27.0272 13.1231C27.007 13.3941 27.1768 13.4749 27.1768 13.4749C27.1768 13.4749 26.9179 13.7743 26.9059 14.2749C27.0282 14.137 27.162 14.0098 27.3059 13.8946C27.6053 13.6546 28.0179 13.3847 28.2971 13.2149C28.2933 13.2862 28.3029 13.3575 28.3253 13.4253C28.3253 13.4253 28.8469 12.9965 29.2853 13.1866C29.4835 13.2757 29.3944 13.5549 29.3944 13.5549C29.3944 13.5549 29.6656 13.4538 29.8557 13.6439C30.0459 13.8341 30.3168 14.3234 30.4544 14.5138C30.5149 14.6029 30.6728 14.7727 30.8344 15.0354C31.0552 15.4036 31.2396 15.7925 31.3848 16.1965C31.3928 16.0346 31.4253 15.8082 31.7048 15.8082L31.28 15.0477L31.2784 15.0485Z" fill="#A3A3A3"/>
<path fill-rule="evenodd" clip-rule="evenodd" d="M9.87072 20.8981C9.87072 20.8981 9.76966 20.6471 9.87072 20.1578C9.97179 19.6685 10.1297 19.4378 10.1822 18.7178C10.2347 17.9978 10.7041 17.0997 10.7041 17.0997L12.0025 16.5093L12.9209 16.7599L13.1918 17.9898L12.0307 18.6298C12.0307 18.6298 11.9702 18.9007 11.6425 19.1191C11.3147 19.3375 10.8617 19.5074 10.7526 19.7301C10.6874 19.8664 10.6398 20.0105 10.611 20.1589C10.611 20.1589 10.2793 20.0901 10.0811 20.3085C9.87072 20.5311 9.87872 20.7293 9.87072 20.8991V20.8981Z" fill="#EDEDED"/>
<path fill-rule="evenodd" clip-rule="evenodd" d="M12.492 20.5703C12.492 20.5703 12.3827 20.6391 12.3019 20.8103C12.2219 20.681 12.0307 19.9122 12.0227 19.2205C12.0147 18.5287 11.9733 18.3573 12.1333 18.1189C12.2933 17.8805 12.9208 17.6293 12.8317 17.1999C12.7427 16.7914 12.3704 16.6215 11.9133 16.7389C11.5933 16.8189 11.3552 17.4994 11.0235 17.8391C10.7725 18.0981 10.4733 18.0575 10.3925 18.1991C10.2832 18.3893 10.3843 18.5794 10.352 18.7007C10.3437 18.7413 10.2427 18.9597 10.0605 19.2226C9.69252 19.7525 9.06959 20.501 8.98853 21.1725C9.01679 20.7922 8.99679 20.7842 9.09786 20.3634L9.03706 20.2623L9.43706 18.9517L9.69598 17.8717L10.2747 16.0631L11.2939 14.2146L12.2851 13.1061L13.3165 13.1749L13.4379 14.7242L14.0285 17.633L15.2704 19.1621L13.28 20.5015L12.4912 20.5703H12.492Z" fill="#CCCCCC"/>
<path fill-rule="evenodd" clip-rule="evenodd" d="M13.1109 21.12C13.1109 21.12 12.9411 21.1605 12.8803 21.1282C12.8195 21.096 12.7592 21.0594 12.7792 21.0189C12.7992 20.9784 12.9085 20.9098 12.9085 20.8773C12.9108 20.8479 12.9015 20.8188 12.8826 20.7961C12.8638 20.7735 12.8368 20.7591 12.8075 20.756C12.7144 20.744 12.6861 20.8045 12.6861 20.8045C12.6861 20.8045 12.5971 20.736 12.5245 20.7245C12.5675 20.7192 12.6106 20.7165 12.6539 20.7162C12.5421 20.6656 12.4235 20.6315 12.3019 20.6152C12.4029 20.5546 12.6013 20.3765 12.7307 20.3765C12.86 20.3765 12.9411 20.3565 12.9208 20.2877C12.9005 20.2189 12.7995 20.1178 12.6904 20.0773C12.7307 20.0288 12.7592 19.956 12.6621 19.7573C12.5608 19.5592 12.6013 19.4256 12.6339 19.3773C12.6621 19.3165 12.7632 19.2074 12.8117 19.1386C12.8603 19.0698 12.9008 18.9768 12.9816 18.9282C13.0221 18.9 13.1515 18.8482 13.2811 18.7989C13.4227 18.7504 13.54 18.6896 13.6208 18.7504C13.7099 18.8109 13.6693 18.892 13.6693 18.892C13.6693 18.892 13.9485 18.7906 14.1992 18.9202C14.4501 19.0413 15.0611 19.1184 15.0611 19.1184L15.28 19.5594L13.8317 20.8013L13.2331 21.1008L13.1117 21.1208L13.1109 21.12Z" fill="#C6C6C6"/>
<path fill-rule="evenodd" clip-rule="evenodd" d="M15.1213 19.0899C15.1213 19.0899 14.6723 19.3894 14.5712 19.4985C14.6317 19.5067 14.7328 19.5473 14.6923 19.6078C14.6437 19.6683 14.3525 19.8787 14.1907 20.0771C14.0208 20.2753 13.8589 20.5262 13.8024 20.6475C13.7419 20.7566 13.2805 21.0763 13.1229 21.1166C13.4547 21.1166 14.1221 20.7081 14.3728 20.7081C14.3648 20.8294 14.4416 20.967 14.5832 20.979C14.7248 20.991 15.1333 21.0681 15.6835 20.7283C16.2336 20.3966 16.0517 20.1497 16.2821 19.9881C16.7232 19.6966 16.9011 19.4377 17.1437 19.2761C17.3864 19.1145 17.512 19.0777 17.512 19.0777C17.512 19.0777 17.52 18.9563 17.592 18.9686C17.6117 18.9709 17.6304 18.9785 17.6461 18.9906C17.6618 19.0027 17.6739 19.0189 17.6811 19.0374C17.6811 19.0374 18.1019 18.7379 18.6411 18.6571C18.6285 18.6515 18.6184 18.6414 18.6128 18.6289C18.6128 18.6289 18.6531 18.6086 18.6613 18.5883C18.6613 18.5883 18.6896 18.5478 18.7099 18.5681C18.7301 18.5883 18.7584 18.7379 18.7989 18.7987C18.888 18.7582 19.0579 18.3779 19.0579 18.3779L19.4667 17.2089V16.1409L19.1467 16.2017L16.7467 17.2209L15.2901 18.7299L15.1203 19.0899H15.1213Z" fill="#BFBFBF"/>
<path fill-rule="evenodd" clip-rule="evenodd" d="M22.0307 13.8512C22.1605 13.8197 22.2849 13.7692 22.4 13.7013C22.3515 13.8309 22.3515 13.9725 22.1411 14.28C21.9307 14.5874 21.9227 14.632 21.7528 14.9514C21.5829 15.2832 21.5627 15.7605 21.4008 15.9706C21.4734 15.9354 21.5512 15.9122 21.6312 15.9021C21.6312 15.9021 21.4696 16.0437 21.4008 16.1933C21.332 16.3429 21.2107 16.6544 20.9115 16.8448C20.6123 17.0352 20.2317 17.1562 19.8232 17.6053C19.4144 18.0461 18.9939 18.6045 18.7832 18.8053C18.8925 18.6152 19.0421 18.2349 19.0827 17.9842C19.1232 17.7336 19.0744 17.4338 19.1432 17.1024C19.212 16.7709 19.212 16.532 19.5432 15.9533C19.8744 15.3746 20.4413 13.3642 20.4413 13.3642L21.6629 12.976L22.0312 13.8498L22.0307 13.8512Z" fill="#949494"/>
<path fill-rule="evenodd" clip-rule="evenodd" d="M21.1489 13.111C21.1489 13.111 20.7809 13.6408 20.6798 14.1102C20.5787 14.5795 20.6715 14.539 20.611 14.7696C20.5748 14.9103 20.5748 15.0578 20.611 15.1984C20.7385 14.9931 20.913 14.8211 21.1201 14.6966C21.4681 14.4864 21.7513 14.3366 21.9201 14.1587C22.0899 13.9686 22.2315 13.6571 22.5995 13.4184C22.4499 13.3982 22.2395 13.3294 22.1995 13.3384C22.3494 13.1686 22.7982 12.9096 23.2513 12.5982C23.7003 12.2782 23.6721 12.1491 24.4003 11.8296C24.1617 11.8702 24.0483 11.8094 23.8499 11.8296C23.9299 11.6598 24.2099 11.5787 24.4899 11.2998C24.7699 11.0208 24.3121 10.608 24.3121 10.608L22.1788 11.8984L21.1473 13.112L21.1489 13.111Z" fill="#9B9B9B"/>
<path fill-rule="evenodd" clip-rule="evenodd" d="M15.36 12.148L15.4085 11.7597L16.0195 10.7808L16.6587 9.06158V6.71118L16.6101 5.35198L16.7112 4.46185L16.788 4.17891L16.8691 4.06958L17.3907 4.34051L18.1109 5.31945L18.1797 7.20878L17.4797 10.1901L15.4813 12.3706L15.36 12.148Z" fill="#C0C0C0"/>
<path fill-rule="evenodd" clip-rule="evenodd" d="M16.9499 3.96022C16.9499 3.96022 16.6299 3.96849 16.5616 5.29942C16.4933 6.63036 16.4603 7.33009 16.4117 7.98956C16.3632 8.64902 16.2501 9.04929 16.1933 9.43782C16.1365 9.82636 16.1043 10.356 15.9224 10.6797C15.8424 10.8293 15.6715 11.2986 15.2709 11.6506C14.8219 12.0389 14.1509 12.3101 14.0493 12.3304C13.8712 12.3706 12.9691 12.4597 12.6011 12.6621C12.4717 12.7309 12.2491 12.8117 12.0024 13.0424C11.5128 13.4832 10.8616 14.272 10.3923 15.2226C9.67227 16.6426 8.95227 20.6514 8.95227 20.6514L9.11414 20.3805C9.11414 20.3805 9.1344 20.0205 9.4944 19.3893C9.8464 18.7584 9.74534 18.0504 10.2347 16.8408C10.4248 16.3797 10.6635 15.781 10.9547 15.2712C11.416 14.4418 11.9741 13.7298 12.5365 13.3416C13.4547 12.7106 14.4661 12.573 14.4661 12.573L15.5544 11.853C15.5544 11.853 15.7445 11.485 15.9955 11.0642C16.3472 10.4738 16.7955 9.81436 16.8933 8.85569C17.0432 7.43569 16.6829 6.50529 16.7032 5.66396C16.7235 4.82262 16.7315 4.20369 16.9016 4.05382C17.0717 3.90396 16.9501 3.96076 16.9501 3.96076L16.9499 3.96022Z" fill="#8E8E8E"/>
<path fill-rule="evenodd" clip-rule="evenodd" d="M16.9499 10.3114C16.9499 10.3114 17.4299 9.13011 17.6496 8.08238C17.6901 7.87198 17.7709 7.66185 17.7912 7.49198C17.8923 6.50078 17.9205 6.09225 17.7912 5.55011C17.6901 5.15011 17.3019 4.78958 17.0995 4.51011C16.9013 4.21865 16.8083 4.11011 16.8488 4.04878C16.8893 3.98745 17.0469 3.88718 17.2005 3.89918C17.3638 3.90393 17.5244 3.94184 17.6726 4.01061C17.8207 4.07937 17.9534 4.17755 18.0624 4.29918C18.3739 4.65918 18.6205 5.88105 18.6205 5.88105L18.88 7.49331L19.5395 9.52398L16.9504 10.313L16.9499 10.3114Z" fill="#A0A0A0"/>
<path fill-rule="evenodd" clip-rule="evenodd" d="M21.4603 9.08181C21.4603 9.08181 21.3713 9.12208 21.2097 9.08181C21.2165 9.14785 21.2051 9.21451 21.1765 9.27445C21.148 9.3344 21.1034 9.38529 21.0478 9.42154C20.8779 9.35274 19.2878 9.49035 19.2878 9.49035C19.2878 9.49035 18.5475 9.36074 18.3169 8.38181C18.1553 7.73034 18.4382 6.83248 18.3451 6.24181C18.2035 5.37194 18.0054 5.20181 17.9851 4.93114C17.9649 4.66048 17.9446 4.59141 17.9446 4.42154C17.8555 4.40128 17.803 4.37301 17.7142 4.37301C17.6939 4.29301 17.7342 4.22314 17.6454 4.08154C17.6939 4.10181 18.0257 4.14234 18.4139 4.51034C18.7339 4.80981 18.7339 4.91888 18.7822 4.97968C18.8427 5.04021 19.3323 5.45968 19.5427 5.87781C19.7531 6.29594 20.1617 7.62928 20.2547 7.84768C20.283 7.93674 20.3438 8.02581 20.4947 8.22794C20.7294 8.51941 21.0731 9.00128 21.4614 9.08128L21.4603 9.08181Z" fill="#8A8A8A"/>
<path fill-rule="evenodd" clip-rule="evenodd" d="M18.8392 5C19.0843 5.39587 19.3045 5.80662 19.4984 6.22987C19.7371 6.76773 19.8787 7.2088 20.1782 7.5688C20.0163 7.09973 19.7291 6.17733 19.5592 5.8496C19.3691 5.50293 18.9808 5.1296 18.8392 5.00027V5Z" fill="#8E8E8E"/>
<path fill-rule="evenodd" clip-rule="evenodd" d="M16.0882 11.6507C16.0882 11.6507 15.6797 11.7517 14.9192 12.1523C14.6682 12.2816 14.4298 12.3907 14.1992 12.492C13.6 12.7629 12.9573 13.0133 12.4474 13.1515C12.488 13.2 12.508 13.22 12.508 13.22C12.508 13.22 12.508 13.4184 12.6173 13.5315C12.5568 13.5923 11.7474 14.1424 11.9864 15.9829C12.148 15.9224 12.3381 15.8413 12.3664 15.8413C12.4152 15.8496 12.4272 15.9829 12.4877 15.9829C12.5482 15.9829 12.7466 15.9029 12.957 15.6309C12.949 15.7403 12.8277 16.8405 13.4789 17.5808C13.6002 17.4392 13.9077 16.9699 13.9077 16.9699L13.9157 16.8203C13.9157 16.8203 13.944 16.2984 14.1141 15.8211C14.2842 15.3437 14.6157 14.9917 14.6157 14.9917L16.3466 12.52L16.0877 11.6504L16.0882 11.6507Z" fill="#C4C4C4"/>
<path fill-rule="evenodd" clip-rule="evenodd" d="M14.4701 15.28C14.3908 15.336 14.3035 15.3797 14.2112 15.4094C14.1829 15.3083 14.1424 14.9603 14.381 14.6206C14.6602 14.2118 15.2709 13.6819 15.4408 13.2606C15.5501 12.9894 15.5016 12.3099 16.4725 11.44C17.4434 10.5702 17.8234 10.271 17.8234 10.271L19.393 9.48218L21.3226 10.2427L20.364 14L19.6197 15.76L16.6597 15.2019L14.4698 15.28H14.4701Z" fill="#BABABA"/>
<path fill-rule="evenodd" clip-rule="evenodd" d="M15.6 14.2597L15.9682 13.7987V13.4709C15.9682 13.4709 16.3768 13.3616 16.8176 12.9125C17.2584 12.4635 17.8693 11.6019 18.4074 11.6544C18.9456 11.7152 18.9981 12.8235 19.0184 13.1352C19.0386 13.4469 19.1074 14.1544 19.2165 14.5349C19.3378 14.9152 17.9058 16.3552 17.9058 16.3552L16.9333 17.0955L15.6 14.2597Z" fill="#CDCDCD"/>
<path fill-rule="evenodd" clip-rule="evenodd" d="M16.7395 18.0986C16.7395 18.0986 17.039 17.6293 16.8195 17.5282C16.9488 17.237 17.1875 16.9296 17.1875 16.9296C17.1875 16.9296 17.3574 16.509 17.9075 15.9912C18.4576 15.4733 18.7976 15.1293 18.8867 14.7816C18.9416 14.555 18.9715 14.323 18.9758 14.0898C19.0352 14.1384 19.0989 14.1817 19.1659 14.2192C19.255 14.2597 19.6755 14.6074 19.615 15.3074C19.5544 16.0074 19.295 16.2986 19.295 16.2986C19.295 16.2986 19.0443 16.5493 18.8664 16.6789C18.676 16.8082 18.6075 16.9578 18.2878 16.9701C18.3206 16.944 18.3576 16.9234 18.3971 16.9093C18.3971 16.9093 18.0654 16.869 17.8872 17.0306C17.7091 17.1922 17.3304 17.6901 17.1403 17.84C16.9502 17.9613 16.7403 18.0989 16.7403 18.0989L16.7395 18.0986Z" fill="#AEAEAE"/>
<path fill-rule="evenodd" clip-rule="evenodd" d="M30.1902 10.2304C29.7122 10.0563 29.21 9.958 28.7016 9.93924C27.852 9.91097 26.6102 9.9595 25.3926 9.9675C24.0819 9.9755 22.8926 9.51844 21.2422 9.43764C20.9712 9.27577 20.2822 8.56777 18.1312 10.0686C18.2606 10.0606 19.6928 9.73684 20.1902 10.36C20.6918 10.979 20.5502 12.0307 20.4816 12.2814C20.352 12.8398 19.9312 13.6528 19.7616 14.2232C19.592 14.7936 19.632 15.0934 19.5107 15.4934C19.3894 15.8934 19.1224 16.092 19.28 16.5531C19.4904 16.4238 19.6 16.4238 19.9515 15.635C20.303 14.8462 20.2307 14.2838 20.8134 13.6163C21.3838 12.9448 22.3334 12.0264 22.6944 11.7958C23.0555 11.5651 25.9224 10.0766 28.9243 11.4966C29.6483 11.4198 30.1904 10.2302 30.1904 10.2302L30.1902 10.2304Z" fill="#A9A9A9"/>
<path fill-rule="evenodd" clip-rule="evenodd" d="M19.3405 9.68005C19.3375 9.64965 19.3308 9.61973 19.3205 9.59098C19.2924 9.53182 19.2556 9.47725 19.2112 9.42911C19.2112 9.42911 18.4992 9.29978 18.1392 9.34005C17.508 9.40885 16.9376 10.1896 16.6706 10.5902C16.4037 10.9907 16.0719 11.6094 15.7119 11.9291C15.7159 11.898 15.7087 11.8664 15.6917 11.84C15.6917 11.84 15.7119 11.8683 15.6717 11.9088C15.6314 11.9494 15.6311 11.9694 15.6514 11.9888L15.7122 12.0494C15.7322 12.0494 16.2906 11.7984 17.0511 11.0894C17.8602 10.3491 18.4792 9.96938 18.8029 9.83925C18.9755 9.76588 19.156 9.71247 19.3408 9.68005H19.3405Z" fill="#989898"/>
<path fill-rule="evenodd" clip-rule="evenodd" d="M33.1514 6.63843C33.1514 6.63843 33.0218 6.80003 32.8599 6.97816C32.4999 7.35843 32.0306 7.78696 31.6301 8.22803C31.2501 8.64883 30.8213 8.97656 30.3397 9.5267C29.8581 10.0768 29.2997 10.6875 29.1583 10.8656C29.029 11.0438 28.9279 11.335 28.9279 11.4846C28.8591 11.436 28.7783 11.3835 28.7783 11.3835C28.8123 11.447 28.853 11.5067 28.8997 11.5616C29.0007 11.7032 29.1583 11.8816 29.2394 11.9904C29.3388 12.1289 29.4102 12.2856 29.4495 12.4515C29.4981 12.4595 29.8095 12.5203 30.1981 11.8811C30.5866 11.2419 31.0959 10.5422 31.0959 10.5422L31.905 9.34056L32.4149 8.32136L33.0549 7.18056L33.1522 6.63843H33.1514Z" fill="#848484"/>
<path fill-rule="evenodd" clip-rule="evenodd" d="M33.9807 5.82129C33.9807 5.82129 33.4911 6.22129 33.301 6.46129C33.1109 6.70129 32.661 7.33116 32.661 7.33116L32.8229 7.31089L33.6442 6.58289L33.9642 6.01249L33.9805 5.82236L33.9807 5.82129Z" fill="#8E8E8E"/>
<path fill-rule="evenodd" clip-rule="evenodd" d="M33.831 37.9694C33.831 37.9694 33.823 37.6377 34.0091 37.4395C34.1993 37.2411 34.6806 36.9499 35.1499 35.8577C35.6193 34.7654 35.6715 34.5187 35.6715 34.5187C35.6715 34.5187 34.8302 35.2387 34.3115 35.4086C34.4329 35.1577 34.5017 34.9798 34.5625 34.8502C34.4937 34.7897 34.2025 34.7209 34.1742 34.6886C34.3358 34.5267 34.4249 34.1302 34.7526 33.8673C35.1734 33.5473 35.9419 32.9974 36.5393 32.5073C37.1366 32.0171 38.311 30.8771 38.4609 30.5454C38.5499 30.6747 38.5699 30.7555 38.5699 30.7555C38.5699 30.7555 37.9795 31.5243 37.6721 32.0137C37.4009 32.4345 37.4211 32.6731 37.4211 32.6731L37.9795 32.4331C37.9795 32.4331 38.1411 33.0318 37.4091 33.9422C37.7291 33.8209 37.8582 33.8937 38.0401 33.7923C37.7406 33.9827 37.3281 34.2417 36.9398 34.9534C36.5595 35.6654 36.0417 36.4947 35.1681 37.0123C34.3185 37.5585 33.8289 37.967 33.8289 37.967L33.831 37.9694Z" fill="#7E7E7E"/>
<path fill-rule="evenodd" clip-rule="evenodd" d="M31.6384 10.6515C31.6384 10.6515 31.3067 11.343 31.2582 11.8811C31.2502 12.0107 31.2176 12.1118 31.2176 12.2614C31.2096 12.7427 31.2459 13.2808 31.1376 13.5315C31.0971 13.4304 31.0768 13.3616 31.0363 13.3214C30.9758 13.4912 30.8664 14.0211 30.7774 14.2192C30.7371 14.0899 30.648 13.6408 30.6563 13.111C30.6646 12.5811 30.6763 12.4798 30.6763 12.3707C30.6563 12.5323 30.547 12.751 30.5064 12.8803C30.4459 12.7712 30.3771 12.6296 30.296 12.5123C30.2475 12.5923 30.187 12.7104 30.1344 12.7712C30.1262 12.7227 30.1062 12.5931 30.0939 12.4112C30.0859 12.2008 30.0736 11.9299 30.0859 11.8731C30.1059 11.764 30.276 11.3352 30.636 10.9427C31.0648 10.4734 31.5059 9.57149 31.6352 9.29229C31.7646 9.01309 32.3147 7.85229 32.3147 7.85229H32.7355L32.1246 9.24376C32.1246 9.24376 31.7566 10.0043 31.5664 10.2838C31.3763 10.5632 30.9758 11.364 30.7976 11.6755C30.927 11.5056 31.0363 11.4166 31.1659 11.2547C31.2912 11.1414 31.639 10.652 31.639 10.652L31.6384 10.6515Z" fill="#676767"/>
<path fill-rule="evenodd" clip-rule="evenodd" d="M33.9887 5.76855C33.92 5.98011 33.8113 6.17654 33.6687 6.34722C33.4178 6.64669 32.8796 7.04696 32.617 7.36642C32.377 7.67789 31.897 8.52749 32.1151 9.53469C32.1951 9.31629 32.3458 8.8835 32.7463 8.3939C33.1468 7.9043 33.5756 7.34216 33.7863 6.90536C33.9964 6.46429 34.0247 6.11655 34.0247 6.11655L34.1047 6.01549L34.0562 5.78482L33.9874 5.76855H33.9887Z" fill="#AAAAAA"/>
<path fill-rule="evenodd" clip-rule="evenodd" d="M42.1805 32.6011C42.1805 32.6011 42.0186 32.1603 41.9701 31.7598C41.9216 31.3592 42.0501 31.2798 41.9013 30.8214C41.8122 30.5422 41.6506 30.5814 41.6101 30.5422C41.5696 30.503 41.5413 30.0811 41.5493 29.8504C41.5573 29.6198 41.5413 29.3206 41.5008 29.191C41.4402 29.1424 41.3997 29.1019 41.3106 28.8027C41.2096 28.5032 41.161 28.3536 41.1125 28.2648C41.064 28.176 40.9221 28.095 40.9221 28.0059C40.9221 27.8278 41.084 27.735 41.084 27.6859C41.076 27.5848 40.9546 27.6659 40.9221 27.6374C40.8818 27.5888 41.0234 27.2976 40.9709 27.2571C40.9506 27.2371 40.809 27.407 40.7725 27.3584C40.732 27.3096 40.6834 26.8283 40.6106 26.5088C40.5421 26.1974 40.469 25.971 40.461 25.8779C40.453 25.7888 39.9026 24.2192 39.7693 23.839C39.6618 23.5176 39.5714 23.1909 39.4984 22.86C39.4578 22.6699 39.4296 22.2814 39.4093 22.3219C39.389 22.3624 39.4013 22.5606 39.3688 22.5526C39.3405 22.5443 39.2394 21.8528 39.2072 21.7435C39.1789 21.6342 39.0088 21.2635 38.9672 20.9952C38.9266 20.724 38.8378 20.016 38.777 19.5347C38.7162 19.0534 38.688 18.8552 38.688 18.7347C38.6979 18.4399 38.6817 18.1448 38.6394 17.8528C38.5594 17.343 38.3994 16.724 38.2592 16.3643C37.9882 15.6846 37.268 13.9451 37.1392 13.5123C37.1392 13.403 37.2808 13.4638 37.2808 13.4638C37.2808 13.4638 37.6325 14.3456 37.8914 15.0251C38.1424 15.7048 38.381 16.3035 38.4418 16.3643C38.4904 16.4248 38.8706 17.0923 39.0405 18.1846C39.2104 19.2768 39.2709 20.284 39.3722 20.9555C39.4208 21.2755 39.4613 21.615 39.5624 21.9547C39.6714 22.323 39.8413 22.7032 40.064 23.2856C40.2541 23.7752 40.3957 24.1838 40.4725 24.5358C40.5616 24.9848 40.5616 25.3246 40.6141 25.5472C40.6629 25.7374 40.7354 26.1174 40.9056 26.6672C41.0757 27.2171 41.3261 27.9254 41.496 28.3662C41.828 29.248 41.976 29.9843 42.0261 30.3768C42.0704 30.7814 42.2202 32.1811 42.1797 32.6016L42.1805 32.6011Z" fill="#8E8E8E"/>
<path fill-rule="evenodd" clip-rule="evenodd" d="M34.0092 5.71993L33.9889 5.76847C33.9889 5.76847 34.0494 5.78873 34.0374 5.8698C34.0383 5.98071 34.0315 6.09155 34.0172 6.20153C33.9972 6.34313 33.9566 6.4522 33.9486 6.54126C33.9486 6.7314 33.9769 6.9498 33.7086 7.49193C33.6286 7.64153 33.5793 7.77086 33.5388 7.85993C33.4377 8.07833 33.4174 8.11087 33.3284 8.21193C33.47 8.13193 33.9798 7.81193 34.2385 7.85993C34.0606 7.961 33.7894 8.1594 33.6196 8.41833C33.6601 8.42633 33.83 8.45886 34.0996 8.41833C34.5486 8.34953 35.0502 8.18766 35.491 8.21993C35.9726 8.2482 35.7825 7.64153 35.7825 7.64153L35.2268 6.41993L34.175 5.67993L34.0092 5.7202V5.71993Z" fill="#9D9D9D"/>
<path fill-rule="evenodd" clip-rule="evenodd" d="M36.7517 14.8707C36.7517 14.8707 36.2824 14.4013 36.0923 12.7907C35.9021 11.1725 35.9427 8.79066 35.9427 8.79066L35.5624 7.86026C35.5624 7.86026 35.4824 7.24133 35.2832 7.01093C35.084 6.78053 34.6928 6.392 34.5147 6.20186C34.3365 6.01173 34.1344 5.7528 34.0131 5.71226C34.0736 5.6112 34.3448 5.0408 35.3843 5.0328C36.4237 5.0248 36.7443 5.6032 36.8528 5.8136C36.9613 6.024 37.4515 6.9336 37.6333 8.66693C37.8032 10.3981 37.8115 10.5277 37.7832 11.1264C37.7629 11.4581 37.6536 12.2267 37.4632 13.0477C37.2893 13.7437 37.0992 14.5205 36.7512 14.8723L36.7517 14.8707Z" fill="#7F7F7F"/>
<path fill-rule="evenodd" clip-rule="evenodd" d="M35.2799 16.2502C35.4363 16.2615 35.5926 16.2262 35.729 16.1489C35.8786 16.1409 36.4207 16.2097 36.8373 15.6798C36.8655 15.8009 36.9386 16.1289 36.7482 16.4201C36.8495 16.3187 36.9991 16.2785 37.0194 16.2502C37.0274 16.3998 37.169 16.8609 36.5703 17.9814C36.7319 17.8035 36.9221 17.8115 37.0919 17.7913C37.1002 18.0017 37.2133 18.7094 36.9141 19.0899C36.7159 19.3489 36.3922 19.2678 36.3922 19.2678C36.3969 19.2113 36.3969 19.1545 36.3922 19.0979C36.3842 18.9886 36.3437 18.8795 36.3722 18.8067C36.2158 18.7353 36.0733 18.6366 35.9514 18.5153C35.5994 18.1835 35.1423 17.6174 35.1101 17.1966C35.0695 16.7273 35.4903 16.6262 35.4903 16.6262C35.4551 16.5947 35.425 16.5578 35.4013 16.5169C35.381 16.4483 35.3607 16.339 35.2799 16.2502Z" fill="#676767"/>
<path fill-rule="evenodd" clip-rule="evenodd" d="M32.16 11.1611C32.16 11.1611 32.1397 11.1328 32.0306 11.2622C32.0509 11.1328 32.0712 11.0112 32.0792 10.8939C32.1308 10.7853 32.1976 10.6845 32.2776 10.5947C32.2168 10.7158 32.1762 10.8251 32.1762 10.8251C32.1762 10.8251 32.3261 10.5459 32.5445 10.376C32.6941 10.2547 32.8842 10.1982 32.965 10.0848C33.0541 9.96349 33.0338 9.94323 33.0541 9.92297C33.0541 9.92297 33.2525 9.79362 33.556 9.41309C33.5962 9.36456 33.657 9.31202 33.6976 9.26349C33.7661 9.23522 33.928 9.16242 34.1181 9.06509C34.3165 8.95602 34.5389 8.80642 34.6765 8.74509C34.9474 8.62376 35.2349 8.63602 35.3682 8.44562C35.4693 8.41736 35.5784 8.11389 35.5584 7.85522C35.708 7.91576 36.4765 8.39309 36.7397 9.43682C36.9298 10.1771 36.5898 11.3179 36.4482 11.8683C36.3066 12.4187 36.2866 12.827 36.0882 13.0776C35.8373 13.4096 35.0285 13.8776 34.8301 14.1094C34.6602 14.2995 34.1506 14.7808 34.1706 15.1286C34.1909 15.3875 34.5104 15.5286 34.5794 15.5776C34.6485 15.6267 34.648 15.687 34.7776 15.6576C34.9072 15.6283 34.9554 15.5686 35.0082 15.5686C35.0688 15.5766 35.0688 15.5888 35.097 15.5888C35.1175 15.5882 35.1379 15.5854 35.1578 15.5806C35.1578 15.5806 35.1376 15.9488 34.276 16.0606C34.2152 16.0688 34.1546 16.0888 34.0776 16.1011C34.1789 16.0526 34.2394 16.0526 34.3488 15.903C34.2274 15.8827 33.8794 15.8624 33.7904 15.8342C33.8186 15.7856 33.9117 15.656 33.9885 15.5955C34.0573 15.535 33.9805 15.5155 33.92 15.547C33.8157 15.6179 33.7158 15.6948 33.6205 15.7774C33.5194 15.8664 33.4304 15.9878 33.2685 16.0974C33.22 15.9355 33.228 15.628 33.4184 15.4056C33.3696 15.4136 33.2765 15.5552 33.1877 15.527C33.1716 15.3794 33.1812 15.2302 33.216 15.0859C33.2645 14.9038 33.5274 14.5843 33.5274 14.5843L34.7976 12.3147L35.0685 10.5955L32.16 11.1606V11.1611Z" fill="#757575"/>
<path fill-rule="evenodd" clip-rule="evenodd" d="M32.0916 11.2582C32.0916 11.2582 32.0228 11.3067 32.1604 11.3998C32.1401 11.428 32.0916 11.5291 32.0308 11.5979C31.9623 11.6779 31.8892 11.7275 31.8609 11.7963C31.8004 11.9379 31.7519 12.035 31.7519 12.0958C31.7519 12.1566 31.7316 12.5448 31.5617 12.7955C31.5009 12.8846 31.4321 13.0342 31.3836 13.1352C31.2825 13.3131 31.1935 13.4552 31.1732 13.5352C31.1329 13.6768 31.1047 14.0651 31.1047 14.0651C31.1047 14.0651 31.1937 13.9558 31.226 13.9155C31.1772 14.0166 31.1247 14.1256 31.0479 14.2067C31.0964 14.1662 31.238 14.0651 31.4767 13.8547C31.8084 13.5758 32.3263 13.1064 32.9575 12.7347C32.7671 12.8035 32.6055 12.8035 32.4761 12.8238C32.5772 12.7227 33.4873 11.6547 33.9647 11.5536C33.9936 11.5169 34.0081 11.4707 34.0052 11.424L33.5964 11.3838L32.7671 11.5616L32.646 10.9216L32.0916 11.2574V11.2582Z" fill="#909090"/>
<path fill-rule="evenodd" clip-rule="evenodd" d="M33.4104 14.8988C33.4104 14.8988 33.301 15.0079 33.2 15.2791C33.1222 15.1979 33.0555 15.1067 33.0016 15.0079C32.852 14.7572 32.6216 14.4375 32.0834 14.6196C32.0754 14.4498 32.0632 14.3607 32.0834 14.2394C32.1725 14.2194 32.4434 14.001 32.7144 13.6812C32.9048 13.4628 33.0826 13.2119 33.204 12.8924C33.284 12.8316 33.4224 12.7306 33.604 12.6132C33.8629 12.4354 34.1744 12.1924 34.2229 11.9215C34.1016 11.97 33.8426 12.0914 33.4541 12.0714C33.604 12.0026 33.8344 11.9298 33.8061 11.6303C33.8669 11.5898 33.9154 11.5615 33.9154 11.5615C33.8698 11.5463 33.8219 11.5394 33.7738 11.5412C33.7656 11.513 33.7536 11.4727 33.6848 11.4927C33.616 11.5127 33.6048 11.513 33.5957 11.5412C33.5674 11.5495 33.4744 11.5412 33.4056 11.59C33.3368 11.6388 33.1466 11.8002 33.0738 11.8284C33.1021 11.7799 33.1424 11.7074 33.1424 11.7074C33.1424 11.7074 32.9442 11.7274 32.8026 11.7874C32.5437 11.8764 32.2445 12.0383 31.941 12.1959C31.9693 12.1474 31.9816 12.1159 32.0016 12.1068C32.0216 12.0978 32.0704 12.0868 32.0704 12.0786C32.0704 12.0703 32.0504 11.9986 32.0624 11.9695C32.1531 11.7773 32.2602 11.5933 32.3824 11.4194C32.524 11.229 32.5522 10.958 32.5522 10.958L33.1712 10.6466L34.9106 10.2466L36.0394 10.3154L35.8978 11.0962L35.2312 12.4594L34.6608 13.7012L34.0093 14.462L33.4106 14.8988H33.4104Z" fill="#414141"/>
<path fill-rule="evenodd" clip-rule="evenodd" d="M36.2299 11.5199C36.2299 11.5199 35.5501 12.3613 35.36 12.4909C35.4813 12.2319 36.2299 10.6906 36.5008 10.2618C36.4403 10.2133 36.3592 10.2133 36.5493 9.46179C36.3877 9.84179 36.3309 10.0402 36.1976 10.1413C36.0643 10.2423 36.0477 10.2101 35.9576 10.2101C35.9746 10.1793 35.9816 10.1439 35.9776 10.109C35.9776 10.109 35.4072 10.0402 35.0176 10.0402C34.628 10.0402 33.8568 10.2506 33.4277 10.4205C33.088 10.5621 32.8979 10.5621 32.7765 10.6509C32.6552 10.7519 32.5864 10.8613 32.5256 10.8895C32.4771 10.9178 32.2467 10.9906 32.1939 11.0674C32.1453 11.1474 32.0645 11.2373 32.0645 11.2575C32.0645 11.2778 32.0443 11.3063 32.1051 11.2858C32.1251 11.2778 32.2749 11.1967 32.4448 11.0957C32.6752 10.9663 32.9544 10.8167 33.1568 10.7277C33.7352 10.497 33.9173 10.5375 34.176 10.489C34.4469 10.4405 34.8355 10.3271 35.0941 10.3271C35.3531 10.3191 35.8427 10.3271 35.956 10.3474C35.9075 10.3879 35.8669 10.4365 35.8872 10.6063C35.8872 10.6549 35.8467 10.7074 35.8072 10.8247C35.6861 11.1565 35.4555 11.7066 35.3272 11.9858C35.1493 12.3658 34.9472 12.6855 34.8472 12.8837C34.7472 13.0818 34.5272 13.6037 34.3093 13.8829C34.0915 14.1621 33.9776 14.3319 33.9093 14.3927C33.8411 14.4535 33.3509 14.8133 33.3875 14.9429C33.4765 14.9146 34.0389 14.7029 34.4472 14.2431C34.8555 13.7834 34.9368 13.5029 35.2563 13.2519C35.5757 13.001 35.8267 12.5805 35.9763 12.2327C36.1016 11.909 36.0733 11.8079 36.2309 11.5207L36.2299 11.5199Z" fill="#636363"/>
<path fill-rule="evenodd" clip-rule="evenodd" d="M21.5819 17.7995C21.5819 17.7995 21.4928 18.1675 21.2904 18.3496C21.0923 18.5278 20.7403 18.6814 20.7 18.9808C20.6515 19.28 21.052 19.4299 21.052 19.4299C21.052 19.4299 20.8333 19.7899 20.8333 20.0608C20.8333 20.34 20.8253 20.3926 20.8536 20.6595C20.8215 20.6801 20.7942 20.7074 20.7736 20.7395C20.7736 20.7395 20.7936 20.9984 20.992 21.16C21.1904 21.3216 21.36 21.419 21.4611 21.3784C21.4765 21.4114 21.49 21.4453 21.5016 21.4798C21.5016 21.4798 21.6515 21.0995 21.7525 20.7678C21.8536 20.428 21.9427 20.4763 21.9829 20.0192C22.0232 19.5622 22.4629 18.7774 22.4629 18.7774L22.7629 18.1067L22.2736 17.7264L21.5819 17.7992V17.7995Z" fill="#929292"/>
<path fill-rule="evenodd" clip-rule="evenodd" d="M22.492 18.4586C22.3911 18.5622 22.298 18.6731 22.2134 18.7904C22.084 18.9685 21.983 19.1301 21.7928 19.1992C21.6027 19.2682 21.4814 19.2677 21.4934 19.4581C21.5054 19.6485 21.6835 19.729 21.7846 19.8261C21.8939 19.9272 21.983 20.097 21.9344 20.2874C21.995 20.2592 22.1043 20.2266 22.2054 20.0082C22.3064 19.7898 23.0134 18.4589 23.0134 18.4589H22.492V18.4586Z" fill="#525252"/>
<path fill-rule="evenodd" clip-rule="evenodd" d="M25.28 15.3883C25.28 15.3883 25.3405 15.2267 25.28 15.1093C25.2192 14.988 24.8512 14.9475 24.669 14.8099C24.4789 14.6683 24.2482 14.5699 24.0581 14.632C24.0864 14.5632 24.1997 14.4133 24.1066 14.3811C24.0176 14.3528 23.6861 14.5024 23.597 14.5712C23.508 14.64 23.3056 14.7208 23.2653 14.7696C23.225 14.8184 23.156 14.9112 23.1154 14.8707C23.0749 14.8424 23.0549 14.7696 22.9861 14.8099C22.9173 14.8501 22.5861 15.1213 22.525 15.2792C22.464 15.4371 22.3266 15.7891 21.9141 16.1893C21.5016 16.5896 21.3234 16.8488 21.4448 16.9984C21.5661 17.148 21.6229 17.0389 21.6432 17.1683C21.6588 17.2952 21.6519 17.424 21.6229 17.5485C21.5744 17.7589 21.4936 17.9571 21.6026 17.9976C21.8818 18.0867 22.153 17.9176 22.2136 17.9693C22.3349 18.0784 22.1448 18.4709 22.432 18.5477C22.7234 18.6277 23.0106 18.4789 23.0106 18.4789L24.0704 17.9085L25.0898 17.3707L25.6114 16.3389L25.3317 15.4773L25.2784 15.3883H25.28Z" fill="#B9B9B9"/>
<path fill-rule="evenodd" clip-rule="evenodd" d="M24.2799 17.852C24.2799 17.852 24.1018 17.5811 24.3205 17.3421C24.5391 17.1032 24.8503 17.0024 24.9717 16.8528C24.9486 16.8243 24.9176 16.8033 24.8826 16.7923C24.9632 16.6481 25.086 16.5323 25.2346 16.4603C25.1741 16.3997 25.093 16.3512 25.0042 16.3512C24.8058 16.3512 24.6842 16.4725 24.5023 16.4725C24.3245 16.4725 24.3042 16.3835 24.3042 16.3835C24.3042 16.3835 24.6037 16.3552 24.5751 16.2216C24.5469 16.08 24.4951 16.08 24.4951 16.08C24.4951 16.08 25.0735 15.84 25.1746 15.712C25.2757 15.584 25.2637 15.4328 25.284 15.3723C25.3525 15.3723 25.753 15.1619 25.9149 15.2509C26.0768 15.34 25.9634 15.5827 25.9634 15.5827C25.9634 15.5827 26.4533 15.2144 26.7029 14.8533C26.9213 14.8736 27.0229 14.7037 27.1829 14.7037C27.3813 14.7037 27.6928 14.9747 27.7533 15.5531C27.7938 15.8848 27.8544 16.0749 27.7938 16.6616C27.7656 16.9933 27.7736 17.7016 27.8738 18.0531C27.9424 18.3323 28.1042 18.304 28.1042 18.304C28.0794 18.3891 28.0302 18.465 27.9626 18.5224C27.8533 18.6235 27.8413 18.8907 27.8533 18.9917C27.8694 19.0656 27.8897 19.1385 27.9141 19.2101C27.9141 19.2101 27.7848 19.3597 27.7522 19.4611C27.724 19.5621 27.5906 19.6309 27.4933 19.6309C27.396 19.6309 27.4448 19.6227 27.3154 19.6309C27.1861 19.6392 27.1456 19.6592 27.0645 19.6309C26.9834 19.6027 26.9229 19.5701 26.9554 19.3109C26.9837 19.052 25.9562 18.4493 25.9562 18.4493L24.2762 17.8507L24.2799 17.852Z" fill="#A9A9A9"/>
<path fill-rule="evenodd" clip-rule="evenodd" d="M22.3505 20.4085C22.3505 20.4085 22.7185 20.8981 24.2315 20.8981C24.9515 20.8981 25.2025 20.8293 25.3515 20.7887C25.5134 20.7482 26.12 20.5098 26.731 19.7895C27.2811 19.1383 27.1598 18.8714 27.1598 18.8714L26.8398 18.8229L25.7998 18.9645L22.7225 20.2751L22.3491 20.4085H22.3505Z" fill="#515151"/>
<path fill-rule="evenodd" clip-rule="evenodd" d="M23.4789 20.5299C23.4789 20.5299 22.1682 20.8214 22.1682 19.992C22.1682 19.183 22.9773 18.3334 23.1797 18.1838C23.3901 18.0339 23.8917 17.8638 23.8917 17.8638H25.1013L25.3317 18.4747L25.2306 19.7934L23.4789 20.5296V20.5299Z" fill="#212121"/>
<path fill-rule="evenodd" clip-rule="evenodd" d="M24.6886 18.1109C24.6886 18.1109 24.4379 17.8803 23.8675 18.1909C23.2971 18.5016 22.8358 19.1509 22.8075 19.7405C22.7792 20.2621 23.2363 20.6507 23.9483 20.6709C24.4782 20.6909 24.7979 20.6304 24.9598 20.5909C24.9192 20.5424 24.7088 20.2795 24.7088 20.2795L24.6888 18.1112L24.6886 18.1109Z" fill="#B2B2B2"/>
<path fill-rule="evenodd" clip-rule="evenodd" d="M24.4419 18.2399C24.4419 18.2399 24.3813 18.1914 24.2019 18.2884C24.0523 18.3684 23.8339 18.5799 23.664 18.7295C23.5547 18.8186 23.4859 18.8588 23.424 18.9276C23.1731 19.2271 22.9627 19.7167 23.0843 19.9594C23.2059 20.202 23.6061 20.4812 24.6256 20.2911L24.4389 18.2402L24.4419 18.2399Z" fill="#D7D7D7"/>
<path fill-rule="evenodd" clip-rule="evenodd" d="M24.1101 18.7419C24.1101 18.7419 23.9483 18.9928 23.9483 19.3933C23.9483 19.8019 24.1789 20.4531 25.0285 20.5016C25.6797 20.5421 26.1165 19.5632 26.5899 19.1829C26.9499 18.8917 27.1683 18.8835 27.1683 18.8835C27.1683 18.8835 26.8003 18.4835 25.8173 17.9653C24.8464 17.4435 23.7581 17.3747 23.1675 18.1757C23.4467 18.1555 24.3488 17.9248 24.3488 17.9248L24.7899 18.0664L24.1101 18.7421V18.7419Z" fill="#212121"/>
<path fill-rule="evenodd" clip-rule="evenodd" d="M25.3803 19.2717C25.352 19.2112 25.3317 19.1301 25.4491 19.1101C25.5664 19.0901 25.6189 19.1019 25.6594 19.1901C25.7 19.2784 25.7394 19.352 25.6794 19.3885C25.6189 19.4208 25.4611 19.3885 25.38 19.2712L25.3803 19.2717ZM25.1901 18.7013C25.1901 18.7013 25.1496 18.7296 25.1699 18.6731C25.1779 18.6045 25.2307 18.4829 25.36 18.5115C25.4893 18.54 25.4613 18.6813 25.44 18.7219C25.4187 18.7624 25.3107 18.8309 25.2296 18.8019C25.2193 18.7992 25.2098 18.7942 25.2018 18.7872C25.1938 18.7802 25.1876 18.7715 25.1837 18.7616C25.1797 18.7518 25.1782 18.7411 25.1791 18.7306C25.18 18.72 25.1834 18.7098 25.1891 18.7008L25.1901 18.7013Z" fill="#676767"/>
<path fill-rule="evenodd" clip-rule="evenodd" d="M14.24 18.96C14.24 18.96 14.56 19.2 14.9317 19.1907C15.2997 19.1824 15.7731 18.8024 15.9915 18.5595C16.1208 18.4179 16.2315 18.2683 16.3515 18.1509C16.4528 18.0499 16.5213 18.0013 16.5699 17.9325C16.6387 17.8525 16.7115 17.7021 16.748 17.6533C16.6589 17.7221 16.5296 17.8437 16.396 17.9245C16.2667 18.0045 15.9875 18.1549 15.8741 18.1955C15.7651 18.236 14.6323 18.8355 14.6323 18.8355L14.24 18.96Z" fill="#929292"/>
<path fill-rule="evenodd" clip-rule="evenodd" d="M14.7291 15.971C14.7291 15.971 14.907 15.8496 15.251 15.7726C15.5827 15.6926 16.2502 15.631 16.2502 15.631L16.8003 15.871L17.0187 16.7003L16.6187 17.5622L16.1091 17.8822L15.5305 16.9518L14.7305 15.9726L14.7291 15.971Z" fill="#8E8E8E"/>
<path fill-rule="evenodd" clip-rule="evenodd" d="M14.0091 16.7112L13.8187 16.8533C13.8187 16.8533 13.8675 16.7643 13.9078 16.4933C13.9481 16.2224 14.1587 15.5629 14.4662 15.1827C14.7737 14.8024 14.7657 14.8227 14.7657 14.8227C14.7374 14.8175 14.7083 14.8184 14.6804 14.8253C14.6525 14.8323 14.6264 14.8451 14.6038 14.8629C14.6443 14.7733 14.9033 14.4533 15.1622 14.2933C15.4211 14.1333 15.5222 14.0829 15.7931 14.2133C16.0641 14.3437 16.1329 14.4115 16.3313 14.4035C16.5297 14.3955 16.6993 14.1851 16.6993 14.1851C16.6993 14.1851 16.7398 14.3144 16.5902 14.6139C16.4406 14.9133 15.8499 15.524 15.8499 15.524L14.6201 16.3653L14.0091 16.712V16.7112Z" fill="#CACACA"/>
<path fill-rule="evenodd" clip-rule="evenodd" d="M14.9189 15.8699C14.9189 15.8699 15.809 15.9912 16.08 15.7406C16.088 15.7688 16.1205 15.7688 16.1205 15.7891C16.1183 15.8044 16.1112 15.8185 16.1002 15.8294C16.1297 15.8247 16.1595 15.822 16.1893 15.8214C16.2249 15.832 16.2616 15.8388 16.2986 15.8416C16.3285 15.841 16.3583 15.8382 16.3877 15.8334C16.3849 15.8535 16.3781 15.8728 16.3676 15.8902C16.3572 15.9076 16.3433 15.9228 16.3269 15.9347C16.3674 15.9347 16.4069 15.9427 16.4069 15.975C16.4069 16.0072 16.4149 16.1046 16.3664 16.1248C16.3262 16.136 16.2834 16.133 16.245 16.1166C16.2483 16.1932 16.2691 16.268 16.3058 16.3352C16.3858 16.4848 16.5565 16.6552 16.7858 16.6062C16.7858 16.6062 16.9069 16.8974 16.3973 17.5446C16.3288 17.6336 16.2557 17.755 16.1669 17.856C16.1318 17.9325 16.105 18.0125 16.0869 18.0947C16.0869 18.0947 16.9488 17.763 17.1954 17.0064C17.4464 16.2459 17.4949 15.4976 17.4464 14.7979C17.4381 14.5995 17.4058 14.4582 17.3573 14.3568C17.236 14.1059 16.896 14.1464 16.7586 14.288C16.5602 14.4864 16.2285 14.9798 15.7674 15.3195C15.2981 15.6592 15.2781 15.7195 14.9178 15.8699H14.9189Z" fill="#BCBCBC"/>
<path fill-rule="evenodd" clip-rule="evenodd" d="M13.8512 16.9622C13.8512 16.9622 13.6813 17.0633 13.5922 17.4422C13.5032 17.8305 13.6722 18.3038 13.7701 18.4534C13.868 18.603 14.0901 19.0118 14.5509 19.0321C14.665 19.0315 14.7778 19.0081 14.8826 18.9633C15.0435 18.8895 15.1944 18.7957 15.3317 18.6841C15.5301 18.5345 15.6917 18.4052 15.6714 18.3929C15.6229 18.3726 14.4498 17.4017 14.4498 17.4017L14.0088 16.9094L13.8509 16.9628L13.8512 16.9622Z" fill="#515151"/>
<path fill-rule="evenodd" clip-rule="evenodd" d="M14.9601 18.5719C14.9601 18.5719 15.1987 18.5519 15.3403 18.4629C15.4819 18.3738 14.511 17.4111 14.511 17.4111L14.5798 18.4511L14.9601 18.5719Z" fill="#3B3B3B"/>
<path fill-rule="evenodd" clip-rule="evenodd" d="M13.928 16.8891C13.928 16.8891 13.8066 17.1197 13.8066 17.1805C13.7864 17.3787 13.8472 18.0016 13.8957 18.1997C13.9442 18.4101 14.2072 18.7296 14.5472 18.7296C14.7573 18.7296 15.0488 18.6003 15.0488 18.568C15.0488 18.5275 14.7493 18.488 14.6685 18.3373C14.62 18.2573 14.5997 18.0584 14.5885 17.8573C14.5805 17.728 14.5805 17.5864 14.629 17.5373C14.7384 17.416 14.7584 17.068 14.7584 17.068L15.1466 16.3467H14.636L14.025 16.7269L13.928 16.8891Z" fill="#757575"/>
<path fill-rule="evenodd" clip-rule="evenodd" d="M13.7784 17.1117C13.7784 17.1117 14.1784 16.5818 14.539 16.4602C14.8995 16.3386 15.0608 16.4117 15.0608 16.4117L14.8504 16.9498L14.551 17.2816L14.5712 17.4514C14.5712 17.4514 14.5224 17.9005 14.8219 18.212C15.1214 18.5234 15.3438 18.5114 15.4734 18.5114C15.603 18.5114 15.975 18.4021 16.1651 17.953C16.335 17.5325 16.4766 16.993 16.1368 16.4522C15.8048 15.9141 15.2184 15.8933 15.1051 15.8933C14.9918 15.8933 14.1019 15.9378 13.7784 17.1109V17.1117Z" fill="#212121"/>
<path fill-rule="evenodd" clip-rule="evenodd" d="M24.0494 18.9116C23.8998 18.8428 24.0414 18.4223 24.191 18.2927C24.3406 18.1631 24.5307 18.0138 24.8627 17.9933C24.9838 17.9853 25.1011 18.0621 25.0811 18.1431C25.0528 18.2927 24.8424 18.5031 24.6523 18.6527C24.3894 18.8591 24.2192 18.9884 24.0494 18.9116Z" fill="#F6F6F6"/>
<path fill-rule="evenodd" clip-rule="evenodd" d="M15.9586 16.6181C16.068 16.6101 16.2096 16.6981 16.2378 16.8165C16.2661 16.9458 16.169 17.2047 15.9586 17.2047C15.7888 17.2047 15.6997 16.9943 15.6997 16.9338C15.7016 16.884 15.7155 16.8354 15.7402 16.7922C15.7482 16.7799 15.7685 16.6383 15.9586 16.6181Z" fill="#F5F5F5"/>
<path fill-rule="evenodd" clip-rule="evenodd" d="M14.3812 16.7112C14.3812 16.7112 14.102 16.8405 13.9726 17.1112C13.8802 17.311 13.8523 17.5347 13.8926 17.7512C13.9129 17.8522 14.014 18.1029 14.0828 18.192C14.1516 18.281 14.2446 18.3418 14.3134 18.3336C14.3822 18.3253 14.5236 18.1434 14.5236 18.0344C14.5236 17.9253 14.5318 17.464 14.6652 17.213C14.7825 16.9624 14.382 16.7114 14.382 16.7114L14.3812 16.7112Z" fill="#C3C3C3"/>
<path fill-rule="evenodd" clip-rule="evenodd" d="M14.4217 16.6909C14.3731 16.7192 14.2923 16.7597 14.3123 16.8123C14.3326 16.8608 14.5025 16.8923 14.5633 17.0106C14.6321 17.132 14.6321 17.2613 14.6118 17.3221C14.6646 17.297 14.7126 17.2627 14.7534 17.2208C14.8425 17.1197 14.9515 16.9824 15.0446 16.9824C15.1054 16.9824 15.1659 17.0106 15.2227 17.0106C15.3118 17.0106 15.4006 16.9824 15.4129 16.8893C15.4329 16.768 15.243 16.6587 15.1337 16.6789C15.1539 16.5989 15.1822 16.4808 15.0931 16.3997C15.0041 16.3187 14.7251 16.4605 14.6643 16.5011C14.6035 16.5416 14.4217 16.6912 14.4217 16.6912V16.6909Z" fill="#D4D4D4"/>
<path fill-rule="evenodd" clip-rule="evenodd" d="M20.8496 25.1901L21.4482 25.0133L21.6181 25.1346C21.6181 25.1346 21.7392 25.3936 21.9296 25.4258C21.8688 25.5552 21.7109 25.6658 21.7192 25.7576C21.7274 25.8493 21.8082 25.9194 21.8082 25.9194C21.8082 25.9194 21.2701 26.8093 22.3301 27.7061C22.0792 27.8072 21.7597 27.9461 21.5898 28.0261C21.7109 28.0544 21.9698 28.1061 22.0792 28.2042C22.1885 28.3024 22.1885 28.3336 22.2896 28.3944C22.3906 28.4552 22.4512 28.536 22.4312 28.5722C22.3624 28.5317 22.1317 28.4106 22.0914 28.5237C22.0512 28.6368 21.0922 28.5925 21.0922 28.5925L19.4741 28.904C19.4741 28.904 19.5346 28.7421 19.3648 28.5925C19.1666 28.4146 18.924 28.6005 18.665 28.4024C18.3253 28.1434 18.313 27.844 18.204 27.7309C18.313 27.6621 18.5357 27.561 19.0656 27.4909C19.0453 27.4504 18.9765 27.329 19.017 27.22C19.0656 27.0784 19.2677 26.9893 19.2072 26.82C19.2962 26.7997 19.3365 26.7997 19.5592 26.5205C19.7696 26.2413 19.8989 26.1808 20.0608 26.1605C20.2226 26.1402 20.3197 26.1605 20.6192 25.8813C20.8293 25.6832 20.7608 25.5133 20.7608 25.5133C20.7608 25.5133 20.8981 25.4688 20.8498 25.1896L20.8496 25.1901Z" fill="#ADADAD"/>
<path fill-rule="evenodd" clip-rule="evenodd" d="M19.0819 25.2801C19.0899 25.2395 19.1224 25.2193 19.3408 25.2395C19.5592 25.2598 20.9427 25.1102 21.3189 25.0899C21.6992 25.0617 23.0381 25.0817 23.6896 25.2193C24.3411 25.3569 25.0003 25.5187 25.3197 25.5995C25.6397 25.6886 25.7405 25.7206 25.7283 25.7611C25.7203 25.8017 25.6483 25.8411 25.6069 25.8299C25.5667 25.8219 24.5067 25.4982 24.1792 25.4299C23.8517 25.3617 22.7187 25.179 22.0992 25.1899C21.5208 25.1982 21.2901 25.1819 20.8008 25.2385C20.3112 25.2993 19.5021 25.3801 19.2595 25.3478C19.0195 25.3195 19.0691 25.3195 19.0813 25.279L19.0819 25.2801Z" fill="#BCBCBC"/>
<path fill-rule="evenodd" clip-rule="evenodd" d="M22.3381 28.4506C22.3381 28.4506 23.1674 28.8997 23.4669 29.4498C23.6853 29.8583 23.3375 30.0607 23.3375 30.0607C23.3375 30.0607 23.8069 30.0607 23.7461 30.3197C23.7178 30.4813 22.937 30.9181 22.4151 31.1487C21.8853 31.3794 21.9055 31.3674 21.6466 31.4077C21.3957 31.4482 20.7079 31.3277 20.5663 31.529C20.4247 31.7303 20.4863 31.9378 20.5258 31.9701C20.5663 31.9983 20.8941 32.0389 20.8941 32.0389C20.8941 32.0389 20.8253 32.229 20.1458 32.2493C19.4663 32.2695 19.2962 32.3178 19.2557 32.3909C19.2151 32.4594 19.385 32.4191 19.6967 32.4709C20.0082 32.5194 20.445 32.5509 20.445 32.5509C20.445 32.5509 20.3034 32.6722 19.9354 32.7693C19.5146 32.8783 18.8551 32.9797 18.657 33.101C18.7581 33.1698 18.9079 33.2709 18.977 33.2789C18.8071 33.3194 18.5682 33.4085 18.5279 33.4407C18.5885 33.4813 18.6695 33.5298 18.6695 33.5298C18.6695 33.5298 18.3295 33.9383 18.1314 34.0397C17.9333 34.141 16.7925 34.6706 16.3999 34.5695C15.421 34.3106 15.2997 33.2386 15.061 33.1578C14.701 33.0365 14.5311 33.2789 14.2114 33.109C14.353 33.0079 14.4301 32.9474 14.5797 32.8786C14.4178 32.7986 13.5805 32.2677 13.5805 32.2677C13.4929 32.0768 13.3957 31.8905 13.2893 31.7095C13.1274 31.4303 12.8893 31.0581 12.7106 30.7303C12.3223 30.0103 12.3021 29.6786 11.9501 29.2701C12.0109 29.1901 12.221 29.2013 12.221 29.2013L15.1703 30.1722L20.3999 30.3237L21.7599 28.3821L22.3383 28.4509L22.3381 28.4506Z" fill="#C6C6C6"/>
<path fill-rule="evenodd" clip-rule="evenodd" d="M14.5914 31.4118C14.623 31.4469 14.6598 31.477 14.7005 31.5009C14.8018 31.5697 14.9514 31.6507 15.0525 31.7718C15.093 31.7113 15.1941 31.6019 15.3725 31.7718C15.5509 31.9417 15.7725 31.8206 15.9104 31.8609C16.052 31.9097 16.06 31.9297 16.06 31.9297C16.06 31.9297 16.14 31.8609 16.3189 31.7881C16.4282 31.7475 16.5576 31.7193 16.6992 31.679C16.8285 31.6507 16.9701 31.6102 17.0674 31.6102C17.1565 31.6707 17.476 32.0102 18.7584 31.5091C19.968 31.0398 20.2469 30.9873 20.4493 31.0598C20.4696 31.0113 20.4898 30.9182 20.8013 30.9305C20.8013 30.8011 20.5424 30.3601 20.5424 30.3601L19.1144 29.8707H18.3333L15.9912 30.2995L14.6933 31.0401L14.5922 31.4134L14.5914 31.4118Z" fill="#A8A8A8"/>
<path fill-rule="evenodd" clip-rule="evenodd" d="M13.8107 30.5907C13.8107 30.5907 13.8389 30.8091 14.1627 31.0397C14.4827 31.2701 14.5832 31.4077 14.5832 31.4077C14.5832 31.4077 14.644 31.3277 14.6925 31.2461C14.7411 31.1571 14.7816 31.056 14.8624 31.0277C15.0243 30.9589 15.3923 31.0883 15.4733 31.068C15.5421 31.048 15.5219 30.9064 15.5947 30.9064C15.7645 30.8981 15.8736 31.0155 15.9344 31.0155C15.9952 31.0155 16.1445 31.0075 16.1648 30.9752C16.1851 30.9429 16.1931 30.6069 16.4237 30.4451C16.6747 30.2672 16.9821 30.344 17.0637 30.3845C17.0637 30.4451 17.0717 30.5949 17.2336 30.6029C17.3955 30.6109 17.4115 30.5827 17.5536 30.6312C17.6957 30.6797 17.8651 30.6232 17.9419 30.8616C18.0107 30.8416 18.1725 30.8213 18.132 30.5907C18.212 30.5301 18.2819 30.4896 18.452 30.2509C18.4925 30.1904 18.5611 30.1216 18.6139 30.0325C18.7555 30.0325 18.9253 30.0043 19.1517 30.2024C19.0829 30.2509 19.0424 30.2824 19.0224 30.3317C19.0816 30.3904 19.1357 30.454 19.184 30.5219C19.2448 30.6019 19.2853 30.7 19.3621 30.7203C19.532 30.7688 19.8112 30.7 20.1227 30.7203C20.4221 30.7405 20.6728 30.8496 20.7821 30.9184C20.8227 30.8984 20.8227 30.8901 20.9237 30.9104C21.0248 30.9307 21.1016 30.9387 20.9925 30.8093C21.0531 30.8376 21.1219 30.8984 21.1827 30.8376C21.2435 30.7768 21.2917 30.688 21.4616 30.6677C21.6315 30.6475 21.6923 30.6757 21.7611 30.4979C21.8501 30.2795 21.5427 30.2795 21.5427 30.2795C21.5427 30.2795 21.6843 30.1499 21.8421 29.98C22.0323 29.8021 22.2507 29.5715 22.3032 29.2883C22.3923 28.7664 21.8827 28.6979 21.8827 28.6979L19.4109 29.4584L16.3891 29.3085L13.8123 30.5909L13.8107 30.5907Z" fill="#7E7E7E"/>
<path fill-rule="evenodd" clip-rule="evenodd" d="M11.5899 23.4506C11.5899 23.4506 11.5099 23.5517 11.4605 23.7904C11.4112 24.029 11.4323 24.0008 11.3917 24.1706C11.3512 24.3405 10.8533 26.0314 11.04 26.6018C11.2267 27.1722 11.5499 27.3826 11.752 27.8437C11.7925 27.9448 11.832 28.0056 11.8531 28.0946C11.9219 28.3938 11.8613 28.6245 11.9421 28.924C11.9704 29.025 12.0435 29.1424 12.1525 29.2637C12.3925 29.5144 12.7837 29.753 12.9525 29.9229C13.1909 30.1738 13.5309 30.6837 13.9637 30.732C14.1944 30.7602 14.5221 30.6632 14.7931 30.5016C15.0331 30.3517 15.1813 30.1416 15.4331 30.0216C15.6109 29.9325 15.8011 29.9002 15.9709 29.8597C16.3229 29.7909 16.6427 29.7797 16.8328 29.8192C17.124 29.88 17.8117 30.0904 18.1928 30.0904C18.4906 30.0856 18.7867 30.0448 19.0747 29.969C19.6531 29.7992 20.3528 29.5077 20.8141 29.3784C21.0851 29.2984 21.3035 29.2773 21.5261 29.2288C21.9064 29.1397 22.2259 29.0184 22.408 28.7877C22.2867 28.6461 22.1371 28.4277 21.3277 28.4357C20.4096 28.456 19.3496 28.9656 18.8277 29.0466C18.3059 29.1277 18.0795 29.1962 17.4968 28.9858C16.9256 28.7733 16.9067 28.6328 16.9067 28.6328C16.9067 28.6328 16.3069 28.2133 16.056 27.144C15.8051 26.0746 16.056 25.2954 16.7075 24.5549C16.8773 24.3648 16.8368 24.1949 16.8368 24.1949C16.8368 24.1949 17.2656 23.6165 17.1483 23.0749C17.0189 22.5368 16.1896 22.6461 16.1896 22.6461L11.5901 23.4506H11.5899Z" fill="#636363"/>
<path fill-rule="evenodd" clip-rule="evenodd" d="M12.2816 25.251C12.246 25.318 12.2292 25.3935 12.2331 25.4694C12.2411 25.5784 12.2736 25.72 12.6011 26.0398C12.8803 26.3187 12.8195 26.6302 12.8195 26.6302C12.8195 26.6302 12.96 26.6584 13.3414 26.48C13.6408 26.3384 13.7414 26.5894 13.7414 26.5894C13.8285 26.5437 13.923 26.5135 14.0206 26.5003C14.1089 26.4922 14.1945 26.4649 14.2712 26.4203C14.2712 26.4203 14.6232 26.7803 14.9307 26.9502C15.2099 27.1 15.3718 27.2011 15.5094 27.1C15.6387 27.011 15.6387 26.8288 15.6304 26.748C15.5983 26.6735 15.5577 26.6029 15.5094 26.5376C15.4203 26.4083 15.2787 26.2584 15.2694 26.1376C15.2491 25.8587 15.4798 25.5267 15.431 25.4459C15.3822 25.3651 15.2006 25.3448 14.7515 25.5067C14.2864 25.6603 12.2798 25.2518 12.2798 25.2518L12.2816 25.251Z" fill="#333333"/>
<path fill-rule="evenodd" clip-rule="evenodd" d="M13.3413 27.0592C13.3413 27.0592 13.1109 26.8408 13.1917 25.7808C13.2896 25.7794 13.3872 25.7888 13.4829 25.809C13.4829 25.809 13.6085 26.6304 13.3413 27.0592Z" fill="#232323"/>
<path fill-rule="evenodd" clip-rule="evenodd" d="M11.6993 22.6417C11.7314 22.6179 11.7612 22.5911 11.7883 22.5617C11.7083 22.7113 11.339 23.3099 11.6385 24.2526C11.9379 25.191 12.6902 25.8907 13.6166 25.9233C14.543 25.9558 15.0299 25.5025 15.5867 24.823C15.8051 24.5521 16.0561 24.2121 16.2785 23.9817C16.6102 23.6214 16.8691 23.5203 16.8691 23.1726C16.8691 22.4606 16.1409 22.1409 15.0689 21.8214C13.9969 21.502 13.0299 21.5414 12.5283 21.7601C12.039 21.9985 11.8286 22.2494 11.699 22.6419L11.6993 22.6417Z" fill="#212121"/>
<path fill-rule="evenodd" clip-rule="evenodd" d="M15.1415 27.3787L15.2215 27.3381C15.2215 27.3381 15.2415 27.0181 15.3711 27.0267C15.5005 27.0469 15.5613 27.2171 15.549 27.2776C15.541 27.3381 15.5087 27.4395 15.3791 27.4272C15.2093 27.4312 15.1407 27.3787 15.1407 27.3787H15.1415Z" fill="#383838"/>
<path fill-rule="evenodd" clip-rule="evenodd" d="M14.7816 26.0195C14.7816 26.0195 14.8616 25.9912 14.9595 26.0883C15.0395 26.0883 15.3883 26.0477 15.4976 26.1165C15.6069 26.1853 15.6392 26.2459 15.6392 26.2459C15.6392 26.2459 15.2307 26.3349 15.008 26.2459C14.7816 26.1691 14.7816 26.0195 14.7816 26.0195Z" fill="#282828"/>
<path fill-rule="evenodd" clip-rule="evenodd" d="M16.5819 26.0801C16.5819 26.0598 16.3635 25.9102 16.1329 25.8614C16.0923 25.8534 16.0841 25.8817 16.0529 25.8817C16.0326 25.8737 16.0246 25.8129 16.0246 25.8129L15.8934 25.8819C15.8934 25.8819 15.8731 25.9102 15.9419 25.9619C16.0025 26.0105 16.1038 26.051 16.1321 26.1318C16.1603 26.2126 16.1603 26.2409 16.1726 26.2531C16.1806 26.2611 16.3222 26.2531 16.391 26.2126C16.4598 26.1721 16.5894 26.1059 16.5811 26.0793L16.5819 26.0801Z" fill="#767676"/>
<path fill-rule="evenodd" clip-rule="evenodd" d="M14.5389 26.9013C14.5389 26.9013 14.5792 26.6224 14.8504 26.6101C15.1293 26.5898 15.1821 26.8608 15.1821 26.8608L15.0203 27.0226C15.0203 27.0186 14.8989 26.8488 14.5403 26.9013H14.5389Z" fill="#282828"/>
<path fill-rule="evenodd" clip-rule="evenodd" d="M16.2986 25.6997C16.2986 25.6997 16.1487 25.8616 15.8173 25.9101C15.789 25.8696 15.7282 25.7888 15.8173 25.6594C15.9063 25.5301 16.0074 25.4896 16.1085 25.5298C16.1531 25.5371 16.1947 25.5569 16.2284 25.587C16.262 25.6171 16.2864 25.6562 16.2986 25.6997Z" fill="#4F4F4F"/>
<path fill-rule="evenodd" clip-rule="evenodd" d="M16.9094 25.8981C16.9176 25.8576 16.8894 25.8496 16.9094 25.8293C16.9294 25.809 17.039 25.7688 17.0592 25.7888C17.0672 25.797 17.0592 25.8293 17.0592 25.8688C17.0592 25.9082 17.0592 25.9488 17.039 25.9778C17.0107 26.0184 16.9299 26.0386 16.8894 26.0266C16.8488 26.0146 16.8408 25.9578 16.8408 25.9466C16.8608 25.9386 16.9094 25.9184 16.9094 25.8981ZM17.6 25.4613C17.6 25.441 17.6688 25.4005 17.7094 25.4005C17.7699 25.4005 17.7699 25.449 17.7782 25.4613C17.7982 25.4693 17.7982 25.453 17.8184 25.4896C17.8387 25.5261 17.8672 25.5906 17.8467 25.6312C17.8262 25.6717 17.7456 25.6997 17.7256 25.6917C17.6974 25.6714 17.6083 25.4896 17.6 25.4613Z" fill="#767676"/>
<path fill-rule="evenodd" clip-rule="evenodd" d="M16.2096 25.9912C16.2096 25.9912 16.2987 26.0112 16.42 26.1126C16.3795 26.1408 16.3187 26.1731 16.3187 26.1731C16.3187 26.1731 16.3107 26.08 16.2096 25.991V25.9912Z" fill="#636363"/>
<path fill-rule="evenodd" clip-rule="evenodd" d="M16.0115 25.101C15.9912 25.081 16.072 25.0324 16.1206 25.0404C16.1691 25.0484 16.1894 25.081 16.2419 25.089C16.2944 25.097 16.3027 25.0687 16.3219 25.0484C16.3411 25.0282 16.411 25.0404 16.423 25.0484C16.4304 25.0573 16.4372 25.0668 16.4432 25.0767C16.4441 25.0613 16.4481 25.0463 16.455 25.0325C16.4619 25.0187 16.4716 25.0066 16.4835 24.9967C16.499 24.9853 16.5169 24.9776 16.5358 24.9741C16.5548 24.9705 16.5743 24.9714 16.5928 24.9764C16.6008 25.0047 16.6414 25.1058 16.6334 25.126C16.6254 25.1463 16.504 25.1748 16.4835 25.1543C16.5038 25.2031 16.5928 25.3042 16.6048 25.3242C16.6168 25.3442 16.5158 25.393 16.4755 25.385C16.419 25.381 16.071 25.1786 16.0104 25.1018L16.0115 25.101ZM16.5414 24.4295C16.5339 24.4091 16.5196 24.392 16.5008 24.381C16.4726 24.373 16.3795 24.381 16.3795 24.4295C16.3795 24.478 16.4595 24.7495 16.5494 24.8908C16.6507 25.0324 16.7192 25.1495 16.788 25.182C16.8096 25.1919 16.8342 25.1932 16.8567 25.1856C16.8792 25.1781 16.898 25.1624 16.9094 25.1415C16.9174 25.1212 16.9376 24.9716 16.9296 24.6196C16.9216 24.2676 16.9094 23.9279 16.8891 23.9076C16.8688 23.8874 16.788 23.8876 16.7598 23.9279C16.7315 23.9682 16.5494 24.369 16.5411 24.4295H16.5414Z" fill="#515151"/>
<path fill-rule="evenodd" clip-rule="evenodd" d="M16.1814 26.5008C16.1814 26.5008 16.0398 26.4117 15.9022 26.4725C15.7729 26.5333 15.7809 26.772 15.7809 26.772C15.81 26.7834 15.8414 26.7875 15.8724 26.784C15.9035 26.7804 15.9332 26.7694 15.959 26.7517C16.0481 26.6912 16.1611 26.5901 16.1814 26.5011V26.5008Z" fill="#4F4F4F"/>
<path fill-rule="evenodd" clip-rule="evenodd" d="M16.4483 26.8205C16.4403 26.7405 16.3683 26.7405 16.3683 26.6992C16.3732 26.6795 16.3847 26.6619 16.4008 26.6495C16.4169 26.637 16.4367 26.6303 16.4571 26.6304C16.4976 26.6304 16.5371 26.6789 16.5867 26.7104C16.6352 26.7387 16.708 26.7904 16.716 26.852C16.724 26.9136 16.636 27.0824 16.5382 27.0824C16.4403 27.0824 16.4694 26.9003 16.4491 26.8195L16.4483 26.8205ZM17.2291 26.7112C17.2291 26.7112 17.0672 26.7597 17.0792 26.7112C17.0912 26.6627 17.128 26.6507 17.1806 26.6507C17.2072 26.6227 17.2431 26.6054 17.2816 26.6019C17.3036 26.6008 17.3252 26.608 17.3422 26.6221C17.3422 26.6221 17.4515 26.5736 17.4838 26.6019C17.516 26.6301 17.492 26.6301 17.512 26.6627C17.5375 26.6988 17.5542 26.7403 17.5608 26.784C17.5608 26.8163 17.4395 26.8851 17.3422 26.8731C17.2291 26.8488 17.2491 26.7315 17.2291 26.7112ZM18.1715 26.5291C18.1715 26.5291 18.22 26.5573 18.1798 26.5899C18.1515 26.6181 18.0099 26.6699 17.8883 26.6789C17.767 26.6789 17.6579 26.6989 17.6579 26.6587C17.6579 26.6184 17.759 26.5373 17.8195 26.5171C17.8316 26.5019 17.847 26.4896 17.8646 26.4812C17.8821 26.4728 17.9014 26.4685 17.9208 26.4685C17.9694 26.4685 18.1592 26.4483 18.212 26.4403C18.2606 26.432 18.3011 26.4603 18.2726 26.5008C18.2606 26.5291 18.1715 26.5291 18.1715 26.5291ZM18.4507 25.28C18.4507 25.28 18.3899 25.4093 18.3214 25.4093C18.2526 25.4013 18.2526 25.3811 18.2526 25.3608C18.2526 25.3325 18.3214 25.2597 18.3131 25.2395C18.2931 25.2395 18.2443 25.2395 18.2526 25.1909C18.2526 25.1504 18.3214 25.1019 18.3819 25.1109C18.4276 25.0734 18.4846 25.0521 18.5438 25.0504C18.6126 25.0504 18.6731 25.0704 18.6731 25.1109C18.6731 25.1515 18.5931 25.2403 18.5638 25.2608C18.5315 25.2931 18.491 25.3141 18.4507 25.2808V25.28ZM17.5283 27.6707C17.5283 27.6707 17.4483 27.6789 17.4483 27.7192C17.4483 27.7395 17.4683 27.7395 17.4968 27.7275C17.5133 27.7265 17.5295 27.7238 17.5454 27.7192C17.5534 27.7275 17.5534 27.7677 17.6142 27.7677C17.6641 27.761 17.7122 27.7445 17.7558 27.7192C17.8043 27.6992 17.8448 27.6787 17.8448 27.6392C17.8246 27.5704 17.784 27.5379 17.7235 27.5379C17.6925 27.5359 17.6615 27.5429 17.6344 27.5581C17.6344 27.5581 17.6142 27.5176 17.5454 27.5581C17.4766 27.5987 17.4846 27.5987 17.5048 27.6189C17.5411 27.6512 17.5291 27.6723 17.5291 27.6723L17.5283 27.6707ZM17.0712 28.0915C17.0712 28.0712 17.1723 28.0307 17.2006 28.0429C17.2288 28.0509 17.3096 28.2045 17.3096 28.2208C17.3096 28.2411 17.2086 28.2896 17.168 28.2896C17.1275 28.2896 17.059 28.2208 17.059 28.2096C17.059 28.2016 17.1075 28.1896 17.1075 28.1813C17.1195 28.1613 17.0712 28.1125 17.0712 28.0923V28.0915ZM16.7512 27.5008C16.7715 27.4928 16.7715 27.4725 16.7998 27.4523C16.8086 27.4464 16.8187 27.4426 16.8292 27.4412C16.8398 27.4398 16.8505 27.4409 16.8606 27.4443C16.8677 27.4315 16.8776 27.4206 16.8895 27.4121C16.9014 27.4037 16.915 27.398 16.9294 27.3955C16.9779 27.3875 17.0184 27.3955 17.0094 27.4157C17.0094 27.4765 17.0499 27.5168 17.0499 27.5653C17.0499 27.6139 17.0216 27.6747 16.9206 27.7152C16.8195 27.7435 16.6819 27.7435 16.6616 27.7355C16.6414 27.7275 16.6211 27.6464 16.6414 27.6059C16.6616 27.5653 16.7182 27.5211 16.7507 27.5008H16.7512Z" fill="#767676"/>
<path fill-rule="evenodd" clip-rule="evenodd" d="M16.8799 27.5283C16.8799 27.5283 16.8111 27.5689 16.8111 27.5891C16.805 27.6087 16.8023 27.6292 16.8031 27.6496C16.8031 27.6616 16.8922 27.6416 16.9042 27.6294C16.9082 27.6214 16.8799 27.5494 16.8799 27.5283Z" fill="#636363"/>
<path fill-rule="evenodd" clip-rule="evenodd" d="M16.2784 27.3382C16.3187 27.3464 16.3875 27.3382 16.44 27.3584C16.4805 27.3787 16.5088 27.4192 16.4683 27.4678C16.4277 27.5163 16.3883 27.5891 16.2984 27.5768C16.1973 27.5688 16.1003 27.5163 16.1003 27.4758C16.0986 27.4501 16.102 27.4244 16.1103 27.4001C16.1187 27.3758 16.1317 27.3534 16.1488 27.3342C16.1893 27.3019 16.2093 27.3222 16.2781 27.3382H16.2784Z" fill="#515151"/>
<path fill-rule="evenodd" clip-rule="evenodd" d="M16.2298 27.3787C16.2298 27.3787 16.1005 27.4797 16.0679 27.5285C16.0274 27.5771 15.8293 27.8277 15.7688 27.8803C15.7889 27.8448 15.8118 27.811 15.8373 27.7792C15.7573 27.8304 15.6973 27.9075 15.6674 27.9976C15.6189 28.1475 15.9386 28.2283 16.1487 28.2891C16.3589 28.3499 16.4402 28.3691 16.4402 28.3691C16.3628 28.2528 16.2964 28.1296 16.2418 28.0011C16.1618 27.8109 16.1205 27.7907 16.173 27.7016C16.2135 27.6125 16.2743 27.552 16.2743 27.4832C16.2501 27.4192 16.2298 27.3787 16.2298 27.3787Z" fill="#4F4F4F"/>
<path fill-rule="evenodd" clip-rule="evenodd" d="M11.6181 27.6984C11.6475 27.7038 11.6777 27.7038 11.7072 27.6984C11.7677 27.6901 12.3989 27.4584 13.0584 27.5C13.552 27.5298 14.0414 27.6102 14.5186 27.74C15.348 27.9584 16.3794 28.3912 17.0469 28.6381C17.2248 28.7067 17.3989 28.8283 17.5269 28.8765C18.0368 29.0749 18.0568 29.0749 18.3562 29.1275C18.7082 29.176 19.0682 29.0587 19.4445 28.9779C19.9056 28.8765 20.6944 28.828 21.3861 28.7269C21.6098 28.6959 21.8304 28.6459 22.0456 28.5773C22.0456 28.5773 21.4954 29.1275 20.1765 29.3256C19.6434 29.4065 19.1016 29.4134 18.5666 29.3459C18.1458 29.3053 17.8669 29.2445 17.6565 29.184C17.4178 29.1152 16.9282 28.9331 16.3256 28.784C15.9048 28.6747 15.4354 28.5939 14.8976 28.4928C13.5706 28.2499 12.1306 27.9709 11.6176 27.7L11.6181 27.6984Z" fill="#212121"/>
<path fill-rule="evenodd" clip-rule="evenodd" d="M10.1292 25.1984C9.80924 25.4693 9.46978 25.7282 9.13831 25.9789L8.13911 26.7466C7.79938 26.9973 7.46765 27.2562 7.12765 27.5072C6.78765 27.7581 6.44818 27.9965 6.08765 28.2272C6.40765 27.9562 6.74711 27.7053 7.08685 27.4586C7.42658 27.212 7.77885 26.9701 8.10658 26.72L9.10578 25.9512C9.44951 25.7005 9.78124 25.4416 10.1292 25.1989V25.1984ZM8.36151 28.0301C8.36151 28.0301 8.72151 27.7306 9.17058 27.3101C9.72871 26.7885 10.4124 26.1208 10.6308 25.9997L8.36124 28.0304L8.36151 28.0301Z" fill="#B6B6B6"/>
<path fill-rule="evenodd" clip-rule="evenodd" d="M8.36157 28.0299C8.53971 27.852 8.72984 27.6782 8.91997 27.508L9.21117 27.2574C9.30024 27.1774 9.40157 27.0875 9.49037 26.9984C9.66824 26.8206 9.84237 26.6302 10.0202 26.4483C10.1084 26.3568 10.2016 26.2704 10.2994 26.1894C10.3483 26.1461 10.4027 26.1093 10.461 26.08C10.5098 26.0518 10.5624 26 10.6309 25.991C10.5906 26.0518 10.5421 26.08 10.5016 26.1326C10.453 26.1731 10.4125 26.2216 10.3722 26.2619C10.2832 26.351 10.1821 26.4318 10.093 26.5128C9.9029 26.6747 9.70477 26.8328 9.51464 27.0022C9.3245 27.1715 9.14664 27.3542 8.95624 27.524C8.75011 27.6982 8.55997 27.868 8.36157 28.0307V28.0299ZM10.7808 26.4118C10.7808 26.4118 9.46211 27.7024 9.19091 27.9126L10.7808 26.4118Z" fill="#B6B6B6"/>
<path fill-rule="evenodd" clip-rule="evenodd" d="M10.7808 26.4117C10.6622 26.5491 10.535 26.6787 10.4 26.8L9.99998 27.1803C9.87065 27.3096 9.74905 27.4392 9.61172 27.5685C9.47012 27.6899 9.34078 27.8085 9.19092 27.9205L9.57918 27.5403C9.70878 27.4109 9.85038 27.3019 9.98798 27.1723L10.3763 26.792C10.5096 26.6587 10.6392 26.5291 10.7808 26.4117ZM10.8413 27.1115C10.7198 27.4507 10.5765 27.7818 10.4125 28.1027C10.0728 28.7824 9.56318 29.6317 9.34052 30.0648L10.8413 27.1115Z" fill="#B6B6B6"/>
<path fill-rule="evenodd" clip-rule="evenodd" d="M10.8413 27.1118C10.8413 27.2614 10.8007 27.391 10.7522 27.5204C10.7049 27.6498 10.651 27.7767 10.5906 27.9006C10.5298 28.022 10.461 28.1516 10.3922 28.2689C10.3234 28.3862 10.2426 28.5073 10.1818 28.6289L9.77328 29.3489C9.63168 29.5889 9.49408 29.8302 9.34448 30.0609C9.44555 29.802 9.58315 29.5593 9.71275 29.3206C9.85435 29.0806 9.98368 28.8406 10.1127 28.5924C10.1758 28.4686 10.2325 28.3418 10.2826 28.2124C10.3431 28.0828 10.4037 27.9614 10.4525 27.8441C10.513 27.7148 10.5615 27.5932 10.6223 27.4761C10.6909 27.3505 10.7477 27.2291 10.8407 27.1118H10.8413Z" fill="#B6B6B6"/>
<path fill-rule="evenodd" clip-rule="evenodd" d="M12.2815 30.4288C12.2815 30.4288 11.8815 30.9587 11.9215 31.6302C12.0306 31.2784 12.1682 30.7403 12.2815 30.4288ZM12.6618 30.96C12.6618 30.96 12.5202 32.4 12.4028 33.108C12.5687 32.2896 12.601 32.3584 12.6618 30.96ZM15.3114 33.1931C15.3114 33.1931 14.7127 34.9531 14.7004 35.4422C14.83 34.9392 15.0807 33.9118 15.3114 33.1918V33.1931Z" fill="#C2C2C2"/>
<path fill-rule="evenodd" clip-rule="evenodd" d="M16.7112 30.3199C16.7112 30.3199 17.6821 31.9218 18.4104 33.289C18.2133 32.601 17.76 31.3391 16.7112 30.3199Z" fill="#AFAFAF"/>
<path fill-rule="evenodd" clip-rule="evenodd" d="M19.3206 32.6781C19.8536 33.6204 20.3344 34.5914 20.7606 35.5866C20.6798 34.8989 20.4611 33.7218 19.3206 32.6781Z" fill="#C6C6C6"/>
<path fill-rule="evenodd" clip-rule="evenodd" d="M26.9905 35.04C27.1521 34.9389 27.4718 34.3885 27.751 34.2512C28.0299 34.1096 28.2403 34.0813 28.4913 33.8021C28.7419 33.5107 28.8113 33.3328 29.3609 33.1024C30.1297 32.7704 29.6009 32.3416 29.6009 32.3416C29.6855 32.2584 29.7761 32.1814 29.8718 32.1112C30.0702 31.9616 30.3006 31.7795 30.2806 31.4597C30.2523 30.9219 30.1513 30.1411 29.7102 29.688C30.139 29.599 30.9601 29.5384 31.4702 29.4091C32.0606 29.2592 32.3318 29.0488 32.3318 29.0488C32.3318 29.0488 31.9921 28.4704 32.5422 27.888C33.0923 27.3056 33.5414 26.9576 33.8731 26.3062C33.4929 26.2576 32.9131 26.0555 31.4337 26.6176C31.5135 26.6552 31.5906 26.6984 31.6643 26.747C31.6643 26.747 30.7542 26.9979 30.4225 27.2771C29.8438 27.7664 29.771 28.167 29.1441 28.4664C28.5171 28.7659 27.8859 28.6848 27.3643 28.9275C26.8427 29.1702 26.7657 29.3765 26.5753 29.4656C26.6158 29.5141 26.5673 29.595 26.6441 29.6638C26.5955 29.7326 26.3123 30.1936 26.0251 30.1936C26.0534 30.303 26.2961 30.3838 26.2961 30.3838C26.2961 30.3838 26.1182 30.5133 25.6651 30.5456C25.8955 30.7856 26.1142 31.0472 26.7169 31.4275C26.6683 31.5286 26.4659 31.6784 26.547 31.8685C26.6361 32.0587 26.867 32.3176 27.7889 32.528C27.3195 32.548 26.7697 32.6573 26.0289 32.5563C25.2886 32.4672 25.1673 32.4147 24.7102 32.528C24.7587 32.5766 24.8881 32.5765 25.0014 32.7059C24.8801 32.7139 24.1195 32.6168 23.8606 32.9568C23.5897 33.3085 23.4723 33.8872 23.4926 34.2755C23.351 34.3443 23.2134 34.4656 23.2822 34.7165C23.351 34.9675 23.711 35.0483 23.9417 35.2059C24.1721 35.3757 24.1923 35.4363 24.411 35.396C24.6414 35.3475 24.9811 35.1171 25.1795 35.1171C25.3779 35.1171 25.5193 35.2667 25.5193 35.2667C25.5193 35.2667 26.0574 35.0077 26.1099 35.0563C26.1585 35.1048 26.1179 35.4163 26.1705 35.4648C26.2238 35.5013 26.8299 35.1413 26.9918 35.04H26.9905Z" fill="#D5D5D5"/>
<path fill-rule="evenodd" clip-rule="evenodd" d="M38.75 18.8512C36.2218 12.3221 29.9716 11.1125 29.9716 11.1125H12.1399L12.2087 17.7629H15.7599V32.6133H12.1396V39.2517H29.478C33.6567 39.2517 37.0063 35.0525 37.0063 35.0525C42.3703 27.4395 38.7498 18.8512 38.7498 18.8512H38.75ZM29.5711 30.5784C29.5711 30.5784 28.2111 32.5405 26.7314 32.5405H23.7714L23.7012 17.7792H27.4999C27.4999 17.7792 29.2599 18.1472 30.4895 21.6301C30.4895 21.6301 32.1196 26.6168 29.5711 30.5784Z" fill="white" fill-opacity="0.8"/>
</svg>
