<?xml version="1.0" encoding="UTF-8"?>
<svg width="35px" height="35px" viewBox="0 0 35 35" version="1.1" xmlns="http://www.w3.org/2000/svg" xmlns:xlink="http://www.w3.org/1999/xlink">
    <!-- Generator: sketchtool 60.1 (101010) - https://sketch.com -->
    <title>68CA5605-D7C5-4DE9-81D3-BF1D2779F76A</title>
    <desc>Created with sketchtool.</desc>
    <defs>
        <path d="M17.5,35 C27.1649831,35 35,27.1649831 35,17.5 C35,7.83501688 27.1649831,0 17.5,0 C7.83501688,0 0,7.83501688 0,17.5 C0,27.1649831 7.83501688,35 17.5,35 Z" id="path-1"></path>
    </defs>
    <g id="Asset-Artboard-Page" stroke="none" stroke-width="1" fill="none" fill-rule="evenodd">
        <g id="Icons/Wallet/Blank-Currency/Large/Bitcoin-Cash-(alt)">
            <g id="item-ico-backup">
                <mask id="mask-2" fill="white">
                    <use xlink:href="#path-1"></use>
                </mask>
                <use id="Mask" fill="#2FCF6E" xlink:href="#path-1"></use>
            </g>
            <path d="M21.6567237,15.4384732 C21.1842594,17.3410607 18.079277,16.421557 17.066926,16.1865032 L17.9221269,12.8090492 C18.9116658,13.044103 22.1514931,13.4506306 21.6567237,15.4384732 L21.6567237,15.4384732 Z M21.1614474,20.8895064 C20.6443727,22.9842792 16.9092691,21.8942652 15.7169559,21.616343 L16.6395792,17.8969049 C17.8541976,18.1748272 21.7013341,18.6878033 21.1614474,20.8895064 Z M21.5664891,11.5904301 L22.2640329,8.81168907 L20.4867157,8.4056432 L19.811984,11.1203224 C19.3395197,11.0133922 18.8670555,10.9064619 18.3945912,10.8212068 L19.0693229,8.10604588 L17.2697005,7.7 L16.5721567,10.4792227 C16.1894201,10.3934858 15.8071904,10.329424 15.4244538,10.2436872 L12.9724049,9.68832431 L12.5222458,11.4839815 C12.5222458,11.4839815 13.8499109,11.7614221 13.8047936,11.7830972 C14.5246426,11.9540892 14.6594875,12.4030035 14.6371823,12.7449876 L13.8499109,15.9085811 C13.8945213,15.9302562 13.9624507,15.9302562 14.0298731,15.9726429 C13.9624507,15.9514495 13.9173334,15.9514495 13.8499109,15.9302562 L12.7696305,20.3548557 C12.6799028,20.5687162 12.4548233,20.8678319 11.9600539,20.7613833 C11.982359,20.7825767 10.6552009,20.461786 10.6552009,20.461786 L9.8,22.4072419 L12.117204,22.920218 C12.5450579,23.0271482 12.9724049,23.1124034 13.3774466,23.2193336 L12.6799028,26.0197497 L14.4572201,26.4257956 L15.1547639,23.6470545 C15.6495333,23.7751782 16.1219976,23.8821084 16.5721567,23.9890386 L15.8746129,26.7465863 L17.6519301,27.1526321 L18.3494739,24.3526977 C21.3865269,24.8656739 23.6586136,24.6301383 24.5812369,22.001196 C25.323898,19.9059414 24.5138145,18.7089972 22.8941543,17.9180988 C24.0864675,17.6613699 24.9411614,16.935015 25.166241,15.4384734 C25.458743,13.3860873 23.8162707,12.3172667 21.5664891,11.5904301 Z" id="Shape" fill="#FFFFFF" transform="translate(17.500000, 17.426316) rotate(-32.000000) translate(-17.500000, -17.426316) "></path>
        </g>
    </g>
</svg>