<?xml version="1.0" encoding="UTF-8"?>
<svg width="35px" height="35px" viewBox="0 0 35 35" version="1.1" xmlns="http://www.w3.org/2000/svg" xmlns:xlink="http://www.w3.org/1999/xlink">
    <!-- Generator: sketchtool 60.1 (101010) - https://sketch.com -->
    <title>5F249ED9-6F24-4106-AAC5-D631BAA54A73</title>
    <desc>Created with sketchtool.</desc>
    <defs>
        <path d="M17.5,35 C27.1649831,35 35,27.1649831 35,17.5 C35,7.83501688 27.1649831,0 17.5,0 C7.83501688,0 0,7.83501688 0,17.5 C0,27.1649831 7.83501688,35 17.5,35 Z" id="path-1"></path>
    </defs>
    <g id="Asset-Artboard-Page" stroke="none" stroke-width="1" fill="none" fill-rule="evenodd">
        <g id="Icons/Wallet/Blank-Currency/Large/Bitcoin-(alt)">
            <g id="Currency/Large/Bitcoin">
                <g id="item-ico-backup">
                    <mask id="mask-2" fill="white">
                        <use xlink:href="#path-1"></use>
                    </mask>
                    <use id="Mask" fill="#F7931A" xlink:href="#path-1"></use>
                </g>
                <g id="Group" transform="translate(2.800000, 2.800000)" fill="#FFFFFF">
                    <g id="Shape-2" transform="translate(7.000000, 4.900000)">
                        <path d="M11.8567237,7.79709807 C11.3842594,9.71409893 8.27927701,8.7876294 7.266926,8.55079486 L8.12212688,5.14775434 C9.11166577,5.38458887 12.3514931,5.79419615 11.8567237,7.79709807 L11.8567237,7.79709807 Z M11.3614474,13.2894271 C10.8443727,15.4000695 7.10926907,14.3017978 5.91695585,14.02177 L6.83957918,10.2741544 C8.05419758,10.5541821 11.9013341,11.0710444 11.3614474,13.2894271 Z M15.366241,7.797098 C15.658743,5.72916357 14.0162707,4.65224583 11.7664891,3.91990294 L12.4640329,1.12011093 L10.6867157,0.710988957 L10.011984,3.44623384 C9.53951975,3.33849354 9.06705549,3.23075323 8.59459123,3.14485218 L9.26932291,0.409121973 L7.46970047,0 L6.77215667,2.80027732 C6.38942007,2.71389095 6.0071904,2.64934383 5.6244538,2.56295746 L3.17240486,2.00338731 L2.72224578,3.81264795 C2.72224578,3.81264795 4.0499109,4.09219036 4.0047936,4.11402961 C4.72464258,4.28631704 4.85948753,4.7386322 4.83718235,5.08320705 L4.0499109,8.2707671 C4.09452126,8.29260635 4.16245067,8.29260635 4.22987314,8.33531422 C4.16245067,8.31396028 4.11733337,8.31396028 4.0499109,8.29260635 L2.9696305,12.7507255 C2.87990284,12.9662061 2.6548233,13.2675878 2.16005387,13.1603328 C2.18235904,13.1816867 0.855200861,12.8584658 0.855200861,12.8584658 L0,14.8186599 L2.31720399,15.3355222 C2.74505789,15.4432625 3.17240486,15.5291636 3.57744664,15.6369039 L2.87990284,18.4585351 L4.6572201,18.8676571 L5.3547639,16.0678651 C5.84953334,16.1969593 6.32199759,16.3046996 6.77215667,16.41244 L6.07461288,19.190878 L7.85193014,19.6 L8.54947393,16.7788541 C11.5865269,17.2957163 13.8586136,17.0583965 14.7812369,14.409538 C15.523898,12.2984103 14.7138145,11.0923984 13.0941543,10.2955083 C14.2864675,10.0368345 15.1411614,9.30497697 15.366241,7.797098 L15.366241,7.797098 Z" id="Shape"></path>
                    </g>
                </g>
            </g>
        </g>
    </g>
</svg>