<svg xmlns="http://www.w3.org/2000/svg" viewBox="0 0 1875 1875">
    <title>Dogecoin (DOGE)</title>
    <g id="Layer_2" data-name="Layer 2">
        <g id="Layer_1-2" data-name="Layer 1">
            <g id="Layer_1-3" data-name="Layer_1">
                <circle cx="937.5" cy="937.5" r="937.5" style="fill:#988430"/>
                <circle cx="937.5" cy="937.5" r="907.47" style="fill:#7a6a2a"/>
                <circle cx="937.5" cy="937.5" r="888.35" style="fill:#ba9f33"/>
                <path
                        d="M409.89,837.38c-5.31-4.85-10.92-9.71-16.08-14.56s-10.46-9.71-15.77-14.56l-15.78-15c-2.58-2.58-5.31-4.85-7.89-7.44-2.58-2.27-5.61-4.85-8.19-7.13-20.94-19.87-42-39.74-62.65-59.62,21.39,19.57,42.33,39,63.72,58.86l7.43,7.44c2.58,2.57,5.31,4.85,7.89,7.43l15.77,14.56c5.31,4.85,10.47,9.71,15.78,15s10.47,10.16,15.78,15Zm-277.91-3s76.15,7.88,113.32,13.19c34.43,4.86,142.14,21.39,142.14,21.39Zm0,0c21.39,1.82,42.78,4.09,64.17,6.37,10.92,1.06,21.39,2.27,31.86,3.33l16.07,1.83c5.31.75,10.47,1.51,15.78,2.27l63.72,10.16,31.85,5.31c10.47,1.82,20.94,3.8,31.86,5.62-10.47-1.06-21.39-2.58-31.86-4.1l-31.85-4.55-63.72-9.4c-5.31-.76-10.47-1.83-15.78-2.58L228,846.79c-10.47-1.06-21.39-2.58-31.86-3.8-21.39-2.57-42.78-5.31-64.17-8.64ZM379.86,888.8s-81.31,20.64-108.77,28.53c-27,7.43-108.77,32.31-108.77,32.31l217.53-60.83Z"
                        style="fill:#cfb66c;fill-rule:evenodd"/>
                <path
                        d="M379.85,888.8c-18.05,5.31-36,10.47-54.31,15.33l-54.31,14.56c-18.05,5.31-36,10.47-54,15.78l-27,7.43c-8.95,2.58-18.05,4.85-27.3,7.44,8.94-3,18.05-6.07,27-8.65l27-8.64c18.05-5.62,36-10.93,54-16.54,18.35-4.55,36.41-9.41,54.76-13.81,17.44-4.4,35.8-8.79,54.16-12.89h0ZM173.7,999.7c8.94-3.34,112.1-51.42,136.07-62.65,12-5.62,46.88-18,46.88-18L173.7,999.7Z"
                        style="fill:#cfb66c;fill-rule:evenodd"/>
                <path
                        d="M173.7,999.7c7.88-3,15.32-6.67,22.9-10.16l22.45-10.47,45.06-21.69c15-7.13,29.58-15,45.05-21.7,7.89-3.33,15.78-6.06,23.66-8.64l12-3.79c4.09-1.06,7.89-2.28,12-3.34-15,7.13-30.79,13.2-45.81,20.17-15,7.44-30.34,13.51-45.82,20.18l-45.81,20.17C204,986.66,189,993.33,173.69,999.7h0Zm10,42s93.44-54.76,125.6-72.36c16.84-9.4,71.3-36.41,71.3-36.41Z"
                        style="fill:#cfb66c;fill-rule:evenodd"/>
                <path
                        d="M183.71,1041.72c15.77-9.71,31.85-19.57,47.93-29.58l24-14.57c8.19-4.85,16.08-9.4,24.43-14.25,8.19-4.86,16.08-9.71,24.42-14.26a87.54,87.54,0,0,1,12.44-6.37l12.74-6.37c16.84-8.19,33.68-16.54,51.43-23.67-16.08,10.17-32.62,18.82-49.15,27.76-8.19,4.55-16.54,8.65-24.73,13.2s-16.08,9.41-24.43,13.81c-8.19,4.85-16.08,9.4-24.42,13.8l-24.73,13.5-49.91,27h0Zm196.14-96.79s-58.1,44.6-76.91,58.86-74.18,54.31-74.18,54.31L379.85,944.93Z"
                        style="fill:#cfb66c;fill-rule:evenodd"/>
                <polygon
                        points="713.29 1304.61 683.56 1248.33 700.85 1177.94 824.18 1130.31 771.69 1022.61 797.63 913.84 846.33 816.44 996.82 792.78 1107.4 687.35 1346.18 705.4 1393.05 960.71 1302.79 1282.16 1251.37 1448.58 1042.93 1456.47 946.15 1389.42 832.83 1342.08 713.29 1304.61"
                        style="fill:#e2cc85;fill-rule:evenodd"/>
                <path
                        d="M1078.89,1302.79s-28.83,13.2-78,10.16C986.66,1293.84,887,1284.89,887,1284.89s-12.44-3.79-34.44,5.31c-22.14,9-43.08,7.89-62.65,12.74s-39-20.63-54-25.94c-15-5.61-34.89-19.11-34.89-19.11l-42-4.1-84.34-35.65L440.69,1084.65l-36.41,57-11.23,70.54,40.51,83.59,109.07,99.36,212.68,54L881.37,1412l157.92-66.75,39.6-42.47Z"
                        style="fill:#f1d789;fill-rule:evenodd"/>
                <polygon
                        points="323.27 831.01 350.27 749.25 382.44 696.45 486.04 687.8 454.94 778.52 368.33 932.65 404.28 1070.24 340.57 1102.09 320.99 1072.06 305.22 1003.19 304.16 925.82 323.27 831.01"
                        style="fill:#f4ecb4;fill-rule:evenodd"/>
                <path
                        d="M439.47,1297.18l-19.87-27.76s-5.31-13.2-2.27-24.73c3-11.68,2.57-12.44,1.06-16.84s-14.26-19.57-13.5-32.62c.75-13.2-1.06-17.6,8.64-28.06,10.16-10.16,7.13-27.76,7.13-27.76l13.2,8.19,3-4.55s4.85,3.79,4.85,9.71c1.06-8.19-3.34-46.12,6.67-54.76s27.76,40.5,27.76,40.5l-10.92-71.3-28.07-73.11-49.91-66.75-3-73.58v-6.37s-22.91,35.2-29.28,63c-4.55,19.11,6.37,42.32,4.1,69.78-1.83,27.31-4.1,25.18,2.57,36s22.91,33.07,16.54,49.15c-5.61,13.81-24.73,4.1-24.73,4.1s-3.79,11.22-8.95,15.32c-1.82-6.67-3.79-10.92-7.43-15-.31,2.58-1.06,6.07-1.06,6.07s-3.34-10.47-6.68-23.67c-4.54-17.59-9.4-40.8-13.8-53.24-1.82,7.13-6.37,28.82-6.37,28.82l2.58,33.38,12.44,45.81,12,30,11.68,36.71L358,1198.28l8.19,18.81,7.13,42.33,34.43,36.4,18.36,8.2,13.34-6.83h0Z"
                        style="fill:#f3e19d;fill-rule:evenodd"/>
                <path
                        d="M341.32,764.26s-24.73,42-31.85,84.34-13.5,87.08-9,144.72c4.55,58.11,13.2,93.75,20.18,119.24,12,42.33,43.08,101.19,43.08,101.19l1.06-2.28a159.88,159.88,0,0,1-12.44-31.1c-4.1-16.08-5.62-35.19-9.41-43.84-3.34-8.64-8.95-16.08-11.68-26.7-2.58-10.16-3-26.24-10.92-38.22-3.34-4.86-7.44-17.6-8.65-30.34-1.52-19.12.76-40.51-1.06-58.1-3.34-29.28-5.61-49.15-2.58-64.48s18.82-58.85,28.53-93.44c6.37-22.15,2.57-40.81,14.25-60.08,11.68-19.11,18.82-35.95,21.39-47.63,3-10.62-30.94,46.72-30.94,46.72h0Z"
                        style="fill:#f2e8b0;fill-rule:evenodd"/>
                <path
                        d="M458.59,747.42s-12.74,3.8-18.81,10.47c-6.07,6.37-8.65,11.68-16.84,22.45s-8.65,19.57-15.33,33.07c-6.67,13.2-21.39,33.07-23.21,40.2s-4.85,40.5-8.64,56.28c-3.34,15.78,3.79,35.2,3.79,35.2l8.64-1.83s0,11.23,8.65,18.82c8.64,7.43,10.16-25.19,10.16-25.19l32.31-109.07L488,794.75l5.31-26.7-34.74-20.63h0Z"
                        style="fill:#f5eec0;fill-rule:evenodd"/>
                <path
                        d="M482.25,796.88s-22.91,1.51-34.13,9.71c-4.55,3.33-6.37,6.06-11.22,10.16-8.95,7.43-18.06,14.26-22.45,24-4.86,9.7-10.17,24.42-13.81,52.18-1.52,11.68-1.52,22.45-2.58,31.86-1.52,12.74-3.79,22.9-2.58,30,1.52,14.56,16.54,22.15,18,38.68l31.1-15.77,29.28-115.45,62.2-39-35.2-39.44-18.65,13h0Z"
                        style="fill:#e6db9d;fill-rule:evenodd"/>
                <path
                        d="M318.18,1574.29c.13-1.14.26-2.28.39-3.45,4.54-39,5.31-68.56,8.64-87.07,4.85-26.24,8.19-36,7.43-45.82-1.06-15.77-2.27-27.3-.75-39.44,2.27-16.08,18.05-35.19,17.6-48.39-.31-10.47-5.62-17.29-10.17-23.66s-8.19-11.68-8.19-11.68,31.1-21.39,30.8-107.56a8.18,8.18,0,0,1,1.82.76l15.32,43.53,10.47,12.74,40.2,74.94,51.73,50.22,76.45,51.42L607.86,1493l4.85,139.11-62.65,81.31L539.8,1732a891.11,891.11,0,0,1-221.63-157.72Z"
                        style="fill:#e5cb7a;fill-rule:evenodd"/>
                <path
                        d="M509.56,1707.37s1.06-17.29,15.32-28.52c2.28,3.79,3.79,7.44,3.34,10.16,2.58-4.54,20.63-33.67,61.44-41.26,40.81-7.43,50.67-37.16,50.67-37.16l86.61-78.73L826,1440.69l120.45-42.33,56.29-13.81s1.06,4.1-1.06,13.2c10.46-.75,33.67-6.06,57.79-14.56,9.71-3.79,18.82-5.31,23.67-.3,7.13,6.67,8.19,22.45,8.64,31.85,11.68-2.58,25.18-13.8,36-12.74,17.3,1.82,32.62,22.15,50.22,22.15,23.21,0,33.67-14.26,49.91-25.49,9.71-6.67,23.66-15,31.55-20.63,18.81-13.81,217.84-74.64,217.84-74.64l69.78,4.55,11.23,74.94-6,195.9c-.74.71-1.48,1.45-2.23,2.16l-317.28,165.71L793,1814.07a882.11,882.11,0,0,1-281.16-96.71l-2.25-10h0Z"
                        style="fill:#d8c173;fill-rule:evenodd"/>
                <path d="M344.85,1599.21c6.25-13.07,11.87-24,12.86-27.91.78,7.88,2.21,25.17,5.09,43.55q-9.07-7.71-17.95-15.65Z"
                      style="fill:#f1d789;fill-rule:evenodd"/>
                <path
                        d="M666.12,1783.57,723,1767.75l4.85,1.52s2.58,1.52,2.58,6.67c7.13-4.09,13.2-3.34,17.6-6.06,2.27,4.85,4.54,20.93,14.56,22.9,10.46,2.28,21.69-4.55,33.07-13.19,11.22-8.95,24-20.18,33.67-24.73a180.8,180.8,0,0,1,9.41,20.17c12.74-10.16,34.89-51.42,66.44-50.67A119.72,119.72,0,0,1,949,1671.42c29.28-19.87,47.63-21.39,70.54-19.57a120.62,120.62,0,0,1,33.07-29.58c3.79,1.52,14.26,7.89,27.31,1.82,13.2-6.06,28.06-29.58,47.63-32.61a46,46,0,0,1,30.34,6.37s57-56.59,96.33-75.4c-1.52-4.55-4.55-21.69,41.56-59.62,2.58,2.28.76,8.65,2.58,9,.75,0,12-4.85,26.24-15.78,17.6-13.19,38.68-27,51.42-30.79,24-7.13,49.46,7.43,49.46,7.43a22.8,22.8,0,0,1,7.13-3.34c6.06-1.06,10.46-1.82,13.8-3-.3,7.89,4.1,21.39,0,33.07a73.75,73.75,0,0,0,15,6.37c-2.57,5.61-8.19,19.87-17.59,26.7,7.88,3.79,8.94,8.19,20.17,12-4.55,6.37-12,17.3-15.32,24-3.34,7.13-15.33,36.71-20.64,47.93-5.61,11.23-13.19,31.86-16.84,36s-16.84,21.69-27,30.33c9-3.34,45.82-14.56,61.44-18.81-4.65,6.82-28.22,41.79-50.88,75.42a890.14,890.14,0,0,1-728.7,84.36Z"
                        style="fill:#e0cd81;fill-rule:evenodd"/>
                <path
                        d="M486,792.78s-13.19,0-15.77,1.82,13.2,5.62,18.05,7.44,15.32,10.16,18.05,16.84c2.58,6.37,94.81,43.53,94.81,43.53l65.23-3.34L688.86,828l-42.78-37.47,30-88.44-39.74,6.37-95.57,57-47.94,18.36L486,792.78h0Z"
                        style="fill:#dfc57c;fill-rule:evenodd"/>
                <path
                        d="M629.25,822.06a10.23,10.23,0,0,0,9,4.85c13.5,0,25.93,3.34,31.09,10.16,8.65,10.93,32.62,45.82,32.62,45.82l57.34,20.63L763,836l-62.65-43.53-71.3,26.24v3.34h.16Z"
                        style="fill:#e5cc7c;fill-rule:evenodd"/>
                <path
                        d="M618,847.09s10.46.76,23.66-4.1,34.89-15.32,44.3-11.22c13.19,5.61,10.46,23.21,24.73,39,8.64,9.71,24.42,9.41,33.37,19.88s39.74,5.61,39.74,5.61l11.68,63-46.87,60.08-15.33,74.63H669.9L612,1071l-28.52-69,14.26-69.78L618,847.09h0Z"
                        style="fill:#d2c281;fill-rule:evenodd"/>
                <path
                        d="M740.6,850.12a17.16,17.16,0,0,0,4.85.76c-1.82,1.52-5.62,4.85-4.1,13.5s6.37,19.57,2.28,26.24a32.8,32.8,0,0,1,7.13,12.44c2.58,7.44,3.34,14.26,20.17,15.33a35.44,35.44,0,0,0-6.67,5.31s11.68,10.16,17.6,19.56C787.92,943,804,938,804,938l3.34,2.28,7.13-3s-6.67-2.58-1.82-18.81c4.55-14.26,8.65-13.5,9-14.56s3.34-16.08,3.34-22.15c2.27-7.88,4.09-31.85,4.09-31.85l-4.85-52.94-27.3-16.54L774.73,759l-20.94,39.44L740,812.19l-1.06,34.13,1.66,3.8h0Z"
                        style="fill:#e2c270;fill-rule:evenodd"/>
                <path
                        d="M806.28,805.83s4.85,13.8,6.68,24.42a23.49,23.49,0,0,0,1.06-6.37s3.79,20.94,4.54,29.59c1.52-.31,3-.76,3.34.75s3.8,18.36,3,27.76a75.65,75.65,0,0,1,25.48-25.48c6.07-3.8,13.2-7.89,20.64-8.2,11.68-.3,20.17,7.44,34.13,7.44,33.67,0,64.17-24.73,86.62-32.31,16.53-5.62,30.79-9.71,40.8-18.82,4.86-4.09,13.51-13.19,21.39-26.7,10.47-18,21.39-33.67,32.32-35.64a67.78,67.78,0,0,1-15,1.06s3.34-3.34,9-7.89,12.44-10.16,22.14-10.16c17.3,0,25.94,2.57,35.65,2.57,9.71-.3,15.32-2.57,15.32-2.57s10.17,7.13,33.07,7.13c22.91.3,38.23,2.27,50.22,3.34s52.18-3.34,63.71-3a55.82,55.82,0,0,1,21.7,5.31l-37.17-108L1151.4,513.36l-79.49,56.28L949.63,691.91,831.31,735.75l-24.73,27.76v42.32Z"
                        style="fill:#ccb360;fill-rule:evenodd"/>
                <path
                        d="M1071.76,743.93s3.34-3.33,8.94-7.88,12.45-10.17,22.15-10.17c17.29,0,25.94,2.58,35.65,2.58,9.71-.3,15.32-2.58,15.32-2.58S1164,733,1186.89,733c22.91.3,38.23,2.27,50.22,3.33s52.18-3.33,63.71-3a55.53,55.53,0,0,1,21.69,5.31l-16.84-48.7-19.56-37.16-55.83-61.14s-67-39.44-67.51-39.74c-.3-.3-23.21-6.37-23.21-6.37l-60.68,36.71-55.06,142.45-1.06,30,35.64,16.84c8.95-15,18.82-27,28.07-28.52-8.35.91-14.72.91-14.72.91h0Z"
                        style="fill:#d5b457;fill-rule:evenodd"/>
                <path
                        d="M1071,754.1c-5.31.3-9.7-.76-10.92-4.55-4.55-12.74-8.19-14.56-12-14.56s-8.95,8.19-12,8.94-6.67-9.4-6.67-9.4l-3.34-1.52s-19.57,12.74-33.37,27.76-36.41,40.51-46.57,45.05-45.06,6.07-57,8.65-25.18,11.23-27,13.2,5.32,4.09,6.38,6.06c1.06,1.82-11.69,1.06-12.75,3-.75,1.52,3,10.16,4.86,14.56a24.73,24.73,0,0,1,10.46-2.58c11.68-.3,20.18,7.44,34.13,7.44,33.68,0,64.17-24.73,86.62-32.32,16.54-5.61,30.8-9.71,40.81-18.81,4.85-4.09,13.5-13.2,21.39-26.7,5.76-9.25,11.38-17.9,17-24.27h0Z"
                        style="fill:#d2b257;fill-rule:evenodd"/>
                <path
                        d="M588,1504.86s-3-11.23-30.8-40.2c-7.89-8.19-12.74-15-18.05-19.87-13.2-12.45-20.94-15.78-30.34-22.91-20.63-15.32-43.08-15.32-60.37-34.13S411,1333,397,1296.27c-13.8-36.71-17.6-48.39-17.6-49.45s3.8-8.19,8.65-7.13,4.85,10.46,6.07,12.74a75.27,75.27,0,0,0,8.19,10.46c7.13,8.2,17.29,18,22.45,32.62-1.06-12.44-5.31-26.24-5.31-26.24s26.7,16.84,49.45,34.43c22.91,17.6,32.31,23.67,39,34.89s22.45,40.81,30,49.46,111,41.26,111,41.26L698.11,1466l24.43,53.55-19.12,30-36.71,7.89-59.62-26.7L588,1504.85h0Z"
                        style="fill:#d2b159;fill-rule:evenodd"/>
                <path
                        d="M455.55,1320.39s12.44,19.87,42.78,38.68c27.31,16.54,70.54,31.56,109.08,40.51,22.14,5.31,44.29,9.4,64.16,9.71,53.55.75,90.41-14.56,136.08-19.57,24.73-2.58,55.07-4.55,86.62-12,40.5-9.71,64.47-20.64,97.09-36,23.66-10.92,45.36-19.11,62.95-29.58,24.73-14.56,42.78-30.79,63.72-35.64-2.58,7.13-5.31,19.87-25.94,33.07,10.92-.31,25.94-1.06,25.94-1.06s-14.56,8.64-40.2,28.06c-15.78,12-36.71,32.31-58.1,45.81-13.81,8.65-28.83,15-38.69,20.18-24,13.2-33.68,19.87-49.45,36,5.61-.3,6.07,0,6.07,0s-19.88,2.58-34.13,10.16c-3,0-8.2-1.06-17.3,1.52-7.13,2.27-16.54,7.44-26.24,10.16-13.81,4.1-18.35,2.28-18.35,2.28l2.27,4.55s-18-.31-24,.3c1.06.3.76.76.76.76a9.21,9.21,0,0,0-3,1.06,31.3,31.3,0,0,1-9.4,4.09c-1.82.3-3.34.3-5.62.76.76,1.82,6.68,12,9.41,18-2.27,1.52-36.41,27.31-36.41,27.31a26,26,0,0,1,2.58,5.31c1.06,3.33,1.52,8.19,2.58,10.46,2.57,4.55,4.09,5.31,4.09,5.31s-4.09.76-11.23,2.58c-6.06,1.52-13.5,4.09-24,5.61a95.13,95.13,0,0,1-9.71.76c1.52,3.34,8.19,16.08-4.1,30.79s-16.08,16.85-19.87,26.25a40.69,40.69,0,0,0-6.07-3.8c-4.09-1.82-9.71-4.54-11.68-8.19a97.33,97.33,0,0,1-4.55,14.26c-3.79,10.16-9.4,20.18-10.46,27.76-4.1-4.55-11.68-13.5-22.15-11.68s-18.81,16.08-20.63,20.18c0-2.58-1.82-4.55-2.27-1.52-.31,3.34-6.07,38.22-38.23,66.44-.3-7.13-.3-22.91-1.06-28.06-3,3-6.67,7.43-28.52,16.84-21.39,9.4-18,18.81-18,18.81s-1.82-15,9.71-30.8c11.68-15.77,18.81-23.21,18.81-24.42a6.75,6.75,0,0,0-1.52-3.34c-1.52-1.52-4.55-3.34-4.55-4.55,1.82-.75,19.87-9.4,18.81-27.31-1.06-16.07-7.88-24.42-12.74-30.33-.75-.76,7.14-6.37,6.07-8.19-.76-1.06-10.46-8.2-11.68-12a34.86,34.86,0,0,1,1.52-6.67c1.06-3.34,1.82-5.62,1.52-7.89-.76-3.79-4.86-14.26-6.07-15.32,1.06.3,8.64,0,8.64,0s-6.06-9.71-7.13-14.26-3.34-16.54-4.55-18.81c2.58.3,8.95.75,8.95,0,.31-2.28-5.61-6.07-3-9,1.82.3,5.31,1.82,8.64,6.07-1.82-4.86-4.85-14.26-11.23-18.05,3-1.06,13.2-3.8,22.15,1.51s12,12.74,12,12.74,5.31,4.1,13.51,10.17c9.4,7.43,21.38,18,40.5,25.48,4.1,2.28,14.56,2.28,22.15.76a34.06,34.06,0,0,0,9.4-3.79,17.43,17.43,0,0,1,3.34-1.52,72.71,72.71,0,0,0-5.61-9.41c2.58,0,5.61.31,5.61.31s1.82-4.1-6.37-12c1.82-1.82,4.1-3,4.1-6.07-2.58-.3-7.13-4.09-8.19-5.61,1.51-1.06,3.79-4.55,6.37-5.61-2.28-1.82-7.89-9.41-10.47-10.16a47.69,47.69,0,0,0,7.13-3.34s-12.74-3.34-16.84-6.07c-4.1-3-10.16-8.19-13.8-9.71-3.8-1.52-10.47-2.27-13.2-5.31,2.57.76,6.67,0,9.71,0,2.27,0,3.34.3,4.09.3-.3-1.06-.3-3.34,5.62-4.09a27.71,27.71,0,0,0,8.19-2.58s-5.62-.3-12-6.37-11.68-10.92-15.32-11.68c-3.79-.76-10.92,2.58-15.32,2.27-6.07-.75-8.65-3.79-8.65-3.79s-20.17,1.82-64.92-25.48c-38.69-23.67-55.53-44.6-55.53-44.6a66.52,66.52,0,0,1-10.46-4.86c-14.56-7.58-34.74-23.36-34.13-44h0Z"
                        style="fill:#c2a44d;fill-rule:evenodd"/>
                <path
                        d="M1013.65,409.89a19.69,19.69,0,0,1,9,6.07c7.13,8.19,11.68,23.66-4.55,40.2,6.37,2.27,9,3,14.56,2.27-5.61,6.68-18.35,20.94-19.11,33.38-.76,10.16,5.61,13.2,5.61,13.2s-9.71,11.22-10.16,30a121.56,121.56,0,0,1,15-14.26c11.23-8.95,26.7-19.11,37.17-25.48a21.39,21.39,0,0,0,1.06,7.88s19.56-16.08,36-8.94c7.43,3.34,4.09,13.8,4.09,13.8s10.17-3.79,17.3,3.34S1136.83,536.87,1142,544c2.27,3.34,8.19,9.71,14.25,19.57a247.53,247.53,0,0,1,20.64,43.53c.3-7.89,2.27-20.17,24.73-12.44,22.45,7.89,47.93,24.43,69.32,57S1297.63,721,1308.4,735c10.92,13.5,22.15,35.95,22.91,45.36s-3.34,39.74,19.11,121.81c6.37-25.48,16.08-82.07,16.08-82.07l5.31-49.91,6.07-154.43L1216.62,481.79l-126.06-91.48-82.07,7.89,5.15,11.68h0Z"
                        style="fill:#caa13e;fill-rule:evenodd"/>
                <path
                        d="M1313.26,639.71s-2.28-15-40.2-40.5c-37.93-25.18-67.51-25.18-94.81-46.57-20.94-16.84-42.78-55.53-57-68.27-13.81-12.59-16.08-49-16.08-49l46.57-39L1221,296.26l58.55-64.47,28.06,39,39,45.81,21.69,91.93,7.89,134.56-63,96.63Z"
                        style="fill:#b59544;fill-rule:evenodd"/>
                <path
                        d="M1360.14,801a171,171,0,0,0-7.44-60.37c-10-31.1-31.85-86.32-42-107-4.1-22.91-1.06-24.73,3.34-27.31s20.94-12,30-45.05,37.17-34.13,37.17-34.13l17.29-12.74,26.25,65.68,22.9,59.32,7.13,45.36,5.31,38.68-12.44,81.77-61.43,55.52L1360.13,801h0Z"
                        style="fill:#c89d3a;fill-rule:evenodd"/>
                <path
                        d="M502.89,1712.39v-1.68a12.9,12.9,0,0,0,3.33-3c1.06-1.52,1.83-3.34,2.58-3.79,1.52-.76,8.65-3,12.44-2.28s13.81,4.85,19.12,4.55c10.92-.3,23.66-8.65,43.84-4.85,30.34,5.61,37.47,26.24,55.07,37.92,12,8.2,24.42,4.55,26.24,4.55h4.09c.76,0,6.37-6.37,9.41-6.06,6.07.3,6.67,5.31,10.46,5.61,8.95,1.06,26.25-4.55,34.9-2.27A16.67,16.67,0,0,1,735.29,1752c1.82,5.61.3,12.74-4.1,16.84-9.4,8.64-18.35,16.84-20.17,24a85.25,85.25,0,0,1,6.66,5.64,883.15,883.15,0,0,1-214.79-86Z"
                        style="fill:#ceb052;fill-rule:evenodd"/>
                <path
                        d="M1310.68,1409.29s23.66-31.55,31.86-47.18C1350.73,1346,1316.6,1142,1316.6,1142l68.57-224.66-1.83-73.12s3.34-67.51,11.23-96.79c9.41,16.84,38.69,37.17,45.06,47.94,3-20.64,13.19-64.17,11.68-110.59,5.61,8.64,19.11,95.57,19.11,95.57l13.5,58.55,17.6,62.2,19.57,65.69,11.68,45.36,6.67,10.92,5.62,19.11,5.31,20.64,15.32,48.39,9,39.74,7.13,72.06a109.86,109.86,0,0,1,3.34,16.84c.3,7.89-1.06,12.44-1.06,13.81s2.58,17.29,1.52,29.28c-1.52,12-1.52,21.39-10.93,30s-15.32,60.07-15.32,60.07l-16.84-11.22s3.34-15.33-4.55-29.28-23.21-16.84-31.86-14.56c-8.64,1.82-25.93,4.54-31.55,9.4-5.31,4.85-18.35,19.87-30.34,26.7-15,9-39.44,9.71-52.48,12.74-13.2,3-27.76,12-43.09,22.45a240.58,240.58,0,0,1-37.92,20h0Z"
                        style="fill:#cca847;fill-rule:evenodd"/>
                <path
                        d="M1310.68,1740.75s1,.65,2.93,1.71a891,891,0,0,0,284-210.5c-.87-30.7-2-62.17-3.24-73.83-2.57-24.73-.75-49.91-1.51-64.47s-8.95-73.88-12.74-89.2c-4.1-15.32-12-22.91-13.2-22.91-1.06.31-7.44,28.83-7.44,36s-1.52,24.43-1.52,28.83c-1.06-.31-1.51-3-1.51-4.1-1.52,3.79-3.34,10.47-4.1,11.23s1.06-6.37,0-7.89-3-.76-2.58-4.55a43.41,43.41,0,0,1,1.06-6.67s-4.55,6.67-7.88,23.66c-3.34,16.84-3.34,17.3-4.55,18.81-1.06,1.83-7.13,7.89-7.44,10.17-.3,4.09,5.62,8.19,6.07,10.46.3,3.8-5.31,21.39-7.13,30s-1.06,25.48-3,34.13c-1.52,7.89-3,12.44-8.19,15.77,3.79.76,7.43,1.82,7.43,1.82s5.31,22.45-8.19,41.57c-4.85,6.67-6.06,9.71-11.22,15.78-10.17,11.22-18.06,24-18.82,32.31a54.28,54.28,0,0,1-1.06-7.44s-15.77,18.36-22.45,28.83c-8.64,13.5-20.63,12.74-24,16.08s-4.1,9.4-3,14.26c-3,.75-8.64,1.82-12.44,13.5-1.82,6.06-6.37,12-13.5,16.08s-15.78,5.31-20.18,6.37c3.79,1.06,5.31,1.06,7.13,2.27-2.27,3.79-12.74,9.71-24.42,17.3-11.68,7.13-17.3,17.59-20.18,24.42-3,6.37-7.43,10.47-14.56,11.23,3,1.82,7.44,6.06,9.71,7.43-3.34.76-9,.76-19.11,9.41-10.62,8.8-14.26,11.38-19.12,12.14h0Z"
                        style="fill:#c39d3c;fill-rule:evenodd"/>
                <path
                        d="M1099.6,1811.05a85.79,85.79,0,0,1,18.73-9.93c23.66-9.4,48.69-11.22,58.55-14.25,9.41-3,16.84-7.14,28.52-9.41-.31,2.66-.57,5.16-.85,7.52a884.07,884.07,0,0,1-105,26.07Z"
                        style="fill:#d2ba6b;fill-rule:evenodd"/>
                <path
                        d="M1536,1188.72s-4.85,26.24-13.5,42.78-18,39.44-18,39.44a72.15,72.15,0,0,1,1.82-15.33c-10.92,6.37-37.47,21.7-45,28.52-7.13,6.37-19.12,17.6-22.15,22.91,7.13-20.93,14.56-39.74,15.78-48.39-10.92,7.89-61.9,49.91-88.44,77.67l-82.68,66.9A286.14,286.14,0,0,1,1254.4,1417c-14.25,6.06-31.09,11.22-43.53,16.08,3.34-8.95,8.64-16.85,16.08-24.43,7.89-7.43,31.55-33.07,35.19-45,3.34-12.44,4.1-19.87-.3-30.34-4.1,1.06-13.5,1.52-19.87,3.34s-13.2,8.64-13.2,8.64,4.85-27.76,15.32-54c-7.89.3-21.39,2.57-21.39,2.57s18.81-31.55,51-53.54a165.88,165.88,0,0,0-28.82,8.94c-18.81,7.89-39.44,19.57-54.76,25.94,8.64-12,69.32-98.6,105.43-179.31,36-80.55,49.45-101.18,57.34-144.41,4.09-21.39,3-53,4.09-81.31,1.06-28.07,4.55-53.25,2.28-70.09,9.4,11.68,44.6,44.6,45.81,118.18,1.06,73.57-33.67,172.94-70.54,226.48,9,2.58,32.32,5.62,56.28-36s23.67-53.24,32.32-70.54c1.06,8.65.75,11.68.75,11.68s34.9-42.32,51.43-95.57c3.34,22.91,13.2,43.09-2.28,85.11-13.8,37.92-31.85,47.18-31.85,47.18s8.95-1.52,22.14-9.41c2.28,5.61,1.83,12,5.62,14.26s8.95,6.07,9.71,9.71c4.09-6.07,10.46-13.81,12.44-19.57-1.52,12-2.58,64.47,3,91.17,11.69-1.06,23.67-1.82,31.86-22.91-5.61,20.64-5.61,33.07-1.82,50.67,6.22-4.24,11.83-11.83,11.83-11.83h0Z"
                        style="fill:#c0993a;fill-rule:evenodd"/>
                <path
                        d="M1141.84,352.55s-11.68,4.85-31.55,4.85c-17.29,0-12.44-6.67-39.44-6.67-41.56,0-186.74,24-212.23,23.66-16.54-.3,55.82,7.13,55.82,7.13l184.93,2.58,37.16-3L1150.34,353l-8.5-.45Z"
                        style="fill:#a88f33;fill-rule:evenodd"/>
                <path
                        d="M662.32,714.05s-23.67,18.05-33.68,31.86-15.32,22.9-26.7,34.13a23.3,23.3,0,0,0,7.89-1.06s0,3-1.82,3.79a10.61,10.61,0,0,1,8.64,3c-3.34,1.82-12.44,10.93-5.31,21.7,5.31,8.19,16.54,8.94,16.54,8.94s-2.58,7.44,8.19,6.68c23.21-1.06,49.15-11.23,61.13-8.65,12,3,18.82,4.1,27.31,18.82,9,14.56,16.84,16.84,16.84,16.84s5.31-13.51,4.1-33.68a100.16,100.16,0,0,0,7.13-34.13l-7.89-58.1-34.43-43.54-44.6,24.73-3.34,8.64Z"
                        style="fill:#e3c571;fill-rule:evenodd"/>
                <path
                        d="M704.64,705.4s3.34,7.89,17.3,8.64c-1.52,3.34-1.52,3.8-1.06,6.37.3,2.58.75,6.37.75,6.37a14.11,14.11,0,0,0,4.1-3c.76,3.34-.76,8.64,0,12.44a27.63,27.63,0,0,0,2.27,6.67,13.4,13.4,0,0,1,.76-1.51c.3-.76,3,8.19,10.47,15a6.22,6.22,0,0,1,.75-3,10.52,10.52,0,0,0,1.82,5.31,5.54,5.54,0,0,1-1.51-1.06s.75,24,4.85,36.41a17.05,17.05,0,0,0,1.82-2.58c0-.75-.3,6.68-1.06,12-1.06,5.31-.3,12.74-.3,12.74a39.81,39.81,0,0,1,8.94-5.31c4.55-1.83,12-7.44,16.54-19.88a132.83,132.83,0,0,0,6.07-21.69,30.28,30.28,0,0,1,3,9c.31,3.79,7.44,1.82,7.44,1.82l1.52-16.54,9-37.47,8.19-23.21,39.44-61.43L917,586.61l62.2,14.26,52.48-71.3-90.41-54.31-85.56,8.95L778.06,591.76l-62.19,97.55-11.23,16.08h0Z"
                        style="fill:#d8b65b;fill-rule:evenodd"/>
                <path
                        d="M1152.76,549.76s-5.31,1.06-20.63,9-25.94,10.46-31.86,22.14-6.37,20.94-6.37,20.94,10.47-4.55,16.54-6.07c6.37-1.51,13.5-1.06,12.74,1.52a17.59,17.59,0,0,1-3,4.85s12-.3,11.68,5.62-2.27,12.44-4.54,15.32c-2.28,3-11.68,7.44-12.74,10.93-2.58,7.13,1.06,7.43-.31,13.19-1.06,5.62-6.06,16.54-22.45,35.65-16.84,19.12-24,32.62-24,32.62s-8.19-15.32-12.44-28.52c-3,1.51-19.11,10.46-19.11,10.46l-37.32-130,.75-8.65s3.34-4.09,4.1-11.68c-5.61-1.82-6.37-3.34-13.81-10.46s-13.5-15.78-25.93-21.7c-1.82-3.34-4.1-7.88-13.2-9.71s-14.56-3.33-14.56-3.33,4.85-1.83,7.13-5.62c-5.62.76-10.16,2.58-22.45,2.28-12.44-.31-13.81-.76-20.63.3s-15,4.1-18.05-6.37c-3.34-2.58-10.47-.3-16.54,8.64s-8.19,16.08-19.87,19.57a40.71,40.71,0,0,1-5.31,14.56c-3.34,5.62-8.65,11.23-15.78,19.57-11.23,13.2-9.41,34.89-27.31,51.43-18.05,16.53,3-45.82,3-45.82l28.82-69,82.07-80.25,127.43-8.64,12.44,66,62.2,21.39,39.29,59.92h0Z"
                        style="fill:#d3ae4d;fill-rule:evenodd"/>
                <path
                        d="M1172.94,564.32l-53.55-77.21-37.47-28.83s-26.7-49.14-28.52-50.66c-1.52-1.06-26.7-3.79-42.78-4.85l3,7.43a19.69,19.69,0,0,1,9,6.07c7.13,8.19,11.68,23.66-4.55,40.2,6.37,2.27,9,3,14.56,2.27-5.61,6.68-18.35,20.94-19.11,33.38-.76,10.16,5.61,13.19,5.61,13.19s-9.71,11.23-10.16,30a121.56,121.56,0,0,1,15-14.26c11.23-9,26.7-19.12,37.17-25.49a21.42,21.42,0,0,0,1.06,7.89s19.56-16.08,36-8.95c7.43,3.34,4.09,13.81,4.09,13.81s10.17-3.79,17.3,3.34,17.29,25.48,22.45,32.62c2.27,3.34,8.19,9.71,14.25,19.56a247.31,247.31,0,0,1,20.64,43.54c.3-6.07,1.52-14.56,12-14.56l-15.93-28.52Z"
                        style="fill:#caa13e;fill-rule:evenodd"/>
                <path
                        d="M370.15,783.68s-3.79-9.41,0-27.76,9.71-27,11.68-54,19.57-60.68,19.57-60.68l48.69-22.14,34.44,9.4,10.16,46.12-43.54,24s-2.27,10.16-14.56,18.35-29.28,14.56-33.37,22.91a66.79,66.79,0,0,0-5.31,16.08s-12.44-2.58-19.87,5.61c-7.89,8.35-7.59,15.78-7.89,22.15Z"
                        style="fill:#f4efc8;fill-rule:evenodd"/>
                <path
                        d="M468.45,771.39s-4.1,2.58-7.13,9c-3-4.85-10.17-33.68-10.47-59.62S449,688.4,455,679.46,484.53,661.1,481.19,645c-3.34-15.32-17.3-21.69-34.44-17.29-12,3-20.93,28.52-33.37,41.26-9.41,9.71-20.63,8.19-23.66,13.5-4.1,7.13-.31,14.26-1.52,18.81-.31,1.52-4.1,9.71-10.93,19.57-13.8,19.87-37.16,47.94-40.2,73.12,1.06-14.26.31-14.56,4.1-30.34l-2.28-3.79,15-49.15,9.71-40.5,21.7-67.82,38.22-69.32,37.17-41.57,38.68,2.58,4.55,58.1,22.15,109.08,46.57,57.34L498,768.81l-29.58,2.58h0Z"
                        style="fill:#ebcc73;fill-rule:evenodd"/>
                <path
                        d="M491.66,792s-6.37,1.52-8.65.31-4.54-2.58-3.79-4.1,4.85-4.09,4.85-5.31a4.25,4.25,0,0,0-3.79-4.55c-3.49-.45-4.55,1.82-4.55,1.82s-3.34-2.57-6.06-3a41.93,41.93,0,0,1,4.85-.31,47.29,47.29,0,0,0-13.2-3.79c3.79-2.27,11.23-8.95,16.08-8.95s7.89-.75,7.13-3.33-4.55-6.37-8.64-7.89c1.51-1.82,2.58-4.55-1.06-12-3.8-7.43-2.28-12.44-1.06-14.25,1.06-2.28,4.85-6.37,6.67-8.95s3.34-6.07,6.37-7.89c1.52-1.06,6.37-3,11.23-4.85,5.31-1.82,9.71-4.1,12.74-1.82,3.34,2.27,1.82,5.31,1.82,5.31s10.47-3.8,19.87,1.06c9.41,4.54,32.32,7.43,32.32,7.43L573,733.48l-54.31,46.57-22.45,11.23-4.55.75h0Z"
                        style="fill:#e5c66b;fill-rule:evenodd"/>
                <path
                        d="M567.05,715.87s-16.84,11.23-20.63,15.32c2.27.31,6.06,1.83,4.54,4.1-1.82,2.27-12.74,10.16-18.81,17.6-6.37,7.43-12.44,16.84-14.56,21.39-2.27,4.09-19.57,16.08-25.48,17.59,12.44,0,37.47-15.32,46.87-15.32-.3,4.55,2.58,9.71,7.89,10.16s20.63,3.34,41.26-9.4c20.63-12.44,13.81-21.7,22.45-27.76,16.54-10.93,23.21-20.64,32.31-26.7s13.81-7.44,13.81-7.44.3-4.55,3-4.09a4.08,4.08,0,0,1,3.34,2.58s15.78-11.23,36-14.26a2.1,2.1,0,0,1-1.06-1.06s1.51-.76,1.82-1.52c0,0,1.06-1.52,1.82-.76s1.82,6.37,3.34,8.65c3.34-1.52,9.71-15.78,9.71-15.78L730,645.33V605.28l-12,2.28-90,38.22-54.62,56.59-6.37,13.5Z"
                        style="fill:#e6bd62;fill-rule:evenodd"/>
                <path
                        d="M826.15,519.42A50.87,50.87,0,0,0,840,513.8c-1.82,4.86-1.82,10.17-9.71,21.7s-8.19,13.2-14.56,25.18c-6.37,12.44-7.13,30.34-13.2,38.22a27.74,27.74,0,0,1,8.64-2.57s-6.06,5.31-8.64,10.92-7.13,17.29-18.35,24.43-25.49,11.68-40.81,28.52c-15.33,16.53-31.1,37.47-39,45,4.1-7.13,9.71-21.39,11.23-30.79s-.31-20.64,2.27-33.07,2.58-21.39,15-43.09,33.68-97.09,33.68-97.09l45.81-14.56,13.81,32.77h0Z"
                        style="fill:#b6933f;fill-rule:evenodd"/>
                <path
                        d="M793.08,491.66s-13.8,19.87-17.59,37.47-.31,16.08-2.58,24.73a32.25,32.25,0,0,0,0,16.08A57.09,57.09,0,0,1,792,551.12c13.05-7.88,23.67-13.5,30-20.17,6.37-7.13,11.68-18.81,25.48-27.76-5.61-.76-13.5-3.34-15-3,5.62-6.37,22.45-16.08,39.44-27.76,16.84-12,15.78-16.84,43.09-28.82-8.95,1.52-13.2-.76-20.64,0,3-6.37,13.5-9.41,24-19.87s-6.67-25.94-6.67-25.94l-80,48.39-38.68,45.51Z"
                        style="fill:#c49937;fill-rule:evenodd"/>
                <polygon
                        points="576 455.55 577.82 440.99 600.73 404.28 624.7 339.81 624.7 251.67 622.88 200.7 626.67 167.32 629.55 156.71 632.59 152.61 652.15 162.77 679.16 199.48 681.74 270.33 655.49 382.13 580.55 463.9 576 455.55"
                        style="fill:#dfc068;fill-rule:evenodd"/>
                <path
                        d="M635.62,148.51s-12,.31-14.56,50.22-3.8,76.15-5.62,100.88-6.06,39.74-8.19,54.31-3.34,34.43-10.16,46.57c-3,5.61-9.41,23.21-24.43,36.41-16.84,14.56-42,24.73-45.81,25.49-6.68,1.51-40.51,4.85-54.31,12.44-4.85,2.58-13.2,5.61-22.45,14.26-18.36,16.53-42.78,46.11-60.38,81.76-27,53.25-54,203.58-54,203.58l6.07-10.16s.76-13.5,14.26-37.17c13.2-23.66,9.41-50.21,27.76-95.57,7.13-17.29,16.08-39.74,27-58.86,17.3-31.1,38.23-57.8,59.32-72.36,34.43-23.66,72.36-28.82,72.36-28.82l40.81-27s7.13-13.8,16.54-29.58c13.19-22.14,30-46.87,33.67-82.82,5.62-53.25-7.89-88.14-7.13-119.69s1.06-54.76,7.44-60.38,1.82-3.49,1.82-3.49h0Z"
                        style="fill:#a88f33;fill-rule:evenodd"/>
                <path
                        d="M635.62,386.68s18-44.3,26.24-83.59c1.52-7.89,4.55-15.77,5.31-22.14,3.79-37.17,4.85-52.49,0-72.82-3.79-15-18.35-28.52-25.94-39-7.43-10.93-10.92-15-9.4-17.3s7.43-6.06,13.19-5.61a45.17,45.17,0,0,1,32.32,15c11.68,13.5,20.93,59.32,20.93,59.32L708,281l24.73,76.15-97.09,29.59h0Z"
                        style="fill:#c99e3d;fill-rule:evenodd"/>
                <path
                        d="M804.76,340.57s-3.34,1.51-9.4,0a13.53,13.53,0,0,1-6.07,12.74c-6.37-2.58-66,2.58-66,2.58s-27.76-4.86-36.41-41.57c-6.06-24.43,4.55-58.1,1.06-80.25-5.31-32.62-12.74-39-13.5-49.15s-1.52-12.74-1.52-19.11c-3.34-.76-5.31-1.82-8.64-1.82-.76-3,.75-5.62-2.58-10.93,1.82.76,14.26,2.28,28.82,16.08,12,11.23,12,15.32,13.81,17.6,2.27,2.27,20.63,18,28.52,33.68s23.21,65.68,26.7,73.87c1.06,3.34,3.34,6.68,9,14.26,8.8,10.93,21.69,29,36.25,32h0Z"
                        style="fill:#b58634;fill-rule:evenodd"/>
                <path
                        d="M706.47,187.5a420.38,420.38,0,0,1,24.72,46.12c8.95,20.17,14.26,36.71,25.49,50.21-6.07-17.59-16.84-52.18-23.21-64.47-7.13-13-21.69-27-27-31.85h0Z"
                        style="fill:#a88f33;fill-rule:evenodd"/>
                <path
                        d="M603.31,436.9s-15.32,3.79-43.84,18.81c-9.41,4.85-18.35,8.94-27,12.74C510,478.61,485.9,488,466.78,493.18c1.52,1.82,2.27,2.57,2.27,2.57s0,7.44,4.1,11.68c-2.27,2.28-32.62,22.91-23.66,91.93,6.06-2.27,13.19-5.31,14.25-5.31,1.83.31,2.28,5.31,4.55,5.31s9.71-3,17.6-13.2c-.3,4.1-4.85,45.36,19.57,73.12,4.55-5.31,16.08-22.91,16.08-22.91l.3-5.61s1.06-19.57,7.44-37.47,18.81-31.1,18.81-31.1L613,469.5l-9.71-32.61h0Z"
                        style="fill:#e6c367;fill-rule:evenodd"/>
                <path
                        d="M542.63,573a35.86,35.86,0,0,1-9.71,4.85c-1.06-3.79-2.58-16.84,6.37-29.58,10.47-15.33,33.37-35.2,39.74-51,4.1-10.17,2.28-35.65,38.69-68.27s50.66-43.84,50.66-43.84l58.86-29.58L799.6,384.1,763.65,525l-27.91,66-111-20.93L542.62,573h0Z"
                        style="fill:#dcba5a;fill-rule:evenodd"/>
                <path
                        d="M585,534.74l13.81-17.29V505.16s15.32-4.1,31.85-20.94,39.44-49.15,59.62-47.18c20.18,2.28,22.15,43.84,22.91,55.53s3.34,38.22,7.43,52.49c4.55,14.26-49.15,68.26-49.15,68.26L635,641.08,585,534.74h0Z"
                        style="fill:#e9ce77;fill-rule:evenodd"/>
                <path
                        d="M627.73,678.7s11.23-17.6,3-21.39c4.85-10.92,13.8-22.45,13.8-22.45s6.37-15.77,27-35.19,33.38-32.32,36.72-45.36a119.5,119.5,0,0,0,3.34-25.94,49.24,49.24,0,0,0,7.13,4.85c3.34,1.52,19.11,14.56,16.84,40.81s-12,37.17-12,37.17-9.4,9.4-16.07,14.26c-7.14,4.85-9.71,10.46-21.7,10.92a14.35,14.35,0,0,1,4.1-2.28s-12.44-1.51-19.12,4.55S649.89,663.38,642.76,669c-7.13,4.55-15,9.71-15,9.71h0Z"
                        style="fill:#cdae50;fill-rule:evenodd"/>
                <path
                        d="M1132.13,383.64a182.69,182.69,0,0,0-55.82-10.92c-31.86-1.06-78.43.76-124.09,1.06-49.15.3-93.75-16.84-155.64-19.87-10.16-6.07-36-32.62-116.66,23.66,4.85-.3,58.56-12.44,77.21,10.93,18.81,23.21,13.5,62.65,10.93,72.05-4.86,20.94-20.64,51.43-27,72.82S736.2,566,731.65,581s-14.56,22.45-8.65,39.74c7.89-4.85,12-4.85,25.18-34.43s10.47-50.67,32.32-75.7c21.39-25.18,57-59.62,70.54-68.27s121.05-64.47,233.62-11.22c27.15-2.88,47.48-47.49,47.48-47.49h0Z"
                        style="fill:#d2a83e;fill-rule:evenodd"/>
                <path
                        d="M725.27,363a13.9,13.9,0,0,0-.75-3.34,24.35,24.35,0,0,0-4.1-6.07s-26.7-4.85-40.2-3.34c-23.67,2.58-45.06,31.86-55.07,46.88s-22.45,38.22-35.95,50.21a5,5,0,0,0-.76-3.34s.76,1.06-.75,2.58-1.52,2.27-.76,3l2.28,2.27c.75,0,21.69-9.41,50.21-36,30.34-27.76,53.55-42,65.69-46.88A92.4,92.4,0,0,1,725.28,363h0Z"
                        style="fill:#c29637;fill-rule:evenodd"/>
                <path
                        d="M1243.18,248.94s-4.86,6.06-10.93,12.74c-13.5,14.26-31.1,30.33-46.12,46.87-14.25,15.78-30.33,28.07-48.39,48.7s-39,43.53-44.3,50.21c-4.85,6.68-8.64,17.6-8.64,23.21-2.58-1.82-5.61-3.79-5.61-3.79a38.11,38.11,0,0,0,4.55,6.68c3.79,5.31,9.7,12,12.74,16.08a49,49,0,0,1,7.88,17.29c1.82.3,13.5,2.58,28.07-21.39s33.67-50.21,33.67-50.21l30.34-45.06,19.12-38.22,24-42.78,3.65-20.33h0Z"
                        style="fill:#ac8132;fill-rule:evenodd"/>
                <path d="M1274.28,218.3s-18.36,15-25.49,24-24,32.62-24,32.62l6.07-.76,30.8-27.3,12-21.39.61-7.13Z"
                      style="fill:#a88f33;fill-rule:evenodd"/>
                <path
                        d="M1268.66,1423.85s-.3-12.44,6.68-19.87c7.13-7.44,25.18-18.36,42.78-59.32s19.56-50.21,19.56-50.21-31.55,27-51,33.37c4.55-9.41,7.13-16.08,9.41-20.94-2.58-2.27-13.5-4.85-14.56-6.06,6.06-6.07,9.4-20.94,21.69-30.8,15.78-12,44.6-32.62,67-51s66.44-61.13,72.06-73.57c3.34,4.85,4.09,7.88,4.09,7.88s-22.14,28.83-33.67,47.18c-10.17,15.78-9.41,24.73-9.41,24.73l20.94-9s6.06,22.45-21.39,56.59c12-4.55,16.84-1.82,23.66-5.62-11.23,7.14-26.7,16.85-41.26,43.54-14.26,26.7-33.68,57.8-66.44,77.21-31.86,20.48-50.22,35.8-50.22,35.8h0Z"
                        style="fill:#a67a2e;fill-rule:evenodd"/>
                <path
                        d="M1186.44,399.43s-12.44,25.93-14.26,46.11c-.3,4.86-1.52,8.65-1.52,14.26-.3,18.05,1.06,38.23-3,47.63-1.52-3.79-2.28-6.37-3.8-7.88-2.27,6.37-6.37,26.24-9.71,33.67-1.51-4.85-4.85-21.69-4.54-41.56s.75-23.67.75-27.76c-.75,6.06-4.85,14.26-6.37,19.11-2.27-4.09-4.85-9.4-7.89-13.8-1.82,3-4.09,7.43-6.06,9.71-.31-1.82-1.06-6.68-1.52-13.5-.3-7.89-.76-18.05-.3-20.18.75-4.09,7.13-20.17,20.63-34.89,16.08-17.6,32.62-51.42,37.47-61.89s25.48-54,25.48-54h15.78l-22.91,52.18s-13.8,28.52-20.93,39-22.15,40.51-28.83,52.19c4.85-6.37,8.95-9.71,13.81-15.78,4.7-4.25,17.74-22.6,17.74-22.6h0Z"
                        style="fill:#8c6228;fill-rule:evenodd"/>
                <path
                        d="M1274.58,216.32a65.31,65.31,0,0,1-12,21.7c-9.41,11.23-29.59,26.24-39.44,38.22-9,11.68-27,43.54-18.82,81.31,3-8.19,8.65-24.42,23.67-42.78s31.1-39.44,39-55.82c7.88-16.54,8.94-29.58,8.94-29.58l3-3.79-1.82-8.65-2.58-.61Z"
                        style="fill:#cba94c;fill-rule:evenodd"/>
                <path
                        d="M1581.77,1222.54s-6.07-16.53-7.89-31.55,3-18-2.58-35.19c-3.34-10.47-9.4-9-10.92-10.47s-2.58-17.29-2.28-25.94-.3-19.87-1.82-24.73c-2.27-1.82-3.79-3.34-7.13-14.56-3.79-11.23-5.61-16.84-7.43-20.17s-7.14-6.37-7.14-9.71c0-6.68,6.07-10.16,6.07-12-.3-3.79-4.85-.75-6.07-1.82-1.51-1.82,3.8-12.74,1.83-14.26-.76-.75-6.07,5.62-7.44,3.8-1.52-1.83-3.34-19.88-6.07-31.86-2.57-11.68-5.31-20.17-5.61-23.66-.3-3.34-20.94-62.2-25.94-76.46a361.49,361.49,0,0,1-10.16-36.71c-1.52-7.13-2.58-21.7-3.34-20.18s-.3,8.95-1.52,8.65c-1.06-.31-4.85-26.24-6.06-30.34-1.06-4.1-7.44-18-9-28.06-1.52-10.17-4.85-36.72-7.13-54.77s-3.34-25.48-3.34-30a186.94,186.94,0,0,0-1.82-33.07c-3-19.12-9-42.33-14.26-55.82-10.16-25.49-37.17-90.72-42-106.95,0-4.1,5.31-1.82,5.31-1.82s13.19,33.07,22.9,58.55c9.41,25.49,18.36,47.94,20.64,50.22,1.82,2.27,16.08,27.3,22.45,68.26s8.64,78.73,12.44,103.91c1.82,12,3.34,24.73,7.13,37.47,4.09,13.81,10.46,28.07,18.81,49.91,7.13,18.36,12.44,33.68,15.32,46.88,3.34,16.84,3.34,29.58,5.31,37.93,1.83,7.13,4.55,21.38,10.93,42s15.77,47.18,22.14,63.71c12.45,33.07,18,60.68,19.88,75.4,1.66,15.17,7.28,67.66,5.76,83.43h0Z"
                        style="fill:#a88f33;fill-rule:evenodd"/>
                <path
                        d="M1275.34,214.5l-.76,1.82s2.27.76,1.82,3.8a90.7,90.7,0,0,1-.76,12.44c-.75,5.31-2.27,9.4-2.57,12.74,0,7.13,1.06,15.32-9,35.65-3,5.61-4.85,10.46-6.37,13.8-3.79,8.19-4.55,9.41-7.89,13.2,5.31-3,24.43-15,34.13-13.2-6.67,3.79-16.84,11.23-23.21,20.94,1.52.3,7.89,1.52,18,0,16.84-2.58,35.65-8.65,52.18-7.44,18.06,1.06,10.93-21.69,10.93-21.69L1321,240.75,1281.56,213l-6.22,1.51Z"
                        style="fill:#be9c44;fill-rule:evenodd"/>
                <path
                        d="M1378.19,557.65s-17.6-17.6-24.73-78c-7.13-60.68-5.61-150-5.61-150l-14.26-34.89s-3-23.21-10.47-31.85-22.14-23.21-28.82-30.34-14.26-16.84-18.81-18.36c2.27-3.79,12.44-25.18,51.42-25.48s51,21.39,55.07,29.28,22.45,42,29.27,107c6.37,64.92,6.68,69.78,5.62,92.23-.76,12.44-4.86,41.26-12,72.05-6.52,26.1-13.65,55.23-26.7,68.42Z"
                        style="fill:#a17c34;fill-rule:evenodd"/>
                <path
                        d="M1323,609.38a29.79,29.79,0,0,0,16.84-3.8c5.61-.3,25.94,2.28,41.56-17.59,1.06,4.54,3.8,16.84-3.34,27.76,3.8-3.8,9.41-5.31,10.17-6.37.3,5.61,5.61,22.9-16.84,64.92,6.06-6.67,13.19-6.37,19.56-7.13.31,7.89,4.55,34.43-6.67,48.7-7.43,9.71-19.57,6.67-19.57,6.67a38.15,38.15,0,0,0,0-6.37c-.3-4.1-1.82-8.19-.75-10.92a54.42,54.42,0,0,1-15.78-10.93c-13.2-12.44-30.34-33.67-31.55-49.45-1.52-17.6,14.26-21.39,14.26-21.39a16.87,16.87,0,0,1-3.34-4.1c-.76-2.57-1.52-6.67-4.55-10h0Z"
                        style="fill:#8c6228;fill-rule:evenodd"/>
                <path
                        d="M1206,418.54s-.76-1.06-4.85,3.79c.76-4.85,1.52-9.41,1.82-13.81a47.6,47.6,0,0,1,7.44-11.22c-2.28,4.54-3.8,8.64-3.8,8.64s5.62-10.47,13.81-16.84c5.61-4.55,12.74-6.67,15.77-10.92,3.34-4.55,2.58-5.31,3.34-6.07,0,0,7.44-4.85,18.82-19.12,1.51-1.82,3.79-3.79,5.31-5.61,2.57-1.06,8.64-3.79,15.77-7.44,7.44-4.09,15.78-9.7,20.94-12,10.16-4.55,20.94-4.09,25.94-11.23,3.79-1.06,7.88-12.44,7.13-22.14,5.61,2.27,34.43,20.17,44.3,59.31,7.13,27.76-5.62,70.54-10.93,91.18s-6.06,35.95-13.5,45.35c-9.41,12.45-39.74,30-47.18,38.69-6.37,7.13-25.48,25.18-24.73,38.22.76,9.71,12.74,15,15.33,16.84s2.57,4.1,7.43,3,6.67-3.34,8.65-3.34c2.27.3,2.27.76,3.33.76a10.94,10.94,0,0,0,2.28-.31s-.76,13.81-33.07,18c-2.28.31-4.55,1.06-7.44,1.52,3.8-1.82,6.07-1.82,10.17-7.43-4.55-.76-17.6-1.52-20.94-2.58,1.06-1.82,4.55-6.68,7.43-8.95,2.58-2.27-.3-3-2.57-1.82a121.45,121.45,0,0,0-11.23,8.64c-3.79,3.34-7.13,7.89-13.2,12-1.82-6.07-1.52-17.6,5.62-25.94-1.83.3-5.32,5.61-8.65,4.55a48.31,48.31,0,0,1,1.06-16.54c1.82-6.83,11.68-18.81,11.68-18.81l47.63-85.11,10.16-64.47L1206,418.52h0Z"
                        style="fill:#92723a;fill-rule:evenodd"/>
                <path
                        d="M1203.43,422.18s-2.58,1.82,2.58,5.31c-.76,1.06-2.58,4.85-4.86,7.43-2.57,3-5.31,4.86-6.37,7.44-2.27,5.31-4.09,8.95-4.09,11.23s-.76,16.84-7.13,26.24c-2.28,3.34-4.86,8.95-6.68,12.74-3.79,6.67-7.13,12-7.89,15-1.51,5.31-2.57,19.87-2.57,19.87s3.34-4.1,4.55-5.61c-1.83,3.79-3.8,7.88-6.68,10.92,1.82-1.52,7.13-5.31,16.08-13.2,12.44-10.46,31.86-28.06,55.53-42-7.14,2.58-13.2,2.58-18.05,3.34,3.79-3.79,37.92-43.84,55.82-47.63a7.14,7.14,0,0,0,1.52-4.86l-15.33-1.51-31.1,6.67-4.54-24-20.79,12.59Z"
                        style="fill:#b18e3e;fill-rule:evenodd"/>
                <path
                        d="M1252.89,558.71s-4.1,4.09-7.89,14.26a47.8,47.8,0,0,1-7.44-10.17c-5.61-9.4-14.25-21.39-34.43-14.56-.3-6.37-.76-9.71,0-14.26,3.34-.75,13.5-8.94,23.66-20.93,7.14-8.19,13.81-17.6,18.36-29.58,3-2.28,8.19-6.07,15-10.47,9.71-6.67,21.39-15.78,23.21-25.94-4.55,1.82-14.26,6.37-28.83,5.62,5.62-2.58,14.26-5.31,13.2-16.54,2.28-1.52,4.1-2.58,4.1-2.58a15,15,0,0,0-5.31-.76c-.31-1.06-.76-2.57-3.34-1.82s-3,.76-3.34,1.82c-1.06.31-4.55,0-7.13,1.83s-9.71,7.88-12.44,8.94c1.06-1.82,2.57-4.54,2.57-4.54s-7.43.75-12.74,3c-9.71,3.34-20.93,9.41-32.31,15.32,1.06-1.82,1.52-3,2.27-3.34s2.58-.75,2.58-1.06-.75-3-.3-4.09a139.18,139.18,0,0,1,12-20.63c5.31-7.14,6.37-17.3,6.37-17.3l23.21-11.68,65.23-15,42.33,2.58-5.31,29.28-25,51.12-21.39,46.57-24.43,28.53-22.45,16.38h0Z"
                        style="fill:#543e26;fill-rule:evenodd"/>
                <path
                        d="M1358.62,432s-25.49,31.55-32.62,36.41c4.55-9.71,32.62-67.51,42.78-83.59-2.27-1.82-5.31-1.82,1.82-30-6.06,14.25-8.19,21.69-13.19,25.48s-5.62,2.58-9,2.58a6.34,6.34,0,0,0,.75-3.79s-21.39-2.58-36-2.58-43.53,7.89-59.62,14.26c-12.74,5.31-19.87,5.31-24.42,8.64-4.55,3.79-7.13,7.89-9.41,8.95-1.82,1.06-10.46,3.79-12.44,6.67-1.82,3-4.85,6.37-4.85,7.13s-.76,1.83,1.52,1.06c.75-.3,6.37-3.34,12.74-7.13,8.64-4.85,19.11-10.46,26.7-13.8,21.69-8.65,28.52-7.13,38.22-8.95,10.16-1.82,24.73-6.07,34.43-6.07,9.71-.3,28.07,0,32.32.76-1.82,1.52-3.34,3.34-2.58,9.71,0,1.82-1.52,3.79-3,8.19-4.54,12.44-13.19,33.07-18,43.54-6.67,14.25-14.25,26.24-18,33.67s-12,27-20.17,37.47-12.44,16.84-15,19.12-20.94,15.77-19.57,20.63c3.34-1.06,24.43-9,39.74-26.24s18.36-27.76,30.34-37.17,21.39-25.18,27-38.22c4.7-12.14,3.64-15.93,9.55-26.7h0Z"
                        style="fill:#806031;fill-rule:evenodd"/>
                <path
                        d="M809.32,667.48s-3.34,13.8-10.93,20.63c-7.43,6.68-20.63,12.44-22.14,23.67-1.82,11.22,13.2,16.84,13.2,16.84s-8.2,13.5-8.2,23.66c0,10.47-.3,12.44.76,22.45a10,10,0,0,0-3,3s.75,9.71,8.19,15.77,13.8,9.71,17.59,8.19a35.78,35.78,0,0,1,1.52,3.8s5.62-14.26,9.41-26.7c3.79-12.74,7.13-10.93,8.64-28.07s18-46.57,18-46.57L853.61,679l-18.35-14.26-25.94,2.73Z"
                        style="fill:#b6903c;fill-rule:evenodd"/>
                <path
                        d="M843.45,692.2A110.44,110.44,0,0,0,833,704.64c-4.85,6.68-8.64,12.74-15.77,15.33s-11.68,2.57-11.23,9.71,7.13,10.16,10.92,13.8c4.1,3.79,7.44,10.16,5.62,17.3,2.27-1.06,6.37-2.28,10.16-10.47S863,692.21,863,692.21H843.45Z"
                        style="fill:#685026;fill-rule:evenodd"/>
                <path
                        d="M948,577.06s2.27-6.06,0-10.46c-2.28-4.55-16.08-6.07-22.91-11.23-7.13-5.31-15.78-9-22.91-6.67,1.06-2.58,5.31-8.2,1.82-9.41-3.34-1.06-15.77,4.55-19.11,7.13s-10.93,5.61-12.44,7.44-4.1,5.31-5.62,3.79c-1.52-1.06-2.27-3.79-4.85-2.28s-15,11.68-17.29,17.6-7.44,19.12-22.91,34.13-22.15,24.73-17.6,30.34,6.68,1.52,7.44,6.37a40.91,40.91,0,0,1-.76,14.26c-1.82,7.89-4.85,15.32-.76,16.84,10.47,3.34,20.64-3,22.91-1.06,4.55,4.09-2.58,18.81,8.19,21.69,10.93,3,21.7-2.58,21.7-2.58l39.74-21.39,38.23-20.17,19.56-38.69L949.94,580.4l-2-3.34Z"
                        style="fill:#d4b968;fill-rule:evenodd"/>
                <path
                        d="M910.5,669.45s-6.68-10.16,1.52-19.12,19.87-12.74,24.42-18.35a7,7,0,0,0-3.34-2.27,30.21,30.21,0,0,1,13.2-12.45c-2.27-2.27-5.31-4.09-8.64-4.09-7.44,0-12,4.55-18.82,4.55-6.67,0-7.43-3.34-7.43-3.34s11.23-1.06,10.16-6.07c-1.06-5.31-3-5.31-3-5.31s21.69-9,25.48-13.8,3.34-10.47,4.1-12.74c2.57,0,17.59-7.89,23.66-4.55s1.82,12.44,1.82,12.44S992,570.54,1001.36,557c8.19.76,12-5.61,18-5.61,7.44,0,19.12,10.16,21.39,31.85,1.52,12.44,3.79,19.57,1.52,41.57-1.06,12.44-.76,39,3,52.18,2.57,10.47,8.64,9.41,8.64,9.41a17,17,0,0,1-5.31,8.19c-4.1,3.79-4.55,13.81-4.1,17.6a75,75,0,0,0,2.28,8.19s-4.85,5.61-6.07,9.41c-1.06,3.79-6.06,6.37-9.71,6.37s-1.82-.31-6.67,0-6.37,1.06-9.41,0-5.31-2.28-4.09-12c1.06-9.71-37.47-32.31-37.47-32.31l-63-22.45h0Z"
                        style="fill:#cca849;fill-rule:evenodd"/>
                <path
                        d="M838.14,765.32s13.8,18.36,70.54,18.36c27,0,36.41-2.58,42-4.1,6.07-1.52,28.82-10.46,51.73-37.47,20.63-24.42,16.08-34.43,16.08-34.43l-12-1.82-39,5.31L852.09,760.32l-14,5Z"
                        style="fill:#585136;fill-rule:evenodd"/>
                <path
                        d="M880.46,769.87s-49.15,10.93-49.15-20.17c0-30.34,30.34-62.2,37.93-67.81,7.89-5.62,26.7-12,26.7-12H941.3l8.64,22.91-3.79,49.45-65.69,27.61Z"
                        style="fill:#252211;fill-rule:evenodd"/>
                <path
                        d="M925.82,679.16s-9.4-8.65-30.79,3-38.69,36-39.75,58.11c-1.06,19.56,16.08,34.13,42.78,34.89,19.87.75,31.86-1.52,37.93-3-1.52-1.82-9.41-11.68-9.41-11.68l-.75-81.31h0Z"
                        style="fill:#c3b378;fill-rule:evenodd"/>
                <path
                        d="M916.57,684s-2.27-1.82-9,1.82c-5.61,3-13.8,10.93-20.17,16.54-4.1,3.34-6.68,4.85-9,7.43-9.41,11.23-17.3,29.59-12.74,38.69s19.57,19.57,57.8,12.44l-7-76.91h0Z"
                        style="fill:#e6d89c;fill-rule:evenodd"/>
                <path
                        d="M904.13,702.82s-6.07,9.41-6.07,24.43c0,15.32,8.65,39.74,40.51,41.56,24.42,1.52,40.8-35.19,58.55-49.45,13.5-10.92,21.69-11.23,21.69-11.23s-13.8-15-50.66-34.43c-36.41-19.57-77.22-22.15-99.37,7.89,10.47-.76,44.3-9.41,44.3-9.41l16.54,5.31-25.49,25.34h0Z"
                        style="fill:#252211;fill-rule:evenodd"/>
                <path
                        d="M951.76,722.69c-1.06-2.27-1.82-5.31,2.58-6.06s6.37-.31,7.89,3,3,6.07.75,7.44c-2.27,1.21-8.19,0-11.23-4.4Zm-7.13-21.39s-1.52,1.06-.76-1.06c.3-2.57,2.28-7.13,7.13-6.06s3.8,6.37,3,7.89-4.85,4.09-7.89,3a2.53,2.53,0,0,1-1.52-3.79Z"
                        style="fill:#6f674d;fill-rule:evenodd"/>
                <path
                        d="M534,711s12,9,25.94,8.65c13.8-.31,31.55-14.56,39.74-23.67,4.85-5.31,9-10.92,13.5-15.32,3.8-3.79,6.37-5.61,8.19-8.19,2.58-3,5.31-8.64,6.68-10.47-3.34,2.58-8.19,7.14-13.2,10.17-4.85,3-15.32,8.64-19.57,10.16-4.09,1.52-46.57,24-46.57,24L534,711h0Z"
                        style="fill:#ac924c;fill-rule:evenodd"/>
                <path
                        d="M552.34,598.91s6.67-4.55,19.57-7.44c12.44-3,37.47-5.31,37.47-5.31l20.63,9,8.19,31.1-15,32.32-19.11,12-21.7-34.89-30-36.72h0Z"
                        style="fill:#9f8e57;fill-rule:evenodd"/>
                <path
                        d="M525.34,626.67,518.2,632s1.83-3.34,3.34-13.5,9.41-34.89,20.94-49.15,11.23-13.5,11.23-13.5a7.59,7.59,0,0,0-6.07,1.51C549.16,554,558.87,542,568.58,536s13.5-7.89,23.66-3,12.74,7.43,20.18,7.13,13.8-8.19,13.8-8.19,1.52,4.85-4.09,16.08-27.76,34.13-27.76,34.13l-46.12,31.55-22.91,13h0Z"
                        style="fill:#eac970;fill-rule:evenodd"/>
                <path
                        d="M559.46,595.12s33.38,4.55,43.54-4.85c.3,1.06,1.52,1.06,1.52,1.82a2.65,2.65,0,0,1-.76,1.51,24.44,24.44,0,0,1,3.34-.3,19.7,19.7,0,0,0,4.1.76,23.67,23.67,0,0,0,3.34-.31,5.67,5.67,0,0,1-2.28,3.8c1.52,0,3,.3,3,1.51s.3,4.86-1.52,5.62a6.88,6.88,0,0,1-4.55-.31,18.72,18.72,0,0,0,2.28,8.2c3,5.61,9.4,12,18,10.16,0,0,4.54,10.92-14.57,35.19-2.57,3.34-5.31,7.89-8.64,11.68a44.32,44.32,0,0,0-3,8.95s32.32-12.44,41.57-40.81c9.41-28.52,11.23-56.58,9.41-82.82-.31-7.44-1.52-12.74-3.34-16.54-4.55-9.41-17.3-7.89-22.45-2.58-7.44,7.44-19.88,25.94-37.17,38.68-17.6,12.74-18.35,15-31.86,20.64h0Z"
                        style="fill:#d7bc6b;fill-rule:evenodd"/>
                <path
                        d="M519.42,636.08s-6.37,3.79-9.71,18c-3.34,14.56,3,32.31,6.67,37.92s12,20.94,29.28,21.7a32.1,32.1,0,0,0,12.44-2.58,78.7,78.7,0,0,0,16.84-10.47c7.44-5.61,13.5-10.46,12.74-10.92-1.82-.76-45.81-37.17-45.81-37.17L525.33,634.1l-5.92,2Z"
                        style="fill:#585136;fill-rule:evenodd"/>
                <path d="M561,696.45s8.95-.75,14.26-4.09-31.1-39.44-31.1-39.44l2.58,39L561,696.45Z"
                      style="fill:#453a25;fill-rule:evenodd"/>
                <path
                        d="M522.3,633.34s-4.55,8.65-4.55,10.93c-.76,7.43,1.52,30.79,3.34,38.22,1.82,7.89,11.68,19.87,24.43,19.87,7.88,0,18.81-4.85,18.81-6.06,0-1.52-11.23-3-14.26-8.65-1.82-3-2.58-10.46-3-18-.3-4.85-.3-10.16,1.52-12,4.1-4.55,4.85-17.6,4.85-17.6L568,613H548.85l-22.91,14.26Z"
                        style="fill:#84754b;fill-rule:evenodd"/>
                <path
                        d="M516.69,641.69s15-19.87,28.52-24.43,19.57-1.82,19.57-1.82l-7.89,20.18-11.23,12.44.76,6.37s-1.83,16.84,9.4,28.52,19.57,11.23,24.43,11.23,18.81-4.1,25.94-20.94c6.37-15.77,11.68-36-1.06-56.28C592.68,596.78,570.69,596,566.44,596s-37.62,1.67-49.75,45.66h0Z"
                        style="fill:#252211;fill-rule:evenodd"/>
                <path
                        d="M901.85,709.19c-5.61-2.58-.3-18.35,5.31-23.21s12.74-10.46,25.19-11.23c4.54-.3,8.94,2.58,8.19,5.62-1.06,5.61-8.95,13.5-16.08,19.11-9.86,7.74-16.24,12.59-22.61,9.71Z"
                        style="fill:#f7f7e7;fill-rule:evenodd"/>
                <path
                        d="M598.45,623.18c4.1-.3,9.41,3,10.47,7.44,1.06,4.85-2.58,14.56-10.47,14.56-6.37,0-9.71-7.89-9.71-10.16a11.6,11.6,0,0,1,1.52-5.31c.3-.46,1.06-5.77,8.19-6.53Z"
                        style="fill:#f8f6de;fill-rule:evenodd"/>
                <path
                        d="M539.29,626.67s-10.47,4.85-15.32,15a39.8,39.8,0,0,0-3,24c.76,3.79,4.55,13.19,7.13,16.53s6.07,5.62,8.65,5.31,7.88-7.13,7.88-11.22.31-21.39,5.31-30.8c4.4-9.4-10.62-18.81-10.62-18.81h0Z"
                        style="fill:#d4c38b;fill-rule:evenodd"/>
                <path
                        d="M540.81,625.91c-1.82,1.06-4.85,2.58-4.1,4.55.76,1.82,7.13,3,9.41,7.44,2.58,4.55,2.58,9.4,1.82,11.68a18.48,18.48,0,0,0,5.31-3.8c3.34-3.79,7.43-8.94,10.92-8.94,2.28,0,4.55,1.06,6.68,1.06,3.34,0,6.67-1.06,7.13-4.55.75-4.55-6.37-8.65-10.47-7.89.76-3,1.82-7.43-1.52-10.47s-13.8,2.28-16.08,3.8-9.1,7.13-9.1,7.13h0Z"
                        style="fill:#e2d59d;fill-rule:evenodd"/>
                <path
                        d="M781.86,944.63,804.31,938l6.37,4.55s4.54,9.71,11.68,10.92c-2.28,4.85-8.2,9-7.89,12.44s3.34,6.07,3.34,6.07-20.18,33.37,19.57,67c-9.41,3.79-21.39,9-27.76,12,4.54,1.06,14.25,3,18.35,6.68s4.1,4.85,7.89,7.13,6.06,5.31,5.31,6.67c-2.58-1.52-11.23-6.06-12.74-1.82s-37.47,2.58-37.47,2.58l-60.68,11.68s2.27-6.07-4.1-11.68c-7.43-6.67-16.53.3-26.24-7.13-12.74-9.71-13.2-20.94-17.29-25.18,4.09-2.58,12.44-6.37,32.31-9-.76-1.52-3.34-6.07-1.82-10.16,1.82-5.31,9.4-8.65,7.13-15,3.34-.76,4.85-.76,13.2-11.23,7.89-10.47,12.74-12.74,18.81-13.5s9.71,0,20.94-10.47c7.88-7.43,5.31-13.8,5.31-13.8s5.15-1.67,3.34-12.14h0Z"
                        style="fill:#cbac5a;fill-rule:evenodd"/>
                <path
                        d="M715.57,948c.3-1.52,1.52-2.28,9.71-1.52s60.07-4.85,74.18-5.61c14.26-1.06,64.47-.31,88.9,4.85s49.15,11.23,61.13,14.26c12,3.34,15.78,4.54,15.32,6.06-.3,1.52-3,3-4.55,2.58-1.51-.3-41.26-12.44-53.54-15s-54.77-9.41-78-9c-21.69.31-30.34-.3-48.69,1.82-18.36,2.28-48.7,5.31-57.8,4.1-9-1.06-7.14-1.06-6.68-2.58h0Z"
                        style="fill:#d6bc6f;fill-rule:evenodd"/>
                <path
                        d="M837.68,1066.9s31.1,16.84,42.33,37.47c8.19,15.32-4.85,22.91-4.85,22.91s17.6,0,15.32,9.71c-1.06,6.06-30.34,22.44-49.91,31.09-19.87,8.65-19.11,8.2-28.82,9.71-9.41,1.52-35.2-3-40.51,4.55s-3,15.33-1.52,16.54c1.52,1.06,13.81,2.58,13.81,2.58s-2.58,7.13-28.06,7.89-31.86,2.57-33.38,5.31c-1.52,2.57,4.85,1.06,16.54,3,11.68,1.82,28.06,3,28.06,3s-5.31,4.55-19.11,8.19c-15.78,4.09-40.51,7.89-47.94,12.44,3.79,2.58,9.41,6.37,12,6.67-6.37,1.52-15.33,4.86-16.84,6.07,2.27,1.52,5.31,3.34,5.31,3.34s-12.75,15.32-20.18,19.12-50.21,23.66-64.93,19.87c-36.71-9.71-41.26-49.91-50.21-52.94-13.5-4.55-19.87,4.54-31.86-1.83,5.31-3.79,8.2-6.06,13.81-8.64-6.07-3-37.47-22.91-37.47-22.91a232.72,232.72,0,0,0-10.92-20.93c-6.07-10.47-15-24.43-21.7-36.72-14.56-27-15.32-39.44-28.52-54.76,2.28-3,10.16-2.58,10.16-2.58l110.6,36.41L765,1137.14l51-72.81,21.69,2.58Z"
                        style="fill:#dfc677;fill-rule:evenodd"/>
                <path
                        d="M547.18,1177.94a17.21,17.21,0,0,0,4.09,3.34c3.8,2.58,9.41,5.62,13.2,10.16,1.52-2.27,5.31-6.37,12,0s15,1.83,20.17,3.34c5.31,1.83,5.61,2.58,5.61,2.58s3-2.58,9.71-5.31c4.1-1.52,8.95-2.58,14.26-4.09,4.85-1.06,10.16-2.58,13.81-2.58,3.34,2.27,15.32,15,63.41-3.79,45.36-17.6,55.82-19.57,63.41-16.85.76-1.82,1.52-5.31,13.2-4.85,0-4.85-9.71-21.39-9.71-21.39l-53.55-18.35H687.5l-87.83,16.08L551,1164l-3.79,14Z"
                        style="fill:#c4a859;fill-rule:evenodd"/>
                <path
                        d="M517.9,1147.15s1.06,8.19,13.2,16.84c12,8.64,15.77,13.8,15.77,13.8s2.28-3,4.1-6.06c1.82-3.34,3.34-7.13,6.37-8.19,6.07-2.58,19.87,2.27,22.91,1.51,2.58-.75,1.82-6.06,4.55-6.06,6.37-.31,10.46,4.09,12.74,4.09s7.88-.3,8.64-1.51,1.06-13.81,9.71-19.88c9.41-6.67,20.94-3.79,24-2.27,0,2.27.3,7.89,6.37,8.19s6.67-.76,12,1.06,11.68-.3,14.56,8.64c2.58-.75,8.65-1.51,7.13-10.16,3-2.27,5.62-3.79,12-12.74,1.52-2.27,4.09-4.85,6.07-8.19,5.31,0,11.68-1.06,20.17,6.37-2.58,1.82-4.1,3-4.85,4.85a54.56,54.56,0,0,1,6.06,7.13c2.28,3,3.8,6.68,6.68,7.44,6.37,1.82,16.84-.76,28.52,0,11.23.76,20.63,4.85,24.73,7.43,1.52-.75,1.52-1.06,5.31-.3s6.67,1.06,2.58-3.79c2.27,1.06,4.85,3.34,7.13,1.06s4.09-5.61,10.46-6.37,8.65.3,11.23-6.37c3.34-8.19-8.19-8.19-8.19-8.19s5.31-4.86,11.23-11.23c7.13-6.67,15.32-15.32,17.29-25.94,3.34-19.57-15.77-22.14-15.77-22.14l-92.69,28.52-113.32-5.62-96.63,48.09h0Z"
                        style="fill:#927d49;fill-rule:evenodd"/>
                <path
                        d="M434.62,879.4s-3,3.79-4.85,12.74-1.06,7.89-2.58,14.26S407,976.18,414,997.57s19.12,29.28,26.7,46.57c1.52,3.79,3,6.07,3.79,9.41,2.58,11.22.31,19.87,3.34,31.1,1.06,3.79,3.8,8.19,7.89,12.74,9,9.4,23.67,18.35,30,24.72,8.94,9.41,21.69,28.53,37.92,30.34,8.65,1.06,20.94-2.58,31.1-8.64,9-5.62,14.56-13.5,24-18,6.67-3.34,13.8-4.55,20.17-6.07,13.2-2.58,25.19-3,32.32-1.52,10.92,2.28,36.71,10.17,51,10.17a138.73,138.73,0,0,0,33.07-4.55c21.69-6.37,47.93-17.3,65.23-22.15,10.16-3,18.35-3.79,26.7-5.61,14.26-3.34,26.24-7.89,33.07-16.54-4.55-5.31-10.16-13.5-40.51-13.2-34.43.76-74.18,19.87-93.75,22.91s-28.06,5.61-49.91-2.28C634.71,1079,634,1073.73,634,1073.73S611.51,1058,602.1,1017.9s0-69.32,24.43-97.09c6.37-7.13,4.85-13.5,4.85-13.5s16.08-21.69,11.68-42c-4.85-20.18-35.95-16.08-35.95-16.08L434.63,879.4h0Z"
                        style="fill:#6e6342;fill-rule:evenodd"/>
                <path
                        d="M460.56,946.91a15.72,15.72,0,0,0-1.82,8.19c.3,4.09,1.52,9.4,13.8,21.39,10.47,10.46,8.19,22.14,8.19,22.14S486,999.69,500.3,993c11.23-5.31,15,4.1,15,4.1a31.71,31.71,0,0,1,10.47-3.34,22.91,22.91,0,0,0,9.4-3s13.2,13.5,24.73,19.87c10.47,5.62,16.54,9.41,21.7,5.62,4.85-3.34,4.85-10.17,4.54-13.2a39.39,39.39,0,0,0-4.54-7.89c-3.34-4.85-8.65-10.47-9-15-.76-10.46,7.89-22.91,6.06-25.94s-8.64-3.79-25.48,2.28c-17.44,5.76-92.69-9.56-92.69-9.56h0Z"
                        style="fill:#39331f;fill-rule:evenodd"/>
                <path d="M500.3,1014.72s-8.64-8.19-5.61-47.94a49.38,49.38,0,0,1,10.92,1.06S510.32,998.64,500.3,1014.72Z"
                      style="fill:#292311;fill-rule:evenodd"/>
                <path
                        d="M438.72,849.06a23.74,23.74,0,0,0,3.34-3c-3,5.61-16.85,28.06-5.62,63.41,11.23,35.19,39.44,61.43,74.18,62.65s53-15.78,73.88-41.26c8.19-10.16,17.6-22.91,25.94-31.55,12.44-13.51,22.15-17.3,22.15-30.34,0-26.7-27.31-38.69-67.51-50.67S488.62,807.8,469.81,816c-18.35,8.94-26.24,18.35-31.1,33.07h0Z"
                        style="fill:#252211;fill-rule:evenodd"/>
                <path
                        d="M567.81,1026.7l3-1.52s.75-12,5.61-11.68c4.85.76,7.13,7.14,6.67,9.41-.3,2.27-1.51,6.07-6.37,5.61-6.37.15-8.94-1.82-8.94-1.82Z"
                        style="fill:#3f3824;fill-rule:evenodd"/>
                <path
                        d="M554.31,975.73s3-1.06,6.67,2.58c3,0,16.08-1.52,20.18,1.06s5.31,4.85,5.31,4.85-15.32,3.34-23.67,0c-8.49-2.88-8.49-8.49-8.49-8.49Z"
                        style="fill:#2d2815;fill-rule:evenodd"/>
                <path
                        d="M621.82,978c0-.76-8.19-6.37-16.84-8.2-1.52-.3-1.83.76-3,.76-.76-.3-1.06-2.58-1.06-2.58L596,970.57s-.76,1.06,1.82,3c2.27,1.82,6.07,3.34,7.13,6.37s1.06,4.09,1.52,4.55c.3.3,5.61,0,8.19-1.52s7.44-4,7.13-5h0Z"
                        style="fill:#82764f;fill-rule:evenodd"/>
                <path
                        d="M545.21,1008.8s1.51-10.46,11.68-10.92c10.46-.76,12.44,9.4,12.44,9.4l-6.07,6.07c0-.15-4.55-6.52-18-4.55Z"
                        style="fill:#2d2816;fill-rule:evenodd"/>
                <path
                        d="M611.2,963.74s-5.62,6.07-18.05,7.89c-1.06-1.52-3.34-4.55,0-9.4s7.13-6.37,10.92-4.86a8.88,8.88,0,0,1,7.13,6.37Z"
                        style="fill:#574f35;fill-rule:evenodd"/>
                <path
                        d="M634.1,971.18c.31-1.52-.75-1.82,0-2.58s4.86-2.27,5.62-1.52c.3.31,0,1.52,0,3s0,3-.76,4.09c-1.06,1.52-4.09,2.28-5.61,1.83s-1.82-2.58-1.82-3c.75-.3,2.57-1.06,2.57-1.82ZM660,954.8c0-.76,2.58-2.28,4.1-2.28,2.27,0,2.27,1.82,2.58,2.28.75.3.75-.31,1.51,1.06s1.83,3.79,1.06,5.31-3.79,2.57-4.54,2.27c-1.06-.76-4.4-7.58-4.71-8.64Z"
                        style="fill:#82764f;fill-rule:evenodd"/>
                <path d="M607.86,974.67s3.34.75,7.89,4.55c-1.52,1.06-3.8,2.27-3.8,2.27s-.3-3.49-4.09-6.83Z"
                      style="fill:#6e6342;fill-rule:evenodd"/>
                <path
                        d="M600.43,941.29c-.76-.75,2.27-2.57,4.09-2.27s2.58,1.52,4.55,1.82,2.28-.76,3-1.52,3.34-.3,3.79,0a8.45,8.45,0,0,1,.76,1.06,4.2,4.2,0,0,1,1.51-3,4.79,4.79,0,0,1,4.1-.76c.3,1.06,1.82,4.85,1.52,5.61s-4.85,1.83-5.62,1.06c.76,1.83,4.1,5.62,4.55,6.37s-3.34,2.58-4.85,2.28c-2.12-.15-15.17-7.74-17.44-10.62Zm19.87-25.18a3.52,3.52,0,0,0-1.52-1.82c-1.06-.3-4.55,0-4.55,1.82s3,12,6.37,17.3c3.8,5.31,6.37,9.7,8.95,10.92a3.52,3.52,0,0,0,4.55-1.52c.3-.76,1.06-6.37.76-19.57s-.76-25.94-1.52-26.7-3.79-.75-4.85.76-7.89,16.54-8.2,18.81h0Z"
                        style="fill:#585136;fill-rule:evenodd"/>
                <path
                        d="M606.8,993.78s-5.31-3.34-10.47-1.06c-4.85,2.28-4.55,11.23-4.55,11.23a7.19,7.19,0,0,0,6.68-.76c3.34-2.27,7.58-6.06,8.34-9.4Z"
                        style="fill:#574f35;fill-rule:evenodd"/>
                <path
                        d="M616.81,1005.77c-.3-3-3-3-3-4.55a3.41,3.41,0,0,1,3.33-2.58c1.52,0,3,1.82,4.86,3,1.82,1.06,4.55,3,4.85,5.31s-3,8.64-6.67,8.64-2.58-6.83-3.34-9.86Zm29.28-4.1s-6.07,1.82-5.62,0,1.83-2.27,3.8-2.27a6,6,0,0,1,3.79-1.83,3.29,3.29,0,0,1,2.27.76s4.1-1.82,5.31-.76.31,1.06,1.06,2.28a10.67,10.67,0,0,1,1.83,4.55c0,1.21-4.55,3.79-8.2,3.34-4.24-.91-3.49-5.31-4.24-6.07Zm35.34-6.83s1.82,1.06.31,2.28c-1.06,1.06-6.37,3-10.93,3.34-4.55,0-8.64.75-8.64-.76s3.79-4.55,6.06-5.31a4.84,4.84,0,0,1,3.8-1.82c1.82,0,8.94-.76,10.92-1.06,1.82-.31,3.34.75,2.27,2.27-.45,1.06-3.79,1.06-3.79,1.06ZM691.9,948s-2.28,4.85-4.85,4.85c-2.58-.3-2.58-1.06-2.58-1.82,0-1.06,2.58-3.79,2.27-4.55-.75,0-2.58,0-2.27-1.82,0-1.52,2.58-3.34,4.85-3a10,10,0,0,1,6.07-2.27c2.58,0,4.85.75,4.85,2.27s-3,4.85-4.1,5.62c-1.21,1.21-2.73,2-4.24.75Zm-34.59,89.65s-3,.31-3,1.82c0,.76.75.76,1.82.31a8.24,8.24,0,0,0,1.82-.31c.3.31.3,1.82,2.58,1.82a14.41,14.41,0,0,0,5.31-1.82c1.82-.75,3.34-1.52,3.34-3-.76-2.58-2.28-3.8-4.55-3.8a6.05,6.05,0,0,0-3.34.76s-.76-1.52-3.34,0-2.28,1.52-1.52,2.28c1.36,1.21.91,2,.91,2Zm-17.14,15.78c0-.76,3.79-2.28,4.85-1.82,1.06.3,4.09,6.06,4.09,6.67,0,.76-3.79,2.58-5.31,2.58s-4.09-2.58-4.09-3c0-.3,1.82-.75,1.82-1.06.45-.75-1.36-2.58-1.36-3.34Zm-12-22.15c.76-.3.76-1.06,1.82-1.82a2.61,2.61,0,0,1,2.28-.3,3.69,3.69,0,0,1,2.58-1.83c1.82-.3,3.34,0,3,.76,0,2.28,1.52,3.79,1.52,5.61s-1.06,4.1-4.85,5.62c-3.79,1.06-8.95,1.06-9.71.76s-1.52-3.34-.76-4.86,2.88-3.18,4.1-3.94h0Z"
                        style="fill:#82764f;fill-rule:evenodd"/>
                <path d="M633,1032.31s-2.58,1.52-2.58,2.28a6.74,6.74,0,0,0-.3,2.27c0,.45,3.34-.3,3.79-.76.15-.3-.91-3-.91-3.79Z"
                      style="fill:#6e6342;fill-rule:evenodd"/>
                <path
                        d="M610.44,1025.18c1.51.31,4.09,0,6.06.76,1.52.76,2.58,2.28,1.06,4.1s-3,4.55-6.37,4.09c-3.79-.3-7.43-2.27-7.43-3.79a7.27,7.27,0,0,1,1.82-5.31c1.52-1.21,2.27-.45,4.85.15h0Z"
                        style="fill:#585136;fill-rule:evenodd"/>
                <path
                        d="M608.62,1026.7s-4.85,3.79-6.07,5.62c-1.52,1.82-8.95,11.22-11.22,13.19a28.57,28.57,0,0,1,2.57-3.79,15.52,15.52,0,0,0-6.37,8.19c-1.82,5.62,10.17,8.65,18.05,10.93s10.93,3,10.93,3a84.72,84.72,0,0,1-7.44-13.8c-3-7.13-4.55-7.89-2.58-11.23,1.52-3.34,3.8-5.61,3.8-8.19C609.38,1028.22,608.62,1026.7,608.62,1026.7Z"
                        style="fill:#574f35;fill-rule:evenodd"/>
                <path
                        d="M435.68,1038.69a9.24,9.24,0,0,0,3.34,0c2.27-.31,25.94-9,50.67-7.44a271.06,271.06,0,0,1,54.76,9c31.1,8.19,69.78,24.42,94.81,33.68,6.67,2.57,13.2,7.13,18,8.94,19.12,7.44,19.87,7.44,31.1,9.41,13.2,1.82,26.7-2.58,40.81-5.61,17.29-3.8,46.87-5.62,72.81-9.41a148.73,148.73,0,0,0,24.73-5.61s-20.63,20.63-70.09,28.06a219.27,219.27,0,0,1-60.37.76c-15.78-1.52-26.24-3.8-34.13-6.07-8.95-2.58-27.31-9.41-49.91-15-15.78-4.1-33.38-7.13-53.55-10.92-49.76-9.11-103.76-19.57-123-29.73Z"
                        style="fill:#252211;fill-rule:evenodd"/>
                <line x1="409.89" y1="846.33" x2="283.52" y2="728.31" style="fill:none"/>
                <path
                        d="M379.85,944.94c-12,10.16-24.73,19.87-37.16,29.27L305.22,1003c-12.74,9.4-25.18,19.11-37.93,28.52s-25.48,18.35-39,27c12-10.16,24.73-19.57,37.47-28.82S291.71,1011.38,304,1002l37.47-28.83c12.89-9.4,25.33-19.11,38.38-28.21Zm-66.29,106.19s13.5-11.23,30.34-27c20.93-19.56,46.57-44.6,54.76-49.14l-85.11,76.15Z"
                        style="fill:#cfb66c;fill-rule:evenodd"/>
                <path
                        d="M313.56,1051.12c6.68-6.67,13.81-13.19,20.94-19.57l10.92-9.4c3.34-3,7.14-6.37,10.47-9.71,6.67-6.67,13.2-13.81,19.87-20.63a127.54,127.54,0,0,1,10.47-9.71,28.3,28.3,0,0,1,6.06-4.1c1.83-1.06,3.8-3,6.37-3.34-1.51,2.28-3.33,3.34-4.85,5.31-1.82,1.52-3.34,3.34-4.85,4.85-3.34,3.34-7.13,6.37-10.47,9.41-7.13,6.07-14.56,12-21.69,18.35s-13.8,13.2-20.94,19.57c-7.73,6.53-14.86,12.9-22.3,19Zm90.72-60.68s-49.45,48.4-59.62,56.28Z"
                        style="fill:#cfb66c;fill-rule:evenodd"/>
                <path
                        d="M404.28,990.44A161.47,161.47,0,0,1,390,1005l-15,14.26c-4.85,4.85-9.41,9.71-14.56,14.56-5.31,4.55-10.16,9-15.78,13.2l14.56-14.26c4.86-4.85,10.17-8.94,15.33-13.8l14.56-14.26c5-5,9.86-9.86,15.17-14.26Zm2.27,26.24a315.38,315.38,0,0,1-16.08,37.17c-12.74,25.49-31.85,57.34-40.2,73.58l56.28-110.75Z"
                        style="fill:#cfb66c;fill-rule:evenodd"/>
                <path
                        d="M406.55,1016.69c0,5.61-1.52,10.47-3.34,15.32a150.66,150.66,0,0,1-6.06,14.26c-2.28,4.55-4.86,9.41-7.44,13.81s-5.61,8.94-7.89,13.5l-15.32,27c-5.31,9-10.47,18.05-16.08,26.7,3.79-9.71,8.95-18.81,13.81-27.76,5.31-9,10.16-18,15-27.31a153.85,153.85,0,0,0,6.37-14.25c2.27-4.86,4.54-9.41,6.37-13.81,2.27-4.85,4.09-9.41,6.37-13.8,2.57-4.71,4.7-9.26,8.19-13.66Z"
                        style="fill:#cfb66c;fill-rule:evenodd"/>
                <path
                        d="M460.56,1141.08s-15,19.87-13.5,45.05C451.15,1172.94,456.31,1152.76,460.56,1141.08ZM474.82,1161s-5.31,54-9.71,80.55C471.33,1210.86,472.54,1213.44,474.82,1161Zm99.36,83.74s-22.45,66-22.91,84.34C556.13,1310.22,565.53,1271.69,574.18,1244.69Z"
                        style="fill:#dec270;fill-rule:evenodd"/>
                <path d="M626.67,1137s36.41,60.07,63.72,111.34C683,1222.54,666,1175.22,626.67,1137Z"
                      style="fill:#cbaf59;fill-rule:evenodd"/>
                <path d="M724.52,1225.43a1104.54,1104.54,0,0,1,54,109.07C775.49,1308.71,767.29,1264.57,724.52,1225.43Z"
                      style="fill:#e3c677;fill-rule:evenodd"/>
                <path
                        d="M1012.14,1314c6.06-3.79,18.05-24.43,28.52-29.58,10.46-5.31,18.35-6.37,27.76-16.84,9.4-10.93,12-17.6,32.61-26.24,28.83-12.45,9-28.53,9-28.53a93.07,93.07,0,0,1,10.16-8.64c7.44-5.61,16.08-12.44,15.33-24.43-1.06-20.17-4.85-49.45-21.39-66.44,16.08-3.34,46.87-5.61,66-10.46,22.14-5.62,32.31-13.51,32.31-13.51s-12.74-21.69,7.89-43.53,37.47-34.89,49.91-59.32c-14.26-1.82-36-9.4-91.48,11.68a69.63,69.63,0,0,1,8.65,4.85s-34.13,9.41-46.57,19.88c-21.7,18.35-24.43,33.37-47.94,44.6s-47.18,8.19-66.74,17.29-22.45,16.84-29.59,20.18c1.52,1.82-.3,4.85,2.58,7.43-1.82,2.58-12.44,19.87-23.21,19.87,1.06,4.1,10.16,7.13,10.16,7.13s-6.67,4.86-23.66,6.07c8.64,9,16.84,18.81,39.44,33.07-1.82,3.79-9.41,9.41-6.37,16.54,3.34,7.13,12,16.84,46.57,24.73-17.6.75-38.22,4.85-66,1.06-27.76-3.34-32.31-5.31-49.45-1.06,1.82,1.82,6.67,1.82,10.92,6.67-4.55.3-33.07-3.34-42.78,9.41-10.16,13.19-14.56,34.89-13.8,49.45-5.31,2.58-10.47,7.13-7.89,16.54s16.08,12.44,24.73,18.35c8.64,6.37,9.4,8.64,17.6,7.13,8.64-1.82,21.38-10.46,28.82-10.46s12.74,5.61,12.74,5.61,20.18-9.71,22.15-7.89c1.82,1.82.3,13.5,2.27,15.32,2,1.37,24.73-12.13,30.8-15.93Z"
                        style="fill:#ecd592;fill-rule:evenodd"/>
                <path
                        d="M1453.13,706.92c-94.81-244.84-329.19-290.2-329.19-290.2H455.25l2.58,249.39H591V1223H455.24v248.94h650.19c156.7,0,282.31-157.47,282.31-157.47,201.15-285.49,65.38-607.55,65.38-607.55Zm-344.21,439.77s-51,73.58-106.49,73.58h-111L888.8,666.72h142.45s66,13.8,112.11,144.41c0,0,61.13,187-34.44,335.56Z"
                        style="fill:#fff;fill-opacity:0.800000011920929;fill-rule:evenodd"/>
            </g>
        </g>
    </g>
</svg>
