<svg xmlns:xlink="http://www.w3.org/1999/xlink" height="50" viewBox="0 0 50 50" width="50" xmlns="http://www.w3.org/2000/svg" class="ng-star-inserted"><defs><path d="M25,50 C38.8071187,50 50,38.8071187 50,25 C50,11.1928813 38.8071187,0 25,0 C11.1928813,0 0,11.1928813 0,25 C0,38.8071187 11.1928813,50 25,50 Z" id="ethereum-a"></path></defs><g fill="none" fill-rule="evenodd"><use xlink:href="#ethereum-a" fill="#401DF0" opacity=".1"></use><path d="M10.356649,0.819228498 C10.2840725,0.994761375 8.09093755,4.71622115 5.48301583,9.08916925 C2.8750941,13.4620269 0.719634537,17.0972124 0.692966474,17.1673894 C0.658333789,17.2586376 2.07514172,18.1493245 5.66092223,20.2904457 L10.6774711,23.2858089 L15.6925882,20.2888179 C19.2955508,18.1356689 20.6940133,17.2555628 20.6590226,17.1633199 C20.4778051,16.6860079 10.7255273,0.4999956 10.6191236,0.4999956 C10.5473525,0.4999956 10.4292255,0.643605187 10.356649,0.819228498 M0.704868663,19.3216236 C0.89816737,19.6555973 10.6360372,33.5012617 10.6767552,33.4999956 C10.7440518,33.4979156 20.7000091,19.2805665 20.6616396,19.2415893 C20.6251953,19.2049635 11.3192049,24.7436995 10.9309967,25.0329986 L10.6930424,25.2104306 L5.87480367,22.3357067 C3.22473209,20.7546447 0.958662707,19.3972267 0.839103877,19.3193628 C0.640883212,19.1903131 0.628981023,19.190494 0.704868663,19.3216236" fill="#6B71D6" transform="translate(15 8)"></path></g></svg>
