<?xml version="1.0" encoding="UTF-8"?>
<svg width="35px" height="35px" viewBox="0 0 35 35" version="1.1" xmlns="http://www.w3.org/2000/svg" xmlns:xlink="http://www.w3.org/1999/xlink">
    <!-- Generator: sketchtool 60.1 (101010) - https://sketch.com -->
    <title>AC0568C7-16E9-4521-861F-8C69E0ABD29D</title>
    <desc>Created with sketchtool.</desc>
    <defs>
        <path d="M17.5,35 C27.1649831,35 35,27.1649831 35,17.5 C35,7.83501688 27.1649831,0 17.5,0 C7.83501688,0 0,7.83501688 0,17.5 C0,27.1649831 7.83501688,35 17.5,35 Z" id="path-1"></path>
    </defs>
    <g id="Asset-Artboard-Page" stroke="none" stroke-width="1" fill="none" fill-rule="evenodd">
        <g id="Icons/Wallet/Blank-Currency/Large/Ethereum-(alt)">
            <g id="item-ico-backup">
                <mask id="mask-2" fill="white">
                    <use xlink:href="#path-1"></use>
                </mask>
                <use id="Mask" fill="#6B71D6" xlink:href="#path-1"></use>
            </g>
            <g id="path0" transform="translate(10.500000, 5.600000)" fill="#E9ECFF">
                <path d="M7.24965422,0.573459951 C7.19885066,0.69633297 5.66365623,3.30135492 3.83811104,6.36241872 C2.01256584,9.42341921 0.503744156,11.9680492 0.485076513,12.0171731 C0.460833633,12.0810468 1.45259918,12.7045276 3.96264552,14.2033126 L7.47422973,16.3000669 L10.9848116,14.2021731 C13.5068855,12.6949687 14.4858092,12.0788944 14.4613157,12.0143244 C14.3344634,11.680206 7.50786907,0.349996912 7.43338643,0.349996912 C7.38314666,0.349996912 7.30045777,0.450523628 7.24965422,0.573459951 M0.493408044,13.5251371 C0.628717139,13.7589187 7.44522602,23.4508838 7.47372863,23.4499976 C7.52083624,23.4485416 14.4900063,13.4963971 14.4631477,13.4691131 C14.4376367,13.443475 7.92344344,17.3205902 7.65169767,17.5230996 L7.48512967,17.647302 L4.11236255,15.6349953 C2.25731244,14.5282519 0.671063874,13.5780592 0.587372693,13.5235545 C0.448618228,13.4332197 0.440286696,13.4333463 0.493408044,13.5251371" id="Shape"></path>
            </g>
        </g>
    </g>
</svg>