<?xml version="1.0" encoding="UTF-8"?>
<svg xmlns="http://www.w3.org/2000/svg" width="50" height="50" viewBox="0 0 256 256">
  <title>Currency/Large/Ethereum</title>
  <g id="Currency/Large/Ethereum" fill="none">
    <path fill="#EAEAEF" d="M128,256 C198.692448,256 256,198.692448 256,128 C256,57.3075523 198.692448,0 128,0 C57.3075523,0 0,57.3075523 0,128 C0,198.692448 57.3075523,256 128,256 Z"/>
    <path fill="#616792" d="M127.264203,44.6414744 C126.89168,45.5457676 115.634687,64.7176223 102.248663,87.2457512 C88.8626384,109.773414 77.7990264,128.500809 77.6621437,128.86234 C77.4843799,129.332424 84.7566171,133.920978 103.161826,144.951398 L128.910929,160.382619 L154.652683,144.943012 C173.146085,133.850629 180.324158,129.316584 180.144557,128.841376 C179.214398,126.382406 129.157594,42.9968814 128.611441,42.9968814 C128.243052,42.9968814 127.636726,43.7367153 127.264203,44.6414744 M77.7232356,139.960315 C78.7154054,141.680848 128.698256,213.009596 128.907255,213.003073 C129.252677,212.992358 180.354934,139.748801 180.157418,139.548002 C179.970927,139.359317 132.204841,167.893238 130.212234,169.383621 L128.990854,170.297698 L104.259644,155.487975 C90.6572715,147.342814 79.0259179,140.349799 78.4122425,139.948668 C77.3948091,139.283842 77.3337171,139.284774 77.7232356,139.960315"/>
  </g>
</svg>