<?xml version="1.0" encoding="UTF-8"?>
<svg width="690px" height="690px" viewBox="0 0 690 690" version="1.1" xmlns="http://www.w3.org/2000/svg" xmlns:xlink="http://www.w3.org/1999/xlink">
    <!-- Generator: Sketch 56 (81588) - https://sketch.com -->
    <title>config/icon-reserve</title>
    <desc>Created with Sketch.</desc>
    <g id="config/icon-reserve" stroke="none" stroke-width="1" fill="none" fill-rule="evenodd">
        <g id="Final-R-BTC-Logotype-01" transform="translate(2.000000, 29.000000)" fill-rule="nonzero">
            <circle id="Oval" fill="#FF9931" cx="315.5" cy="317.5" r="296.5"></circle>
            <path d="M315.901449,39.4843235 C427.778758,39.4311162 528.669463,106.890048 571.519892,210.399479 C614.370321,313.908909 590.739927,433.079861 511.649513,512.333075 C432.5591,591.586289 313.587659,615.310705 210.221403,572.441669 C106.855146,529.572632 39.4548357,428.554356 39.4548357,316.500009 C39.4548357,163.559872 163.202946,39.5570192 315.901449,39.4843235 L315.901449,39.4843235 Z M315.901449,0 C141.392309,0.0545125096 -0.0362674768,141.780523 6.97518959e-06,316.565795 C0.0362953853,491.351068 141.523698,633.018165 316.032845,633 C490.541992,632.981835 632.000007,491.285285 632.000007,316.5 C631.80076,141.746071 490.37936,0.145060767 315.901449,0 L315.901449,0 Z" id="Shape" fill="#FFFFFF"></path>
            <path d="M646.140631,141.339922 C627.408775,133.058989 607.332881,128.252993 586.888586,127.155491 C569.219831,126.161845 551.609246,129.944294 535.898909,138.107191 C532.940397,139.718891 530.072248,141.491854 527.307363,143.418106 C503.606545,160.076565 491.492793,186.301268 485.435917,206.423368 L483,215 L490.900273,210.777658 L532.541293,188.610362 C540.575499,184.283516 550.587951,187.221587 555.024153,195.207771 L555.024153,195.207771 L555.254577,195.603616 C555.512457,196.11894 555.743198,196.647458 555.945851,197.186994 L555.945851,197.186994 L652,143.879924 C651.242891,143.418106 647.06233,141.768753 646.140631,141.339922 Z" id="Path" fill="#006E3C"></path>
            <path d="M629.906732,205.829563 C582.471484,284.357381 498,245.27426 498,245.27426 L528.475343,228.83897 C531.001286,227.326923 547.633148,218.550478 547.633148,218.550478 C555.534589,214.154789 558.596193,204.314755 554.587693,196.198483 L651,144 C648.5754,165.909619 641.374422,187.01746 629.906732,205.829563 L629.906732,205.829563 Z" id="Path" fill="#06B23C"></path>
            <path d="M677.960993,119.493145 C673.753746,117.025378 635.23114,95.0458076 588.228302,93.1703053 C564.63545,91.9677717 541.154749,97.1507582 520.254967,108.174324 C513.762338,111.676277 507.601385,115.762184 501.848261,120.38154 C459.512837,154.305099 448.534552,209.221123 445.740677,233.339424 L445.510593,235.280734 L443.801399,236.202033 L431.376873,242.782743 C419.27182,231.166015 404.494625,222.713058 388.351198,218.170888 L385.951752,217.512817 L398.376279,168.157494 L368.794073,160.52387 L356.468154,209.615965 L334.24863,203.660423 L346.54168,154.765749 L316.959475,147.132126 L304.797901,195.763571 C269.003432,186.38606 246.093657,180.693746 246.093657,180.693746 C246.093657,180.693746 241.16329,205.470118 239.026797,211.42566 C239.026797,211.42566 245.107584,212.90632 251.648538,214.716015 C255.954392,215.96635 277.023497,218.236695 269.989506,244.32921 C266.045212,259.004192 243.036829,357.418707 241.229028,364.131031 C239.158273,372.126594 237.153257,376.404055 227.292522,374.364035 L203.758234,369.099467 L189,404.339168 C194.357666,406.181767 212.895848,410.459228 248.164412,419.37609 L235.838493,467.974632 L265.420698,475.608256 L277.64801,426.943907 L299.867533,432.767835 L287.574484,481.366377 L317.156689,489 L329.548347,439.644676 C363.830836,446.027965 383.585176,443.987945 388.28546,443.132453 C416.914461,437.834981 429.076035,415.789603 434.302224,394.731332 C449.159065,335.504944 400.414164,330.240376 406.593558,328.924234 C433.874926,323.429341 446.923965,297.303923 445.444855,274.106921 L459.381361,266.670719 L461.090555,265.716516 L462.76688,266.670719 C481.00924,276.146941 509.605373,287.728991 542.047192,288.913518 C561.848095,289.813307 581.583628,286.049146 599.666755,277.923733 C602.164808,276.772109 604.597122,275.554678 607.029437,274.271439 C676.547621,236.860104 685.553759,145.68437 686.309749,135.451366 L687,124.856423 L677.960993,119.493145 Z M375.828064,382.425405 C367.742261,414.73669 313.015181,398.449433 313.015181,398.449433 L287.015709,391.868723 L303.220183,327.048732 L334.2815,335.077198 C334.2815,335.077198 385.064286,346.13279 375.828064,382.425405 L375.828064,382.425405 Z M385.688799,286.116717 C378.260379,315.729911 332.670913,302.009131 332.670913,302.009131 L311.043033,296.415528 L325.899875,237.189139 L351.76787,243.769849 C351.76787,243.769849 393.938948,252.818325 385.590192,286.116717 L385.688799,286.116717 Z M650.975447,146.70438 L650.975447,147.066319 C646.176556,173.915615 632.042835,222.250928 591.317999,244.164692 L590.233318,244.691149 C575.679369,252.054735 559.447374,255.458855 543.164742,254.562213 C530.926652,253.997338 518.820449,251.783843 507.173058,247.981503 L498.725695,245.283412 L506.548545,241.071758 L548.45667,218.565731 C555.883488,214.345192 559.089126,205.306753 555.983697,197.342942 C555.781344,196.804771 555.550944,196.277591 555.293446,195.763571 L555.063362,195.368729 L555.063362,195.368729 C550.633722,187.40276 540.636078,184.472125 532.613755,188.788019 L491.034321,211.063721 L483.047126,215.176665 L485.643786,206.588839 C491.691704,186.550577 503.787539,160.359352 527.453303,143.74306 C530.2141,141.821685 533.078007,140.053209 536.032143,138.445589 C551.719244,130.303354 569.303783,126.53048 586.946406,127.52161 C607.360465,128.616334 627.406666,133.410165 646.110818,141.670137 L648.838955,142.887568 L651.402746,144.137903 L650.975447,146.70438 Z" id="Shape" fill="#FFFFFF"></path>
        </g>
    </g>
</svg>