<?xml version="1.0" encoding="UTF-8"?>
<svg width="30px" height="30px" viewBox="0 0 30 30" version="1.1" xmlns="http://www.w3.org/2000/svg" xmlns:xlink="http://www.w3.org/1999/xlink">
    <!-- Generator: Sketch 46.2 (44496) - http://www.bohemiancoding.com/sketch -->
    <title>bitcoin</title>
    <desc>Created with Sketch.</desc>
    <defs></defs>
    <g id="Symbols" stroke="none" stroke-width="1" fill="none" fill-rule="evenodd">
        <g id="Invoice---Details---toggle-12" transform="translate(-14.000000, -65.000000)" fill-rule="nonzero">
            <g id="bitcoin" transform="translate(14.000000, 65.000000)">
                <path d="M29.488125,18.7144615 C27.4907812,26.6007692 19.3776562,31.4141538 11.3475,29.448 C3.3384375,27.4813846 -1.550625,19.4930769 0.44671875,11.6067692 C2.44359375,3.72092308 10.5571875,-1.09246154 18.56625,0.873692308 C26.5964062,2.81953846 31.485,10.8286154 29.488125,18.7144615" id="Shape" fill="#F8AE2A"></path>
                <path d="M18.8160938,13.2456923 C18.3792187,15.0687692 15.508125,14.1876923 14.5720313,13.9624615 L15.3628125,10.7261538 C16.2778125,10.9513846 19.2735937,11.3409231 18.8160937,13.2456923 L18.8160938,13.2456923 Z M18.358125,18.4689231 C17.88,20.4761538 14.42625,19.4316923 13.32375,19.1653846 L14.176875,15.6013846 C15.3,15.8676923 18.8573438,16.3592308 18.358125,18.4689231 Z M22.06125,13.2456923 C22.3317187,11.2790769 20.8129687,10.2549231 18.7326562,9.55846154 L19.3776562,6.89584615 L17.7342188,6.50676923 L17.1103125,9.108 C16.6734375,9.00553846 16.2365625,8.90307692 15.7996875,8.82138462 L16.4235937,6.21969231 L14.7595313,5.83061538 L14.1145313,8.49369231 C13.760625,8.41153846 13.4071875,8.35015385 13.0532813,8.268 L10.7859375,7.73584615 L10.3696875,9.45646154 C10.3696875,9.45646154 11.5973438,9.72230769 11.555625,9.74307692 C12.22125,9.90692308 12.3459375,10.3370769 12.3253125,10.6647692 L11.5973438,13.6961538 C11.6385938,13.7169231 11.7014063,13.7169231 11.76375,13.7575385 C11.7014063,13.7372308 11.6596875,13.7372308 11.5973438,13.7169231 L10.5984375,17.9566154 C10.5154688,18.1615385 10.3073438,18.4481538 9.84984375,18.3461538 C9.87046875,18.3664615 8.64328125,18.0590769 8.64328125,18.0590769 L7.8525,19.9232308 L9.99515625,20.4147692 C10.3907812,20.5172308 10.7859375,20.5989231 11.1604687,20.7013846 L10.5154688,23.3847692 L12.1589062,23.7738462 L12.8039062,21.1112308 C13.2614063,21.234 13.6982813,21.3364615 14.1145312,21.4389231 L13.4695312,24.0812308 L15.1129687,24.4703077 L15.7579687,21.7873846 C18.56625,22.2789231 20.6671875,22.0532308 21.5203125,19.5341538 C22.2070312,17.5264615 21.4579687,16.3795385 19.9603125,15.6216923 C21.0628125,15.3756923 21.853125,14.6796923 22.06125,13.2456923 L22.06125,13.2456923 Z" id="Shape" fill="#FFFFFF"></path>
            </g>
        </g>
    </g>
</svg>