<svg width="50" height="51" viewBox="0 0 50 51" fill="none" xmlns="http://www.w3.org/2000/svg">
<path fill-rule="evenodd" clip-rule="evenodd" d="M0 25.0745C0 11.2674 11.1929 0.0745239 25 0.0745239C38.8071 0.0745239 50 11.2674 50 25.0745C50 38.8816 38.8071 50.0745 25 50.0745C11.1929 50.0745 0 38.8816 0 25.0745Z" fill="#CBF3E8"/>
<path d="M26.3051 30.4043L29.5674 27.1419C30.1513 26.558 31.098 26.558 31.6819 27.1419C32.2658 27.7258 32.2658 28.6725 31.6819 29.2564L25.8763 35.062C25.842 35.0969 25.806 35.1301 25.7684 35.1615C25.6704 35.2436 25.5643 35.3111 25.453 35.3641C25.2582 35.4571 25.0401 35.5091 24.8099 35.5091C24.5927 35.5091 24.3862 35.4628 24.1999 35.3794C24.0551 35.3148 23.9185 35.2259 23.7962 35.1129C23.7799 35.0979 23.764 35.0826 23.7484 35.0669L17.9379 29.2564C17.354 28.6725 17.354 27.7258 17.9379 27.1419C18.5218 26.558 19.4685 26.558 20.0524 27.1419L23.3148 30.4043L23.3148 16.5697C23.3148 15.7439 23.9842 15.0745 24.8099 15.0745C25.6357 15.0745 26.3051 15.7439 26.3051 16.5697L26.3051 30.4043Z" fill="#004D27"/>
</svg>
