<svg width="50" height="51" viewBox="0 0 50 51" fill="none" xmlns="http://www.w3.org/2000/svg">
<path fill-rule="evenodd" clip-rule="evenodd" d="M0 25.0745C0 11.2674 11.1929 0.0745239 25 0.0745239C38.8071 0.0745239 50 11.2674 50 25.0745C50 38.8816 38.8071 50.0745 25 50.0745C11.1929 50.0745 0 38.8816 0 25.0745Z" fill="#E1E4E7"/>
<path d="M32.8125 27.2777V23.2152H28.75V21.3402H32.8125V17.2777H34.6875V21.3402H38.75V23.2152H34.6875V27.2777H32.8125ZM21.25 24.7465C19.875 24.7465 18.75 24.309 17.875 23.434C17 22.559 16.5625 21.434 16.5625 20.059C16.5625 18.684 17 17.559 17.875 16.684C18.75 15.809 19.875 15.3715 21.25 15.3715C22.625 15.3715 23.75 15.809 24.625 16.684C25.5 17.559 25.9375 18.684 25.9375 20.059C25.9375 21.434 25.5 22.559 24.625 23.434C23.75 24.309 22.625 24.7465 21.25 24.7465ZM11.25 34.7777V31.8402C11.25 31.111 11.4323 30.4496 11.7969 29.8558C12.1615 29.2621 12.6875 28.8194 13.375 28.5277C14.9375 27.8402 16.3265 27.3558 17.5419 27.0746C18.7573 26.7933 19.9917 26.6527 21.245 26.6527C22.4983 26.6527 23.7292 26.7933 24.9375 27.0746C26.1458 27.3558 27.5312 27.8402 29.0938 28.5277C29.7812 28.8402 30.3125 29.2881 30.6875 29.8715C31.0625 30.4548 31.25 31.111 31.25 31.8402V34.7777H11.25ZM13.125 32.9027H29.375V31.8402C29.375 31.5069 29.2812 31.1892 29.0938 30.8871C28.9062 30.585 28.6562 30.361 28.3438 30.2152C26.8646 29.5277 25.6146 29.0746 24.5938 28.8558C23.5729 28.6371 22.4583 28.5277 21.25 28.5277C20.0417 28.5277 18.9219 28.6371 17.8906 28.8558C16.8594 29.0746 15.6042 29.5277 14.125 30.2152C13.8125 30.361 13.5677 30.585 13.3906 30.8871C13.2135 31.1892 13.125 31.5069 13.125 31.8402V32.9027ZM21.25 22.8715C22.0625 22.8715 22.7344 22.6058 23.2656 22.0746C23.7969 21.5433 24.0625 20.8715 24.0625 20.059C24.0625 19.2465 23.7969 18.5746 23.2656 18.0433C22.7344 17.5121 22.0625 17.2465 21.25 17.2465C20.4375 17.2465 19.7656 17.5121 19.2344 18.0433C18.7031 18.5746 18.4375 19.2465 18.4375 20.059C18.4375 20.8715 18.7031 21.5433 19.2344 22.0746C19.7656 22.6058 20.4375 22.8715 21.25 22.8715Z" fill="#434D5A"/>
</svg>
