<svg width="50" height="51" viewBox="0 0 50 51" fill="none" xmlns="http://www.w3.org/2000/svg">
<path fill-rule="evenodd" clip-rule="evenodd" d="M0 25.1496C0 11.3425 11.1929 0.149612 25 0.149612C38.8071 0.149612 50 11.3425 50 25.1496C50 38.9567 38.8071 50.1496 25 50.1496C11.1929 50.1496 0 38.9567 0 25.1496Z" fill="#FFCDCD"/>
<path d="M27.3802 25.3875L34.8799 32.8871C35.4716 33.4787 35.4716 34.4381 34.8799 35.0298C34.2882 35.6214 33.3289 35.6214 32.7372 35.0298L25.2375 27.5302L17.738 35.0298C17.1462 35.6214 16.187 35.6214 15.5952 35.0298C15.0035 34.4379 15.0035 33.4787 15.5952 32.8869L23.0947 25.3873L15.5952 17.8878C15.0034 17.2961 15.0034 16.3367 15.5952 15.7451C16.1869 15.1532 17.1462 15.1532 17.7379 15.7451L25.2374 23.2446L32.7372 15.7449C33.3289 15.1532 34.2882 15.1532 34.88 15.7449C35.4717 16.3367 35.4717 17.2961 34.88 17.8878L27.3802 25.3875Z" fill="#CD4040"/>
</svg>
