<svg width="50" height="51" viewBox="0 0 50 51" fill="none" xmlns="http://www.w3.org/2000/svg">
<path fill-rule="evenodd" clip-rule="evenodd" d="M25 50.0745C11.1929 50.0745 1.69631e-06 38.8816 1.09278e-06 25.0745C4.89256e-07 11.2674 11.1929 0.0745256 25 0.074525C38.8071 0.0745244 50 11.2674 50 25.0745C50 38.8816 38.8071 50.0745 25 50.0745Z" fill="#E1E4E7"/>
<path d="M23.3147 20.1794L20.0524 23.4417C19.4685 24.0256 18.5218 24.0256 17.9379 23.4417C17.354 22.8578 17.354 21.9111 17.9379 21.3272L23.7435 15.5216C23.7779 15.4867 23.8139 15.4534 23.8516 15.422C23.9496 15.34 24.0556 15.2725 24.1668 15.2195C24.3616 15.1266 24.5797 15.0745 24.8099 15.0745C25.0271 15.0745 25.2336 15.1209 25.4199 15.2042C25.5654 15.2692 25.7027 15.3586 25.8255 15.4724C25.8411 15.4869 25.8564 15.5016 25.8713 15.5167L31.6819 21.3272C32.2658 21.9111 32.2658 22.8578 31.6819 23.4417C31.098 24.0256 30.1513 24.0256 29.5674 23.4417L26.305 20.1793L26.305 34.0139C26.305 34.8397 25.6356 35.5091 24.8099 35.5091C23.9841 35.5091 23.3147 34.8397 23.3147 34.0139L23.3147 20.1794Z" fill="#434D5A"/>
</svg>
