<svg width="50" height="51" viewBox="0 0 50 51" fill="none" xmlns="http://www.w3.org/2000/svg">
<path fill-rule="evenodd" clip-rule="evenodd" d="M25 50.0745C11.1929 50.0745 0 38.8816 0 25.0745C0 11.2674 11.1929 0.0745239 25 0.0745239C38.8071 0.0745239 50 11.2674 50 25.0745C50 38.8816 38.8071 50.0745 25 50.0745Z" fill="#E1E4E7"/>
<path d="M27.2215 31.3769L23.7375 32.264L24.6246 28.7801L35.1449 18.2597C35.4892 17.9152 35.9563 17.7216 36.4434 17.7216C36.9304 17.7216 37.3975 17.9152 37.7418 18.2597C38.0863 18.604 38.2799 19.0711 38.2799 19.5582C38.2799 20.0452 38.0863 20.5123 37.7418 20.8566L27.2215 31.3769Z" fill="#434D5A"/>
<line x1="12.5146" y1="31.6775" x2="21.5113" y2="31.6775" stroke="#434D5A" stroke-width="1.5" stroke-linecap="round"/>
</svg>
