<?xml version="1.0" encoding="UTF-8" standalone="no"?>
<svg width="108px" height="98px" viewBox="0 0 108 98" version="1.1" xmlns="http://www.w3.org/2000/svg" xmlns:xlink="http://www.w3.org/1999/xlink" xmlns:sketch="http://www.bohemiancoding.com/sketch/ns">
    <!-- Generator: Sketch 3.2.1 (9971) - http://www.bohemiancoding.com/sketch -->
    <title>Group + Group</title>
    <desc>Created with Sketch.</desc>
    <defs></defs>
    <g id="Page-1" stroke="none" stroke-width="1" fill="none" fill-rule="evenodd" sketch:type="MSPage">
        <g id="Group-+-Group" sketch:type="MSLayerGroup">
            <g id="Group" fill="#6B6A65" sketch:type="MSShapeGroup">
                <path d="M107.748474,8.97423881 L102.161747,8.97423881 L98.9120842,22.6159552 L98.9177684,22.6159552 L98.4715579,24.4924179 C98.1597789,24.5797612 97.8491368,24.6583134 97.5410526,24.7198507 C96.9626842,24.8352687 96.3649895,24.8928358 95.7479684,24.8928358 C95.0280632,24.8928358 94.4622,24.7907463 94.0512316,24.5851493 C93.6396947,24.3801194 93.3506526,24.0914328 93.1838211,23.7193731 C93.0161368,23.3478806 92.9524737,22.9054925 92.9908421,22.3919254 C93.0294947,21.879209 93.1258421,21.3279254 93.2801684,20.7375075 L94.9769053,13.6578806 L96.0949895,8.96374627 L96.0952737,8.96232836 L90.3880421,8.96232836 L87.8042842,19.8524478 C87.4959158,21.1606119 87.3157263,22.4052537 87.2645684,23.5846716 C87.2125579,24.7649403 87.3927474,25.8105075 87.8042842,26.7205224 C88.2152526,27.6313881 88.9092947,28.3497015 89.8866947,28.8751791 C90.8632421,29.4006567 92.2388211,29.6641045 94.0128632,29.6641045 C95.2466211,29.6641045 96.3132632,29.5611642 97.2133579,29.3561343 C97.2497368,29.3479104 97.2846947,29.3391194 97.3202211,29.3303284 L97.3179474,29.3405373 C97.0675579,30.4640896 96.5610947,31.3752388 95.7482526,32.0864627 C94.9345579,32.7982537 93.7275158,33.1541493 92.1262737,33.1541493 C91.4427474,33.1541493 90.8220316,33.113597 90.2590105,33.0358955 L89.1594,37.6520448 C89.9031789,37.7478955 90.7276737,37.797806 91.6385684,37.797806 C93.3395684,37.797806 94.8288316,37.6038358 96.1049368,37.2170299 C97.3810421,36.8299403 98.4752526,36.2434925 99.3887053,35.4568358 C100.301874,34.6704627 101.064979,33.6838806 101.678305,32.498791 C102.291063,31.3122836 102.785305,29.9088358 103.160747,28.2856119 L107.026579,12.0701045 C107.022032,12.0678358 107.0172,12.0661343 107.012653,12.0638657 L107.748474,8.97423881" id="Fill-1"></path>
                <path d="M84.3121895,20.6266269 C83.9609053,22.0516269 83.8611474,23.4828657 84.0114947,24.9203433 C84.1618421,26.3583881 84.7129263,28.5612537 85.2503684,29.6641045 L79.8438316,29.6641045 C79.1833263,28.5490597 79.2131684,28.0269851 79.0881158,27.6764776 C78.3864,28.2518657 77.6096526,28.7265821 76.7581579,29.1014776 C75.9060947,29.4763731 74.9539895,29.6641045 73.9018421,29.6641045 C72.6487579,29.6641045 71.5775684,29.4448955 70.6885579,29.0076119 C69.7986947,28.5706119 69.0722526,27.9830299 68.5086632,27.2451493 C67.9447895,26.508403 67.5375158,25.6457463 67.2874105,24.6580299 C67.0364526,23.670597 66.9114,22.6142537 66.9114,21.4892836 C66.9114,19.7642537 67.2177789,18.1393284 67.8322421,16.6142239 C68.4458526,15.089403 69.2979158,13.7582687 70.3878632,12.6205373 C71.4775263,11.4830896 74.1078947,8.97480597 78.4242,8.97480597 C80.2894737,8.97480597 82.7964947,8.97423881 87.0917684,8.97423881 L84.3121895,20.6266269 L84.3121895,20.6266269 Z M80.3454632,13.6621343 C77.7403895,13.6621343 77.2430211,13.6621343 76.1755263,14.2142687 C75.4178211,14.6064627 74.7905684,15.1957463 74.2400526,15.8828657 C73.6886842,16.5708358 73.2564,17.3642985 72.9434842,18.2641045 C72.6297158,19.164194 72.4736842,20.1017164 72.4736842,21.0763881 C72.4736842,22.2765075 72.6737684,23.2270746 73.0750737,23.9266716 C73.4755263,24.6268358 74.2147579,24.9764925 75.2922,24.9764925 C75.8682947,24.9764925 76.3881158,24.864194 76.8519474,24.6390299 C77.3154947,24.4141493 77.8103053,24.0389701 78.3363789,23.5140597 C78.3864,22.8896119 78.4682526,22.2331194 78.5808,21.5454328 C78.6933474,20.8583134 78.8363053,20.2208209 78.9619263,19.6454328 L80.3454632,13.6621343 L80.3454632,13.6621343 Z" id="Fill-2"></path>
                <path d="M65.3579053,17.1669254 C65.3579053,19.0042537 65.0549368,20.684194 64.4495684,22.2067463 C63.8444842,23.7298657 63.0054947,25.0445522 61.9337368,26.1516567 C60.8611263,27.2596119 59.5747895,28.1214179 58.0744421,28.7376418 C56.5735263,29.3541493 54.9401684,29.6626866 53.1746526,29.6626866 C52.3171895,29.6626866 51.4591579,29.5872537 50.6019789,29.4361045 L48.8995579,36.2690149 L43.2997579,36.2690149 L49.7996526,8.97480597 C50.7452211,8.97423881 55.7476105,8.97480597 57.2610316,8.97480597 C58.6732737,8.97480597 59.8905474,9.18891045 60.912,9.61683582 C61.9337368,10.0450448 62.7718737,10.6300746 63.4281158,11.372209 C64.0837895,12.1149104 64.5689368,12.9829552 64.8846947,13.9769104 C65.1998842,14.9714328 65.3579053,16.0342985 65.3579053,17.1669254 L65.3579053,17.1669254 Z M51.6234316,24.9058806 C52.0523053,25.0068358 52.5817895,25.0570299 53.2127368,25.0570299 C54.1963895,25.0570299 55.0913684,24.8746866 55.8990947,24.5094328 C56.7059684,24.1450299 57.3934737,23.6354328 57.9610421,22.9806418 C58.5286105,22.3264179 58.9694211,21.5403284 59.2851789,20.6212388 C59.6000842,19.7027164 59.7581053,18.6900448 59.7581053,17.5820896 C59.7581053,16.5005075 59.5182316,15.5814179 59.0393368,14.8265224 C58.5598737,14.0713433 57.7194632,13.6700746 56.5343053,13.6652537 C55.7052632,13.6621343 54.3288316,13.6621343 54.3288316,13.6621343 L51.6234316,24.9058806 L51.6234316,24.9058806 Z" id="Fill-3"></path>
                <path d="M39.8636526,24.8970896 C39.1434632,24.8970896 38.5776,24.795 38.1669158,24.589403 C37.7550947,24.3843731 37.4660526,24.0956866 37.2992211,23.7236269 C37.1315368,23.3521343 37.0678737,22.9094627 37.1062421,22.3961791 C37.1448947,21.8834627 37.2412421,21.3321791 37.3955684,20.7417612 L39.0923053,13.6621343 L45.4549263,13.6621343 L46.6119474,8.96771642 L40.2103895,8.96771642 L41.6757789,3.00398507 L35.6988316,3.92761194 L31.9199684,19.8567015 C31.6113158,21.1648657 31.4311263,22.4095075 31.3799684,23.5889254 C31.3282421,24.7689104 31.5081474,25.8144776 31.9199684,26.7247761 C32.3306526,27.6356418 33.0249789,28.3539552 34.0020947,28.8794328 C34.9789263,29.4049104 36.3545053,29.6680746 38.1282632,29.6680746 C39.3623053,29.6680746 40.4286632,29.5654179 41.3287579,29.3603881 C41.4219789,29.3391194 41.5632316,29.304806 41.6544632,29.2829701 L42.8180211,24.4266269 C42.4272316,24.5596269 42.0347368,24.6483881 41.6567368,24.7241045 C41.0783684,24.8392388 40.4803895,24.8970896 39.8636526,24.8970896" id="Fill-4"></path>
                <path d="M25.6136211,8.96261194 L20.6811474,29.6680746 L26.2681579,29.6680746 L31.2003474,8.96261194 L25.6136211,8.96261194" id="Fill-5"></path>
                <path d="M31.779,6.56861194 L32.6358947,2.9719403 L27.0488842,2.9719403 L26.1922737,6.56861194 L31.779,6.56861194" id="Fill-6"></path>
                <path d="M13.2302842,8.97792537 C14.4344842,8.97792537 15.4749789,9.19061194 16.3534737,9.61598507 C17.2311158,10.0419254 17.9584105,10.6173134 18.5356421,11.343 C19.1125895,12.0692537 19.5386211,12.9197164 19.8148737,13.8960896 C20.0908421,14.8721791 20.2289684,15.9234179 20.2289684,17.0495224 C20.2289684,18.7765373 19.9092316,20.4096866 19.2694737,21.9489701 C18.63,23.4882537 17.7580421,24.8273284 16.6544526,25.9659104 C15.5502947,27.1053433 14.2463368,28.0062836 12.7411579,28.6690149 C11.2362632,29.3320299 9.60546316,29.6641045 7.84989474,29.6641045 C7.62423158,29.6641045 7.22917895,29.6575821 6.66473684,29.6451045 C6.10029474,29.6323433 5.454,29.576194 4.72698947,29.4763731 C3.99912632,29.3759851 3.22777895,29.2259701 2.41294737,29.0257612 C1.59754737,28.8258358 0.8262,28.5507612 0.0989052632,28.1999701 L6.60817895,0.906044776 L12.4404632,0.00510447761 L10.1360842,9.67837313 C10.6377158,9.45320896 11.1103579,9.29128358 11.6125579,9.16537313 C12.1139053,9.04059701 12.6530526,8.97792537 13.2302842,8.97792537 L13.2302842,8.97792537 Z M8.33902105,25.0462537 C9.21694737,25.0462537 10.0445684,24.8338507 10.8224526,24.4079104 C11.5994842,23.9825373 12.2710737,23.4131045 12.8355158,22.6998955 C13.3996737,21.986403 13.8447474,21.1793284 14.1710211,20.2783881 C14.4967263,19.3771642 14.6601474,18.438791 14.6601474,17.4624179 C14.6601474,16.2611642 14.4592105,15.3225075 14.0581895,14.6467313 C13.6566,13.9709552 12.8224421,13.6621343 11.7444316,13.6621343 C11.3928632,13.6621343 11.0293579,13.6958806 10.4649158,13.8209403 C9.90047368,13.9462836 9.41362105,14.2063284 8.96229474,14.6064627 L6.50898947,24.9050299 C7.23486316,25.031791 7.48582105,25.0462537 7.66174737,25.0462537 L8.33902105,25.0462537 L8.33902105,25.0462537 Z" id="Fill-7"></path>
            </g>
            <g id="Group" transform="translate(0.000000, 60.000000)" fill="#A39F9A" sketch:type="MSShapeGroup">
                <path d="M107.748474,8.97423881 L102.161747,8.97423881 L98.9120842,22.6159552 L98.9177684,22.6159552 L98.4715579,24.4924179 C98.1597789,24.5797612 97.8491368,24.6583134 97.5410526,24.7198507 C96.9626842,24.8352687 96.3649895,24.8928358 95.7479684,24.8928358 C95.0280632,24.8928358 94.4622,24.7907463 94.0512316,24.5851493 C93.6396947,24.3801194 93.3506526,24.0914328 93.1838211,23.7193731 C93.0161368,23.3478806 92.9524737,22.9054925 92.9908421,22.3919254 C93.0294947,21.879209 93.1258421,21.3279254 93.2801684,20.7375075 L94.9769053,13.6578806 L96.0949895,8.96374627 L96.0952737,8.96232836 L90.3880421,8.96232836 L87.8042842,19.8524478 C87.4959158,21.1606119 87.3157263,22.4052537 87.2645684,23.5846716 C87.2125579,24.7649403 87.3927474,25.8105075 87.8042842,26.7205224 C88.2152526,27.6313881 88.9092947,28.3497015 89.8866947,28.8751791 C90.8632421,29.4006567 92.2388211,29.6641045 94.0128632,29.6641045 C95.2466211,29.6641045 96.3132632,29.5611642 97.2133579,29.3561343 C97.2497368,29.3479104 97.2846947,29.3391194 97.3202211,29.3303284 L97.3179474,29.3405373 C97.0675579,30.4640896 96.5610947,31.3752388 95.7482526,32.0864627 C94.9345579,32.7982537 93.7275158,33.1541493 92.1262737,33.1541493 C91.4427474,33.1541493 90.8220316,33.113597 90.2590105,33.0358955 L89.1594,37.6520448 C89.9031789,37.7478955 90.7276737,37.797806 91.6385684,37.797806 C93.3395684,37.797806 94.8288316,37.6038358 96.1049368,37.2170299 C97.3810421,36.8299403 98.4752526,36.2434925 99.3887053,35.4568358 C100.301874,34.6704627 101.064979,33.6838806 101.678305,32.498791 C102.291063,31.3122836 102.785305,29.9088358 103.160747,28.2856119 L107.026579,12.0701045 C107.022032,12.0678358 107.0172,12.0661343 107.012653,12.0638657 L107.748474,8.97423881" id="Fill-14"></path>
                <path d="M84.3121895,20.6266269 C83.9609053,22.0516269 83.8611474,23.4828657 84.0114947,24.9203433 C84.1618421,26.3583881 84.7129263,28.5612537 85.2503684,29.6641045 L79.8438316,29.6641045 C79.1833263,28.5490597 79.2131684,28.0269851 79.0881158,27.6764776 C78.3864,28.2518657 77.6096526,28.7265821 76.7581579,29.1014776 C75.9060947,29.4763731 74.9539895,29.6641045 73.9018421,29.6641045 C72.6487579,29.6641045 71.5775684,29.4448955 70.6885579,29.0076119 C69.7986947,28.5706119 69.0722526,27.9830299 68.5086632,27.2451493 C67.9447895,26.508403 67.5375158,25.6457463 67.2874105,24.6580299 C67.0364526,23.670597 66.9114,22.6142537 66.9114,21.4892836 C66.9114,19.7642537 67.2177789,18.1393284 67.8322421,16.6142239 C68.4458526,15.089403 69.2979158,13.7582687 70.3878632,12.6205373 C71.4775263,11.4830896 74.1078947,8.97480597 78.4242,8.97480597 C80.2894737,8.97480597 82.7964947,8.97423881 87.0917684,8.97423881 L84.3121895,20.6266269 L84.3121895,20.6266269 Z M80.3454632,13.6621343 C77.7403895,13.6621343 77.2430211,13.6621343 76.1755263,14.2142687 C75.4178211,14.6064627 74.7905684,15.1957463 74.2400526,15.8828657 C73.6886842,16.5708358 73.2564,17.3642985 72.9434842,18.2641045 C72.6297158,19.164194 72.4736842,20.1017164 72.4736842,21.0763881 C72.4736842,22.2765075 72.6737684,23.2270746 73.0750737,23.9266716 C73.4755263,24.6268358 74.2147579,24.9764925 75.2922,24.9764925 C75.8682947,24.9764925 76.3881158,24.864194 76.8519474,24.6390299 C77.3154947,24.4141493 77.8103053,24.0389701 78.3363789,23.5140597 C78.3864,22.8896119 78.4682526,22.2331194 78.5808,21.5454328 C78.6933474,20.8583134 78.8363053,20.2208209 78.9619263,19.6454328 L80.3454632,13.6621343 L80.3454632,13.6621343 Z" id="Fill-8"></path>
                <path d="M65.3579053,17.1669254 C65.3579053,19.0042537 65.0549368,20.684194 64.4495684,22.2067463 C63.8444842,23.7298657 63.0054947,25.0445522 61.9337368,26.1516567 C60.8611263,27.2596119 59.5747895,28.1214179 58.0744421,28.7376418 C56.5735263,29.3541493 54.9401684,29.6626866 53.1746526,29.6626866 C52.3171895,29.6626866 51.4591579,29.5872537 50.6019789,29.4361045 L48.8995579,36.2690149 L43.2997579,36.2690149 L49.7996526,8.97480597 C50.7452211,8.97423881 55.7476105,8.97480597 57.2610316,8.97480597 C58.6732737,8.97480597 59.8905474,9.18891045 60.912,9.61683582 C61.9337368,10.0450448 62.7718737,10.6300746 63.4281158,11.372209 C64.0837895,12.1149104 64.5689368,12.9829552 64.8846947,13.9769104 C65.1998842,14.9714328 65.3579053,16.0342985 65.3579053,17.1669254 L65.3579053,17.1669254 Z M51.6234316,24.9058806 C52.0523053,25.0068358 52.5817895,25.0570299 53.2127368,25.0570299 C54.1963895,25.0570299 55.0913684,24.8746866 55.8990947,24.5094328 C56.7059684,24.1450299 57.3934737,23.6354328 57.9610421,22.9806418 C58.5286105,22.3264179 58.9694211,21.5403284 59.2851789,20.6212388 C59.6000842,19.7027164 59.7581053,18.6900448 59.7581053,17.5820896 C59.7581053,16.5005075 59.5182316,15.5814179 59.0393368,14.8265224 C58.5598737,14.0713433 57.7194632,13.6700746 56.5343053,13.6652537 C55.7052632,13.6621343 54.3288316,13.6621343 54.3288316,13.6621343 L51.6234316,24.9058806 L51.6234316,24.9058806 Z" id="Fill-9"></path>
                <path d="M39.8636526,24.8970896 C39.1434632,24.8970896 38.5776,24.795 38.1669158,24.589403 C37.7550947,24.3843731 37.4660526,24.0956866 37.2992211,23.7236269 C37.1315368,23.3521343 37.0678737,22.9094627 37.1062421,22.3961791 C37.1448947,21.8834627 37.2412421,21.3321791 37.3955684,20.7417612 L39.0923053,13.6621343 L45.4549263,13.6621343 L46.6119474,8.96771642 L40.2103895,8.96771642 L41.6757789,3.00398507 L35.6988316,3.92761194 L31.9199684,19.8567015 C31.6113158,21.1648657 31.4311263,22.4095075 31.3799684,23.5889254 C31.3282421,24.7689104 31.5081474,25.8144776 31.9199684,26.7247761 C32.3306526,27.6356418 33.0249789,28.3539552 34.0020947,28.8794328 C34.9789263,29.4049104 36.3545053,29.6680746 38.1282632,29.6680746 C39.3623053,29.6680746 40.4286632,29.5654179 41.3287579,29.3603881 C41.4219789,29.3391194 41.5632316,29.304806 41.6544632,29.2829701 L42.8180211,24.4266269 C42.4272316,24.5596269 42.0347368,24.6483881 41.6567368,24.7241045 C41.0783684,24.8392388 40.4803895,24.8970896 39.8636526,24.8970896" id="Fill-10"></path>
                <path d="M25.6136211,8.96261194 L20.6811474,29.6680746 L26.2681579,29.6680746 L31.2003474,8.96261194 L25.6136211,8.96261194" id="Fill-11"></path>
                <path d="M31.779,6.56861194 L32.6358947,2.9719403 L27.0488842,2.9719403 L26.1922737,6.56861194 L31.779,6.56861194" id="Fill-12"></path>
                <path d="M13.2302842,8.97792537 C14.4344842,8.97792537 15.4749789,9.19061194 16.3534737,9.61598507 C17.2311158,10.0419254 17.9584105,10.6173134 18.5356421,11.343 C19.1125895,12.0692537 19.5386211,12.9197164 19.8148737,13.8960896 C20.0908421,14.8721791 20.2289684,15.9234179 20.2289684,17.0495224 C20.2289684,18.7765373 19.9092316,20.4096866 19.2694737,21.9489701 C18.63,23.4882537 17.7580421,24.8273284 16.6544526,25.9659104 C15.5502947,27.1053433 14.2463368,28.0062836 12.7411579,28.6690149 C11.2362632,29.3320299 9.60546316,29.6641045 7.84989474,29.6641045 C7.62423158,29.6641045 7.22917895,29.6575821 6.66473684,29.6451045 C6.10029474,29.6323433 5.454,29.576194 4.72698947,29.4763731 C3.99912632,29.3759851 3.22777895,29.2259701 2.41294737,29.0257612 C1.59754737,28.8258358 0.8262,28.5507612 0.0989052632,28.1999701 L6.60817895,0.906044776 L12.4404632,0.00510447761 L10.1360842,9.67837313 C10.6377158,9.45320896 11.1103579,9.29128358 11.6125579,9.16537313 C12.1139053,9.04059701 12.6530526,8.97792537 13.2302842,8.97792537 L13.2302842,8.97792537 Z M8.33902105,25.0462537 C9.21694737,25.0462537 10.0445684,24.8338507 10.8224526,24.4079104 C11.5994842,23.9825373 12.2710737,23.4131045 12.8355158,22.6998955 C13.3996737,21.986403 13.8447474,21.1793284 14.1710211,20.2783881 C14.4967263,19.3771642 14.6601474,18.438791 14.6601474,17.4624179 C14.6601474,16.2611642 14.4592105,15.3225075 14.0581895,14.6467313 C13.6566,13.9709552 12.8224421,13.6621343 11.7444316,13.6621343 C11.3928632,13.6621343 11.0293579,13.6958806 10.4649158,13.8209403 C9.90047368,13.9462836 9.41362105,14.2063284 8.96229474,14.6064627 L6.50898947,24.9050299 C7.23486316,25.031791 7.48582105,25.0462537 7.66174737,25.0462537 L8.33902105,25.0462537 L8.33902105,25.0462537 Z" id="Fill-13"></path>
            </g>
        </g>
    </g>
</svg>