<?xml version="1.0" encoding="UTF-8" standalone="no"?>
<svg width="104px" height="106px" viewBox="0 0 104 106" version="1.1" xmlns="http://www.w3.org/2000/svg" xmlns:xlink="http://www.w3.org/1999/xlink" xmlns:sketch="http://www.bohemiancoding.com/sketch/ns">
    <!-- Generator: Sketch 3.1.1 (8761) - http://www.bohemiancoding.com/sketch -->
    <title>Artboard 1</title>
    <desc>Created with Sketch.</desc>
    <defs></defs>
    <g id="Page-1" stroke="none" stroke-width="1" fill="none" fill-rule="evenodd" sketch:type="MSPage">
        <g id="Artboard-1" sketch:type="MSArtboardGroup">
            <g id="Group" sketch:type="MSLayerGroup" transform="translate(0.000000, 1.000000)" fill="#6B6A65">
                <path d="M101.967,5.033 C101.945,5.168 101.928,5.302 101.917,5.433 C101.906,5.565 101.9,5.69 101.899,5.811 C101.748,5.989 101.566,6.146 101.355,6.285 C101.143,6.424 100.884,6.501 100.579,6.517 C100.376,6.528 100.208,6.499 100.077,6.431 C99.946,6.364 99.839,6.274 99.757,6.162 C99.674,6.05 99.614,5.918 99.577,5.768 C99.54,5.618 99.518,5.469 99.51,5.32 C99.491,4.946 99.536,4.585 99.645,4.236 C99.754,3.888 99.92,3.578 100.143,3.308 C100.366,3.038 100.641,2.817 100.967,2.644 C101.293,2.471 101.664,2.374 102.078,2.352 C102.144,2.349 102.218,2.349 102.302,2.351 C102.387,2.353 102.447,2.361 102.484,2.373 L101.967,5.033 L101.967,5.033 Z M102.882,6.004 C102.874,5.841 102.878,5.685 102.896,5.535 C102.913,5.386 102.937,5.229 102.964,5.065 L103.63,1.698 C103.436,1.609 103.207,1.55 102.943,1.521 C102.679,1.493 102.448,1.484 102.252,1.494 C101.59,1.528 101.018,1.668 100.535,1.913 C100.052,2.157 99.656,2.465 99.347,2.835 C99.038,3.205 98.814,3.62 98.674,4.08 C98.534,4.54 98.476,5.007 98.501,5.479 C98.516,5.769 98.565,6.032 98.646,6.268 C98.728,6.504 98.847,6.706 99.001,6.875 C99.156,7.044 99.35,7.172 99.585,7.259 C99.818,7.346 100.096,7.381 100.416,7.364 C100.809,7.343 101.136,7.255 101.398,7.1 C101.659,6.945 101.866,6.792 102.019,6.643 C102.046,6.748 102.08,6.847 102.122,6.94 C102.163,7.034 102.204,7.118 102.245,7.194 L103.132,7.02 C103.05,6.833 102.99,6.657 102.951,6.493 C102.914,6.329 102.891,6.166 102.882,6.004 L102.882,6.004 L102.882,6.004 Z" id="Fill-1" sketch:type="MSShapeGroup"></path>
                <path d="M96.118,7.6 C95.573,7.628 95.167,7.533 94.901,7.313 C94.633,7.094 94.489,6.762 94.465,6.317 C94.45,6.028 94.481,5.655 94.559,5.198 L95.48,0.427 L96.529,0.202 L96.193,1.928 L98.124,1.827 L97.96,2.664 L96.029,2.765 L95.557,5.231 C95.487,5.567 95.458,5.858 95.472,6.105 C95.484,6.338 95.558,6.502 95.694,6.597 C95.83,6.693 96.051,6.733 96.356,6.717 C96.568,6.706 96.773,6.661 96.973,6.584 C97.173,6.506 97.326,6.436 97.432,6.374 L97.553,7.206 C97.447,7.275 97.265,7.354 97.007,7.442 C96.749,7.529 96.453,7.582 96.118,7.6" id="Fill-5" sketch:type="MSShapeGroup"></path>
                <path d="M92.385,4.081 C92.251,4.25 92.06,4.39 91.81,4.498 C91.561,4.607 91.262,4.69 90.915,4.747 C90.568,4.804 90.184,4.85 89.763,4.887 C89.815,4.629 89.897,4.382 90.009,4.147 C90.121,3.911 90.259,3.702 90.424,3.52 C90.59,3.338 90.781,3.188 90.997,3.071 C91.213,2.953 91.449,2.888 91.703,2.874 C91.863,2.866 91.999,2.879 92.11,2.912 C92.221,2.945 92.309,2.99 92.374,3.046 C92.439,3.103 92.486,3.166 92.516,3.235 C92.544,3.304 92.561,3.371 92.564,3.434 C92.578,3.695 92.518,3.911 92.385,4.081 L92.385,4.081 L92.385,4.081 Z M93.428,2.8 C93.353,2.638 93.246,2.496 93.105,2.377 C92.963,2.256 92.784,2.165 92.565,2.103 C92.347,2.039 92.089,2.016 91.791,2.032 C91.274,2.059 90.818,2.187 90.422,2.417 C90.025,2.646 89.694,2.945 89.429,3.312 C89.164,3.68 88.967,4.097 88.838,4.564 C88.71,5.03 88.658,5.511 88.684,6.005 C88.698,6.273 88.755,6.524 88.855,6.76 C88.955,6.995 89.1,7.198 89.292,7.368 C89.483,7.539 89.716,7.668 89.99,7.756 C90.265,7.844 90.588,7.879 90.958,7.86 C91.394,7.837 91.772,7.773 92.092,7.667 C92.41,7.562 92.64,7.467 92.782,7.382 L92.651,6.55 C92.609,6.588 92.536,6.629 92.433,6.673 C92.33,6.717 92.211,6.762 92.079,6.808 C91.946,6.854 91.807,6.894 91.658,6.926 C91.511,6.958 91.368,6.978 91.23,6.985 C90.917,7.002 90.662,6.984 90.467,6.93 C90.27,6.876 90.115,6.798 90,6.695 C89.885,6.591 89.804,6.468 89.756,6.325 C89.709,6.182 89.681,6.03 89.672,5.868 L89.668,5.783 C89.666,5.748 89.667,5.702 89.672,5.645 C89.94,5.617 90.225,5.586 90.525,5.552 C90.826,5.519 91.123,5.47 91.415,5.405 C91.707,5.34 91.987,5.258 92.255,5.159 C92.523,5.06 92.755,4.928 92.95,4.762 C93.146,4.596 93.3,4.395 93.412,4.16 C93.523,3.924 93.57,3.64 93.553,3.308 C93.543,3.132 93.502,2.962 93.428,2.8 L93.428,2.8 L93.428,2.8 Z" id="Fill-9" sketch:type="MSShapeGroup"></path>
                <path d="M86.592,5.43 C86.482,5.778 86.319,6.091 86.1,6.368 C85.881,6.645 85.609,6.871 85.282,7.048 C84.956,7.224 84.586,7.323 84.171,7.345 C84.077,7.35 83.982,7.348 83.886,7.339 C83.791,7.33 83.707,7.32 83.633,7.309 L84.329,3.675 C84.511,3.531 84.708,3.416 84.918,3.331 C85.129,3.245 85.343,3.197 85.561,3.186 C85.779,3.175 85.961,3.198 86.106,3.258 C86.252,3.317 86.369,3.402 86.459,3.51 C86.549,3.619 86.614,3.746 86.654,3.893 C86.694,4.039 86.719,4.19 86.727,4.345 C86.747,4.719 86.702,5.08 86.592,5.43 L86.592,5.43 L86.592,5.43 Z M87.58,3.419 C87.492,3.184 87.366,2.983 87.205,2.818 C87.043,2.654 86.841,2.528 86.6,2.441 C86.358,2.355 86.081,2.32 85.768,2.336 C85.521,2.349 85.29,2.397 85.075,2.479 C84.861,2.561 84.673,2.656 84.511,2.763 L85.077,-0.206 L84.028,0.018 L82.507,7.952 C82.605,8.004 82.719,8.048 82.848,8.083 C82.978,8.118 83.11,8.147 83.246,8.168 C83.382,8.189 83.516,8.202 83.648,8.205 C83.779,8.209 83.899,8.208 84.009,8.202 C84.67,8.168 85.241,8.03 85.72,7.789 C86.2,7.548 86.594,7.241 86.903,6.868 C87.212,6.494 87.434,6.076 87.57,5.612 C87.706,5.148 87.761,4.673 87.736,4.186 C87.721,3.911 87.669,3.655 87.58,3.419 L87.58,3.419 L87.58,3.419 Z" id="Fill-13" sketch:type="MSShapeGroup"></path>
                <path d="M74.416,21.973 C73.736,23.341 72.936,24.553 72.015,25.609 C71.095,26.665 70.255,27.234 69.496,27.316 C68.795,27.392 68.396,26.979 68.298,26.077 C68.071,23.982 68.721,21.507 70.244,18.649 C71.768,15.792 73.494,14.259 75.422,14.051 C76.502,13.934 77.24,14.325 77.632,15.225 C76.991,16.677 75.919,18.926 74.416,21.973 L74.416,21.973 L74.416,21.973 Z M51.171,31.679 C50.324,31.77 49.827,31.132 49.679,29.765 C49.531,28.398 50.013,26.565 51.125,24.267 C52.236,21.97 53.34,20.291 54.437,19.23 C55.105,18.57 55.745,18.206 56.359,18.14 C56.534,18.121 56.667,18.121 56.758,18.141 C57.208,18.21 57.473,18.608 57.551,19.336 C57.734,21.023 57.096,23.461 55.637,26.649 C54.179,29.838 52.69,31.515 51.171,31.679 L51.171,31.679 L51.171,31.679 Z M40.028,20.434 C39.297,20.512 38.745,20.807 38.372,21.319 C37.998,21.83 37.854,22.478 37.939,23.263 C38.077,24.543 38.689,25.552 39.773,26.288 C39.215,27.967 38.475,29.525 37.552,30.964 C36.628,32.403 35.539,33.19 34.282,33.326 C32.754,33.403 31.896,32.569 31.707,30.823 C31.518,29.077 31.834,27.072 32.653,24.805 C34.16,20.699 35.921,18.537 37.937,18.32 C39.222,18.18 40.007,18.876 40.29,20.405 L40.028,20.434 L40.028,20.434 Z M101.512,10.174 C100.782,10.253 100.002,10.425 99.174,10.691 C98.917,10.778 98.676,10.936 98.449,11.167 C98.223,11.397 98.044,11.586 97.912,11.732 C97.781,11.879 97.639,12.145 97.488,12.529 C97.338,12.912 97.23,13.211 97.164,13.425 C97.099,13.638 96.986,14.033 96.826,14.609 C96.667,15.185 96.545,15.625 96.459,15.929 C95.809,18.118 94.779,20.348 93.369,22.619 C91.959,24.89 90.729,26.082 89.677,26.196 C89.122,26.256 88.792,25.791 88.684,24.802 C88.484,22.94 88.858,20.59 89.807,17.75 C90.756,14.911 91.774,12.903 92.858,11.727 C93.014,11.533 93.086,11.378 93.074,11.261 C93.061,11.145 92.997,11.094 92.88,11.106 C91.332,11.274 90.132,11.594 89.282,12.068 C88.432,12.543 87.661,13.48 86.97,14.878 C86.434,15.965 85.971,17.328 85.583,18.966 C83.626,23.674 81.847,26.115 80.245,26.288 C79.719,26.345 79.416,25.995 79.334,25.238 C79.177,23.784 79.627,21.388 80.686,18.051 C81.744,14.714 82.713,12.601 83.591,11.712 L83.154,11.759 L80.958,11.952 C80.374,12.015 79.773,12.33 79.154,12.897 C78.536,13.464 78.101,14.1 77.852,14.804 C77.489,13.901 76.876,13.283 76.012,12.95 C75.149,12.616 74.25,12.5 73.314,12.601 C71.328,12.815 69.582,13.747 68.075,15.396 C66.569,17.045 65.484,18.965 64.819,21.155 C64.806,21.198 64.793,21.24 64.781,21.282 C64.678,21.504 64.566,21.747 64.446,22.012 C63.705,23.637 63.121,24.796 62.693,25.49 C61.914,26.752 60.954,27.929 59.817,29.023 C58.679,30.117 57.511,30.729 56.313,30.858 L55.963,30.896 C57.724,29.411 59.179,27.429 60.33,24.951 C61.481,22.472 61.937,20.127 61.698,17.916 C61.409,15.24 60.286,14.008 58.329,14.219 C56.255,14.443 54.054,16.505 51.727,20.406 C52.874,17.339 53.839,15.469 54.623,14.796 L53.309,14.938 C51.585,15.124 50.411,15.604 49.785,16.378 C49.475,16.794 49.045,17.944 48.495,19.828 C48.298,20.503 48.033,21.493 47.7,22.797 C46.67,25.165 45.442,26.426 44.016,26.58 C43.198,26.669 42.537,26.431 42.032,25.867 C42.48,24.259 42.628,22.757 42.477,21.361 C42.081,17.695 40.145,16.05 36.669,16.426 C34.595,16.65 32.793,17.551 31.264,19.128 C30.342,20.08 29.587,21.115 28.994,22.229 C29,22.218 29.004,22.205 29.01,22.194 C27.606,24.826 25.176,29.415 22.12,32.04 C19.064,34.666 16.06,36.138 13.11,36.457 C8.377,36.968 5.732,34.634 5.173,29.456 C4.811,26.111 5.325,22.723 6.712,19.291 C8.101,15.86 10.101,12.973 12.715,10.631 C15.328,8.289 18.125,6.957 21.105,6.635 C23.354,6.392 24.569,7.114 24.752,8.801 C24.872,9.907 24.491,10.904 23.613,11.794 C22.733,12.683 21.724,13.189 20.584,13.312 C20.176,13.357 19.805,13.338 19.471,13.257 C19.173,13.789 19.048,14.273 19.095,14.71 C19.142,15.146 19.385,15.48 19.824,15.712 C20.263,15.944 20.804,16.026 21.446,15.957 C22.819,15.808 24.097,15.258 25.28,14.306 C26.463,13.355 27.224,12.257 27.562,11.014 C27.727,10.349 27.781,9.754 27.724,9.231 C27.57,7.805 26.728,6.712 25.198,5.95 C23.667,5.188 21.559,4.952 18.871,5.243 C16.184,5.532 13.538,6.554 10.934,8.307 C8.331,10.059 6.231,12.162 4.634,14.616 C3.037,17.069 1.84,19.67 1.043,22.419 C0.247,25.169 -0.021,27.751 0.24,30.165 C0.928,36.537 4.704,39.351 11.569,38.61 C14.52,38.291 17.35,37.404 20.059,35.949 C22.769,34.494 24.953,32.698 26.614,30.562 C26.882,30.218 27.118,29.888 27.339,29.564 C27.351,29.81 27.368,30.054 27.395,30.295 C27.591,32.114 28.197,33.417 29.213,34.204 C30.229,34.992 31.467,35.307 32.928,35.15 C35.206,34.903 37.005,34.106 38.321,32.757 C39.639,31.408 40.712,29.645 41.54,27.466 C42.301,27.942 43.17,28.128 44.149,28.022 C44.992,27.931 45.851,27.495 46.729,26.713 C46.303,28.462 45.816,30.499 45.266,32.824 C43.664,39.604 42.542,43.587 41.902,44.775 L44.005,44.548 C44.59,44.485 45.064,44.36 45.428,44.174 C45.792,43.987 46.1,43.623 46.351,43.081 C46.603,42.539 46.929,41.378 47.328,39.598 L48.957,31.697 C49.461,33.084 51.116,33.627 53.92,33.324 C56.725,33.021 59.053,31.872 60.906,29.877 C62.049,28.647 63.107,27.151 64.08,25.39 C64.053,26.101 64.077,26.803 64.151,27.496 C64.44,30.173 65.563,31.405 67.52,31.194 C70.354,30.888 73.119,27.616 75.814,21.38 C75.389,23.192 75.274,25 75.469,26.804 C75.73,29.218 76.649,30.34 78.226,30.17 C80.255,29.951 82.465,27.579 84.856,23.057 C84.733,24.136 84.706,25.029 84.773,25.733 C84.889,26.941 85.214,27.833 85.749,28.408 C86.285,28.983 86.939,29.229 87.713,29.145 C88.487,29.061 89.149,28.902 89.7,28.666 C90.251,28.43 90.984,27.828 91.899,26.861 C92.814,25.894 93.866,24.478 95.053,22.614 L93.272,29.516 C92.121,33.908 90.362,36.231 87.996,36.487 C87.382,36.553 86.86,36.44 86.43,36.148 C86,35.856 85.754,35.434 85.695,34.881 C85.582,33.834 85.778,33.194 86.286,32.963 C86.108,32.688 85.831,32.453 85.456,32.258 C85.08,32.064 84.637,31.994 84.126,32.049 C83.614,32.104 83.189,32.407 82.85,32.959 C82.51,33.511 82.375,34.107 82.444,34.747 C82.576,35.968 83.191,36.807 84.29,37.263 C85.388,37.717 86.667,37.867 88.128,37.709 C89.589,37.551 90.996,37.038 92.35,36.171 C93.705,35.304 94.8,34.222 95.635,32.925 C96.47,31.628 97.143,29.922 97.653,27.807 C97.844,27.109 98.084,26.12 98.374,24.837 C98.664,23.555 98.85,22.748 98.933,22.416 C99.015,22.083 99.238,21.139 99.602,19.584 C99.967,18.029 100.429,16.294 100.991,14.379 C101.69,12.097 102.463,10.63 103.308,9.98 L101.512,10.174 L101.512,10.174 Z" id="Fill-17" sketch:type="MSShapeGroup"></path>
                <path d="M41.697,37.502 C31.748,39.204 22.201,41.595 15.459,44.356 C12.649,45.508 11.939,47.803 12.823,49.969 C24.272,44.751 29.944,43.28 38.301,41.202 C39.783,40.834 40.963,39.722 41.442,38.273 C41.529,38.012 41.614,37.753 41.697,37.502" id="Fill-21" sketch:type="MSShapeGroup"></path>
                <path d="M78.933,36.37 C79.229,35.124 78.89,35.075 77.622,34.89 C70.68,33.878 63.042,33.957 53.853,35.924 C52.304,36.256 51.031,37.339 50.788,38.904 C50.788,38.904 62.332,35.11 78.933,36.37" id="Fill-25" sketch:type="MSShapeGroup"></path>
            </g>
            <g id="Group" sketch:type="MSLayerGroup" transform="translate(0.000000, 56.000000)" fill="#A39F9A">
                <path d="M101.967,5.033 C101.945,5.168 101.928,5.302 101.917,5.433 C101.906,5.565 101.9,5.69 101.899,5.811 C101.748,5.989 101.566,6.146 101.355,6.285 C101.143,6.424 100.884,6.501 100.579,6.517 C100.376,6.528 100.208,6.499 100.077,6.431 C99.946,6.364 99.839,6.274 99.757,6.162 C99.674,6.05 99.614,5.918 99.577,5.768 C99.54,5.618 99.518,5.469 99.51,5.32 C99.491,4.946 99.536,4.585 99.645,4.236 C99.754,3.888 99.92,3.578 100.143,3.308 C100.366,3.038 100.641,2.817 100.967,2.644 C101.293,2.471 101.664,2.374 102.078,2.352 C102.144,2.349 102.218,2.349 102.302,2.351 C102.387,2.353 102.447,2.361 102.484,2.373 L101.967,5.033 L101.967,5.033 Z M102.882,6.004 C102.874,5.841 102.878,5.685 102.896,5.535 C102.913,5.386 102.937,5.229 102.964,5.065 L103.63,1.698 C103.436,1.609 103.207,1.55 102.943,1.521 C102.679,1.493 102.448,1.484 102.252,1.494 C101.59,1.528 101.018,1.668 100.535,1.913 C100.052,2.157 99.656,2.465 99.347,2.835 C99.038,3.205 98.814,3.62 98.674,4.08 C98.534,4.54 98.476,5.007 98.501,5.479 C98.516,5.769 98.565,6.032 98.646,6.268 C98.728,6.504 98.847,6.706 99.001,6.875 C99.156,7.044 99.35,7.172 99.585,7.259 C99.818,7.346 100.096,7.381 100.416,7.364 C100.809,7.343 101.136,7.255 101.398,7.1 C101.659,6.945 101.866,6.792 102.019,6.643 C102.046,6.748 102.08,6.847 102.122,6.94 C102.163,7.034 102.204,7.118 102.245,7.194 L103.132,7.02 C103.05,6.833 102.99,6.657 102.951,6.493 C102.914,6.329 102.891,6.166 102.882,6.004 L102.882,6.004 L102.882,6.004 Z" id="Fill-1" sketch:type="MSShapeGroup"></path>
                <path d="M96.118,7.6 C95.573,7.628 95.167,7.533 94.901,7.313 C94.633,7.094 94.489,6.762 94.465,6.317 C94.45,6.028 94.481,5.655 94.559,5.198 L95.48,0.427 L96.529,0.202 L96.193,1.928 L98.124,1.827 L97.96,2.664 L96.029,2.765 L95.557,5.231 C95.487,5.567 95.458,5.858 95.472,6.105 C95.484,6.338 95.558,6.502 95.694,6.597 C95.83,6.693 96.051,6.733 96.356,6.717 C96.568,6.706 96.773,6.661 96.973,6.584 C97.173,6.506 97.326,6.436 97.432,6.374 L97.553,7.206 C97.447,7.275 97.265,7.354 97.007,7.442 C96.749,7.529 96.453,7.582 96.118,7.6" id="Fill-5" sketch:type="MSShapeGroup"></path>
                <path d="M92.385,4.081 C92.251,4.25 92.06,4.39 91.81,4.498 C91.561,4.607 91.262,4.69 90.915,4.747 C90.568,4.804 90.184,4.85 89.763,4.887 C89.815,4.629 89.897,4.382 90.009,4.147 C90.121,3.911 90.259,3.702 90.424,3.52 C90.59,3.338 90.781,3.188 90.997,3.071 C91.213,2.953 91.449,2.888 91.703,2.874 C91.863,2.866 91.999,2.879 92.11,2.912 C92.221,2.945 92.309,2.99 92.374,3.046 C92.439,3.103 92.486,3.166 92.516,3.235 C92.544,3.304 92.561,3.371 92.564,3.434 C92.578,3.695 92.518,3.911 92.385,4.081 L92.385,4.081 L92.385,4.081 Z M93.428,2.8 C93.353,2.638 93.246,2.496 93.105,2.377 C92.963,2.256 92.784,2.165 92.565,2.103 C92.347,2.039 92.089,2.016 91.791,2.032 C91.274,2.059 90.818,2.187 90.422,2.417 C90.025,2.646 89.694,2.945 89.429,3.312 C89.164,3.68 88.967,4.097 88.838,4.564 C88.71,5.03 88.658,5.511 88.684,6.005 C88.698,6.273 88.755,6.524 88.855,6.76 C88.955,6.995 89.1,7.198 89.292,7.368 C89.483,7.539 89.716,7.668 89.99,7.756 C90.265,7.844 90.588,7.879 90.958,7.86 C91.394,7.837 91.772,7.773 92.092,7.667 C92.41,7.562 92.64,7.467 92.782,7.382 L92.651,6.55 C92.609,6.588 92.536,6.629 92.433,6.673 C92.33,6.717 92.211,6.762 92.079,6.808 C91.946,6.854 91.807,6.894 91.658,6.926 C91.511,6.958 91.368,6.978 91.23,6.985 C90.917,7.002 90.662,6.984 90.467,6.93 C90.27,6.876 90.115,6.798 90,6.695 C89.885,6.591 89.804,6.468 89.756,6.325 C89.709,6.182 89.681,6.03 89.672,5.868 L89.668,5.783 C89.666,5.748 89.667,5.702 89.672,5.645 C89.94,5.617 90.225,5.586 90.525,5.552 C90.826,5.519 91.123,5.47 91.415,5.405 C91.707,5.34 91.987,5.258 92.255,5.159 C92.523,5.06 92.755,4.928 92.95,4.762 C93.146,4.596 93.3,4.395 93.412,4.16 C93.523,3.924 93.57,3.64 93.553,3.308 C93.543,3.132 93.502,2.962 93.428,2.8 L93.428,2.8 L93.428,2.8 Z" id="Fill-9" sketch:type="MSShapeGroup"></path>
                <path d="M86.592,5.43 C86.482,5.778 86.319,6.091 86.1,6.368 C85.881,6.645 85.609,6.871 85.282,7.048 C84.956,7.224 84.586,7.323 84.171,7.345 C84.077,7.35 83.982,7.348 83.886,7.339 C83.791,7.33 83.707,7.32 83.633,7.309 L84.329,3.675 C84.511,3.531 84.708,3.416 84.918,3.331 C85.129,3.245 85.343,3.197 85.561,3.186 C85.779,3.175 85.961,3.198 86.106,3.258 C86.252,3.317 86.369,3.402 86.459,3.51 C86.549,3.619 86.614,3.746 86.654,3.893 C86.694,4.039 86.719,4.19 86.727,4.345 C86.747,4.719 86.702,5.08 86.592,5.43 L86.592,5.43 L86.592,5.43 Z M87.58,3.419 C87.492,3.184 87.366,2.983 87.205,2.818 C87.043,2.654 86.841,2.528 86.6,2.441 C86.358,2.355 86.081,2.32 85.768,2.336 C85.521,2.349 85.29,2.397 85.075,2.479 C84.861,2.561 84.673,2.656 84.511,2.763 L85.077,-0.206 L84.028,0.018 L82.507,7.952 C82.605,8.004 82.719,8.048 82.848,8.083 C82.978,8.118 83.11,8.147 83.246,8.168 C83.382,8.189 83.516,8.202 83.648,8.205 C83.779,8.209 83.899,8.208 84.009,8.202 C84.67,8.168 85.241,8.03 85.72,7.789 C86.2,7.548 86.594,7.241 86.903,6.868 C87.212,6.494 87.434,6.076 87.57,5.612 C87.706,5.148 87.761,4.673 87.736,4.186 C87.721,3.911 87.669,3.655 87.58,3.419 L87.58,3.419 L87.58,3.419 Z" id="Fill-13" sketch:type="MSShapeGroup"></path>
                <path d="M74.416,21.973 C73.736,23.341 72.936,24.553 72.015,25.609 C71.095,26.665 70.255,27.234 69.496,27.316 C68.795,27.392 68.396,26.979 68.298,26.077 C68.071,23.982 68.721,21.507 70.244,18.649 C71.768,15.792 73.494,14.259 75.422,14.051 C76.502,13.934 77.24,14.325 77.632,15.225 C76.991,16.677 75.919,18.926 74.416,21.973 L74.416,21.973 L74.416,21.973 Z M51.171,31.679 C50.324,31.77 49.827,31.132 49.679,29.765 C49.531,28.398 50.013,26.565 51.125,24.267 C52.236,21.97 53.34,20.291 54.437,19.23 C55.105,18.57 55.745,18.206 56.359,18.14 C56.534,18.121 56.667,18.121 56.758,18.141 C57.208,18.21 57.473,18.608 57.551,19.336 C57.734,21.023 57.096,23.461 55.637,26.649 C54.179,29.838 52.69,31.515 51.171,31.679 L51.171,31.679 L51.171,31.679 Z M40.028,20.434 C39.297,20.512 38.745,20.807 38.372,21.319 C37.998,21.83 37.854,22.478 37.939,23.263 C38.077,24.543 38.689,25.552 39.773,26.288 C39.215,27.967 38.475,29.525 37.552,30.964 C36.628,32.403 35.539,33.19 34.282,33.326 C32.754,33.403 31.896,32.569 31.707,30.823 C31.518,29.077 31.834,27.072 32.653,24.805 C34.16,20.699 35.921,18.537 37.937,18.32 C39.222,18.18 40.007,18.876 40.29,20.405 L40.028,20.434 L40.028,20.434 Z M101.512,10.174 C100.782,10.253 100.002,10.425 99.174,10.691 C98.917,10.778 98.676,10.936 98.449,11.167 C98.223,11.397 98.044,11.586 97.912,11.732 C97.781,11.879 97.639,12.145 97.488,12.529 C97.338,12.912 97.23,13.211 97.164,13.425 C97.099,13.638 96.986,14.033 96.826,14.609 C96.667,15.185 96.545,15.625 96.459,15.929 C95.809,18.118 94.779,20.348 93.369,22.619 C91.959,24.89 90.729,26.082 89.677,26.196 C89.122,26.256 88.792,25.791 88.684,24.802 C88.484,22.94 88.858,20.59 89.807,17.75 C90.756,14.911 91.774,12.903 92.858,11.727 C93.014,11.533 93.086,11.378 93.074,11.261 C93.061,11.145 92.997,11.094 92.88,11.106 C91.332,11.274 90.132,11.594 89.282,12.068 C88.432,12.543 87.661,13.48 86.97,14.878 C86.434,15.965 85.971,17.328 85.583,18.966 C83.626,23.674 81.847,26.115 80.245,26.288 C79.719,26.345 79.416,25.995 79.334,25.238 C79.177,23.784 79.627,21.388 80.686,18.051 C81.744,14.714 82.713,12.601 83.591,11.712 L83.154,11.759 L80.958,11.952 C80.374,12.015 79.773,12.33 79.154,12.897 C78.536,13.464 78.101,14.1 77.852,14.804 C77.489,13.901 76.876,13.283 76.012,12.95 C75.149,12.616 74.25,12.5 73.314,12.601 C71.328,12.815 69.582,13.747 68.075,15.396 C66.569,17.045 65.484,18.965 64.819,21.155 C64.806,21.198 64.793,21.24 64.781,21.282 C64.678,21.504 64.566,21.747 64.446,22.012 C63.705,23.637 63.121,24.796 62.693,25.49 C61.914,26.752 60.954,27.929 59.817,29.023 C58.679,30.117 57.511,30.729 56.313,30.858 L55.963,30.896 C57.724,29.411 59.179,27.429 60.33,24.951 C61.481,22.472 61.937,20.127 61.698,17.916 C61.409,15.24 60.286,14.008 58.329,14.219 C56.255,14.443 54.054,16.505 51.727,20.406 C52.874,17.339 53.839,15.469 54.623,14.796 L53.309,14.938 C51.585,15.124 50.411,15.604 49.785,16.378 C49.475,16.794 49.045,17.944 48.495,19.828 C48.298,20.503 48.033,21.493 47.7,22.797 C46.67,25.165 45.442,26.426 44.016,26.58 C43.198,26.669 42.537,26.431 42.032,25.867 C42.48,24.259 42.628,22.757 42.477,21.361 C42.081,17.695 40.145,16.05 36.669,16.426 C34.595,16.65 32.793,17.551 31.264,19.128 C30.342,20.08 29.587,21.115 28.994,22.229 C29,22.218 29.004,22.205 29.01,22.194 C27.606,24.826 25.176,29.415 22.12,32.04 C19.064,34.666 16.06,36.138 13.11,36.457 C8.377,36.968 5.732,34.634 5.173,29.456 C4.811,26.111 5.325,22.723 6.712,19.291 C8.101,15.86 10.101,12.973 12.715,10.631 C15.328,8.289 18.125,6.957 21.105,6.635 C23.354,6.392 24.569,7.114 24.752,8.801 C24.872,9.907 24.491,10.904 23.613,11.794 C22.733,12.683 21.724,13.189 20.584,13.312 C20.176,13.357 19.805,13.338 19.471,13.257 C19.173,13.789 19.048,14.273 19.095,14.71 C19.142,15.146 19.385,15.48 19.824,15.712 C20.263,15.944 20.804,16.026 21.446,15.957 C22.819,15.808 24.097,15.258 25.28,14.306 C26.463,13.355 27.224,12.257 27.562,11.014 C27.727,10.349 27.781,9.754 27.724,9.231 C27.57,7.805 26.728,6.712 25.198,5.95 C23.667,5.188 21.559,4.952 18.871,5.243 C16.184,5.532 13.538,6.554 10.934,8.307 C8.331,10.059 6.231,12.162 4.634,14.616 C3.037,17.069 1.84,19.67 1.043,22.419 C0.247,25.169 -0.021,27.751 0.24,30.165 C0.928,36.537 4.704,39.351 11.569,38.61 C14.52,38.291 17.35,37.404 20.059,35.949 C22.769,34.494 24.953,32.698 26.614,30.562 C26.882,30.218 27.118,29.888 27.339,29.564 C27.351,29.81 27.368,30.054 27.395,30.295 C27.591,32.114 28.197,33.417 29.213,34.204 C30.229,34.992 31.467,35.307 32.928,35.15 C35.206,34.903 37.005,34.106 38.321,32.757 C39.639,31.408 40.712,29.645 41.54,27.466 C42.301,27.942 43.17,28.128 44.149,28.022 C44.992,27.931 45.851,27.495 46.729,26.713 C46.303,28.462 45.816,30.499 45.266,32.824 C43.664,39.604 42.542,43.587 41.902,44.775 L44.005,44.548 C44.59,44.485 45.064,44.36 45.428,44.174 C45.792,43.987 46.1,43.623 46.351,43.081 C46.603,42.539 46.929,41.378 47.328,39.598 L48.957,31.697 C49.461,33.084 51.116,33.627 53.92,33.324 C56.725,33.021 59.053,31.872 60.906,29.877 C62.049,28.647 63.107,27.151 64.08,25.39 C64.053,26.101 64.077,26.803 64.151,27.496 C64.44,30.173 65.563,31.405 67.52,31.194 C70.354,30.888 73.119,27.616 75.814,21.38 C75.389,23.192 75.274,25 75.469,26.804 C75.73,29.218 76.649,30.34 78.226,30.17 C80.255,29.951 82.465,27.579 84.856,23.057 C84.733,24.136 84.706,25.029 84.773,25.733 C84.889,26.941 85.214,27.833 85.749,28.408 C86.285,28.983 86.939,29.229 87.713,29.145 C88.487,29.061 89.149,28.902 89.7,28.666 C90.251,28.43 90.984,27.828 91.899,26.861 C92.814,25.894 93.866,24.478 95.053,22.614 L93.272,29.516 C92.121,33.908 90.362,36.231 87.996,36.487 C87.382,36.553 86.86,36.44 86.43,36.148 C86,35.856 85.754,35.434 85.695,34.881 C85.582,33.834 85.778,33.194 86.286,32.963 C86.108,32.688 85.831,32.453 85.456,32.258 C85.08,32.064 84.637,31.994 84.126,32.049 C83.614,32.104 83.189,32.407 82.85,32.959 C82.51,33.511 82.375,34.107 82.444,34.747 C82.576,35.968 83.191,36.807 84.29,37.263 C85.388,37.717 86.667,37.867 88.128,37.709 C89.589,37.551 90.996,37.038 92.35,36.171 C93.705,35.304 94.8,34.222 95.635,32.925 C96.47,31.628 97.143,29.922 97.653,27.807 C97.844,27.109 98.084,26.12 98.374,24.837 C98.664,23.555 98.85,22.748 98.933,22.416 C99.015,22.083 99.238,21.139 99.602,19.584 C99.967,18.029 100.429,16.294 100.991,14.379 C101.69,12.097 102.463,10.63 103.308,9.98 L101.512,10.174 L101.512,10.174 Z" id="Fill-17" sketch:type="MSShapeGroup"></path>
                <path d="M41.697,37.502 C31.748,39.204 22.201,41.595 15.459,44.356 C12.649,45.508 11.939,47.803 12.823,49.969 C24.272,44.751 29.944,43.28 38.301,41.202 C39.783,40.834 40.963,39.722 41.442,38.273 C41.529,38.012 41.614,37.753 41.697,37.502" id="Fill-21" sketch:type="MSShapeGroup"></path>
                <path d="M78.933,36.37 C79.229,35.124 78.89,35.075 77.622,34.89 C70.68,33.878 63.042,33.957 53.853,35.924 C52.304,36.256 51.031,37.339 50.788,38.904 C50.788,38.904 62.332,35.11 78.933,36.37" id="Fill-25" sketch:type="MSShapeGroup"></path>
            </g>
        </g>
    </g>
</svg>