<?xml version="1.0" encoding="UTF-8" standalone="no"?>
<svg width="36px" height="48px" viewBox="0 0 36 48" version="1.1" xmlns="http://www.w3.org/2000/svg" xmlns:xlink="http://www.w3.org/1999/xlink" xmlns:sketch="http://www.bohemiancoding.com/sketch/ns">
    <!-- Generator: Sketch 3.2.1 (9971) - http://www.bohemiancoding.com/sketch -->
    <title>Imported Layers + Imported Layers 2</title>
    <desc>Created with Sketch.</desc>
    <defs></defs>
    <g id="Page-1" stroke="none" stroke-width="1" fill="none" fill-rule="evenodd" sketch:type="MSPage">
        <g id="Imported-Layers-+-Imported-Layers-2" sketch:type="MSLayerGroup">
            <path d="M5.43610636,0.0252000199 C7.85375342,0.00543439495 10.2731652,-0.0269093551 12.6908122,0.0413718949 C13.6243417,1.05121564 14.6461064,1.98199689 15.5778711,2.99723127 C15.7684593,3.21465314 15.8443417,3.50395002 15.9572828,3.76449689 C15.6008122,4.68090314 13.2378711,7.09949689 12.5143417,7.11207502 C11.5278711,7.02402814 11.2155181,5.73926252 10.2714005,5.55418439 C9.48963577,5.50926252 8.70434166,5.52363752 7.92081224,5.54340314 C7.36140048,5.55777814 5.6866946,7.25941877 5.40434166,7.83441877 C5.29140048,8.63223127 5.36904754,9.44621564 5.35316519,10.2512156 C5.29492989,10.9573875 7.13904754,12.7884031 7.71434166,12.9806688 C8.55257695,13.0327781 9.39610636,13.0112156 10.2361064,12.9932469 C10.5696358,13.0004344 10.8114005,12.7255125 11.0408122,12.5152781 C15.1119887,8.34832502 19.2131652,4.20652814 23.2843417,0.0413718949 C25.700224,-0.0269093551 28.1214005,0.00543439495 30.5372828,0.0252000199 C32.2508122,1.73582502 33.9484593,3.46621564 35.6425769,5.19660627 C35.900224,5.41582502 35.9990475,5.74645002 35.9725769,6.08066877 C35.9672828,8.25129377 35.9778711,10.4201219 35.9690475,12.5907469 C36.0131652,13.0202 35.6637534,13.3094969 35.4078711,13.5916063 C34.130224,14.8655906 32.8737534,16.1647313 31.6031652,17.4459031 C31.2643417,17.7693406 30.9696358,18.1736375 30.5337534,18.3694969 C28.9966946,18.4593406 27.4525769,18.3641063 25.9119887,18.4090281 C25.4372828,18.4000438 24.9925769,18.7935594 24.9396358,19.2751219 C24.8531652,20.2202781 24.9784593,21.1744188 24.8866946,22.119575 C24.740224,22.5652 24.3396358,23.0216063 23.8384593,22.9730906 C22.7619887,22.9784813 21.6855181,22.9802781 20.6090475,22.9730906 C19.9984593,23.0036375 19.5061064,22.3441844 19.5361064,21.7530125 C19.5325769,19.6452781 19.5343417,17.5357469 19.5343417,15.4262156 C19.4778711,14.7326219 22.0808122,12.2349656 22.9631652,11.5323875 C23.7943417,11.0598094 24.4066946,12.0085594 24.9325769,12.5134813 C25.610224,13.3472313 26.7766946,12.8926219 27.6908122,13.0094188 C28.5114005,13.1657469 30.3608122,11.1909813 30.5743417,10.677075 C30.6714005,10.0535594 30.6996358,7.85598127 30.380224,7.51457502 C29.9143417,6.96293439 29.3761064,6.47957502 28.8749299,5.96207502 C28.6278711,5.69434064 26.4414005,5.50746564 25.7037534,5.55418439 C25.3984593,5.57934064 25.1619887,5.78957502 24.9555181,5.99980939 C21.0819887,9.96012189 17.1819887,13.8952781 13.3119887,17.8591844 C13.0525769,18.1197313 12.7543417,18.4180125 12.3608122,18.39645 C10.1743417,18.4126219 7.98610636,18.4018406 5.79963577,18.4000438 C5.44316519,18.4449656 5.14492989,18.2311375 4.9066946,17.9885594 C3.45610636,16.5277 2.02492989,15.0506688 0.569047538,13.5969969 C0.311400479,13.3112938 -0.043305403,13.0202 0.00434165585,12.5871531 C0.000812244085,10.360825 -0.00448187356,8.13449689 0.00787106761,5.90996564 C-0.0309524618,5.47871564 0.336106362,5.20199689 0.591988715,4.91988752 C2.21198871,3.29191877 3.80904754,1.64238752 5.43610636,0.0252000199" id="Imported-Layers" fill="#6B6A65" sketch:type="MSShapeGroup"></path>
            <path d="M5.43610636,24.3091506 C7.85375342,24.289385 10.2731652,24.2570413 12.6908122,24.3253225 C13.6243417,25.3351663 14.6461064,26.2659475 15.5778711,27.2811819 C15.7684593,27.4986038 15.8443417,27.7879006 15.9572828,28.0484475 C15.6008122,28.9648538 13.2378711,31.3834475 12.5143417,31.3960256 C11.5278711,31.3079788 11.2155181,30.0232131 10.2714005,29.838135 C9.48963577,29.7932131 8.70434166,29.8075881 7.92081224,29.8273538 C7.36140048,29.8417288 5.6866946,31.5433694 5.40434166,32.1183694 C5.29140048,32.9161819 5.36904754,33.7301663 5.35316519,34.5351663 C5.29492989,35.2413381 7.13904754,37.0723538 7.71434166,37.2646194 C8.55257695,37.3167288 9.39610636,37.2951663 10.2361064,37.2771975 C10.5696358,37.284385 10.8114005,37.0094631 11.0408122,36.7992288 C15.1119887,32.6322756 19.2131652,28.4904788 23.2843417,24.3253225 C25.700224,24.2570413 28.1214005,24.289385 30.5372828,24.3091506 C32.2508122,26.0197756 33.9484593,27.7501663 35.6425769,29.4805569 C35.900224,29.6997756 35.9990475,30.0304006 35.9725769,30.3646194 C35.9672828,32.5352444 35.9778711,34.7040725 35.9690475,36.8746975 C36.0131652,37.3041506 35.6637534,37.5934475 35.4078711,37.8755569 C34.130224,39.1495413 32.8737534,40.4486819 31.6031652,41.7298538 C31.2643417,42.0532913 30.9696358,42.4575881 30.5337534,42.6534475 C28.9966946,42.7432913 27.4525769,42.6480569 25.9119887,42.6929788 C25.4372828,42.6839944 24.9925769,43.07751 24.9396358,43.5590725 C24.8531652,44.5042288 24.9784593,45.4583694 24.8866946,46.4035256 C24.740224,46.8491506 24.3396358,47.3055569 23.8384593,47.2570413 C22.7619887,47.2624319 21.6855181,47.2642288 20.6090475,47.2570413 C19.9984593,47.2875881 19.5061064,46.628135 19.5361064,46.0369631 C19.5325769,43.9292288 19.5343417,41.8196975 19.5343417,39.7101663 C19.4778711,39.0165725 22.0808122,36.5189163 22.9631652,35.8163381 C23.7943417,35.34376 24.4066946,36.29251 24.9325769,36.7974319 C25.610224,37.6311819 26.7766946,37.1765725 27.6908122,37.2933694 C28.5114005,37.4496975 30.3608122,35.4749319 30.5743417,34.9610256 C30.6714005,34.33751 30.6996358,32.1399319 30.380224,31.7985256 C29.9143417,31.246885 29.3761064,30.7635256 28.8749299,30.2460256 C28.6278711,29.9782913 26.4414005,29.7914163 25.7037534,29.838135 C25.3984593,29.8632913 25.1619887,30.0735256 24.9555181,30.28376 C21.0819887,34.2440725 17.1819887,38.1792288 13.3119887,42.143135 C13.0525769,42.4036819 12.7543417,42.7019631 12.3608122,42.6804006 C10.1743417,42.6965725 7.98610636,42.6857913 5.79963577,42.6839944 C5.44316519,42.7289163 5.14492989,42.5150881 4.9066946,42.27251 C3.45610636,40.8116506 2.02492989,39.3346194 0.569047538,37.8809475 C0.311400479,37.5952444 -0.043305403,37.3041506 0.00434165585,36.8711038 C0.000812244085,34.6447756 -0.00448187356,32.4184475 0.00787106761,30.1939163 C-0.0309524618,29.7626663 0.336106362,29.4859475 0.591988715,29.2038381 C2.21198871,27.5758694 3.80904754,25.9263381 5.43610636,24.3091506" id="Imported-Layers-2" fill="#A39F9A" sketch:type="MSShapeGroup"></path>
        </g>
    </g>
</svg>