<?xml version="1.0" encoding="UTF-8" standalone="no"?>
<svg width="122px" height="87px" viewBox="0 0 122 87" version="1.1" xmlns="http://www.w3.org/2000/svg" xmlns:xlink="http://www.w3.org/1999/xlink" xmlns:sketch="http://www.bohemiancoding.com/sketch/ns">
    <!-- Generator: Sketch 3.1.1 (8761) - http://www.bohemiancoding.com/sketch -->
    <title>Artboard 2</title>
    <desc>Created with Sketch.</desc>
    <defs>
        <path d="M5.9947451,12.4290323 C5.98517647,15.0112903 5.85839216,17.6145161 6.31290196,20.1677419 C8.5288366,20.1330645 10.8771373,19.1967742 12.1114902,17.2645161 C12.8155817,16.166129 12.5253333,14.6258065 11.5182353,13.8233871 C9.98406536,12.566129 7.89172549,12.4129032 5.9947451,12.4290323 L5.9947451,12.4290323 Z M6.09840523,3.83709677 C6.06411765,5.6516129 6.00750327,7.46290323 6.00750327,9.27741935 C7.29448366,8.98145161 8.6675817,8.74919355 9.76,7.94677419 C10.4577124,7.44435484 10.7702876,6.61290323 11.0980131,5.85241935 C10.7575294,5.2733871 10.4792418,4.58548387 9.85488889,4.26048387 C8.87968627,3.7766129 7.7745098,3.71935484 6.72036601,3.54112903 C6.5656732,3.61451613 6.25309804,3.76370968 6.09840523,3.83709677 L6.09840523,3.83709677 Z M0.297424837,0.660483871 C3.27406536,0.217741935 6.31290196,0.103225806 9.30867974,0.405645161 C11.1769542,0.717741935 13.1999216,1.04516129 14.6615294,2.37016129 C15.6973333,3.28951613 16.0099085,4.84032258 15.5641699,6.13548387 C15.0402876,7.99758065 13.3801307,9.17903226 11.8084837,10.108871 C13.6958954,10.8153226 15.804183,11.7096774 16.6533987,13.7056452 C17.7864837,16.5677419 16.2339739,19.9072581 13.7214118,21.4379032 C10.2870719,23.5330645 6.16139869,24.1185484 2.21035294,23.8572581 C1.60433987,17.3540323 2.12503268,10.8120968 1.91372549,4.29596774 C1.41456209,3.0733871 0.653856209,1.95564516 0.297424837,0.660483871 L0.297424837,0.660483871 Z" id="path-1"></path>
        <path id="path-3" d="M1.77258824,0.828225806 C2.96866667,0.187903226 4.29152941,-0.190322581 5.65186928,-0.196774194 C5.65186928,1.25483871 5.59844444,2.70322581 5.58887582,4.15806452 C6.4380915,4.16693548 7.2865098,4.1766129 8.13572549,4.21209677 C7.99060131,5.19274194 7.73145098,6.15080645 7.39096732,7.07983871 C6.77857516,7.08951613 6.16937255,7.09919355 5.56016993,7.10564516 C5.5952549,10.8903226 5.48760784,14.6822581 5.62954248,18.4637097 C5.64867974,19.7717742 6.29296732,20.9241935 7.06563399,21.9306452 C5.97082353,22.8790323 4.63201307,23.5604839 3.1552549,23.5 C1.4695817,21.0548387 2.15772549,18.0056452 1.95598693,15.2330645 C1.71597386,12.5459677 2.1074902,9.86209677 1.99665359,7.17258065 C1.31807843,7.18225806 0.64269281,7.15 -0.0326928105,7.14677419 C-0.0358823529,6.18225806 0.00877124183,5.22096774 0.150705882,4.26612903 C0.781437908,4.23709677 1.41296732,4.21209677 2.04688889,4.18629032 C2.00622222,3.06290323 1.88900654,1.94516129 1.77258824,0.828225806 L1.77258824,0.828225806 Z"></path>
        <path id="path-5" d="M1.71756863,0.482258065 C2.93278431,-0.0241935484 4.51718954,0.714516129 4.53871895,2.14354839 C4.91428758,4.1016129 2.18084967,5.67096774 0.75751634,4.24193548 C-0.325333333,3.06048387 0.271908497,1.04516129 1.71756863,0.482258065 L1.71756863,0.482258065 Z"></path>
        <path id="path-7" d="M1.44964706,0.25 C2.76533333,-0.457258065 4.5363268,0.666935484 4.38163399,2.17903226 C4.46376471,3.99354839 1.92568627,5.30483871 0.603620915,3.95483871 C-0.497568627,2.84112903 0.0606013072,0.829032258 1.44964706,0.25 L1.44964706,0.25 Z"></path>
        <path d="M6.16698039,2.34435484 C4.46296732,2.99677419 3.35141176,4.70322581 3.14329412,6.49193548 C2.92560784,8.25564516 2.66645752,10.2137097 3.57228758,11.833871 C4.56662745,13.8104839 7.37900654,14.5935484 9.20342484,13.3266129 C10.7623137,12.4193548 11.4034118,10.5572581 11.5325882,8.83870968 C11.6585752,7.20241935 11.8140654,5.38467742 10.8540131,3.9516129 C9.90751634,2.39193548 7.84627451,1.82258065 6.16698039,2.34435484 L6.16698039,2.34435484 Z M6.34718954,-0.15483871 C8.78081046,-0.409677419 11.4951111,0.313709677 13.0946667,2.28387097 C14.3672941,3.81854839 14.8249935,5.88064516 14.6982092,7.84516129 C14.7013987,10.0193548 13.9789673,12.1903226 12.5803529,13.8556452 C9.64517647,17.5193548 3.05797386,16.9241935 0.823699346,12.7887097 C-0.328522876,10.7104839 -0.318954248,8.1983871 0.166653595,5.92903226 C0.804562092,2.93629032 3.21585621,0.17983871 6.34718954,-0.15483871 L6.34718954,-0.15483871 Z" id="path-9"></path>
        <path id="path-11" d="M0.0741568627,1.02983871 C1.20724183,0.370967742 2.50458824,0.137903226 3.7987451,0.0870967742 C3.77960784,0.927419355 3.76047059,1.76532258 3.74532026,2.60241935 C5.13994771,1.16935484 7.16052288,0.0330645161 9.19624837,0.737096774 C11.0988105,1.43709677 11.5190327,3.70080645 11.844366,5.47016129 C12.2550196,8.8 12.078,12.1741935 12.0269673,15.5233871 C10.7742745,15.8064516 9.49606536,16.0233871 8.20509804,15.908871 C8.28722876,13.3330645 8.64366013,10.7548387 8.37254902,8.17903226 C8.25852288,7.07177419 8.29679739,5.79516129 7.52652288,4.91048387 C6.56647059,4.05725806 5.07376471,4.78629032 4.42708497,5.70564516 C3.51487582,6.8516129 3.95662745,8.39274194 3.87449673,9.73629032 C3.80831373,11.4330645 4.04194771,13.1580645 3.73894118,14.8387097 C2.60266667,15.466129 1.27661438,15.5491935 0.0143529412,15.6540323 C0.317359477,10.7798387 -0.0677777778,5.90322581 0.0741568627,1.02983871 L0.0741568627,1.02983871 Z"></path>
        <path id="path-13" d="M4.8744183,1.30322581 C6.51862745,0.482258065 8.38769935,0.310483871 10.1993595,0.374193548 C10.2591634,1.43387097 10.2591634,2.49354839 10.1706536,3.55080645 C8.73456209,3.76370968 7.19720261,3.82419355 5.95407843,4.66532258 C4.39439216,5.71532258 3.82346405,7.77822581 4.06347712,9.5766129 C4.21816993,10.8951613 5.27231373,12.0282258 6.57922876,12.2290323 C7.99618301,12.5943548 9.42270588,12.0790323 10.7766667,11.6967742 C10.8205229,12.7379032 10.959268,13.8016129 10.7447712,14.8354839 C10.3628235,15.6822581 9.26801307,15.6475806 8.49773856,15.8258065 C5.96364706,16.0903226 2.94554248,15.6790323 1.33960784,13.4508065 C-0.102862745,11.6717742 -0.131568627,9.21370968 0.206522876,7.04919355 C0.698509804,4.50241935 2.5731634,2.38225806 4.8744183,1.30322581 L4.8744183,1.30322581 Z"></path>
        <path id="path-15" d="M0.543816993,0.324193548 C1.68328105,-0.0580645161 2.8889281,-0.0927419355 4.07862745,-0.0580645161 C4.04115033,3.08387097 4.01882353,6.22580645 4.07224837,9.36451613 C4.06905882,10.7274194 4.47014379,12.0419355 5.03788235,13.2645161 C3.86413072,14.0790323 2.57954248,14.9290323 1.07726797,14.7572581 C0.436169935,12.825 0.287856209,10.7814516 0.338091503,8.75645161 C0.401882353,5.94919355 0.136352941,3.11612903 0.543816993,0.324193548 L0.543816993,0.324193548 Z"></path>
        <path id="path-17" d="M-0.102862745,0.62983871 C1.03341176,0.237903226 2.23905882,0.177419355 3.42875817,0.218548387 C3.46703268,3.61209677 3.28682353,7.01532258 3.49573856,10.4056452 C3.54278431,11.5137097 4.07623529,12.4879032 4.33777778,13.5346774 C3.30277124,14.4709677 1.97113725,15.025 0.591660131,15.1491935 C-0.446535948,12.7354839 -0.273503268,10.058871 -0.310980392,7.49274194 C-0.275895425,5.20403226 -0.431385621,2.90241935 -0.102862745,0.62983871 L-0.102862745,0.62983871 Z"></path>
        <path id="path-19" d="M0.328522876,1.0266129 C1.46479739,0.35483871 2.76533333,0.0870967742 4.06905882,0.039516129 C4.05311111,0.876612903 4.03796078,1.71693548 4.01882353,2.55403226 C4.99402614,1.68548387 6.05773856,0.803225806 7.37103268,0.542741935 C8.87011765,0.154032258 10.593268,0.920967742 11.2495163,2.35403226 C12.0102222,3.97096774 12.2534248,5.78225806 12.3227974,7.55564516 C12.398549,10.2104839 12.4017386,12.8685484 12.2885098,15.5233871 C11.0318301,15.7717742 9.76,15.9693548 8.47860131,15.9024194 C8.66120261,12.7096774 9.03756863,9.46854839 8.44431373,6.29193548 C8.29520261,5.54677419 7.95471895,4.64596774 7.10231373,4.51532258 C5.61598693,4.375 4.23969935,5.70887097 4.148,7.1766129 C4.06586928,9.69112903 4.31545098,12.2225806 4.05630065,14.7274194 C2.95830065,15.4887097 1.56287582,15.4758065 0.291045752,15.6508065 C0.543816993,10.7774194 0.244,5.9 0.328522876,1.0266129 L0.328522876,1.0266129 Z"></path>
        <path d="M5.94849673,3.15806452 C4.5251634,4.24032258 4.09856209,6.11532258 4.14959477,7.82822581 C6.43490196,7.3 8.85576471,5.31370968 8.38849673,2.7 C7.564,2.69032258 6.6047451,2.52177419 5.94849673,3.15806452 L5.94849673,3.15806452 Z M3.29081046,1.14274194 C4.74922876,-0.0282258065 6.68049673,-0.45483871 8.51448366,-0.384677419 C9.85568627,-0.248387097 11.4400915,0.25483871 11.9926797,1.62983871 C12.5675948,3.34274194 12.179268,5.31370968 11.0517647,6.71370968 C9.73926797,8.62741935 7.62460131,9.69677419 5.56335948,10.5879032 C7.6525098,11.766129 10.1339739,11.2629032 12.2199346,10.3620968 C12.0971373,11.7725806 12.2231242,14.0040323 10.436183,14.3508065 C8.24337255,14.8314516 5.82490196,15.0225806 3.73256209,14.0483871 C1.49828758,12.9596774 0.323738562,10.3967742 0.362013072,7.975 C0.188183007,5.39596774 1.27342484,2.75725806 3.29081046,1.14274194 L3.29081046,1.14274194 Z" id="path-21"></path>
        <path id="path-23" d="M0.421019608,1.69274194 C0.714457516,1.08145161 1.01746405,0.473387097 1.31728105,-0.134677419 C1.63623529,0.460483871 1.96794771,1.05 2.28929412,1.6483871 C2.10988235,1.6766129 1.75026144,1.73709677 1.57005229,1.76935484 C1.58918954,2.24354839 1.60752941,2.71774194 1.62666667,3.19516129 C1.952,3.51048387 2.27733333,3.82580645 2.60186928,4.14677419 C2.96786928,3.88306452 3.34423529,3.625 3.74452288,3.41209677 C4.23411765,3.68548387 4.71653595,3.96290323 5.19975163,4.24274194 C4.64078431,4.62822581 4.06666667,4.99112903 3.49573856,5.35967742 C3.48298039,5.15967742 3.45427451,4.75806452 3.44151634,4.55806452 C3.11698039,4.55806452 2.7948366,4.56129032 2.47588235,4.56451613 C2.38418301,4.73306452 2.2015817,5.07016129 2.10988235,5.23870968 C1.92329412,5.31209677 1.55091503,5.45241935 1.36193464,5.52580645 C1.1314902,5.43951613 0.670601307,5.26774194 0.440156863,5.18467742 C0.244,4.3766129 0.509529412,3.67903226 1.08364706,3.10645161 C1.10278431,2.66370968 1.12192157,2.22419355 1.14424837,1.78790323 C0.960849673,1.76290323 0.601228758,1.71532258 0.421019608,1.69274194 L0.421019608,1.69274194 Z"></path>
        <path d="M5.9947451,12.4290323 C5.98517647,15.0112903 5.85839216,17.6145161 6.31290196,20.1677419 C8.5288366,20.1330645 10.8771373,19.1967742 12.1114902,17.2645161 C12.8155817,16.166129 12.5253333,14.6258065 11.5182353,13.8233871 C9.98406536,12.566129 7.89172549,12.4129032 5.9947451,12.4290323 L5.9947451,12.4290323 Z M6.09840523,3.83709677 C6.06411765,5.6516129 6.00750327,7.46290323 6.00750327,9.27741935 C7.29448366,8.98145161 8.6675817,8.74919355 9.76,7.94677419 C10.4577124,7.44435484 10.7702876,6.61290323 11.0980131,5.85241935 C10.7575294,5.2733871 10.4792418,4.58548387 9.85488889,4.26048387 C8.87968627,3.7766129 7.7745098,3.71935484 6.72036601,3.54112903 C6.5656732,3.61451613 6.25309804,3.76370968 6.09840523,3.83709677 L6.09840523,3.83709677 Z M0.297424837,0.660483871 C3.27406536,0.217741935 6.31290196,0.103225806 9.30867974,0.405645161 C11.1769542,0.717741935 13.1999216,1.04516129 14.6615294,2.37016129 C15.6973333,3.28951613 16.0099085,4.84032258 15.5641699,6.13548387 C15.0402876,7.99758065 13.3801307,9.17903226 11.8084837,10.108871 C13.6958954,10.8153226 15.804183,11.7096774 16.6533987,13.7056452 C17.7864837,16.5677419 16.2339739,19.9072581 13.7214118,21.4379032 C10.2870719,23.5330645 6.16139869,24.1185484 2.21035294,23.8572581 C1.60433987,17.3540323 2.12503268,10.8120968 1.91372549,4.29596774 C1.41456209,3.0733871 0.653856209,1.95564516 0.297424837,0.660483871 L0.297424837,0.660483871 Z" id="path-25"></path>
        <path id="path-27" d="M1.77258824,0.828225806 C2.96866667,0.187903226 4.29152941,-0.190322581 5.65186928,-0.196774194 C5.65186928,1.25483871 5.59844444,2.70322581 5.58887582,4.15806452 C6.4380915,4.16693548 7.2865098,4.1766129 8.13572549,4.21209677 C7.99060131,5.19274194 7.73145098,6.15080645 7.39096732,7.07983871 C6.77857516,7.08951613 6.16937255,7.09919355 5.56016993,7.10564516 C5.5952549,10.8903226 5.48760784,14.6822581 5.62954248,18.4637097 C5.64867974,19.7717742 6.29296732,20.9241935 7.06563399,21.9306452 C5.97082353,22.8790323 4.63201307,23.5604839 3.1552549,23.5 C1.4695817,21.0548387 2.15772549,18.0056452 1.95598693,15.2330645 C1.71597386,12.5459677 2.1074902,9.86209677 1.99665359,7.17258065 C1.31807843,7.18225806 0.64269281,7.15 -0.0326928105,7.14677419 C-0.0358823529,6.18225806 0.00877124183,5.22096774 0.150705882,4.26612903 C0.781437908,4.23709677 1.41296732,4.21209677 2.04688889,4.18629032 C2.00622222,3.06290323 1.88900654,1.94516129 1.77258824,0.828225806 L1.77258824,0.828225806 Z"></path>
        <path id="path-29" d="M1.71756863,0.482258065 C2.93278431,-0.0241935484 4.51718954,0.714516129 4.53871895,2.14354839 C4.91428758,4.1016129 2.18084967,5.67096774 0.75751634,4.24193548 C-0.325333333,3.06048387 0.271908497,1.04516129 1.71756863,0.482258065 L1.71756863,0.482258065 Z"></path>
        <path id="path-31" d="M1.44964706,0.25 C2.76533333,-0.457258065 4.5363268,0.666935484 4.38163399,2.17903226 C4.46376471,3.99354839 1.92568627,5.30483871 0.603620915,3.95483871 C-0.497568627,2.84112903 0.0606013072,0.829032258 1.44964706,0.25 L1.44964706,0.25 Z"></path>
        <path d="M6.16698039,2.34435484 C4.46296732,2.99677419 3.35141176,4.70322581 3.14329412,6.49193548 C2.92560784,8.25564516 2.66645752,10.2137097 3.57228758,11.833871 C4.56662745,13.8104839 7.37900654,14.5935484 9.20342484,13.3266129 C10.7623137,12.4193548 11.4034118,10.5572581 11.5325882,8.83870968 C11.6585752,7.20241935 11.8140654,5.38467742 10.8540131,3.9516129 C9.90751634,2.39193548 7.84627451,1.82258065 6.16698039,2.34435484 L6.16698039,2.34435484 Z M6.34718954,-0.15483871 C8.78081046,-0.409677419 11.4951111,0.313709677 13.0946667,2.28387097 C14.3672941,3.81854839 14.8249935,5.88064516 14.6982092,7.84516129 C14.7013987,10.0193548 13.9789673,12.1903226 12.5803529,13.8556452 C9.64517647,17.5193548 3.05797386,16.9241935 0.823699346,12.7887097 C-0.328522876,10.7104839 -0.318954248,8.1983871 0.166653595,5.92903226 C0.804562092,2.93629032 3.21585621,0.17983871 6.34718954,-0.15483871 L6.34718954,-0.15483871 Z" id="path-33"></path>
        <path id="path-35" d="M0.0741568627,1.02983871 C1.20724183,0.370967742 2.50458824,0.137903226 3.7987451,0.0870967742 C3.77960784,0.927419355 3.76047059,1.76532258 3.74532026,2.60241935 C5.13994771,1.16935484 7.16052288,0.0330645161 9.19624837,0.737096774 C11.0988105,1.43709677 11.5190327,3.70080645 11.844366,5.47016129 C12.2550196,8.8 12.078,12.1741935 12.0269673,15.5233871 C10.7742745,15.8064516 9.49606536,16.0233871 8.20509804,15.908871 C8.28722876,13.3330645 8.64366013,10.7548387 8.37254902,8.17903226 C8.25852288,7.07177419 8.29679739,5.79516129 7.52652288,4.91048387 C6.56647059,4.05725806 5.07376471,4.78629032 4.42708497,5.70564516 C3.51487582,6.8516129 3.95662745,8.39274194 3.87449673,9.73629032 C3.80831373,11.4330645 4.04194771,13.1580645 3.73894118,14.8387097 C2.60266667,15.466129 1.27661438,15.5491935 0.0143529412,15.6540323 C0.317359477,10.7798387 -0.0677777778,5.90322581 0.0741568627,1.02983871 L0.0741568627,1.02983871 Z"></path>
        <path id="path-37" d="M4.8744183,1.30322581 C6.51862745,0.482258065 8.38769935,0.310483871 10.1993595,0.374193548 C10.2591634,1.43387097 10.2591634,2.49354839 10.1706536,3.55080645 C8.73456209,3.76370968 7.19720261,3.82419355 5.95407843,4.66532258 C4.39439216,5.71532258 3.82346405,7.77822581 4.06347712,9.5766129 C4.21816993,10.8951613 5.27231373,12.0282258 6.57922876,12.2290323 C7.99618301,12.5943548 9.42270588,12.0790323 10.7766667,11.6967742 C10.8205229,12.7379032 10.959268,13.8016129 10.7447712,14.8354839 C10.3628235,15.6822581 9.26801307,15.6475806 8.49773856,15.8258065 C5.96364706,16.0903226 2.94554248,15.6790323 1.33960784,13.4508065 C-0.102862745,11.6717742 -0.131568627,9.21370968 0.206522876,7.04919355 C0.698509804,4.50241935 2.5731634,2.38225806 4.8744183,1.30322581 L4.8744183,1.30322581 Z"></path>
        <path id="path-39" d="M0.543816993,0.324193548 C1.68328105,-0.0580645161 2.8889281,-0.0927419355 4.07862745,-0.0580645161 C4.04115033,3.08387097 4.01882353,6.22580645 4.07224837,9.36451613 C4.06905882,10.7274194 4.47014379,12.0419355 5.03788235,13.2645161 C3.86413072,14.0790323 2.57954248,14.9290323 1.07726797,14.7572581 C0.436169935,12.825 0.287856209,10.7814516 0.338091503,8.75645161 C0.401882353,5.94919355 0.136352941,3.11612903 0.543816993,0.324193548 L0.543816993,0.324193548 Z"></path>
        <path id="path-41" d="M-0.102862745,0.62983871 C1.03341176,0.237903226 2.23905882,0.177419355 3.42875817,0.218548387 C3.46703268,3.61209677 3.28682353,7.01532258 3.49573856,10.4056452 C3.54278431,11.5137097 4.07623529,12.4879032 4.33777778,13.5346774 C3.30277124,14.4709677 1.97113725,15.025 0.591660131,15.1491935 C-0.446535948,12.7354839 -0.273503268,10.058871 -0.310980392,7.49274194 C-0.275895425,5.20403226 -0.431385621,2.90241935 -0.102862745,0.62983871 L-0.102862745,0.62983871 Z"></path>
        <path id="path-43" d="M0.328522876,1.0266129 C1.46479739,0.35483871 2.76533333,0.0870967742 4.06905882,0.039516129 C4.05311111,0.876612903 4.03796078,1.71693548 4.01882353,2.55403226 C4.99402614,1.68548387 6.05773856,0.803225806 7.37103268,0.542741935 C8.87011765,0.154032258 10.593268,0.920967742 11.2495163,2.35403226 C12.0102222,3.97096774 12.2534248,5.78225806 12.3227974,7.55564516 C12.398549,10.2104839 12.4017386,12.8685484 12.2885098,15.5233871 C11.0318301,15.7717742 9.76,15.9693548 8.47860131,15.9024194 C8.66120261,12.7096774 9.03756863,9.46854839 8.44431373,6.29193548 C8.29520261,5.54677419 7.95471895,4.64596774 7.10231373,4.51532258 C5.61598693,4.375 4.23969935,5.70887097 4.148,7.1766129 C4.06586928,9.69112903 4.31545098,12.2225806 4.05630065,14.7274194 C2.95830065,15.4887097 1.56287582,15.4758065 0.291045752,15.6508065 C0.543816993,10.7774194 0.244,5.9 0.328522876,1.0266129 L0.328522876,1.0266129 Z"></path>
        <path d="M5.94849673,3.15806452 C4.5251634,4.24032258 4.09856209,6.11532258 4.14959477,7.82822581 C6.43490196,7.3 8.85576471,5.31370968 8.38849673,2.7 C7.564,2.69032258 6.6047451,2.52177419 5.94849673,3.15806452 L5.94849673,3.15806452 Z M3.29081046,1.14274194 C4.74922876,-0.0282258065 6.68049673,-0.45483871 8.51448366,-0.384677419 C9.85568627,-0.248387097 11.4400915,0.25483871 11.9926797,1.62983871 C12.5675948,3.34274194 12.179268,5.31370968 11.0517647,6.71370968 C9.73926797,8.62741935 7.62460131,9.69677419 5.56335948,10.5879032 C7.6525098,11.766129 10.1339739,11.2629032 12.2199346,10.3620968 C12.0971373,11.7725806 12.2231242,14.0040323 10.436183,14.3508065 C8.24337255,14.8314516 5.82490196,15.0225806 3.73256209,14.0483871 C1.49828758,12.9596774 0.323738562,10.3967742 0.362013072,7.975 C0.188183007,5.39596774 1.27342484,2.75725806 3.29081046,1.14274194 L3.29081046,1.14274194 Z" id="path-45"></path>
        <path id="path-47" d="M0.421019608,1.69274194 C0.714457516,1.08145161 1.01746405,0.473387097 1.31728105,-0.134677419 C1.63623529,0.460483871 1.96794771,1.05 2.28929412,1.6483871 C2.10988235,1.6766129 1.75026144,1.73709677 1.57005229,1.76935484 C1.58918954,2.24354839 1.60752941,2.71774194 1.62666667,3.19516129 C1.952,3.51048387 2.27733333,3.82580645 2.60186928,4.14677419 C2.96786928,3.88306452 3.34423529,3.625 3.74452288,3.41209677 C4.23411765,3.68548387 4.71653595,3.96290323 5.19975163,4.24274194 C4.64078431,4.62822581 4.06666667,4.99112903 3.49573856,5.35967742 C3.48298039,5.15967742 3.45427451,4.75806452 3.44151634,4.55806452 C3.11698039,4.55806452 2.7948366,4.56129032 2.47588235,4.56451613 C2.38418301,4.73306452 2.2015817,5.07016129 2.10988235,5.23870968 C1.92329412,5.31209677 1.55091503,5.45241935 1.36193464,5.52580645 C1.1314902,5.43951613 0.670601307,5.26774194 0.440156863,5.18467742 C0.244,4.3766129 0.509529412,3.67903226 1.08364706,3.10645161 C1.10278431,2.66370968 1.12192157,2.22419355 1.14424837,1.78790323 C0.960849673,1.76290323 0.601228758,1.71532258 0.421019608,1.69274194 L0.421019608,1.69274194 Z"></path>
    </defs>
    <g id="Page-1" stroke="none" stroke-width="1" fill="none" fill-rule="evenodd" sketch:type="MSPage">
        <g id="Artboard-2" sketch:type="MSArtboardGroup">
            <g id="Imported-Layers" sketch:type="MSLayerGroup" transform="translate(0.000000, 2.000000)">
                <path d="M35.4980131,12.4290323 C35.4884444,15.0112903 35.3616601,17.6145161 35.8161699,20.1677419 C38.0321046,20.1330645 40.3804052,19.1967742 41.6147582,17.2645161 C42.3188497,16.166129 42.0286013,14.6258065 41.0215033,13.8233871 C39.4873333,12.566129 37.3949935,12.4129032 35.4980131,12.4290323 L35.4980131,12.4290323 Z M35.6016732,3.83709677 C35.5673856,5.6516129 35.5107712,7.46290323 35.5107712,9.27741935 C36.7977516,8.98145161 38.1708497,8.74919355 39.263268,7.94677419 C39.9609804,7.44435484 40.2735556,6.61290323 40.601281,5.85241935 C40.2607974,5.2733871 39.9825098,4.58548387 39.3581569,4.26048387 C38.3829542,3.7766129 37.2777778,3.71935484 36.223634,3.54112903 C36.0689412,3.61451613 35.756366,3.76370968 35.6016732,3.83709677 L35.6016732,3.83709677 Z M29.8006928,0.660483871 C32.7773333,0.217741935 35.8161699,0.103225806 38.8119477,0.405645161 C40.6802222,0.717741935 42.7031895,1.04516129 44.1647974,2.37016129 C45.2006013,3.28951613 45.5131765,4.84032258 45.0674379,6.13548387 C44.5435556,7.99758065 42.8833987,9.17903226 41.3117516,10.108871 C43.1991634,10.8153226 45.307451,11.7096774 46.1566667,13.7056452 C47.2897516,16.5677419 45.7372418,19.9072581 43.2246797,21.4379032 C39.7903399,23.5330645 35.6646667,24.1185484 31.7136209,23.8572581 C31.1076078,17.3540323 31.6283007,10.8120968 31.4169935,4.29596774 C30.9178301,3.0733871 30.1571242,1.95564516 29.8006928,0.660483871 L29.8006928,0.660483871 Z" id="Fill-1" fill="#6B6A65" sketch:type="MSShapeGroup"></path>
                <g id="Group-4" transform="translate(29.503268, 0.000000)">
                    <mask id="mask-2" sketch:name="Clip 3" fill="white">
                        <use xlink:href="#path-1"></use>
                    </mask>
                    <g id="Clip-3"></g>
                    <path d="M0.297424837,0.103225806 L17.7864837,0.103225806 L17.7864837,24.1185484 L0.297424837,24.1185484 L0.297424837,0.103225806 Z" id="Fill-2" fill="#6B6A65" sketch:type="MSShapeGroup" mask="url(#mask-2)"></path>
                </g>
                <path d="M55.9948105,1.63467742 C57.1908889,0.994354839 58.5137516,0.616129032 59.8740915,0.609677419 C59.8740915,2.06129032 59.8206667,3.50967742 59.811098,4.96451613 C60.6603137,4.9733871 61.508732,4.98306452 62.3579477,5.01854839 C62.2128235,5.99919355 61.9536732,6.95725806 61.6131895,7.88629032 C61.0007974,7.89596774 60.3915948,7.90564516 59.7823922,7.91209677 C59.8174771,11.6967742 59.7098301,15.4887097 59.8517647,19.2701613 C59.870902,20.5782258 60.5151895,21.7306452 61.2878562,22.7370968 C60.1930458,23.6854839 58.8542353,24.3669355 57.3774771,24.3064516 C55.6918039,21.8612903 56.3799477,18.8120968 56.1782092,16.0395161 C55.9381961,13.3524194 56.3297124,10.6685484 56.2188758,7.97903226 C55.5403007,7.98870968 54.864915,7.95645161 54.1895294,7.95322581 C54.1863399,6.98870968 54.2309935,6.02741935 54.3729281,5.07258065 C55.0036601,5.04354839 55.6351895,5.01854839 56.2691111,4.99274194 C56.2284444,3.86935484 56.1112288,2.7516129 55.9948105,1.63467742" id="Fill-5" fill="#6B6A65" sketch:type="MSShapeGroup"></path>
                <g id="Group-8" transform="translate(54.222222, 0.806452)">
                    <mask id="mask-4" sketch:name="Clip 7" fill="white">
                        <use xlink:href="#path-3"></use>
                    </mask>
                    <g id="Clip-7"></g>
                    <path d="M-0.0358823529,-0.196774194 L8.13572549,-0.196774194 L8.13572549,23.5604839 L-0.0358823529,23.5604839 L-0.0358823529,-0.196774194 Z" id="Fill-6" fill="#6B6A65" sketch:type="MSShapeGroup" mask="url(#mask-4)"></path>
                </g>
                <path d="M50.3580915,2.9016129 C51.5733072,2.39516129 53.1577124,3.13387097 53.1792418,4.56290323 C53.5548105,6.52096774 50.8213725,8.09032258 49.3980392,6.66129032 C48.3151895,5.47983871 48.9124314,3.46451613 50.3580915,2.9016129" id="Fill-9" fill="#6B6A65" sketch:type="MSShapeGroup"></path>
                <g id="Group-12" transform="translate(48.640523, 2.419355)">
                    <mask id="mask-6" sketch:name="Clip 11" fill="white">
                        <use xlink:href="#path-5"></use>
                    </mask>
                    <g id="Clip-11"></g>
                    <path d="M-0.325333333,-0.0241935484 L4.91428758,-0.0241935484 L4.91428758,5.67096774 L-0.325333333,5.67096774 L-0.325333333,-0.0241935484 Z" id="Fill-10" fill="#6B6A65" sketch:type="MSShapeGroup" mask="url(#mask-6)"></path>
                </g>
                <path d="M91.5542222,2.66935484 C92.8699085,1.96209677 94.640902,3.08629032 94.4862092,4.5983871 C94.5683399,6.41290323 92.0302614,7.72419355 90.7081961,6.37419355 C89.6070065,5.26048387 90.1651765,3.2483871 91.5542222,2.66935484" id="Fill-13" fill="#6B6A65" sketch:type="MSShapeGroup"></path>
                <g id="Group-16" transform="translate(90.104575, 2.419355)">
                    <mask id="mask-8" sketch:name="Clip 15" fill="white">
                        <use xlink:href="#path-7"></use>
                    </mask>
                    <g id="Clip-15"></g>
                    <path d="M-0.497568627,-0.457258065 L4.53712418,-0.457258065 L4.53712418,5.30483871 L-0.497568627,5.30483871 L-0.497568627,-0.457258065 Z" id="Fill-14" fill="#6B6A65" sketch:type="MSShapeGroup" mask="url(#mask-8)"></path>
                </g>
                <path d="M112.202523,10.1725806 C113.777359,8.25564516 116.207791,7.06854839 118.666928,6.93467742 C120.055176,6.74677419 120.336654,8.59032258 120.563908,9.61532258 C118.849529,9.96854839 116.943778,10.3822581 115.876876,11.9266129 C116.886366,14.058871 119.619804,14.383871 120.759268,16.4145161 C121.661908,17.7040323 121.315046,19.4895161 120.311137,20.6137097 C118.341595,22.7532258 115.431935,23.8193548 112.578092,23.933871 C111.905895,23.0104839 111.530327,21.9217742 111.425869,20.7854839 C113.080444,20.6935484 114.920013,20.4830645 116.135229,19.2129032 C116.615255,18.7548387 116.873608,17.9298387 116.454183,17.3540323 C115.30515,15.8798387 113.329229,15.4346774 112.149098,13.9919355 C111.132431,12.9766129 111.31902,11.2129032 112.202523,10.1725806" id="Fill-17" fill="#6B6A65" sketch:type="MSShapeGroup"></path>
                <path d="M80.3238431,9.60241935 C78.6198301,10.2548387 77.5082745,11.9612903 77.3001569,13.75 C77.0824706,15.5137097 76.8233203,17.4717742 77.7291503,19.0919355 C78.7234902,21.0685484 81.5358693,21.8516129 83.3602876,20.5846774 C84.9191765,19.6774194 85.5602745,17.8153226 85.689451,16.0967742 C85.8154379,14.4604839 85.9709281,12.6427419 85.0108758,11.2096774 C84.0643791,9.65 82.0031373,9.08064516 80.3238431,9.60241935 L80.3238431,9.60241935 Z M80.5040523,7.10322581 C82.9376732,6.8483871 85.6519739,7.57177419 87.2515294,9.54193548 C88.5241569,11.0766129 88.9818562,13.1387097 88.8550719,15.1032258 C88.8582614,17.2774194 88.1358301,19.4483871 86.7372157,21.1137097 C83.8020392,24.7774194 77.2148366,24.1822581 74.9805621,20.0467742 C73.8283399,17.9685484 73.8379085,15.4564516 74.3235163,13.1870968 C74.9614248,10.1943548 77.372719,7.43790323 80.5040523,7.10322581 L80.5040523,7.10322581 Z" id="Fill-18" fill="#6B6A65" sketch:type="MSShapeGroup"></path>
                <g id="Group-21" transform="translate(74.156863, 7.258065)">
                    <mask id="mask-10" sketch:name="Clip 20" fill="white">
                        <use xlink:href="#path-9"></use>
                    </mask>
                    <g id="Clip-20"></g>
                    <path d="M-0.328522876,-0.409677419 L14.8249935,-0.409677419 L14.8249935,17.5193548 L-0.328522876,17.5193548 L-0.328522876,-0.409677419 Z" id="Fill-19" fill="#6B6A65" sketch:type="MSShapeGroup" mask="url(#mask-10)"></path>
                </g>
                <path d="M97.3552026,8.28790323 C98.4882876,7.62903226 99.785634,7.39596774 101.079791,7.34516129 C101.060654,8.18548387 101.041516,9.0233871 101.026366,9.86048387 C102.420993,8.42741935 104.441569,7.29112903 106.477294,7.99516129 C108.379856,8.69516129 108.800078,10.958871 109.125412,12.7282258 C109.536065,16.0580645 109.359046,19.4322581 109.308013,22.7814516 C108.05532,23.0645161 106.777111,23.2814516 105.486144,23.1669355 C105.568275,20.591129 105.924706,18.0129032 105.653595,15.4370968 C105.539569,14.3298387 105.577843,13.0532258 104.807569,12.1685484 C103.847516,11.3153226 102.35481,12.0443548 101.708131,12.9637097 C100.795922,14.1096774 101.237673,15.6508065 101.155542,16.9943548 C101.089359,18.691129 101.322993,20.416129 101.019987,22.0967742 C99.8837124,22.7241935 98.5576601,22.8072581 97.2953987,22.9120968 C97.5984052,18.0379032 97.213268,13.1612903 97.3552026,8.28790323" id="Fill-22" fill="#6B6A65" sketch:type="MSShapeGroup"></path>
                <g id="Group-25" transform="translate(97.281046, 7.258065)">
                    <mask id="mask-12" sketch:name="Clip 24" fill="white">
                        <use xlink:href="#path-11"></use>
                    </mask>
                    <g id="Clip-24"></g>
                    <path d="M-0.0677777778,0.0330645161 L12.2550196,0.0330645161 L12.2550196,16.0233871 L-0.0677777778,16.0233871 L-0.0677777778,0.0330645161 Z" id="Fill-23" fill="#6B6A65" sketch:type="MSShapeGroup" mask="url(#mask-12)"></path>
                </g>
                <path d="M67.0704967,8.56129032 C68.7147059,7.74032258 70.5837778,7.56854839 72.3954379,7.63225806 C72.4552418,8.69193548 72.4552418,9.7516129 72.366732,10.808871 C70.9306405,11.0217742 69.393281,11.0822581 68.1501569,11.9233871 C66.5904706,12.9733871 66.0195425,15.0362903 66.2595556,16.8346774 C66.4142484,18.1532258 67.4683922,19.2862903 68.7753072,19.4870968 C70.1922614,19.8524194 71.6187843,19.3370968 72.9727451,18.9548387 C73.0166013,19.9959677 73.1553464,21.0596774 72.9408497,22.0935484 C72.558902,22.9403226 71.4640915,22.9056452 70.693817,23.083871 C68.1597255,23.3483871 65.1416209,22.9370968 63.5356863,20.708871 C62.0932157,18.9298387 62.0645098,16.4717742 62.4026013,14.3072581 C62.8945882,11.7604839 64.7692418,9.64032258 67.0704967,8.56129032" id="Fill-26" fill="#6B6A65" sketch:type="MSShapeGroup"></path>
                <g id="Group-29" transform="translate(62.196078, 7.258065)">
                    <mask id="mask-14" sketch:name="Clip 28" fill="white">
                        <use xlink:href="#path-13"></use>
                    </mask>
                    <g id="Clip-28"></g>
                    <path d="M-0.131568627,0.310483871 L10.959268,0.310483871 L10.959268,16.0903226 L-0.131568627,16.0903226 L-0.131568627,0.310483871 Z" id="Fill-27" fill="#6B6A65" sketch:type="MSShapeGroup" mask="url(#mask-14)"></path>
                </g>
                <path d="M90.6483922,9.19516129 C91.7878562,8.81290323 92.9935033,8.77822581 94.1832026,8.81290323 C94.1457255,11.9548387 94.1233987,15.0967742 94.1768235,18.2354839 C94.173634,19.5983871 94.574719,20.9129032 95.1424575,22.1354839 C93.9687059,22.95 92.6841176,23.8 91.1818431,23.6282258 C90.5407451,21.6959677 90.3924314,19.6524194 90.4426667,17.6274194 C90.5064575,14.8201613 90.2409281,11.9870968 90.6483922,9.19516129" id="Fill-30" fill="#6B6A65" sketch:type="MSShapeGroup"></path>
                <g id="Group-33" transform="translate(90.104575, 8.870968)">
                    <mask id="mask-16" sketch:name="Clip 32" fill="white">
                        <use xlink:href="#path-15"></use>
                    </mask>
                    <g id="Clip-32"></g>
                    <path d="M0.136352941,-0.0927419355 L5.03788235,-0.0927419355 L5.03788235,14.9298387 L0.136352941,14.9298387 L0.136352941,-0.0927419355 Z" id="Fill-31" fill="#6B6A65" sketch:type="MSShapeGroup" mask="url(#mask-16)"></path>
                </g>
                <path d="M49.3350458,9.50080645 C50.4713203,9.10887097 51.6769673,9.0483871 52.8666667,9.08951613 C52.9049412,12.4830645 52.724732,15.8862903 52.9336471,19.2766129 C52.9806928,20.3846774 53.5141438,21.358871 53.7756863,22.4056452 C52.7406797,23.3419355 51.4090458,23.8959677 50.0295686,24.0201613 C48.9913725,21.6064516 49.1644052,18.9298387 49.1269281,16.3637097 C49.1620131,14.075 49.0065229,11.7733871 49.3350458,9.50080645" id="Fill-34" fill="#6B6A65" sketch:type="MSShapeGroup"></path>
                <g id="Group-37" transform="translate(49.437908, 8.870968)">
                    <mask id="mask-18" sketch:name="Clip 36" fill="white">
                        <use xlink:href="#path-17"></use>
                    </mask>
                    <g id="Clip-36"></g>
                    <path d="M-0.446535948,0.177419355 L4.33857516,0.177419355 L4.33857516,15.1483871 L-0.446535948,15.1483871 L-0.446535948,0.177419355 Z" id="Fill-35" fill="#6B6A65" sketch:type="MSShapeGroup" mask="url(#mask-18)"></path>
                </g>
                <path d="M14.6814641,8.28467742 C15.8177386,7.61290323 17.1182745,7.34516129 18.422,7.29758065 C18.4060523,8.13467742 18.390902,8.975 18.3717647,9.81209677 C19.3469673,8.94354839 20.4106797,8.06129032 21.7239739,7.80080645 C23.2230588,7.41209677 24.9462092,8.17903226 25.6024575,9.61209677 C26.3631634,11.2290323 26.606366,13.0403226 26.6757386,14.8137097 C26.7514902,17.4685484 26.7546797,20.1266129 26.641451,22.7814516 C25.3847712,23.0298387 24.1129412,23.2274194 22.8315425,23.1604839 C23.0141438,19.9677419 23.3905098,16.7266129 22.7972549,13.55 C22.6481438,12.8048387 22.3076601,11.9040323 21.4552549,11.7733871 C19.9689281,11.6330645 18.5926405,12.9669355 18.5009412,14.4346774 C18.4188105,16.9491935 18.6683922,19.4806452 18.4092418,21.9854839 C17.3112418,22.7467742 15.915817,22.733871 14.6439869,22.908871 C14.8967582,18.0354839 14.5969412,13.1580645 14.6814641,8.28467742" id="Fill-38" fill="#6B6A65" sketch:type="MSShapeGroup"></path>
                <g id="Group-41" transform="translate(14.352941, 7.258065)">
                    <mask id="mask-20" sketch:name="Clip 40" fill="white">
                        <use xlink:href="#path-19"></use>
                    </mask>
                    <g id="Clip-40"></g>
                    <path d="M0.244,0.039516129 L12.4017386,0.039516129 L12.4017386,15.9693548 L0.244,15.9693548 L0.244,0.039516129 Z" id="Fill-39" fill="#6B6A65" sketch:type="MSShapeGroup" mask="url(#mask-20)"></path>
                </g>
                <path d="M5.94849673,11.2225806 C4.5251634,12.3048387 4.09856209,14.1798387 4.14959477,15.8927419 C6.43490196,15.3645161 8.85576471,13.3782258 8.38849673,10.7645161 C7.564,10.7548387 6.6047451,10.5862903 5.94849673,11.2225806 L5.94849673,11.2225806 Z M3.29081046,9.20725806 C4.74922876,8.03629032 6.68049673,7.60967742 8.51448366,7.67983871 C9.85568627,7.81612903 11.4400915,8.31935484 11.9926797,9.69435484 C12.5675948,11.4072581 12.179268,13.3782258 11.0517647,14.7782258 C9.73926797,16.6919355 7.62460131,17.7612903 5.56335948,18.6524194 C7.6525098,19.8306452 10.1339739,19.3274194 12.2199346,18.4266129 C12.0971373,19.8370968 12.2231242,22.0685484 10.436183,22.4153226 C8.24337255,22.8959677 5.82490196,23.0870968 3.73256209,22.1129032 C1.49828758,21.0241935 0.323738562,18.4612903 0.362013072,16.0395161 C0.188183007,13.4604839 1.27342484,10.8217742 3.29081046,9.20725806 L3.29081046,9.20725806 Z" id="Fill-42" fill="#6B6A65" sketch:type="MSShapeGroup"></path>
                <g id="Group-45" transform="translate(0.000000, 8.064516)">
                    <mask id="mask-22" sketch:name="Clip 44" fill="white">
                        <use xlink:href="#path-21"></use>
                    </mask>
                    <g id="Clip-44"></g>
                    <path d="M0.188183007,-0.45483871 L12.5675948,-0.45483871 L12.5675948,15.0225806 L0.188183007,15.0225806 L0.188183007,-0.45483871 Z" id="Fill-43" fill="#6B6A65" sketch:type="MSShapeGroup" mask="url(#mask-22)"></path>
                </g>
                <path d="M80.1595817,12.9830645 C80.4530196,12.3717742 80.7560261,11.7637097 81.0558431,11.1556452 C81.3747974,11.7508065 81.7065098,12.3403226 82.0278562,12.9387097 C81.8484444,12.9669355 81.4888235,13.0274194 81.3086144,13.0596774 C81.3277516,13.533871 81.3460915,14.0080645 81.3652288,14.4854839 C81.6905621,14.8008065 82.0158954,15.116129 82.3404314,15.4370968 C82.7064314,15.1733871 83.0827974,14.9153226 83.483085,14.7024194 C83.9726797,14.9758065 84.455098,15.2532258 84.9383137,15.5330645 C84.3793464,15.9185484 83.8052288,16.2814516 83.2343007,16.65 C83.2215425,16.45 83.1928366,16.0483871 83.1800784,15.8483871 C82.8555425,15.8483871 82.5333987,15.8516129 82.2144444,15.8548387 C82.1227451,16.0233871 81.9401438,16.3604839 81.8484444,16.5290323 C81.6618562,16.6024194 81.2894771,16.7427419 81.1004967,16.816129 C80.8700523,16.7298387 80.4091634,16.5580645 80.178719,16.475 C79.9825621,15.6669355 80.2480915,14.9693548 80.8222092,14.3967742 C80.8413464,13.9540323 80.8604837,13.5145161 80.8828105,13.0782258 C80.6994118,13.0532258 80.3397908,13.0056452 80.1595817,12.9830645" id="Fill-46" fill="#6B6A65" sketch:type="MSShapeGroup"></path>
                <g id="Group-49" transform="translate(79.738562, 11.290323)">
                    <mask id="mask-24" sketch:name="Clip 48" fill="white">
                        <use xlink:href="#path-23"></use>
                    </mask>
                    <g id="Clip-48"></g>
                    <path d="M0.244,-0.134677419 L5.19975163,-0.134677419 L5.19975163,5.52580645 L0.244,5.52580645 L0.244,-0.134677419 Z" id="Fill-47" fill="#6B6A65" sketch:type="MSShapeGroup" mask="url(#mask-24)"></path>
                </g>
            </g>
            <g id="Imported-Layers" sketch:type="MSLayerGroup" transform="translate(0.000000, 62.000000)">
                <path d="M35.4980131,12.4290323 C35.4884444,15.0112903 35.3616601,17.6145161 35.8161699,20.1677419 C38.0321046,20.1330645 40.3804052,19.1967742 41.6147582,17.2645161 C42.3188497,16.166129 42.0286013,14.6258065 41.0215033,13.8233871 C39.4873333,12.566129 37.3949935,12.4129032 35.4980131,12.4290323 L35.4980131,12.4290323 Z M35.6016732,3.83709677 C35.5673856,5.6516129 35.5107712,7.46290323 35.5107712,9.27741935 C36.7977516,8.98145161 38.1708497,8.74919355 39.263268,7.94677419 C39.9609804,7.44435484 40.2735556,6.61290323 40.601281,5.85241935 C40.2607974,5.2733871 39.9825098,4.58548387 39.3581569,4.26048387 C38.3829542,3.7766129 37.2777778,3.71935484 36.223634,3.54112903 C36.0689412,3.61451613 35.756366,3.76370968 35.6016732,3.83709677 L35.6016732,3.83709677 Z M29.8006928,0.660483871 C32.7773333,0.217741935 35.8161699,0.103225806 38.8119477,0.405645161 C40.6802222,0.717741935 42.7031895,1.04516129 44.1647974,2.37016129 C45.2006013,3.28951613 45.5131765,4.84032258 45.0674379,6.13548387 C44.5435556,7.99758065 42.8833987,9.17903226 41.3117516,10.108871 C43.1991634,10.8153226 45.307451,11.7096774 46.1566667,13.7056452 C47.2897516,16.5677419 45.7372418,19.9072581 43.2246797,21.4379032 C39.7903399,23.5330645 35.6646667,24.1185484 31.7136209,23.8572581 C31.1076078,17.3540323 31.6283007,10.8120968 31.4169935,4.29596774 C30.9178301,3.0733871 30.1571242,1.95564516 29.8006928,0.660483871 L29.8006928,0.660483871 Z" id="Fill-1" fill="#6B6A65" sketch:type="MSShapeGroup"></path>
                <g id="Group-4" transform="translate(29.503268, 0.000000)">
                    <mask id="mask-26" sketch:name="Clip 3" fill="white">
                        <use xlink:href="#path-25"></use>
                    </mask>
                    <g id="Clip-3"></g>
                    <path d="M0.297424837,0.103225806 L17.7864837,0.103225806 L17.7864837,24.1185484 L0.297424837,24.1185484 L0.297424837,0.103225806 Z" id="Fill-2" fill="#A39F9A" sketch:type="MSShapeGroup" mask="url(#mask-26)"></path>
                </g>
                <path d="M55.9948105,1.63467742 C57.1908889,0.994354839 58.5137516,0.616129032 59.8740915,0.609677419 C59.8740915,2.06129032 59.8206667,3.50967742 59.811098,4.96451613 C60.6603137,4.9733871 61.508732,4.98306452 62.3579477,5.01854839 C62.2128235,5.99919355 61.9536732,6.95725806 61.6131895,7.88629032 C61.0007974,7.89596774 60.3915948,7.90564516 59.7823922,7.91209677 C59.8174771,11.6967742 59.7098301,15.4887097 59.8517647,19.2701613 C59.870902,20.5782258 60.5151895,21.7306452 61.2878562,22.7370968 C60.1930458,23.6854839 58.8542353,24.3669355 57.3774771,24.3064516 C55.6918039,21.8612903 56.3799477,18.8120968 56.1782092,16.0395161 C55.9381961,13.3524194 56.3297124,10.6685484 56.2188758,7.97903226 C55.5403007,7.98870968 54.864915,7.95645161 54.1895294,7.95322581 C54.1863399,6.98870968 54.2309935,6.02741935 54.3729281,5.07258065 C55.0036601,5.04354839 55.6351895,5.01854839 56.2691111,4.99274194 C56.2284444,3.86935484 56.1112288,2.7516129 55.9948105,1.63467742" id="Fill-5" fill="#6B6A65" sketch:type="MSShapeGroup"></path>
                <g id="Group-8" transform="translate(54.222222, 0.806452)">
                    <mask id="mask-28" sketch:name="Clip 7" fill="white">
                        <use xlink:href="#path-27"></use>
                    </mask>
                    <g id="Clip-7"></g>
                    <path d="M-0.0358823529,-0.196774194 L8.13572549,-0.196774194 L8.13572549,23.5604839 L-0.0358823529,23.5604839 L-0.0358823529,-0.196774194 Z" id="Fill-6" fill="#A39F9A" sketch:type="MSShapeGroup" mask="url(#mask-28)"></path>
                </g>
                <path d="M50.3580915,2.9016129 C51.5733072,2.39516129 53.1577124,3.13387097 53.1792418,4.56290323 C53.5548105,6.52096774 50.8213725,8.09032258 49.3980392,6.66129032 C48.3151895,5.47983871 48.9124314,3.46451613 50.3580915,2.9016129" id="Fill-9" fill="#6B6A65" sketch:type="MSShapeGroup"></path>
                <g id="Group-12" transform="translate(48.640523, 2.419355)">
                    <mask id="mask-30" sketch:name="Clip 11" fill="white">
                        <use xlink:href="#path-29"></use>
                    </mask>
                    <g id="Clip-11"></g>
                    <path d="M-0.325333333,-0.0241935484 L4.91428758,-0.0241935484 L4.91428758,5.67096774 L-0.325333333,5.67096774 L-0.325333333,-0.0241935484 Z" id="Fill-10" fill="#A39F9A" sketch:type="MSShapeGroup" mask="url(#mask-30)"></path>
                </g>
                <path d="M91.5542222,2.66935484 C92.8699085,1.96209677 94.640902,3.08629032 94.4862092,4.5983871 C94.5683399,6.41290323 92.0302614,7.72419355 90.7081961,6.37419355 C89.6070065,5.26048387 90.1651765,3.2483871 91.5542222,2.66935484" id="Fill-13" fill="#6B6A65" sketch:type="MSShapeGroup"></path>
                <g id="Group-16" transform="translate(90.104575, 2.419355)">
                    <mask id="mask-32" sketch:name="Clip 15" fill="white">
                        <use xlink:href="#path-31"></use>
                    </mask>
                    <g id="Clip-15"></g>
                    <path d="M-0.497568627,-0.457258065 L4.53712418,-0.457258065 L4.53712418,5.30483871 L-0.497568627,5.30483871 L-0.497568627,-0.457258065 Z" id="Fill-14" fill="#A39F9A" sketch:type="MSShapeGroup" mask="url(#mask-32)"></path>
                </g>
                <path d="M112.202523,10.1725806 C113.777359,8.25564516 116.207791,7.06854839 118.666928,6.93467742 C120.055176,6.74677419 120.336654,8.59032258 120.563908,9.61532258 C118.849529,9.96854839 116.943778,10.3822581 115.876876,11.9266129 C116.886366,14.058871 119.619804,14.383871 120.759268,16.4145161 C121.661908,17.7040323 121.315046,19.4895161 120.311137,20.6137097 C118.341595,22.7532258 115.431935,23.8193548 112.578092,23.933871 C111.905895,23.0104839 111.530327,21.9217742 111.425869,20.7854839 C113.080444,20.6935484 114.920013,20.4830645 116.135229,19.2129032 C116.615255,18.7548387 116.873608,17.9298387 116.454183,17.3540323 C115.30515,15.8798387 113.329229,15.4346774 112.149098,13.9919355 C111.132431,12.9766129 111.31902,11.2129032 112.202523,10.1725806" id="Fill-17" fill="#A39F9A" sketch:type="MSShapeGroup"></path>
                <path d="M80.3238431,9.60241935 C78.6198301,10.2548387 77.5082745,11.9612903 77.3001569,13.75 C77.0824706,15.5137097 76.8233203,17.4717742 77.7291503,19.0919355 C78.7234902,21.0685484 81.5358693,21.8516129 83.3602876,20.5846774 C84.9191765,19.6774194 85.5602745,17.8153226 85.689451,16.0967742 C85.8154379,14.4604839 85.9709281,12.6427419 85.0108758,11.2096774 C84.0643791,9.65 82.0031373,9.08064516 80.3238431,9.60241935 L80.3238431,9.60241935 Z M80.5040523,7.10322581 C82.9376732,6.8483871 85.6519739,7.57177419 87.2515294,9.54193548 C88.5241569,11.0766129 88.9818562,13.1387097 88.8550719,15.1032258 C88.8582614,17.2774194 88.1358301,19.4483871 86.7372157,21.1137097 C83.8020392,24.7774194 77.2148366,24.1822581 74.9805621,20.0467742 C73.8283399,17.9685484 73.8379085,15.4564516 74.3235163,13.1870968 C74.9614248,10.1943548 77.372719,7.43790323 80.5040523,7.10322581 L80.5040523,7.10322581 Z" id="Fill-18" fill="#6B6A65" sketch:type="MSShapeGroup"></path>
                <g id="Group-21" transform="translate(74.156863, 7.258065)">
                    <mask id="mask-34" sketch:name="Clip 20" fill="white">
                        <use xlink:href="#path-33"></use>
                    </mask>
                    <g id="Clip-20"></g>
                    <path d="M-0.328522876,-0.409677419 L14.8249935,-0.409677419 L14.8249935,17.5193548 L-0.328522876,17.5193548 L-0.328522876,-0.409677419 Z" id="Fill-19" fill="#A39F9A" sketch:type="MSShapeGroup" mask="url(#mask-34)"></path>
                </g>
                <path d="M97.3552026,8.28790323 C98.4882876,7.62903226 99.785634,7.39596774 101.079791,7.34516129 C101.060654,8.18548387 101.041516,9.0233871 101.026366,9.86048387 C102.420993,8.42741935 104.441569,7.29112903 106.477294,7.99516129 C108.379856,8.69516129 108.800078,10.958871 109.125412,12.7282258 C109.536065,16.0580645 109.359046,19.4322581 109.308013,22.7814516 C108.05532,23.0645161 106.777111,23.2814516 105.486144,23.1669355 C105.568275,20.591129 105.924706,18.0129032 105.653595,15.4370968 C105.539569,14.3298387 105.577843,13.0532258 104.807569,12.1685484 C103.847516,11.3153226 102.35481,12.0443548 101.708131,12.9637097 C100.795922,14.1096774 101.237673,15.6508065 101.155542,16.9943548 C101.089359,18.691129 101.322993,20.416129 101.019987,22.0967742 C99.8837124,22.7241935 98.5576601,22.8072581 97.2953987,22.9120968 C97.5984052,18.0379032 97.213268,13.1612903 97.3552026,8.28790323" id="Fill-22" fill="#6B6A65" sketch:type="MSShapeGroup"></path>
                <g id="Group-25" transform="translate(97.281046, 7.258065)">
                    <mask id="mask-36" sketch:name="Clip 24" fill="white">
                        <use xlink:href="#path-35"></use>
                    </mask>
                    <g id="Clip-24"></g>
                    <path d="M-0.0677777778,0.0330645161 L12.2550196,0.0330645161 L12.2550196,16.0233871 L-0.0677777778,16.0233871 L-0.0677777778,0.0330645161 Z" id="Fill-23" fill="#A39F9A" sketch:type="MSShapeGroup" mask="url(#mask-36)"></path>
                </g>
                <path d="M67.0704967,8.56129032 C68.7147059,7.74032258 70.5837778,7.56854839 72.3954379,7.63225806 C72.4552418,8.69193548 72.4552418,9.7516129 72.366732,10.808871 C70.9306405,11.0217742 69.393281,11.0822581 68.1501569,11.9233871 C66.5904706,12.9733871 66.0195425,15.0362903 66.2595556,16.8346774 C66.4142484,18.1532258 67.4683922,19.2862903 68.7753072,19.4870968 C70.1922614,19.8524194 71.6187843,19.3370968 72.9727451,18.9548387 C73.0166013,19.9959677 73.1553464,21.0596774 72.9408497,22.0935484 C72.558902,22.9403226 71.4640915,22.9056452 70.693817,23.083871 C68.1597255,23.3483871 65.1416209,22.9370968 63.5356863,20.708871 C62.0932157,18.9298387 62.0645098,16.4717742 62.4026013,14.3072581 C62.8945882,11.7604839 64.7692418,9.64032258 67.0704967,8.56129032" id="Fill-26" fill="#6B6A65" sketch:type="MSShapeGroup"></path>
                <g id="Group-29" transform="translate(62.196078, 7.258065)">
                    <mask id="mask-38" sketch:name="Clip 28" fill="white">
                        <use xlink:href="#path-37"></use>
                    </mask>
                    <g id="Clip-28"></g>
                    <path d="M-0.131568627,0.310483871 L10.959268,0.310483871 L10.959268,16.0903226 L-0.131568627,16.0903226 L-0.131568627,0.310483871 Z" id="Fill-27" fill="#A39F9A" sketch:type="MSShapeGroup" mask="url(#mask-38)"></path>
                </g>
                <path d="M90.6483922,9.19516129 C91.7878562,8.81290323 92.9935033,8.77822581 94.1832026,8.81290323 C94.1457255,11.9548387 94.1233987,15.0967742 94.1768235,18.2354839 C94.173634,19.5983871 94.574719,20.9129032 95.1424575,22.1354839 C93.9687059,22.95 92.6841176,23.8 91.1818431,23.6282258 C90.5407451,21.6959677 90.3924314,19.6524194 90.4426667,17.6274194 C90.5064575,14.8201613 90.2409281,11.9870968 90.6483922,9.19516129" id="Fill-30" fill="#6B6A65" sketch:type="MSShapeGroup"></path>
                <g id="Group-33" transform="translate(90.104575, 8.870968)">
                    <mask id="mask-40" sketch:name="Clip 32" fill="white">
                        <use xlink:href="#path-39"></use>
                    </mask>
                    <g id="Clip-32"></g>
                    <path d="M0.136352941,-0.0927419355 L5.03788235,-0.0927419355 L5.03788235,14.9298387 L0.136352941,14.9298387 L0.136352941,-0.0927419355 Z" id="Fill-31" fill="#A39F9A" sketch:type="MSShapeGroup" mask="url(#mask-40)"></path>
                </g>
                <path d="M49.3350458,9.50080645 C50.4713203,9.10887097 51.6769673,9.0483871 52.8666667,9.08951613 C52.9049412,12.4830645 52.724732,15.8862903 52.9336471,19.2766129 C52.9806928,20.3846774 53.5141438,21.358871 53.7756863,22.4056452 C52.7406797,23.3419355 51.4090458,23.8959677 50.0295686,24.0201613 C48.9913725,21.6064516 49.1644052,18.9298387 49.1269281,16.3637097 C49.1620131,14.075 49.0065229,11.7733871 49.3350458,9.50080645" id="Fill-34" fill="#6B6A65" sketch:type="MSShapeGroup"></path>
                <g id="Group-37" transform="translate(49.437908, 8.870968)">
                    <mask id="mask-42" sketch:name="Clip 36" fill="white">
                        <use xlink:href="#path-41"></use>
                    </mask>
                    <g id="Clip-36"></g>
                    <path d="M-0.446535948,0.177419355 L4.33857516,0.177419355 L4.33857516,15.1483871 L-0.446535948,15.1483871 L-0.446535948,0.177419355 Z" id="Fill-35" fill="#A39F9A" sketch:type="MSShapeGroup" mask="url(#mask-42)"></path>
                </g>
                <path d="M14.6814641,8.28467742 C15.8177386,7.61290323 17.1182745,7.34516129 18.422,7.29758065 C18.4060523,8.13467742 18.390902,8.975 18.3717647,9.81209677 C19.3469673,8.94354839 20.4106797,8.06129032 21.7239739,7.80080645 C23.2230588,7.41209677 24.9462092,8.17903226 25.6024575,9.61209677 C26.3631634,11.2290323 26.606366,13.0403226 26.6757386,14.8137097 C26.7514902,17.4685484 26.7546797,20.1266129 26.641451,22.7814516 C25.3847712,23.0298387 24.1129412,23.2274194 22.8315425,23.1604839 C23.0141438,19.9677419 23.3905098,16.7266129 22.7972549,13.55 C22.6481438,12.8048387 22.3076601,11.9040323 21.4552549,11.7733871 C19.9689281,11.6330645 18.5926405,12.9669355 18.5009412,14.4346774 C18.4188105,16.9491935 18.6683922,19.4806452 18.4092418,21.9854839 C17.3112418,22.7467742 15.915817,22.733871 14.6439869,22.908871 C14.8967582,18.0354839 14.5969412,13.1580645 14.6814641,8.28467742" id="Fill-38" fill="#6B6A65" sketch:type="MSShapeGroup"></path>
                <g id="Group-41" transform="translate(14.352941, 7.258065)">
                    <mask id="mask-44" sketch:name="Clip 40" fill="white">
                        <use xlink:href="#path-43"></use>
                    </mask>
                    <g id="Clip-40"></g>
                    <path d="M0.244,0.039516129 L12.4017386,0.039516129 L12.4017386,15.9693548 L0.244,15.9693548 L0.244,0.039516129 Z" id="Fill-39" fill="#A39F9A" sketch:type="MSShapeGroup" mask="url(#mask-44)"></path>
                </g>
                <path d="M5.94849673,11.2225806 C4.5251634,12.3048387 4.09856209,14.1798387 4.14959477,15.8927419 C6.43490196,15.3645161 8.85576471,13.3782258 8.38849673,10.7645161 C7.564,10.7548387 6.6047451,10.5862903 5.94849673,11.2225806 L5.94849673,11.2225806 Z M3.29081046,9.20725806 C4.74922876,8.03629032 6.68049673,7.60967742 8.51448366,7.67983871 C9.85568627,7.81612903 11.4400915,8.31935484 11.9926797,9.69435484 C12.5675948,11.4072581 12.179268,13.3782258 11.0517647,14.7782258 C9.73926797,16.6919355 7.62460131,17.7612903 5.56335948,18.6524194 C7.6525098,19.8306452 10.1339739,19.3274194 12.2199346,18.4266129 C12.0971373,19.8370968 12.2231242,22.0685484 10.436183,22.4153226 C8.24337255,22.8959677 5.82490196,23.0870968 3.73256209,22.1129032 C1.49828758,21.0241935 0.323738562,18.4612903 0.362013072,16.0395161 C0.188183007,13.4604839 1.27342484,10.8217742 3.29081046,9.20725806 L3.29081046,9.20725806 Z" id="Fill-42" fill="#6B6A65" sketch:type="MSShapeGroup"></path>
                <g id="Group-45" transform="translate(0.000000, 8.064516)">
                    <mask id="mask-46" sketch:name="Clip 44" fill="white">
                        <use xlink:href="#path-45"></use>
                    </mask>
                    <g id="Clip-44"></g>
                    <path d="M0.188183007,-0.45483871 L12.5675948,-0.45483871 L12.5675948,15.0225806 L0.188183007,15.0225806 L0.188183007,-0.45483871 Z" id="Fill-43" fill="#A39F9A" sketch:type="MSShapeGroup" mask="url(#mask-46)"></path>
                </g>
                <path d="M80.1595817,12.9830645 C80.4530196,12.3717742 80.7560261,11.7637097 81.0558431,11.1556452 C81.3747974,11.7508065 81.7065098,12.3403226 82.0278562,12.9387097 C81.8484444,12.9669355 81.4888235,13.0274194 81.3086144,13.0596774 C81.3277516,13.533871 81.3460915,14.0080645 81.3652288,14.4854839 C81.6905621,14.8008065 82.0158954,15.116129 82.3404314,15.4370968 C82.7064314,15.1733871 83.0827974,14.9153226 83.483085,14.7024194 C83.9726797,14.9758065 84.455098,15.2532258 84.9383137,15.5330645 C84.3793464,15.9185484 83.8052288,16.2814516 83.2343007,16.65 C83.2215425,16.45 83.1928366,16.0483871 83.1800784,15.8483871 C82.8555425,15.8483871 82.5333987,15.8516129 82.2144444,15.8548387 C82.1227451,16.0233871 81.9401438,16.3604839 81.8484444,16.5290323 C81.6618562,16.6024194 81.2894771,16.7427419 81.1004967,16.816129 C80.8700523,16.7298387 80.4091634,16.5580645 80.178719,16.475 C79.9825621,15.6669355 80.2480915,14.9693548 80.8222092,14.3967742 C80.8413464,13.9540323 80.8604837,13.5145161 80.8828105,13.0782258 C80.6994118,13.0532258 80.3397908,13.0056452 80.1595817,12.9830645" id="Fill-46" fill="#6B6A65" sketch:type="MSShapeGroup"></path>
                <g id="Group-49" transform="translate(79.738562, 11.290323)">
                    <mask id="mask-48" sketch:name="Clip 48" fill="white">
                        <use xlink:href="#path-47"></use>
                    </mask>
                    <g id="Clip-48"></g>
                    <path d="M0.244,-0.134677419 L5.19975163,-0.134677419 L5.19975163,5.52580645 L0.244,5.52580645 L0.244,-0.134677419 Z" id="Fill-47" fill="#A39F9A" sketch:type="MSShapeGroup" mask="url(#mask-48)"></path>
                </g>
            </g>
        </g>
    </g>
</svg>