<?xml version="1.0" encoding="UTF-8" standalone="no"?>
<svg width="103px" height="77px" viewBox="0 0 103 77" version="1.1" xmlns="http://www.w3.org/2000/svg" xmlns:xlink="http://www.w3.org/1999/xlink" xmlns:sketch="http://www.bohemiancoding.com/sketch/ns">
    <!-- Generator: Sketch 3.1.1 (8761) - http://www.bohemiancoding.com/sketch -->
    <title>Artboard 3</title>
    <desc>Created with Sketch.</desc>
    <defs></defs>
    <g id="Page-1" stroke="none" stroke-width="1" fill="none" fill-rule="evenodd" sketch:type="MSPage">
        <g id="Artboard-3" sketch:type="MSArtboardGroup">
            <g id="Group" sketch:type="MSLayerGroup" transform="translate(0.000000, 1.000000)" fill="#6B6A65">
                <path d="M5.499,25.915 L0.467,25.915 L4.717,8.031 L9.783,8.031 L5.499,25.915 L5.499,25.915 Z M7.947,5.856 C7.245,5.856 6.61,5.646 6.043,5.226 C5.477,4.807 5.193,4.167 5.193,3.305 C5.193,2.829 5.289,2.382 5.482,1.962 C5.675,1.543 5.93,1.18 6.248,0.874 C6.564,0.568 6.933,0.325 7.352,0.143 C7.771,-0.038 8.219,-0.129 8.695,-0.129 C9.398,-0.129 10.033,0.081 10.6,0.5 C11.166,0.92 11.449,1.56 11.449,2.421 C11.449,2.898 11.353,3.345 11.161,3.764 C10.968,4.184 10.712,4.546 10.395,4.852 C10.078,5.158 9.709,5.402 9.291,5.583 C8.871,5.765 8.423,5.856 7.947,5.856 L7.947,5.856 Z" id="Fill-1" sketch:type="MSShapeGroup"></path>
                <path d="M13.203,8.847 C13.588,8.734 14.013,8.604 14.478,8.456 C14.942,8.309 15.464,8.173 16.042,8.048 C16.62,7.924 17.266,7.821 17.98,7.742 C18.694,7.663 19.504,7.623 20.411,7.623 C23.085,7.623 24.921,8.394 25.919,9.935 C26.916,11.477 27.086,13.585 26.429,16.259 L24.117,25.915 L19.051,25.915 L21.295,16.463 C21.431,15.874 21.538,15.302 21.618,14.746 C21.697,14.19 21.691,13.704 21.601,13.284 C21.51,12.865 21.3,12.525 20.972,12.264 C20.643,12.004 20.139,11.873 19.459,11.873 C18.801,11.873 18.133,11.941 17.453,12.077 L14.155,25.915 L9.089,25.915 L13.203,8.847" id="Fill-2" sketch:type="MSShapeGroup"></path>
                <path d="M33.181,22.312 C34.337,22.312 35.13,22.147 35.561,21.818 C35.991,21.489 36.207,21.133 36.207,20.747 C36.207,20.498 36.167,20.283 36.088,20.101 C36.008,19.92 35.878,19.75 35.697,19.591 C35.515,19.433 35.266,19.268 34.949,19.098 C34.631,18.928 34.223,18.73 33.725,18.503 C33.158,18.254 32.625,17.987 32.127,17.704 C31.628,17.421 31.192,17.081 30.818,16.684 C30.444,16.288 30.149,15.834 29.934,15.324 C29.718,14.815 29.611,14.208 29.611,13.505 C29.611,11.669 30.285,10.219 31.634,9.153 C32.982,8.088 34.949,7.555 37.533,7.555 C38.757,7.555 39.845,7.691 40.797,7.963 C41.749,8.235 42.519,8.53 43.109,8.847 L41.375,12.621 C40.899,12.372 40.287,12.134 39.539,11.907 C38.791,11.681 38.054,11.567 37.329,11.567 C37.011,11.567 36.7,11.584 36.394,11.618 C36.088,11.652 35.804,11.726 35.544,11.839 C35.283,11.953 35.073,12.111 34.915,12.315 C34.756,12.519 34.677,12.791 34.677,13.131 C34.677,13.585 34.852,13.925 35.204,14.151 C35.555,14.378 36.048,14.649 36.683,14.967 C37.567,15.397 38.303,15.795 38.893,16.157 C39.482,16.52 39.952,16.905 40.304,17.314 C40.655,17.721 40.91,18.186 41.069,18.707 C41.227,19.229 41.307,19.841 41.307,20.543 C41.307,21.269 41.154,21.982 40.848,22.685 C40.542,23.388 40.06,24.011 39.403,24.555 C38.745,25.099 37.907,25.541 36.887,25.881 C35.867,26.221 34.643,26.391 33.215,26.391 C32.331,26.391 31.532,26.334 30.818,26.221 C30.104,26.107 29.475,25.966 28.931,25.796 C28.387,25.626 27.928,25.451 27.554,25.269 C27.18,25.088 26.891,24.941 26.687,24.827 L28.421,20.951 C28.806,21.178 29.407,21.461 30.223,21.801 C31.039,22.141 32.025,22.312 33.181,22.312" id="Fill-3" sketch:type="MSShapeGroup"></path>
                <path d="M47.82,25.915 L42.788,25.915 L47.038,8.031 L52.104,8.031 L47.82,25.915 L47.82,25.915 Z M50.268,5.856 C49.565,5.856 48.931,5.646 48.364,5.226 C47.797,4.807 47.514,4.167 47.514,3.305 C47.514,2.829 47.61,2.382 47.803,1.962 C47.996,1.543 48.25,1.18 48.568,0.874 C48.885,0.568 49.253,0.325 49.673,0.143 C50.092,-0.038 50.54,-0.129 51.016,-0.129 C51.719,-0.129 52.354,0.081 52.92,0.5 C53.486,0.92 53.77,1.56 53.77,2.421 C53.77,2.898 53.673,3.345 53.481,3.764 C53.289,4.184 53.033,4.546 52.716,4.852 C52.398,5.158 52.03,5.402 51.611,5.583 C51.191,5.765 50.744,5.856 50.268,5.856 L50.268,5.856 Z" id="Fill-4" sketch:type="MSShapeGroup"></path>
                <path d="M66.846,23.671 C66.506,25.145 66.058,26.419 65.503,27.496 C64.947,28.572 64.256,29.468 63.429,30.182 C62.601,30.896 61.61,31.429 60.454,31.78 C59.298,32.131 57.949,32.307 56.408,32.307 C54.98,32.307 53.778,32.177 52.804,31.916 C51.829,31.655 50.945,31.332 50.152,30.947 L51.852,26.935 C52.554,27.252 53.285,27.525 54.045,27.751 C54.804,27.978 55.739,28.091 56.85,28.091 C58.3,28.091 59.394,27.768 60.131,27.122 C60.867,26.476 61.349,25.643 61.576,24.623 L61.712,23.977 C61.258,24.204 60.777,24.385 60.267,24.521 C59.757,24.657 59.218,24.725 58.652,24.725 C57.586,24.725 56.668,24.561 55.898,24.232 C55.127,23.903 54.498,23.444 54.011,22.856 C53.523,22.266 53.161,21.569 52.923,20.764 C52.685,19.96 52.566,19.081 52.566,18.129 C52.566,16.406 52.883,14.882 53.518,13.556 C54.152,12.231 54.997,11.125 56.051,10.241 C57.105,9.357 58.317,8.689 59.689,8.235 C61.06,7.782 62.494,7.555 63.99,7.555 C65.078,7.555 66.154,7.669 67.22,7.896 C68.285,8.122 69.328,8.473 70.348,8.949 L66.846,23.671 L66.846,23.671 Z M64.602,11.941 C64.216,11.851 63.74,11.805 63.174,11.805 C62.312,11.805 61.542,11.958 60.862,12.264 C60.182,12.57 59.598,12.983 59.111,13.505 C58.623,14.026 58.249,14.655 57.989,15.392 C57.728,16.129 57.598,16.917 57.598,17.755 C57.598,18.163 57.632,18.543 57.7,18.894 C57.768,19.246 57.892,19.552 58.074,19.813 C58.255,20.073 58.504,20.283 58.822,20.441 C59.139,20.6 59.536,20.679 60.012,20.679 C60.329,20.679 60.754,20.623 61.287,20.509 C61.819,20.396 62.301,20.135 62.732,19.727 L64.602,11.941 L64.602,11.941 Z" id="Fill-5" sketch:type="MSShapeGroup"></path>
                <path d="M81.757,7.725 C82.731,7.725 83.57,7.867 84.273,8.15 C84.976,8.434 85.553,8.83 86.007,9.34 C86.46,9.85 86.8,10.457 87.027,11.159 C87.253,11.862 87.367,12.621 87.367,13.438 C87.367,14.389 87.253,15.33 87.027,16.259 L84.715,25.915 L79.649,25.915 L81.893,16.463 C81.983,16.078 82.068,15.67 82.148,15.239 C82.227,14.809 82.267,14.4 82.267,14.015 C82.267,13.426 82.114,12.922 81.808,12.502 C81.502,12.083 80.918,11.873 80.057,11.873 C79.694,11.873 79.349,11.895 79.02,11.941 C78.691,11.986 78.368,12.043 78.051,12.111 L74.753,25.915 L69.687,25.915 L75.807,0.347 L81.077,-0.469 L79.003,8.066 C79.456,7.975 79.915,7.896 80.38,7.827 C80.844,7.759 81.303,7.725 81.757,7.725" id="Fill-6" sketch:type="MSShapeGroup"></path>
                <path d="M92.759,3.577 L98.029,2.761 L96.737,8.031 L102.381,8.031 L101.361,12.179 L95.751,12.179 L94.255,18.435 C94.119,18.957 94.034,19.444 94,19.897 C93.966,20.351 94.022,20.742 94.17,21.07 C94.317,21.398 94.572,21.654 94.935,21.835 C95.297,22.017 95.796,22.107 96.431,22.107 C96.975,22.107 97.502,22.056 98.012,21.954 C98.522,21.852 99.038,21.711 99.559,21.529 L99.933,25.405 C99.253,25.654 98.516,25.87 97.723,26.051 C96.929,26.232 95.989,26.323 94.901,26.323 C93.337,26.323 92.124,26.091 91.263,25.626 C90.401,25.162 89.79,24.527 89.427,23.722 C89.064,22.918 88.905,21.994 88.951,20.951 C88.996,19.909 89.155,18.809 89.427,17.653 L92.759,3.577" id="Fill-7" sketch:type="MSShapeGroup"></path>
            </g>
            <g id="Group" sketch:type="MSLayerGroup" transform="translate(0.000000, 44.000000)" fill="#A39F9A">
                <path d="M5.499,25.915 L0.467,25.915 L4.717,8.031 L9.783,8.031 L5.499,25.915 L5.499,25.915 Z M7.947,5.856 C7.245,5.856 6.61,5.646 6.043,5.226 C5.477,4.807 5.193,4.167 5.193,3.305 C5.193,2.829 5.289,2.382 5.482,1.962 C5.675,1.543 5.93,1.18 6.248,0.874 C6.564,0.568 6.933,0.325 7.352,0.143 C7.771,-0.038 8.219,-0.129 8.695,-0.129 C9.398,-0.129 10.033,0.081 10.6,0.5 C11.166,0.92 11.449,1.56 11.449,2.421 C11.449,2.898 11.353,3.345 11.161,3.764 C10.968,4.184 10.712,4.546 10.395,4.852 C10.078,5.158 9.709,5.402 9.291,5.583 C8.871,5.765 8.423,5.856 7.947,5.856 L7.947,5.856 Z" id="Fill-1" sketch:type="MSShapeGroup"></path>
                <path d="M13.203,8.847 C13.588,8.734 14.013,8.604 14.478,8.456 C14.942,8.309 15.464,8.173 16.042,8.048 C16.62,7.924 17.266,7.821 17.98,7.742 C18.694,7.663 19.504,7.623 20.411,7.623 C23.085,7.623 24.921,8.394 25.919,9.935 C26.916,11.477 27.086,13.585 26.429,16.259 L24.117,25.915 L19.051,25.915 L21.295,16.463 C21.431,15.874 21.538,15.302 21.618,14.746 C21.697,14.19 21.691,13.704 21.601,13.284 C21.51,12.865 21.3,12.525 20.972,12.264 C20.643,12.004 20.139,11.873 19.459,11.873 C18.801,11.873 18.133,11.941 17.453,12.077 L14.155,25.915 L9.089,25.915 L13.203,8.847" id="Fill-2" sketch:type="MSShapeGroup"></path>
                <path d="M33.181,22.312 C34.337,22.312 35.13,22.147 35.561,21.818 C35.991,21.489 36.207,21.133 36.207,20.747 C36.207,20.498 36.167,20.283 36.088,20.101 C36.008,19.92 35.878,19.75 35.697,19.591 C35.515,19.433 35.266,19.268 34.949,19.098 C34.631,18.928 34.223,18.73 33.725,18.503 C33.158,18.254 32.625,17.987 32.127,17.704 C31.628,17.421 31.192,17.081 30.818,16.684 C30.444,16.288 30.149,15.834 29.934,15.324 C29.718,14.815 29.611,14.208 29.611,13.505 C29.611,11.669 30.285,10.219 31.634,9.153 C32.982,8.088 34.949,7.555 37.533,7.555 C38.757,7.555 39.845,7.691 40.797,7.963 C41.749,8.235 42.519,8.53 43.109,8.847 L41.375,12.621 C40.899,12.372 40.287,12.134 39.539,11.907 C38.791,11.681 38.054,11.567 37.329,11.567 C37.011,11.567 36.7,11.584 36.394,11.618 C36.088,11.652 35.804,11.726 35.544,11.839 C35.283,11.953 35.073,12.111 34.915,12.315 C34.756,12.519 34.677,12.791 34.677,13.131 C34.677,13.585 34.852,13.925 35.204,14.151 C35.555,14.378 36.048,14.649 36.683,14.967 C37.567,15.397 38.303,15.795 38.893,16.157 C39.482,16.52 39.952,16.905 40.304,17.314 C40.655,17.721 40.91,18.186 41.069,18.707 C41.227,19.229 41.307,19.841 41.307,20.543 C41.307,21.269 41.154,21.982 40.848,22.685 C40.542,23.388 40.06,24.011 39.403,24.555 C38.745,25.099 37.907,25.541 36.887,25.881 C35.867,26.221 34.643,26.391 33.215,26.391 C32.331,26.391 31.532,26.334 30.818,26.221 C30.104,26.107 29.475,25.966 28.931,25.796 C28.387,25.626 27.928,25.451 27.554,25.269 C27.18,25.088 26.891,24.941 26.687,24.827 L28.421,20.951 C28.806,21.178 29.407,21.461 30.223,21.801 C31.039,22.141 32.025,22.312 33.181,22.312" id="Fill-3" sketch:type="MSShapeGroup"></path>
                <path d="M47.82,25.915 L42.788,25.915 L47.038,8.031 L52.104,8.031 L47.82,25.915 L47.82,25.915 Z M50.268,5.856 C49.565,5.856 48.931,5.646 48.364,5.226 C47.797,4.807 47.514,4.167 47.514,3.305 C47.514,2.829 47.61,2.382 47.803,1.962 C47.996,1.543 48.25,1.18 48.568,0.874 C48.885,0.568 49.253,0.325 49.673,0.143 C50.092,-0.038 50.54,-0.129 51.016,-0.129 C51.719,-0.129 52.354,0.081 52.92,0.5 C53.486,0.92 53.77,1.56 53.77,2.421 C53.77,2.898 53.673,3.345 53.481,3.764 C53.289,4.184 53.033,4.546 52.716,4.852 C52.398,5.158 52.03,5.402 51.611,5.583 C51.191,5.765 50.744,5.856 50.268,5.856 L50.268,5.856 Z" id="Fill-4" sketch:type="MSShapeGroup"></path>
                <path d="M66.846,23.671 C66.506,25.145 66.058,26.419 65.503,27.496 C64.947,28.572 64.256,29.468 63.429,30.182 C62.601,30.896 61.61,31.429 60.454,31.78 C59.298,32.131 57.949,32.307 56.408,32.307 C54.98,32.307 53.778,32.177 52.804,31.916 C51.829,31.655 50.945,31.332 50.152,30.947 L51.852,26.935 C52.554,27.252 53.285,27.525 54.045,27.751 C54.804,27.978 55.739,28.091 56.85,28.091 C58.3,28.091 59.394,27.768 60.131,27.122 C60.867,26.476 61.349,25.643 61.576,24.623 L61.712,23.977 C61.258,24.204 60.777,24.385 60.267,24.521 C59.757,24.657 59.218,24.725 58.652,24.725 C57.586,24.725 56.668,24.561 55.898,24.232 C55.127,23.903 54.498,23.444 54.011,22.856 C53.523,22.266 53.161,21.569 52.923,20.764 C52.685,19.96 52.566,19.081 52.566,18.129 C52.566,16.406 52.883,14.882 53.518,13.556 C54.152,12.231 54.997,11.125 56.051,10.241 C57.105,9.357 58.317,8.689 59.689,8.235 C61.06,7.782 62.494,7.555 63.99,7.555 C65.078,7.555 66.154,7.669 67.22,7.896 C68.285,8.122 69.328,8.473 70.348,8.949 L66.846,23.671 L66.846,23.671 Z M64.602,11.941 C64.216,11.851 63.74,11.805 63.174,11.805 C62.312,11.805 61.542,11.958 60.862,12.264 C60.182,12.57 59.598,12.983 59.111,13.505 C58.623,14.026 58.249,14.655 57.989,15.392 C57.728,16.129 57.598,16.917 57.598,17.755 C57.598,18.163 57.632,18.543 57.7,18.894 C57.768,19.246 57.892,19.552 58.074,19.813 C58.255,20.073 58.504,20.283 58.822,20.441 C59.139,20.6 59.536,20.679 60.012,20.679 C60.329,20.679 60.754,20.623 61.287,20.509 C61.819,20.396 62.301,20.135 62.732,19.727 L64.602,11.941 L64.602,11.941 Z" id="Fill-5" sketch:type="MSShapeGroup"></path>
                <path d="M81.757,7.725 C82.731,7.725 83.57,7.867 84.273,8.15 C84.976,8.434 85.553,8.83 86.007,9.34 C86.46,9.85 86.8,10.457 87.027,11.159 C87.253,11.862 87.367,12.621 87.367,13.438 C87.367,14.389 87.253,15.33 87.027,16.259 L84.715,25.915 L79.649,25.915 L81.893,16.463 C81.983,16.078 82.068,15.67 82.148,15.239 C82.227,14.809 82.267,14.4 82.267,14.015 C82.267,13.426 82.114,12.922 81.808,12.502 C81.502,12.083 80.918,11.873 80.057,11.873 C79.694,11.873 79.349,11.895 79.02,11.941 C78.691,11.986 78.368,12.043 78.051,12.111 L74.753,25.915 L69.687,25.915 L75.807,0.347 L81.077,-0.469 L79.003,8.066 C79.456,7.975 79.915,7.896 80.38,7.827 C80.844,7.759 81.303,7.725 81.757,7.725" id="Fill-6" sketch:type="MSShapeGroup"></path>
                <path d="M92.759,3.577 L98.029,2.761 L96.737,8.031 L102.381,8.031 L101.361,12.179 L95.751,12.179 L94.255,18.435 C94.119,18.957 94.034,19.444 94,19.897 C93.966,20.351 94.022,20.742 94.17,21.07 C94.317,21.398 94.572,21.654 94.935,21.835 C95.297,22.017 95.796,22.107 96.431,22.107 C96.975,22.107 97.502,22.056 98.012,21.954 C98.522,21.852 99.038,21.711 99.559,21.529 L99.933,25.405 C99.253,25.654 98.516,25.87 97.723,26.051 C96.929,26.232 95.989,26.323 94.901,26.323 C93.337,26.323 92.124,26.091 91.263,25.626 C90.401,25.162 89.79,24.527 89.427,23.722 C89.064,22.918 88.905,21.994 88.951,20.951 C88.996,19.909 89.155,18.809 89.427,17.653 L92.759,3.577" id="Fill-7" sketch:type="MSShapeGroup"></path>
            </g>
        </g>
    </g>
</svg>