<?xml version="1.0" encoding="UTF-8" standalone="no"?>
<svg width="142px" height="75px" viewBox="0 0 142 75" version="1.1" xmlns="http://www.w3.org/2000/svg" xmlns:xlink="http://www.w3.org/1999/xlink" xmlns:sketch="http://www.bohemiancoding.com/sketch/ns">
    <!-- Generator: Sketch 3.1.1 (8761) - http://www.bohemiancoding.com/sketch -->
    <title>Artboard 5</title>
    <desc>Created with Sketch.</desc>
    <defs></defs>
    <g id="Page-1" stroke="none" stroke-width="1" fill="none" fill-rule="evenodd" sketch:type="MSPage">
        <g id="Artboard-5" sketch:type="MSArtboardGroup">
            <g id="Imported-Layers" sketch:type="MSLayerGroup" fill="#6B6A65">
                <path d="M13.293,10.262 C13.224,8.418 13.155,6.187 13.155,3.956 L13.086,3.956 C12.603,5.914 11.959,8.1 11.361,9.898 L9.476,15.886 L6.739,15.886 L5.083,9.943 C4.578,8.145 4.049,5.959 3.681,3.956 L3.635,3.956 C3.543,6.027 3.474,8.396 3.359,10.308 L3.083,16.136 L-0.159,16.136 L0.83,0.791 L5.498,0.791 L7.015,5.914 C7.498,7.69 7.981,9.602 8.326,11.4 L8.395,11.4 C8.832,9.625 9.361,7.599 9.867,5.891 L11.522,0.791 L16.098,0.791 L16.949,16.136 L13.523,16.136 L13.293,10.262" id="Fill-1" sketch:type="MSShapeGroup"></path>
                <path d="M28.979,12.562 C28.979,14.019 29.025,15.202 29.071,16.136 L26.036,16.136 L25.874,14.565 L25.806,14.565 C25.369,15.248 24.311,16.386 22.288,16.386 C20.011,16.386 18.333,14.975 18.333,11.537 L18.333,5.003 L21.851,5.003 L21.851,10.99 C21.851,12.607 22.379,13.586 23.598,13.586 C24.564,13.586 25.116,12.926 25.346,12.379 C25.437,12.175 25.461,11.902 25.461,11.628 L25.461,5.003 L28.979,5.003 L28.979,12.562" id="Fill-2" sketch:type="MSShapeGroup"></path>
                <path d="M30.638,-0.028 L34.133,-0.028 L34.133,16.136 L30.638,16.136 L30.638,-0.028 Z" id="Fill-3" sketch:type="MSShapeGroup"></path>
                <path d="M39.722,1.815 L39.722,5.003 L42.228,5.003 L42.228,7.553 L39.722,7.553 L39.722,11.583 C39.722,12.926 40.043,13.54 41.101,13.54 C41.538,13.54 41.883,13.495 42.136,13.449 L42.159,16.068 C41.699,16.25 40.871,16.363 39.882,16.363 C38.756,16.363 37.813,15.977 37.261,15.407 C36.617,14.747 36.295,13.677 36.295,12.107 L36.295,7.553 L34.801,7.553 L34.801,5.003 L36.295,5.003 L36.295,2.59 L39.722,1.815" id="Fill-4" sketch:type="MSShapeGroup"></path>
                <path d="M46.713,1.907 C46.713,2.863 45.977,3.637 44.828,3.637 C43.724,3.637 42.988,2.863 43.011,1.907 C42.988,0.905 43.724,0.154 44.851,0.154 C45.977,0.154 46.69,0.905 46.713,1.907 L46.713,1.907 Z M43.103,5.003 L46.598,5.003 L46.598,16.136 L43.103,16.136 L43.103,5.003 Z" id="Fill-5" sketch:type="MSShapeGroup"></path>
                <path d="M47.542,9.01 L53.566,9.01 L53.566,11.31 L47.542,11.31 L47.542,9.01 Z" id="Fill-6" sketch:type="MSShapeGroup"></path>
                <path d="M54.488,13.107 C55.131,13.495 56.465,13.95 57.5,13.95 C58.558,13.95 58.995,13.586 58.995,13.017 C58.995,12.447 58.65,12.175 57.339,11.742 C55.017,10.968 54.12,9.716 54.143,8.396 C54.143,6.323 55.937,4.753 58.719,4.753 C60.029,4.753 61.202,5.049 61.892,5.39 L61.271,7.78 C60.765,7.508 59.799,7.144 58.833,7.144 C57.983,7.144 57.5,7.485 57.5,8.054 C57.5,8.577 57.937,8.851 59.316,9.329 C61.455,10.058 62.352,11.127 62.375,12.767 C62.375,14.838 60.719,16.363 57.5,16.363 C56.028,16.363 54.718,16.045 53.867,15.589 L54.488,13.107" id="Fill-7" sketch:type="MSShapeGroup"></path>
                <path d="M66.952,1.907 C66.952,2.863 66.216,3.637 65.067,3.637 C63.963,3.637 63.227,2.863 63.25,1.907 C63.227,0.905 63.963,0.154 65.09,0.154 C66.216,0.154 66.929,0.905 66.952,1.907 L66.952,1.907 Z M63.342,5.003 L66.837,5.003 L66.837,16.136 L63.342,16.136 L63.342,5.003 Z" id="Fill-8" sketch:type="MSShapeGroup"></path>
                <path d="M79.232,5.003 C79.187,5.709 79.141,6.643 79.141,8.304 L79.141,14.52 C79.141,16.659 78.704,18.412 77.439,19.528 C76.197,20.575 74.519,20.894 72.863,20.894 C71.391,20.894 69.828,20.598 68.816,20.029 L69.506,17.411 C70.219,17.82 71.46,18.253 72.771,18.253 C74.427,18.253 75.691,17.365 75.691,15.316 L75.691,14.588 L75.645,14.588 C74.979,15.521 73.898,16.045 72.61,16.045 C69.828,16.045 67.85,13.814 67.85,10.604 C67.85,7.029 70.196,4.753 72.955,4.753 C74.495,4.753 75.461,5.413 76.036,6.323 L76.083,6.323 L76.197,5.003 L79.232,5.003 L79.232,5.003 Z M75.645,9.533 C75.645,9.306 75.623,9.078 75.577,8.897 C75.324,7.985 74.657,7.371 73.691,7.371 C72.426,7.371 71.391,8.509 71.391,10.535 C71.391,12.197 72.219,13.495 73.691,13.495 C74.588,13.495 75.3,12.904 75.53,12.083 C75.623,11.833 75.645,11.469 75.645,11.173 L75.645,9.533 L75.645,9.533 Z" id="Fill-9" sketch:type="MSShapeGroup"></path>
                <path d="M80.799,8.555 C80.799,7.166 80.753,5.982 80.706,5.003 L83.742,5.003 L83.903,6.529 L83.972,6.529 C84.432,5.822 85.581,4.753 87.444,4.753 C89.744,4.753 91.468,6.255 91.468,9.533 L91.468,16.136 L87.973,16.136 L87.973,9.966 C87.973,8.532 87.467,7.553 86.203,7.553 C85.237,7.553 84.662,8.213 84.432,8.851 C84.34,9.056 84.294,9.397 84.294,9.716 L84.294,16.136 L80.799,16.136 L80.799,8.555" id="Fill-10" sketch:type="MSShapeGroup"></path>
                <path d="M99.519,16.136 L99.312,15.021 L99.244,15.021 C98.508,15.908 97.358,16.386 96.024,16.386 C93.748,16.386 92.391,14.747 92.391,12.972 C92.391,10.08 95.012,8.692 98.991,8.714 L98.991,8.555 C98.991,7.963 98.668,7.12 96.944,7.12 C95.794,7.12 94.576,7.508 93.84,7.963 L93.196,5.732 C93.977,5.299 95.518,4.753 97.565,4.753 C101.313,4.753 102.509,6.939 102.509,9.557 L102.509,13.427 C102.509,14.497 102.555,15.521 102.67,16.136 L99.519,16.136 L99.519,16.136 Z M99.105,10.877 C97.266,10.855 95.84,11.286 95.84,12.63 C95.84,13.518 96.438,13.95 97.22,13.95 C98.094,13.95 98.807,13.381 99.037,12.675 C99.083,12.493 99.105,12.288 99.105,12.083 L99.105,10.877 L99.105,10.877 Z" id="Fill-11" sketch:type="MSShapeGroup"></path>
                <path d="M108.03,1.815 L108.03,5.003 L110.536,5.003 L110.536,7.553 L108.03,7.553 L108.03,11.583 C108.03,12.926 108.352,13.54 109.409,13.54 C109.846,13.54 110.191,13.495 110.444,13.449 L110.467,16.068 C110.007,16.25 109.179,16.363 108.19,16.363 C107.064,16.363 106.121,15.977 105.569,15.407 C104.925,14.747 104.603,13.677 104.603,12.107 L104.603,7.553 L103.109,7.553 L103.109,5.003 L104.603,5.003 L104.603,2.59 L108.03,1.815" id="Fill-12" sketch:type="MSShapeGroup"></path>
                <path d="M122.012,12.562 C122.012,14.019 122.058,15.202 122.104,16.136 L119.069,16.136 L118.908,14.565 L118.839,14.565 C118.402,15.248 117.344,16.386 115.321,16.386 C113.044,16.386 111.366,14.975 111.366,11.537 L111.366,5.003 L114.884,5.003 L114.884,10.99 C114.884,12.607 115.412,13.586 116.631,13.586 C117.597,13.586 118.149,12.926 118.379,12.379 C118.471,12.175 118.494,11.902 118.494,11.628 L118.494,5.003 L122.012,5.003 L122.012,12.562" id="Fill-13" sketch:type="MSShapeGroup"></path>
                <path d="M123.67,8.669 C123.67,7.029 123.625,5.959 123.578,5.003 L126.591,5.003 L126.706,7.052 L126.797,7.052 C127.372,5.436 128.752,4.753 129.833,4.753 C130.155,4.753 130.316,4.753 130.569,4.798 L130.569,8.054 C130.316,8.008 130.017,7.963 129.626,7.963 C128.338,7.963 127.464,8.646 127.234,9.716 C127.188,9.943 127.166,10.217 127.166,10.489 L127.166,16.136 L123.67,16.136 L123.67,8.669" id="Fill-14" sketch:type="MSShapeGroup"></path>
                <path d="M133.951,11.674 C134.065,13.107 135.491,13.791 137.124,13.791 C138.319,13.791 139.285,13.632 140.228,13.336 L140.688,15.681 C139.538,16.136 138.136,16.363 136.618,16.363 C132.801,16.363 130.616,14.178 130.616,10.695 C130.616,7.872 132.387,4.753 136.296,4.753 C139.929,4.753 141.309,7.553 141.309,10.308 C141.309,10.9 141.24,11.423 141.194,11.674 L133.951,11.674 L133.951,11.674 Z M138.066,9.306 C138.066,8.464 137.699,7.052 136.089,7.052 C134.617,7.052 134.02,8.372 133.928,9.306 L138.066,9.306 L138.066,9.306 Z" id="Fill-15" sketch:type="MSShapeGroup"></path>
                <path d="M-0.116,18.896 C0.557,18.784 1.437,18.689 2.558,18.689 C3.934,18.689 4.942,19.009 5.583,19.585 C6.175,20.097 6.527,20.881 6.527,21.842 C6.527,22.819 6.239,23.586 5.695,24.146 C4.958,24.931 3.758,25.331 2.397,25.331 C1.981,25.331 1.597,25.315 1.277,25.235 L1.277,29.557 L-0.116,29.557 L-0.116,18.896 L-0.116,18.896 Z M1.277,24.099 C1.581,24.179 1.965,24.211 2.43,24.211 C4.11,24.211 5.135,23.395 5.135,21.905 C5.135,20.482 4.126,19.793 2.589,19.793 C1.981,19.793 1.517,19.841 1.277,19.904 L1.277,24.099 L1.277,24.099 Z" id="Fill-16" sketch:type="MSShapeGroup"></path>
                <path d="M11.838,29.557 L11.726,28.58 L11.678,28.58 C11.246,29.189 10.414,29.733 9.309,29.733 C7.74,29.733 6.94,28.628 6.94,27.508 C6.94,25.635 8.605,24.611 11.598,24.627 L11.598,24.467 C11.598,23.826 11.422,22.674 9.837,22.674 C9.117,22.674 8.365,22.898 7.82,23.25 L7.5,22.321 C8.141,21.905 9.069,21.634 10.045,21.634 C12.415,21.634 12.991,23.25 12.991,24.803 L12.991,27.7 C12.991,28.372 13.022,29.029 13.119,29.557 L11.838,29.557 L11.838,29.557 Z M11.63,25.604 C10.093,25.571 8.349,25.843 8.349,27.348 C8.349,28.26 8.957,28.692 9.677,28.692 C10.685,28.692 11.326,28.052 11.55,27.396 C11.598,27.252 11.63,27.092 11.63,26.947 L11.63,25.604 L11.63,25.604 Z" id="Fill-17" sketch:type="MSShapeGroup"></path>
                <path d="M14.46,24.339 C14.46,23.346 14.428,22.546 14.396,21.81 L15.661,21.81 L15.725,23.138 L15.757,23.138 C16.333,22.193 17.246,21.634 18.51,21.634 C20.383,21.634 21.791,23.218 21.791,25.571 C21.791,28.357 20.095,29.733 18.27,29.733 C17.246,29.733 16.349,29.284 15.885,28.517 L15.853,28.517 L15.853,32.726 L14.46,32.726 L14.46,24.339 L14.46,24.339 Z M15.853,26.404 C15.853,26.611 15.885,26.804 15.917,26.98 C16.173,27.956 17.021,28.628 18.03,28.628 C19.518,28.628 20.383,27.412 20.383,25.635 C20.383,24.082 19.566,22.754 18.078,22.754 C17.118,22.754 16.221,23.442 15.949,24.499 C15.901,24.675 15.853,24.883 15.853,25.075 L15.853,26.404 L15.853,26.404 Z" id="Fill-18" sketch:type="MSShapeGroup"></path>
                <path d="M23.548,25.939 C23.58,27.844 24.797,28.628 26.205,28.628 C27.214,28.628 27.822,28.452 28.351,28.229 L28.59,29.236 C28.094,29.461 27.246,29.717 26.014,29.717 C23.628,29.717 22.204,28.148 22.204,25.812 C22.204,23.475 23.58,21.634 25.837,21.634 C28.366,21.634 29.038,23.858 29.038,25.283 C29.038,25.571 29.007,25.795 28.991,25.939 L23.548,25.939 L23.548,25.939 Z M27.678,24.931 C27.694,24.034 27.31,22.642 25.726,22.642 C24.301,22.642 23.677,23.954 23.564,24.931 L27.678,24.931 L27.678,24.931 Z" id="Fill-19" sketch:type="MSShapeGroup"></path>
                <path d="M29.98,24.227 C29.98,23.314 29.964,22.53 29.916,21.81 L31.148,21.81 L31.196,23.33 L31.261,23.33 C31.613,22.29 32.461,21.634 33.405,21.634 C33.565,21.634 33.678,21.649 33.806,21.682 L33.806,23.01 C33.662,22.978 33.518,22.962 33.325,22.962 C32.333,22.962 31.629,23.714 31.437,24.771 C31.405,24.963 31.373,25.187 31.373,25.427 L31.373,29.557 L29.98,29.557 L29.98,24.227" id="Fill-20" sketch:type="MSShapeGroup"></path>
                <path d="M38.812,29.557 L36.076,18.769 L37.548,18.769 L38.829,24.227 C39.149,25.571 39.437,26.916 39.629,27.956 L39.661,27.956 C39.837,26.884 40.173,25.604 40.541,24.211 L41.982,18.769 L43.438,18.769 L44.751,24.242 C45.055,25.523 45.343,26.804 45.503,27.941 L45.535,27.941 C45.759,26.756 46.063,25.555 46.4,24.211 L47.824,18.769 L49.249,18.769 L46.191,29.557 L44.735,29.557 L43.375,23.939 C43.039,22.562 42.814,21.506 42.67,20.417 L42.638,20.417 C42.446,21.489 42.206,22.546 41.806,23.939 L40.269,29.557 L38.812,29.557" id="Fill-21" sketch:type="MSShapeGroup"></path>
                <path d="M54.029,29.557 L53.917,28.58 L53.87,28.58 C53.437,29.189 52.605,29.733 51.5,29.733 C49.932,29.733 49.131,28.628 49.131,27.508 C49.131,25.635 50.796,24.611 53.789,24.627 L53.789,24.467 C53.789,23.826 53.613,22.674 52.029,22.674 C51.308,22.674 50.556,22.898 50.012,23.25 L49.692,22.321 C50.332,21.905 51.26,21.634 52.237,21.634 C54.606,21.634 55.182,23.25 55.182,24.803 L55.182,27.7 C55.182,28.372 55.214,29.029 55.31,29.557 L54.029,29.557 L54.029,29.557 Z M53.821,25.604 C52.285,25.571 50.54,25.843 50.54,27.348 C50.54,28.26 51.148,28.692 51.869,28.692 C52.877,28.692 53.517,28.052 53.741,27.396 C53.789,27.252 53.821,27.092 53.821,26.947 L53.821,25.604 L53.821,25.604 Z" id="Fill-22" sketch:type="MSShapeGroup"></path>
                <path d="M56.651,18.192 L58.06,18.192 L58.06,29.556 L56.651,29.556 L56.651,18.192 Z" id="Fill-23" sketch:type="MSShapeGroup"></path>
                <path d="M59.627,18.192 L61.036,18.192 L61.036,29.556 L59.627,29.556 L59.627,18.192 Z" id="Fill-24" sketch:type="MSShapeGroup"></path>
                <path d="M63.387,25.939 C63.419,27.844 64.636,28.628 66.044,28.628 C67.053,28.628 67.661,28.452 68.189,28.229 L68.429,29.236 C67.933,29.461 67.085,29.717 65.852,29.717 C63.467,29.717 62.043,28.148 62.043,25.812 C62.043,23.475 63.419,21.634 65.676,21.634 C68.205,21.634 68.877,23.858 68.877,25.283 C68.877,25.571 68.846,25.795 68.83,25.939 L63.387,25.939 L63.387,25.939 Z M67.517,24.931 C67.533,24.034 67.149,22.642 65.564,22.642 C64.14,22.642 63.516,23.954 63.403,24.931 L67.517,24.931 L67.517,24.931 Z" id="Fill-25" sketch:type="MSShapeGroup"></path>
                <path d="M71.516,19.585 L71.516,21.81 L73.533,21.81 L73.533,22.882 L71.516,22.882 L71.516,27.06 C71.516,28.02 71.788,28.564 72.572,28.564 C72.94,28.564 73.213,28.517 73.389,28.468 L73.453,29.524 C73.181,29.637 72.748,29.717 72.204,29.717 C71.548,29.717 71.02,29.509 70.683,29.124 C70.284,28.708 70.14,28.02 70.14,27.108 L70.14,22.882 L68.939,22.882 L68.939,21.81 L70.14,21.81 L70.14,19.953 L71.516,19.585" id="Fill-26" sketch:type="MSShapeGroup"></path>
            </g>
            <path d="M133.951,53.674 C134.065,55.107 135.491,55.791 137.124,55.791 C138.319,55.791 139.285,55.632 140.228,55.336 L140.688,57.681 C139.538,58.136 138.136,58.363 136.618,58.363 C132.801,58.363 130.616,56.178 130.616,52.695 C130.616,49.872 132.387,46.753 136.296,46.753 C139.929,46.753 141.309,49.553 141.309,52.308 C141.309,52.9 141.24,53.423 141.194,53.674 L133.951,53.674 L133.951,53.674 Z M138.066,51.306 C138.066,50.464 137.699,49.052 136.089,49.052 C134.617,49.052 134.02,50.372 133.928,51.306 L138.066,51.306 L138.066,51.306 Z" id="Fill-15" fill="#A39F9A" sketch:type="MSShapeGroup"></path>
            <path d="M-0.116,60.896 C0.557,60.784 1.437,60.689 2.558,60.689 C3.934,60.689 4.942,61.009 5.583,61.585 C6.175,62.097 6.527,62.881 6.527,63.842 C6.527,64.819 6.239,65.586 5.695,66.146 C4.958,66.931 3.758,67.331 2.397,67.331 C1.981,67.331 1.597,67.315 1.277,67.235 L1.277,71.557 L-0.116,71.557 L-0.116,60.896 L-0.116,60.896 Z M1.277,66.099 C1.581,66.179 1.965,66.211 2.43,66.211 C4.11,66.211 5.135,65.395 5.135,63.905 C5.135,62.482 4.126,61.793 2.589,61.793 C1.981,61.793 1.517,61.841 1.277,61.904 L1.277,66.099 L1.277,66.099 Z" id="Fill-16" fill="#A39F9A" sketch:type="MSShapeGroup"></path>
            <g id="Group" sketch:type="MSLayerGroup" transform="translate(0.000000, 42.000000)" fill="#A39F9A">
                <path d="M13.293,10.262 C13.224,8.418 13.155,6.187 13.155,3.956 L13.086,3.956 C12.603,5.914 11.959,8.1 11.361,9.898 L9.476,15.886 L6.739,15.886 L5.083,9.943 C4.578,8.145 4.049,5.959 3.681,3.956 L3.635,3.956 C3.543,6.027 3.474,8.396 3.359,10.308 L3.083,16.136 L-0.159,16.136 L0.83,0.791 L5.498,0.791 L7.015,5.914 C7.498,7.69 7.981,9.602 8.326,11.4 L8.395,11.4 C8.832,9.625 9.361,7.599 9.867,5.891 L11.522,0.791 L16.098,0.791 L16.949,16.136 L13.523,16.136 L13.293,10.262" id="Fill-1" sketch:type="MSShapeGroup"></path>
                <path d="M28.979,12.562 C28.979,14.019 29.025,15.202 29.071,16.136 L26.036,16.136 L25.874,14.565 L25.806,14.565 C25.369,15.248 24.311,16.386 22.288,16.386 C20.011,16.386 18.333,14.975 18.333,11.537 L18.333,5.003 L21.851,5.003 L21.851,10.99 C21.851,12.607 22.379,13.586 23.598,13.586 C24.564,13.586 25.116,12.926 25.346,12.379 C25.437,12.175 25.461,11.902 25.461,11.628 L25.461,5.003 L28.979,5.003 L28.979,12.562" id="Fill-2" sketch:type="MSShapeGroup"></path>
                <path d="M30.638,-0.028 L34.133,-0.028 L34.133,16.136 L30.638,16.136 L30.638,-0.028 Z" id="Fill-3" sketch:type="MSShapeGroup"></path>
                <path d="M39.722,1.815 L39.722,5.003 L42.228,5.003 L42.228,7.553 L39.722,7.553 L39.722,11.583 C39.722,12.926 40.043,13.54 41.101,13.54 C41.538,13.54 41.883,13.495 42.136,13.449 L42.159,16.068 C41.699,16.25 40.871,16.363 39.882,16.363 C38.756,16.363 37.813,15.977 37.261,15.407 C36.617,14.747 36.295,13.677 36.295,12.107 L36.295,7.553 L34.801,7.553 L34.801,5.003 L36.295,5.003 L36.295,2.59 L39.722,1.815" id="Fill-4" sketch:type="MSShapeGroup"></path>
                <path d="M46.713,1.907 C46.713,2.863 45.977,3.637 44.828,3.637 C43.724,3.637 42.988,2.863 43.011,1.907 C42.988,0.905 43.724,0.154 44.851,0.154 C45.977,0.154 46.69,0.905 46.713,1.907 L46.713,1.907 Z M43.103,5.003 L46.598,5.003 L46.598,16.136 L43.103,16.136 L43.103,5.003 Z" id="Fill-5" sketch:type="MSShapeGroup"></path>
                <path d="M47.542,9.01 L53.566,9.01 L53.566,11.31 L47.542,11.31 L47.542,9.01 Z" id="Fill-6" sketch:type="MSShapeGroup"></path>
                <path d="M54.488,13.107 C55.131,13.495 56.465,13.95 57.5,13.95 C58.558,13.95 58.995,13.586 58.995,13.017 C58.995,12.447 58.65,12.175 57.339,11.742 C55.017,10.968 54.12,9.716 54.143,8.396 C54.143,6.323 55.937,4.753 58.719,4.753 C60.029,4.753 61.202,5.049 61.892,5.39 L61.271,7.78 C60.765,7.508 59.799,7.144 58.833,7.144 C57.983,7.144 57.5,7.485 57.5,8.054 C57.5,8.577 57.937,8.851 59.316,9.329 C61.455,10.058 62.352,11.127 62.375,12.767 C62.375,14.838 60.719,16.363 57.5,16.363 C56.028,16.363 54.718,16.045 53.867,15.589 L54.488,13.107" id="Fill-7" sketch:type="MSShapeGroup"></path>
                <path d="M66.952,1.907 C66.952,2.863 66.216,3.637 65.067,3.637 C63.963,3.637 63.227,2.863 63.25,1.907 C63.227,0.905 63.963,0.154 65.09,0.154 C66.216,0.154 66.929,0.905 66.952,1.907 L66.952,1.907 Z M63.342,5.003 L66.837,5.003 L66.837,16.136 L63.342,16.136 L63.342,5.003 Z" id="Fill-8" sketch:type="MSShapeGroup"></path>
                <path d="M79.232,5.003 C79.187,5.709 79.141,6.643 79.141,8.304 L79.141,14.52 C79.141,16.659 78.704,18.412 77.439,19.528 C76.197,20.575 74.519,20.894 72.863,20.894 C71.391,20.894 69.828,20.598 68.816,20.029 L69.506,17.411 C70.219,17.82 71.46,18.253 72.771,18.253 C74.427,18.253 75.691,17.365 75.691,15.316 L75.691,14.588 L75.645,14.588 C74.979,15.521 73.898,16.045 72.61,16.045 C69.828,16.045 67.85,13.814 67.85,10.604 C67.85,7.029 70.196,4.753 72.955,4.753 C74.495,4.753 75.461,5.413 76.036,6.323 L76.083,6.323 L76.197,5.003 L79.232,5.003 L79.232,5.003 Z M75.645,9.533 C75.645,9.306 75.623,9.078 75.577,8.897 C75.324,7.985 74.657,7.371 73.691,7.371 C72.426,7.371 71.391,8.509 71.391,10.535 C71.391,12.197 72.219,13.495 73.691,13.495 C74.588,13.495 75.3,12.904 75.53,12.083 C75.623,11.833 75.645,11.469 75.645,11.173 L75.645,9.533 L75.645,9.533 Z" id="Fill-9" sketch:type="MSShapeGroup"></path>
                <path d="M80.799,8.555 C80.799,7.166 80.753,5.982 80.706,5.003 L83.742,5.003 L83.903,6.529 L83.972,6.529 C84.432,5.822 85.581,4.753 87.444,4.753 C89.744,4.753 91.468,6.255 91.468,9.533 L91.468,16.136 L87.973,16.136 L87.973,9.966 C87.973,8.532 87.467,7.553 86.203,7.553 C85.237,7.553 84.662,8.213 84.432,8.851 C84.34,9.056 84.294,9.397 84.294,9.716 L84.294,16.136 L80.799,16.136 L80.799,8.555" id="Fill-10" sketch:type="MSShapeGroup"></path>
                <path d="M99.519,16.136 L99.312,15.021 L99.244,15.021 C98.508,15.908 97.358,16.386 96.024,16.386 C93.748,16.386 92.391,14.747 92.391,12.972 C92.391,10.08 95.012,8.692 98.991,8.714 L98.991,8.555 C98.991,7.963 98.668,7.12 96.944,7.12 C95.794,7.12 94.576,7.508 93.84,7.963 L93.196,5.732 C93.977,5.299 95.518,4.753 97.565,4.753 C101.313,4.753 102.509,6.939 102.509,9.557 L102.509,13.427 C102.509,14.497 102.555,15.521 102.67,16.136 L99.519,16.136 L99.519,16.136 Z M99.105,10.877 C97.266,10.855 95.84,11.286 95.84,12.63 C95.84,13.518 96.438,13.95 97.22,13.95 C98.094,13.95 98.807,13.381 99.037,12.675 C99.083,12.493 99.105,12.288 99.105,12.083 L99.105,10.877 L99.105,10.877 Z" id="Fill-11" sketch:type="MSShapeGroup"></path>
                <path d="M108.03,1.815 L108.03,5.003 L110.536,5.003 L110.536,7.553 L108.03,7.553 L108.03,11.583 C108.03,12.926 108.352,13.54 109.409,13.54 C109.846,13.54 110.191,13.495 110.444,13.449 L110.467,16.068 C110.007,16.25 109.179,16.363 108.19,16.363 C107.064,16.363 106.121,15.977 105.569,15.407 C104.925,14.747 104.603,13.677 104.603,12.107 L104.603,7.553 L103.109,7.553 L103.109,5.003 L104.603,5.003 L104.603,2.59 L108.03,1.815" id="Fill-12" sketch:type="MSShapeGroup"></path>
                <path d="M122.012,12.562 C122.012,14.019 122.058,15.202 122.104,16.136 L119.069,16.136 L118.908,14.565 L118.839,14.565 C118.402,15.248 117.344,16.386 115.321,16.386 C113.044,16.386 111.366,14.975 111.366,11.537 L111.366,5.003 L114.884,5.003 L114.884,10.99 C114.884,12.607 115.412,13.586 116.631,13.586 C117.597,13.586 118.149,12.926 118.379,12.379 C118.471,12.175 118.494,11.902 118.494,11.628 L118.494,5.003 L122.012,5.003 L122.012,12.562" id="Fill-13" sketch:type="MSShapeGroup"></path>
                <path d="M123.67,8.669 C123.67,7.029 123.625,5.959 123.578,5.003 L126.591,5.003 L126.706,7.052 L126.797,7.052 C127.372,5.436 128.752,4.753 129.833,4.753 C130.155,4.753 130.316,4.753 130.569,4.798 L130.569,8.054 C130.316,8.008 130.017,7.963 129.626,7.963 C128.338,7.963 127.464,8.646 127.234,9.716 C127.188,9.943 127.166,10.217 127.166,10.489 L127.166,16.136 L123.67,16.136 L123.67,8.669" id="Fill-14" sketch:type="MSShapeGroup"></path>
                <path d="M11.838,29.557 L11.726,28.58 L11.678,28.58 C11.246,29.189 10.414,29.733 9.309,29.733 C7.74,29.733 6.94,28.628 6.94,27.508 C6.94,25.635 8.605,24.611 11.598,24.627 L11.598,24.467 C11.598,23.826 11.422,22.674 9.837,22.674 C9.117,22.674 8.365,22.898 7.82,23.25 L7.5,22.321 C8.141,21.905 9.069,21.634 10.045,21.634 C12.415,21.634 12.991,23.25 12.991,24.803 L12.991,27.7 C12.991,28.372 13.022,29.029 13.119,29.557 L11.838,29.557 L11.838,29.557 Z M11.63,25.604 C10.093,25.571 8.349,25.843 8.349,27.348 C8.349,28.26 8.957,28.692 9.677,28.692 C10.685,28.692 11.326,28.052 11.55,27.396 C11.598,27.252 11.63,27.092 11.63,26.947 L11.63,25.604 L11.63,25.604 Z" id="Fill-17" sketch:type="MSShapeGroup"></path>
                <path d="M14.46,24.339 C14.46,23.346 14.428,22.546 14.396,21.81 L15.661,21.81 L15.725,23.138 L15.757,23.138 C16.333,22.193 17.246,21.634 18.51,21.634 C20.383,21.634 21.791,23.218 21.791,25.571 C21.791,28.357 20.095,29.733 18.27,29.733 C17.246,29.733 16.349,29.284 15.885,28.517 L15.853,28.517 L15.853,32.726 L14.46,32.726 L14.46,24.339 L14.46,24.339 Z M15.853,26.404 C15.853,26.611 15.885,26.804 15.917,26.98 C16.173,27.956 17.021,28.628 18.03,28.628 C19.518,28.628 20.383,27.412 20.383,25.635 C20.383,24.082 19.566,22.754 18.078,22.754 C17.118,22.754 16.221,23.442 15.949,24.499 C15.901,24.675 15.853,24.883 15.853,25.075 L15.853,26.404 L15.853,26.404 Z" id="Fill-18" sketch:type="MSShapeGroup"></path>
                <path d="M23.548,25.939 C23.58,27.844 24.797,28.628 26.205,28.628 C27.214,28.628 27.822,28.452 28.351,28.229 L28.59,29.236 C28.094,29.461 27.246,29.717 26.014,29.717 C23.628,29.717 22.204,28.148 22.204,25.812 C22.204,23.475 23.58,21.634 25.837,21.634 C28.366,21.634 29.038,23.858 29.038,25.283 C29.038,25.571 29.007,25.795 28.991,25.939 L23.548,25.939 L23.548,25.939 Z M27.678,24.931 C27.694,24.034 27.31,22.642 25.726,22.642 C24.301,22.642 23.677,23.954 23.564,24.931 L27.678,24.931 L27.678,24.931 Z" id="Fill-19" sketch:type="MSShapeGroup"></path>
                <path d="M29.98,24.227 C29.98,23.314 29.964,22.53 29.916,21.81 L31.148,21.81 L31.196,23.33 L31.261,23.33 C31.613,22.29 32.461,21.634 33.405,21.634 C33.565,21.634 33.678,21.649 33.806,21.682 L33.806,23.01 C33.662,22.978 33.518,22.962 33.325,22.962 C32.333,22.962 31.629,23.714 31.437,24.771 C31.405,24.963 31.373,25.187 31.373,25.427 L31.373,29.557 L29.98,29.557 L29.98,24.227" id="Fill-20" sketch:type="MSShapeGroup"></path>
                <path d="M38.812,29.557 L36.076,18.769 L37.548,18.769 L38.829,24.227 C39.149,25.571 39.437,26.916 39.629,27.956 L39.661,27.956 C39.837,26.884 40.173,25.604 40.541,24.211 L41.982,18.769 L43.438,18.769 L44.751,24.242 C45.055,25.523 45.343,26.804 45.503,27.941 L45.535,27.941 C45.759,26.756 46.063,25.555 46.4,24.211 L47.824,18.769 L49.249,18.769 L46.191,29.557 L44.735,29.557 L43.375,23.939 C43.039,22.562 42.814,21.506 42.67,20.417 L42.638,20.417 C42.446,21.489 42.206,22.546 41.806,23.939 L40.269,29.557 L38.812,29.557" id="Fill-21" sketch:type="MSShapeGroup"></path>
                <path d="M54.029,29.557 L53.917,28.58 L53.87,28.58 C53.437,29.189 52.605,29.733 51.5,29.733 C49.932,29.733 49.131,28.628 49.131,27.508 C49.131,25.635 50.796,24.611 53.789,24.627 L53.789,24.467 C53.789,23.826 53.613,22.674 52.029,22.674 C51.308,22.674 50.556,22.898 50.012,23.25 L49.692,22.321 C50.332,21.905 51.26,21.634 52.237,21.634 C54.606,21.634 55.182,23.25 55.182,24.803 L55.182,27.7 C55.182,28.372 55.214,29.029 55.31,29.557 L54.029,29.557 L54.029,29.557 Z M53.821,25.604 C52.285,25.571 50.54,25.843 50.54,27.348 C50.54,28.26 51.148,28.692 51.869,28.692 C52.877,28.692 53.517,28.052 53.741,27.396 C53.789,27.252 53.821,27.092 53.821,26.947 L53.821,25.604 L53.821,25.604 Z" id="Fill-22" sketch:type="MSShapeGroup"></path>
                <path d="M56.651,18.192 L58.06,18.192 L58.06,29.556 L56.651,29.556 L56.651,18.192 Z" id="Fill-23" sketch:type="MSShapeGroup"></path>
                <path d="M59.627,18.192 L61.036,18.192 L61.036,29.556 L59.627,29.556 L59.627,18.192 Z" id="Fill-24" sketch:type="MSShapeGroup"></path>
                <path d="M63.387,25.939 C63.419,27.844 64.636,28.628 66.044,28.628 C67.053,28.628 67.661,28.452 68.189,28.229 L68.429,29.236 C67.933,29.461 67.085,29.717 65.852,29.717 C63.467,29.717 62.043,28.148 62.043,25.812 C62.043,23.475 63.419,21.634 65.676,21.634 C68.205,21.634 68.877,23.858 68.877,25.283 C68.877,25.571 68.846,25.795 68.83,25.939 L63.387,25.939 L63.387,25.939 Z M67.517,24.931 C67.533,24.034 67.149,22.642 65.564,22.642 C64.14,22.642 63.516,23.954 63.403,24.931 L67.517,24.931 L67.517,24.931 Z" id="Fill-25" sketch:type="MSShapeGroup"></path>
                <path d="M71.516,19.585 L71.516,21.81 L73.533,21.81 L73.533,22.882 L71.516,22.882 L71.516,27.06 C71.516,28.02 71.788,28.564 72.572,28.564 C72.94,28.564 73.213,28.517 73.389,28.468 L73.453,29.524 C73.181,29.637 72.748,29.717 72.204,29.717 C71.548,29.717 71.02,29.509 70.683,29.124 C70.284,28.708 70.14,28.02 70.14,27.108 L70.14,22.882 L68.939,22.882 L68.939,21.81 L70.14,21.81 L70.14,19.953 L71.516,19.585" id="Fill-26" sketch:type="MSShapeGroup"></path>
            </g>
        </g>
    </g>
</svg>