<?xml version="1.0" encoding="UTF-8" standalone="no"?>
<svg width="183px" height="102px" viewBox="0 0 183 102" version="1.1" xmlns="http://www.w3.org/2000/svg" xmlns:xlink="http://www.w3.org/1999/xlink" xmlns:sketch="http://www.bohemiancoding.com/sketch/ns">
    <!-- Generator: Sketch 3.1.1 (8761) - http://www.bohemiancoding.com/sketch -->
    <title>Artboard 5</title>
    <desc>Created with Sketch.</desc>
    <defs></defs>
    <g id="Page-1" stroke="none" stroke-width="1" fill="none" fill-rule="evenodd" sketch:type="MSPage">
        <g id="Artboard-5" sketch:type="MSArtboardGroup">
            <g id="Imported-Layers" sketch:type="MSLayerGroup" transform="translate(0.000000, 1.000000)">
                <path d="M0.22,101.305 L13.165,78.812 L34.525,71.53 L35.334,62.145 L56.533,34.15 L60.416,36.092 L64.786,22.337 L71.42,20.072 L77.893,2.272 L88.249,3.89 L98.606,0.815 L103.946,23.308 L106.697,20.719 L111.713,34.797 L117.377,39.814 L124.173,55.834 L141.812,61.498 L156.881,78.974 L167.056,77.032 L183.237,94.023 L183.237,101.305 L0.22,101.305" id="Fill-1" fill="#3F3F3F" sketch:type="MSShapeGroup"></path>
                <path d="M56.371,33.705 L60.416,36.092 L58.191,61.619 L49.817,68.415 L35.334,62.145 L56.371,33.705" id="Fill-2" fill="#444444" sketch:type="MSShapeGroup"></path>
                <path d="M60.427,36.072 L65.352,51.06 L76.517,38.924 L71.906,27.03 L76.517,21.69 L72.148,19.748 L64.624,22.175 L60.427,36.072" id="Fill-3" fill="#444444" sketch:type="MSShapeGroup"></path>
                <path d="M25.302,93.78 L13.225,78.796 L34.596,71.261 L33.312,88.683 L25.302,93.78" id="Fill-4" fill="#444444" sketch:type="MSShapeGroup"></path>
                <path d="M116.082,45.842 L118.267,40.744 L111.336,33.729 L114.626,45.842 L114.626,48.997 L116.082,45.842" id="Fill-5" fill="#444444" sketch:type="MSShapeGroup"></path>
                <path d="M162.686,85.528 L156.861,78.974 L167.056,77.032 L162.686,85.528" id="Fill-6" fill="#444444" sketch:type="MSShapeGroup"></path>
                <path d="M124.007,55.456 L129.675,70.964 L134.287,69.022 L135.986,75.333 L138.899,77.032 L141.812,61.498 L124.007,55.456" id="Fill-7" fill="#444444" sketch:type="MSShapeGroup"></path>
                <path d="M94.113,25.695 L83.433,20.355 L71.296,20.355 L77.893,2.272 L88.368,3.89 L98.968,0.209 L107.584,39.288 L94.113,25.695" id="Fill-8" fill="#444444" sketch:type="MSShapeGroup"></path>
                <path d="M97.878,61.376 L83.557,49.24 L75.547,38.317 L79.188,32.491 L99.577,49.24 L97.878,61.376" id="Fill-9" fill="#444444" sketch:type="MSShapeGroup"></path>
                <path d="M25.909,101.305 L35.375,90.868 L41.686,85.528 L43.385,77.032 L54.551,65.867 L54.551,53.973 L61.832,61.74 L61.832,77.76 L66.202,77.76 L69.357,67.809 L76.396,70.236 L80.765,57.857 L111.835,44.264 L110.378,55.915 L116.689,53.245 L116.689,66.352 L125.427,70.236 L123.486,77.032 L121.058,92.567 L127.612,87.955 L133.923,70.236 L140.234,70.236 L143.632,67.323 L145.089,74.848 L152.37,79.702 L156.982,88.198 L160.866,89.411 L169.604,91.353 L173.245,101.305 L25.909,101.305" id="Fill-10" fill="#494949" sketch:type="MSShapeGroup"></path>
                <path d="M104.039,23.221 L106.697,20.719 L105.68,30.621 L104.039,23.221" id="Fill-11" fill="#444444" sketch:type="MSShapeGroup"></path>
                <path d="M71.42,91.717 L68.265,79.338 L76.275,69.872 C76.275,69.872 80.401,76.911 80.401,76.183 C80.401,75.454 84.042,61.619 84.042,61.619 L110.5,44.385 L107.83,64.774 L116.568,53.366 L116.568,76.668 L123.122,69.872 L120.694,89.775 L108.315,98.028 L77.974,85.164 L71.42,91.717" id="Fill-12" fill="#444444" sketch:type="MSShapeGroup"></path>
            </g>
        </g>
    </g>
</svg>