<?xml version="1.0" encoding="UTF-8"?>
<svg width="49px" height="30px" viewBox="0 0 49 30" version="1.1" xmlns="http://www.w3.org/2000/svg" xmlns:xlink="http://www.w3.org/1999/xlink">
    <!-- Generator: Sketch 46.2 (44496) - http://www.bohemiancoding.com/sketch -->
    <title>cash</title>
    <desc>Created with Sketch.</desc>
    <defs></defs>
    <g id="Symbols" stroke="none" stroke-width="1" fill="none" fill-rule="evenodd">
        <g id="Invoice---Details---toggle-13" transform="translate(-15.000000, -66.000000)" fill-rule="nonzero" fill="#70C559">
            <g id="cash" transform="translate(15.000000, 66.000000)">
                <path d="M13.8417063,-9.23705556e-14 C10.3638666,2.45824779 7.71855988,6.11178429 6.60498615,10.5439372 C4.70445891,18.0998581 7.80802299,25.7315444 13.8323317,30 L0,30 L0,6.67235157e-12 L13.8417063,6.67174941e-12 L13.8417063,-9.23705556e-14 Z M35.4255188,2.16006456e-11 L49,2.16000551e-11 L49,30 L35.4177702,30 C38.8953546,27.5421934 41.5405004,23.8894637 42.6545185,19.458134 C44.5543534,11.900549 41.4505764,4.26854241 35.4255188,2.1236346e-11 L35.4255188,2.16006456e-11 Z M39.3004107,18.6286839 C37.2802686,26.6643836 29.0735016,31.5548028 20.9697739,29.5509168 C12.8693548,27.5474997 7.93811007,19.4082073 9.95919725,11.3729763 C11.9783938,3.33633912 20.185161,-1.55454875 28.2865254,0.448868418 C36.3897804,2.45228559 41.3205524,10.5925155 39.3004107,18.6286839 Z M25.404827,8.31840135 L24.822017,5.61021006 L23.1646362,5.95837059 L23.7321322,8.59517337 C23.2964321,8.68671195 22.8528909,8.78878287 22.412286,8.89047021 L21.8413778,6.23613729 L20.1848384,6.58389075 L20.7668159,9.29144802 C20.4095444,9.37407702 20.0585751,9.45469416 19.7150084,9.52706466 L17.4268281,9.99789864 L17.8061139,11.7584155 C17.8061139,11.7584155 19.0250623,11.4782322 19.0095416,11.5049211 C19.6809284,11.3641687 19.9828396,11.7059324 20.1183742,12.0270932 L21.7146405,19.4461225 C21.7303963,19.6624491 21.6782983,20.0235742 21.2094313,20.1228629 C21.2346595,20.1370971 20.0045444,20.375508 20.0045444,20.375508 L20.0988542,22.4133317 L22.2557355,21.9603946 C22.6572213,21.8765944 23.053614,21.8004421 23.44186,21.7214914 L24.0319506,24.4603751 L25.6876485,24.1130287 L25.1044355,21.4029588 C25.5610391,21.31686 26.0017437,21.2280845 26.4311504,21.1375167 L27.0109069,23.835262 L28.6682877,23.4871014 L28.0804623,20.7528244 C30.8327059,20.0087698 32.6327287,18.9010983 32.3148875,16.247723 C32.0594765,14.1110581 30.8671217,13.3840872 29.2040862,13.3384078 C30.0603063,12.6499773 30.4765778,11.6663412 30.0286414,10.2671807 C29.4197843,8.35437249 27.5843909,8.05563042 25.404827,8.31840135 Z M28.8925748,16.4400896 C29.3339492,18.4867945 25.7599728,18.9938427 24.6369247,19.2307446 L23.8564384,15.6015987 C24.9801043,15.3659532 28.4333066,14.3051001 28.8925748,16.4400896 Z M23.3654016,14.0925774 L22.6572494,10.8011688 C23.5928708,10.6046501 26.4682721,9.69163557 26.886443,11.6339622 C27.2866494,13.4963329 24.3010229,13.8960587 23.3654016,14.0925774 Z" id="Cash"></path>
            </g>
        </g>
    </g>
</svg>