<?xml version="1.0" encoding="UTF-8" standalone="no"?>
<svg width="177px" height="199px" viewBox="0 0 177 199" version="1.1" xmlns="http://www.w3.org/2000/svg" xmlns:xlink="http://www.w3.org/1999/xlink" xmlns:sketch="http://www.bohemiancoding.com/sketch/ns">
    <title>Group copy</title>
    <description>Created with Sketch (http://www.bohemiancoding.com/sketch)</description>
    <defs>
        <linearGradient x1="15.2309634%" y1="37.2440314%" x2="136.882932%" y2="24.3752426%" id="linearGradient-1">
            <stop stop-color="#2C3E50" offset="0%"></stop>
            <stop stop-color="#162431" offset="100%"></stop>
        </linearGradient>
    </defs>
    <g id="Page-1" stroke="none" stroke-width="1" fill="none" fill-rule="evenodd" sketch:type="MSPage">
        <g id="Artboard-2" sketch:type="MSArtboardGroup" transform="translate(-1384.000000, -376.000000)">
            <g id="Group-copy-+-bitcore-copy" sketch:type="MSLayerGroup" transform="translate(1202.000000, 376.000000)">
                <g id="Group-copy" sketch:type="MSShapeGroup">
                    <g transform="translate(182.000000, 0.000000)">
                        <path d="M88.5,145.973082 C132.156342,145.973082 167.546795,110.58888 167.546795,66.9402491 C167.546795,40.850348 158.736474,26.4218559 150.970744,18.3611244 C143.205014,10.3003931 112.007104,1.06515149 87.2957715,1.06514807 C65.7032466,1.06514508 57.6596046,0.117623643 41.7339397,6.20304884 C25.8082741,12.2884724 9.45320471,38.634268 9.45320471,66.9402491 C9.45320471,110.58888 44.8436583,145.973082 88.5,145.973082 Z" id="Oval-6" stroke="#535B62" fill="#34495E"></path>
                        <path d="M29.2754237,14.4591154 C29.2754237,14.4591154 39.8230358,-2.1682688 91.4537689,0.260367376 C143.084502,2.68900363 151.945454,19.472028 151.945454,19.472028 L154.093401,35.9885615 L151.945454,55.5569678 L146.652195,78.6197927 L143.297029,87.6092042 L86.6238737,61.535804 L63.5486937,47.0878408 L43.6741044,31.4967513 L33.4071576,20.9945409 L29.2754237,14.4591154 Z" id="Path-133" stroke="#535B62" fill="url(#linearGradient-1)"></path>
                        <path d="M57.219971,14.8048096 L48.758786,27.9535983 L45.3021615,34.2844231 L93.6732432,68.2776316 L143.251107,83.4131897 C143.251107,83.4131897 149.95475,45.4886153 150.089079,35.0220678 C150.192008,27.0020848 140.975397,19.1042179 140.975397,19.1042179 L141.88692,45.0009933 L136.523076,72.8140617 L102.961375,55.7615579 L80.3715002,42.0583521 L59.9608161,26.9819137 L57.6306155,21.2366943 L57.219971,14.8048096 Z" id="Path" opacity="0.5" fill="#000000"></path>
                        <path d="M21.8011788,24.8438886 C24.5119281,20.0782314 29.6848617,14.7641871 29.6848617,14.7641871 C29.6848617,14.7641871 46.3519923,40.8652877 94.2407665,62.9423936 C142.129545,85.0194966 142.129545,83.2177855 142.129545,83.2177855 C142.129545,83.2177855 145.572437,73.5723201 149.021734,57.7908495 C152.471031,42.0093789 151.130073,19.6280352 151.130073,19.6280352 C151.130073,19.6280352 154.535406,22.9077852 157.418498,27.4835203 C160.30159,32.0592554 161.819917,36.8129938 161.819917,36.8129938 C161.819917,36.8129938 164.836798,46.938591 158.168927,64.0858151 C151.501057,81.2330394 145.588202,91.1560115 145.588202,91.1560115 C145.588202,91.1560115 103.947562,79.6449538 80.8009113,70.2906184 C57.6542608,60.936283 29.4566313,46.5077588 22.6126888,35.1637062 C19.3432194,29.7444565 19.0904294,29.6095458 21.8011788,24.8438886 Z" id="Path-131" stroke-opacity="0.0659754136" stroke="#FFFFFF" fill="#243443"></path>
                        <path d="M57.6049805,14.3925781 C57.6049805,14.3925781 75.7044227,10.879686 98.1049556,12.5544514 C120.505489,14.229216 130.579591,15.5732115 139.371608,22.146297 C148.163625,28.7193825 136.538218,74.7557656 136.538218,74.7557656 C136.538218,74.7557656 101.192626,57.1218268 88.3505846,48.6850592 C75.5085439,40.2482913 62.3551274,30.5215813 57.413443,24.9426317 C52.4717586,19.363682 57.6049805,14.3925781 57.6049805,14.3925781 Z" id="Path-132" fill="#0E5E93"></path>
                        <path d="M58.6781916,13.562256 C58.6781916,13.562256 67.3426346,7.54128432 88.2171616,8.31631523 C109.091689,9.0913444 131.844339,11.6246359 140.636356,18.1977214 C149.428374,24.7708068 137.389609,70.9012112 137.389609,70.9012112 C137.389609,70.9012112 102.500875,53.1402366 89.9155271,44.9177228 C77.3301807,36.6952079 63.6198761,26.5730057 58.6781917,20.994056 C53.7365073,15.4151064 58.6781916,13.562256 58.6781916,13.562256 Z" id="Path-132" fill="#3498DB"></path>
                        <path d="M94.8262519,110.564294 C95.5374888,109.072365 95.2876497,108.919297 94.2296664,110.204541 C94.2296664,110.204541 85.7289204,121.820411 69.8965254,131.018473 C54.0641305,140.216534 45.2450899,142.892961 45.2450899,142.892961 C43.6821574,143.445131 43.7421504,143.694704 45.3800737,143.42301 C45.3800737,143.42301 60.4715586,141.481698 73.9238261,134.78951 C87.3760944,128.097322 94.8262519,110.564294 94.8262519,110.564294 Z" id="Path-116" fill-opacity="0.1" fill="#FFFFFF" transform="translate(69.221524, 126.769127) rotate(50.000000) translate(-69.221524, -126.769127) "></path>
                        <ellipse id="Oval-6" fill="#F5F5F5" cx="88.5" cy="186" rx="88.5" ry="13"></ellipse>
                        <ellipse id="Oval-6" fill="#E9E9E9" cx="89" cy="185.5" rx="51" ry="7.5"></ellipse>
                    </g>
                </g>
            </g>
        </g>
    </g>
</svg>