<?xml version="1.0" encoding="utf-8"?>
<!-- Generator: Adobe Illustrator 17.1.0, SVG Export Plug-In . SVG Version: 6.00 Build 0)  -->
<!DOCTYPE svg PUBLIC "-//W3C//DTD SVG 1.1//EN" "http://www.w3.org/Graphics/SVG/1.1/DTD/svg11.dtd">
<svg version="1.1" id="Layer_1" xmlns:sketch="http://www.bohemiancoding.com/sketch/ns"
	 xmlns="http://www.w3.org/2000/svg" xmlns:xlink="http://www.w3.org/1999/xlink" x="0px" y="0px" viewBox="67.5 32.5 73.2 73.5"
	 enable-background="new 67.5 32.5 73.2 73.5" xml:space="preserve">
<title>Group copy + bitcore copy@2x</title>
<description>Created with Sketch (http://www.bohemiancoding.com/sketch)</description>
<g id="Group-copy" transform="translate(56.000000, 0.000000)" sketch:type="MSShapeGroup">
	<path id="Oval-6" fill="#34495E" stroke="#30414E" stroke-width="0.5" d="M48.1,86.8c13.7,0,24.8-11,24.8-24.6
		c0-8.1-2.8-12.6-5.2-15.2c-2.4-2.5-12.2-5.4-19.9-5.4c-6.8,0-9.3-0.3-14.3,1.6S23.4,53.3,23.4,62.1C23.4,75.7,34.4,86.8,48.1,86.8z
		"/>
	
		<linearGradient id="Path-133_1_" gradientUnits="userSpaceOnUse" x1="-92.8213" y1="257.2439" x2="-91.6048" y2="257.3726" gradientTransform="matrix(39.1023 0 0 -27.318 3665.7844 7083.6479)">
		<stop  offset="0" style="stop-color:#2C3E50"/>
		<stop  offset="1" style="stop-color:#162431"/>
	</linearGradient>
	<path id="Path-133" fill="url(#Path-133_1_)" stroke="#30414E" stroke-width="0.5" d="M29.6,45.7c0,0,3.3-5.2,19.5-4.4s19,6,19,6
		l0.7,5.2L68,58.6l-1.7,7.2l-1.1,2.8l-17.8-8.1l-7.2-4.5l-6.2-4.9l-3.2-3.3L29.6,45.7z"/>
	<path id="Path" opacity="0.5" enable-background="new    " d="M38.3,45.8l-2.7,4.1l-1.1,2l15.2,10.6l15.5,4.7
		c0,0,2.1-11.8,2.1-15.1c0-2.5-2.9-5-2.9-5l0.3,8.1l-1.7,8.7l-10.5-5.3l-7.1-4.3l-6.4-4.7l-0.7-1.8L38.3,45.8z"/>
	<path id="Path-131" fill="#243443" stroke="#31414F" stroke-width="0.5" d="M27.4,49.2c1-2,2.5-3.5,2.5-3.5s5,8.2,20,15.1
		s15,6.3,15,6.3s1.1-3,2.2-7.9c1.1-4.9,0.7-11.9,0.7-11.9s1.1,1,2,2.4c0.9,1.4,1.4,2.9,1.4,2.9s0.9,3.2-1.1,8.5S66,69.7,66,69.7
		s-13-3.6-20.3-6.5s-16.1-7.4-18.2-11C26.5,50.5,26.4,51.2,27.4,49.2z"/>
	<path id="Path-132" fill="#0E5E93" d="M38.4,45.7c0,0,5.7-1.1,12.7-0.6s10.2,0.9,12.9,3c2.8,2.1-0.9,16.4-0.9,16.4
		S52.1,59,48.1,56.4c-4-2.6-8.1-5.7-9.7-7.4C36.8,47.3,38.4,45.7,38.4,45.7z"/>
	<path id="Path-132_1_" fill="#3498DB" d="M38.8,45.5c0,0,2.7-1.9,9.3-1.6s13.7,1,16.4,3.1c2.8,2.1-1,16.4-1,16.4
		s-10.9-5.5-14.9-8.1s-8.2-5.7-9.8-7.5C37.2,46,38.8,45.5,38.8,45.5z"/>
	<path id="Path-116" fill="#FFFFFF" fill-opacity="0.1" d="M49.1,84.1c1.6-0.3,1.6-0.6-0.1-0.7c0,0-2.4,0.4-7.8-1.6
		c-5.4-2-6-2.6-6-2.6c-1.4-0.8-1.6-0.6-0.3,0.5c0,0,1.9,1.9,6.2,3.8C45.4,85.4,49.1,84.1,49.1,84.1z"/>
	<ellipse id="Oval-6_1_" opacity="0.13" fill="#717171" cx="48.1" cy="99.2" rx="27.7" ry="4.1"/>
	<ellipse id="Oval-6_2_" opacity="0.13" fill="#717171" cx="48.3" cy="99.1" rx="16" ry="2.3"/>
</g>
</svg>
