<?xml version="1.0" encoding="UTF-8" standalone="no"?>
<svg width="98px" height="27px" viewBox="0 0 98 27" version="1.1" xmlns="http://www.w3.org/2000/svg" xmlns:xlink="http://www.w3.org/1999/xlink" xmlns:sketch="http://www.bohemiancoding.com/sketch/ns">
    <!-- Generator: Sketch 3.1.1 (8761) - http://www.bohemiancoding.com/sketch -->
    <title>Imported Layers</title>
    <desc>Created with Sketch.</desc>
    <defs></defs>
    <g id="Page-1" stroke="none" stroke-width="1" fill="none" fill-rule="evenodd" sketch:type="MSPage">
        <path d="M10.622,8.03 C11.596,8.03 12.438,8.22 13.148,8.601 C13.858,8.982 14.447,9.497 14.913,10.147 C15.38,10.796 15.725,11.558 15.948,12.431 C16.171,13.305 16.283,14.245 16.283,15.253 C16.283,16.799 16.024,18.26 15.507,19.638 C14.989,21.015 14.284,22.213 13.392,23.233 C12.499,24.252 11.444,25.058 10.226,25.652 C9.009,26.245 7.69,26.542 6.27,26.542 C6.087,26.542 5.768,26.536 5.311,26.525 C4.854,26.514 4.332,26.464 3.744,26.374 C3.155,26.284 2.531,26.15 1.872,25.971 C1.212,25.792 0.589,25.545 0,25.232 L5.265,0.807 L9.983,0 L8.096,8.668 C8.502,8.467 8.907,8.31 9.313,8.198 C9.719,8.086 10.155,8.03 10.622,8.03 L10.622,8.03 Z M6.665,22.41 C7.376,22.41 8.045,22.219 8.674,21.838 C9.303,21.458 9.846,20.948 10.302,20.31 C10.759,19.671 11.119,18.949 11.383,18.143 C11.647,17.336 11.779,16.496 11.779,15.623 C11.779,14.548 11.616,13.708 11.292,13.103 C10.967,12.498 10.368,12.196 9.496,12.196 C9.212,12.196 8.842,12.252 8.385,12.364 C7.928,12.476 7.518,12.711 7.152,13.069 L5.144,22.275 C5.265,22.298 5.372,22.32 5.463,22.342 C5.554,22.365 5.651,22.382 5.753,22.393 C5.854,22.404 5.976,22.41 6.118,22.41 L6.665,22.41 L6.665,22.41 Z M22.005,26.072 L17.501,26.072 L21.305,8.4 L25.84,8.4 L22.005,26.072 L22.005,26.072 Z M24.196,6.249 C23.567,6.249 22.999,6.042 22.492,5.628 C21.985,5.213 21.731,4.581 21.731,3.729 C21.731,3.259 21.817,2.817 21.99,2.402 C22.162,1.988 22.39,1.63 22.675,1.327 C22.958,1.025 23.288,0.784 23.663,0.605 C24.039,0.426 24.44,0.336 24.866,0.336 C25.495,0.336 26.063,0.543 26.57,0.958 C27.078,1.372 27.331,2.005 27.331,2.856 C27.331,3.326 27.245,3.769 27.072,4.183 C26.9,4.597 26.672,4.956 26.388,5.258 C26.104,5.561 25.774,5.801 25.399,5.98 C25.023,6.16 24.622,6.249 24.196,6.249 L24.196,6.249 Z M30.466,3.998 L35.183,3.192 L34.027,8.4 L39.079,8.4 L38.166,12.498 L33.144,12.498 L31.805,18.68 C31.683,19.195 31.607,19.677 31.577,20.125 C31.546,20.573 31.597,20.959 31.729,21.284 C31.861,21.609 32.089,21.861 32.414,22.04 C32.738,22.219 33.185,22.309 33.753,22.309 C34.24,22.309 34.712,22.258 35.168,22.158 C35.625,22.057 36.086,21.917 36.553,21.738 L36.888,25.568 C36.279,25.814 35.62,26.027 34.909,26.206 C34.199,26.385 33.357,26.475 32.384,26.475 C30.983,26.475 29.898,26.245 29.127,25.786 C28.356,25.327 27.808,24.7 27.483,23.905 C27.159,23.109 27.017,22.197 27.057,21.166 C27.098,20.136 27.24,19.05 27.483,17.908 L30.466,3.998 L30.466,3.998 Z M39.231,19.016 C39.231,17.493 39.454,16.06 39.901,14.716 C40.347,13.372 40.986,12.196 41.818,11.188 C42.65,10.18 43.66,9.385 44.847,8.803 C46.034,8.22 47.358,7.929 48.819,7.929 C49.732,7.929 50.548,8.024 51.269,8.215 C51.989,8.405 52.643,8.657 53.232,8.971 L51.679,12.868 C51.274,12.689 50.853,12.526 50.416,12.381 C49.98,12.235 49.448,12.162 48.819,12.162 C47.297,12.162 46.1,12.728 45.227,13.859 C44.355,14.99 43.918,16.53 43.918,18.479 C43.918,19.621 44.141,20.545 44.588,21.25 C45.034,21.956 45.856,22.309 47.053,22.309 C47.642,22.309 48.21,22.241 48.758,22.107 C49.305,21.973 49.793,21.805 50.219,21.603 L50.553,25.601 C49.985,25.848 49.361,26.066 48.682,26.256 C48.002,26.447 47.175,26.542 46.201,26.542 C44.943,26.542 43.878,26.34 43.005,25.937 C42.133,25.534 41.413,24.991 40.845,24.308 C40.276,23.625 39.866,22.824 39.612,21.905 C39.358,20.987 39.231,20.024 39.231,19.016 L39.231,19.016 Z M59.41,26.542 C58.335,26.542 57.401,26.363 56.61,26.004 C55.819,25.646 55.164,25.142 54.647,24.492 C54.13,23.843 53.739,23.076 53.475,22.191 C53.211,21.306 53.08,20.327 53.08,19.251 C53.08,17.908 53.277,16.564 53.673,15.22 C54.069,13.876 54.652,12.666 55.423,11.591 C56.194,10.516 57.137,9.637 58.253,8.954 C59.37,8.271 60.648,7.929 62.088,7.929 C63.143,7.929 64.072,8.108 64.873,8.467 C65.675,8.825 66.334,9.329 66.851,9.979 C67.369,10.628 67.759,11.395 68.023,12.28 C68.287,13.165 68.419,14.145 68.419,15.22 C68.419,16.564 68.226,17.908 67.841,19.251 C67.455,20.595 66.887,21.805 66.136,22.88 C65.385,23.955 64.447,24.834 63.321,25.517 C62.195,26.2 60.891,26.542 59.41,26.542 L59.41,26.542 Z M61.662,12.162 C60.993,12.162 60.404,12.375 59.897,12.801 C59.39,13.226 58.964,13.764 58.619,14.413 C58.274,15.063 58.015,15.774 57.843,16.547 C57.67,17.319 57.584,18.053 57.584,18.747 C57.584,19.89 57.746,20.769 58.071,21.385 C58.395,22.001 58.984,22.309 59.836,22.309 C60.506,22.309 61.094,22.096 61.601,21.67 C62.109,21.245 62.535,20.707 62.88,20.058 C63.225,19.408 63.483,18.697 63.656,17.924 C63.828,17.152 63.915,16.418 63.915,15.724 C63.915,14.581 63.752,13.702 63.428,13.086 C63.103,12.47 62.514,12.162 61.662,12.162 L61.662,12.162 Z M81.871,12.7 C81.465,12.588 81.065,12.482 80.669,12.381 C80.273,12.28 79.69,12.23 78.919,12.23 C78.635,12.23 78.321,12.258 77.976,12.314 C77.631,12.37 77.347,12.431 77.123,12.498 L74.171,26.072 L69.636,26.072 L73.289,9.34 C74.161,9.027 75.14,8.73 76.226,8.45 C77.311,8.17 78.534,8.03 79.893,8.03 C80.4,8.03 80.963,8.08 81.582,8.181 C82.201,8.282 82.744,8.444 83.21,8.668 L81.871,12.7 L81.871,12.7 Z M82.906,19.151 C82.906,17.717 83.134,16.328 83.591,14.984 C84.048,13.641 84.692,12.448 85.524,11.406 C86.355,10.365 87.365,9.525 88.552,8.887 C89.739,8.248 91.053,7.929 92.493,7.929 C93.204,7.929 93.863,8.041 94.472,8.265 C95.08,8.489 95.613,8.814 96.07,9.239 C96.526,9.665 96.881,10.186 97.135,10.802 C97.388,11.418 97.515,12.118 97.515,12.902 C97.515,14.156 97.262,15.22 96.754,16.093 C96.247,16.967 95.542,17.678 94.639,18.227 C93.736,18.775 92.666,19.173 91.428,19.419 C90.19,19.666 88.841,19.789 87.38,19.789 C87.522,20.73 87.832,21.396 88.309,21.788 C88.785,22.18 89.541,22.376 90.576,22.376 C91.225,22.376 91.885,22.314 92.554,22.191 C93.224,22.068 93.853,21.883 94.441,21.637 L94.776,25.568 C94.208,25.814 93.482,26.038 92.6,26.24 C91.717,26.441 90.758,26.542 89.724,26.542 C88.466,26.542 87.405,26.346 86.543,25.954 C85.681,25.562 84.981,25.03 84.443,24.358 C83.906,23.686 83.515,22.902 83.272,22.006 C83.028,21.11 82.906,20.158 82.906,19.151 L82.906,19.151 Z M91.763,11.894 C90.728,11.894 89.82,12.302 89.039,13.12 C88.258,13.937 87.745,15.018 87.502,16.362 C88.76,16.317 89.774,16.2 90.545,16.009 C91.317,15.819 91.915,15.589 92.341,15.32 C92.767,15.052 93.051,14.761 93.193,14.447 C93.335,14.133 93.406,13.82 93.406,13.506 C93.406,12.431 92.859,11.894 91.763,11.894 L91.763,11.894 Z" id="Imported-Layers" fill="#FFFFFF" sketch:type="MSShapeGroup"></path>
    </g>
</svg>