<?xml version="1.0" encoding="UTF-8" standalone="no"?>
<svg width="187px" height="46px" viewBox="0 0 187 46" version="1.1" xmlns="http://www.w3.org/2000/svg" xmlns:xlink="http://www.w3.org/1999/xlink" xmlns:sketch="http://www.bohemiancoding.com/sketch/ns">
    <!-- Generator: Sketch 3.2.1 (9971) - http://www.bohemiancoding.com/sketch -->
    <title>Imported Layers</title>
    <desc>Created with Sketch.</desc>
    <defs></defs>
    <g id="Page-1" stroke="none" stroke-width="1" fill="none" fill-rule="evenodd" sketch:type="MSPage">
        <g id="Imported-Layers" sketch:type="MSLayerGroup">
            <path d="M161.637,44.919 L169.745,45.331 L180.176,40.467 L180.172,40.459 L180.176,40.467 L186.206,30.516 L186.387,21.241 L184.575,16.221 L182.129,12.578 L171.885,6.095 L160.205,6.46 C160.205,6.46 151.481,12.552 151.393,12.64 C151.305,12.728 147.236,21.015 147.236,21.015 L146.748,26.299 L148.182,31.822 L149.341,35.433 L153.201,40.271 L161.637,44.919 M152.019,17.353 L152.122,17.177 L152.019,17.353" id="Fill-1" fill="#E72100" sketch:type="MSShapeGroup"></path>
            <path d="M170.472,42.584 L177.088,35.086 L162.532,31.292 L161.637,44.919 L169.745,45.331 L170.472,42.584" id="Fill-2" fill="#BD1900" sketch:type="MSShapeGroup"></path>
            <path d="M170.472,42.584 L177.088,35.086 L162.532,31.292 L161.637,44.919 L169.745,45.331 L170.472,42.584" id="Fill-3" fill="#BD1900" sketch:type="MSShapeGroup"></path>
            <path d="M184.322,27.205 L176,22 L177.088,35.086 L184.322,27.205" id="Fill-4" fill="#BD1900" sketch:type="MSShapeGroup"></path>
            <path d="M153.504,33.909 L149.341,35.433 L153.201,40.271 L161.637,44.919 L153.504,33.909" id="Fill-5" fill="#BD1900" sketch:type="MSShapeGroup"></path>
            <path d="M153.357,34.056 L151.946,17.354 L163.796,17.148 L153.357,34.056" id="Fill-6" fill="#BD1900" sketch:type="MSShapeGroup"></path>
            <path d="M146.748,26.299 L147.236,21.015 C147.236,21.015 151.305,12.728 151.393,12.64 C151.481,12.552 160.205,6.46 160.205,6.46 L158.455,8.895 L152.122,17.177 L146.748,26.299" id="Fill-7" fill="#BD1900" sketch:type="MSShapeGroup"></path>
            <path d="M186.206,30.516 L184.322,27.205 L177.088,35.086 L177.172,35.235 L186.206,30.516" id="Fill-8" fill="#D41D00" sketch:type="MSShapeGroup"></path>
            <path d="M177.088,35.086 L170.472,42.584 L169.745,45.331 L180.176,40.467 L177.088,35.086" id="Fill-9" fill="#D41D00" sketch:type="MSShapeGroup"></path>
            <path d="M168.663,9.4 L163.796,17.148 L162.532,31.292 L176,22 L168.663,9.4" id="Fill-10" fill="#D41D00" sketch:type="MSShapeGroup"></path>
            <path d="M184.575,16.221 L176,22 L184.414,27.349 L186.206,30.516 L186.387,21.241 L184.575,16.221" id="Fill-11" fill="#D41D00" sketch:type="MSShapeGroup"></path>
            <path d="M163.796,17.148 L152.019,17.353 L152.122,17.177 L158.455,8.895 L163.796,17.148" id="Fill-12" fill="#D41D00" sketch:type="MSShapeGroup"></path>
            <path d="M168.663,9.4 L171.885,6.095 L182.129,12.578 L168.663,9.4" id="Fill-13" fill="#D41D00" sketch:type="MSShapeGroup"></path>
            <path d="M161.637,44.919 L153.357,34.056 L162.532,31.292 L161.637,44.919" id="Fill-14" fill="#D41D00" sketch:type="MSShapeGroup"></path>
            <path d="M177.172,35.235 L186.206,30.516 L180.176,40.467 L177.172,35.235" id="Fill-15" fill="#E72100" sketch:type="MSShapeGroup"></path>
            <path d="M162.532,31.292 L176,22 L177.172,35.235 L162.532,31.292" id="Fill-16" fill="#E72100" sketch:type="MSShapeGroup"></path>
            <path d="M149.341,35.433 L148.182,31.822 L146.748,26.299 L151.946,17.354 L153.357,34.056 L149.341,35.433" id="Fill-17" fill="#E72100" sketch:type="MSShapeGroup"></path>
            <path d="M182.129,12.578 L168.663,9.4 L176,22 L184.575,16.221 L182.129,12.578" id="Fill-18" fill="#E72100" sketch:type="MSShapeGroup"></path>
            <path d="M160.205,6.46 L158.455,8.895 L163.796,17.148 L168.663,9.4 L171.885,6.095 L160.205,6.46" id="Fill-19" fill="#E72100" sketch:type="MSShapeGroup"></path>
            <path d="M162.532,31.292 L153.357,34.056 L163.796,17.148 L162.532,31.292" id="Fill-20" fill="#E72100" sketch:type="MSShapeGroup"></path>
            <path d="M17.112,12.224 C18.648,12.224 19.976,12.496 21.096,13.04 C22.216,13.585 23.144,14.32 23.88,15.248 C24.616,16.177 25.16,17.264 25.512,18.512 C25.864,19.76 26.04,21.103 26.04,22.544 C26.04,24.752 25.632,26.84 24.816,28.808 C24,30.776 22.888,32.488 21.48,33.944 C20.071,35.4 18.408,36.553 16.488,37.4 C14.568,38.247 12.488,38.672 10.248,38.672 C9.96,38.672 9.456,38.664 8.736,38.648 C8.016,38.632 7.192,38.56 6.264,38.432 C5.336,38.304 4.352,38.111 3.312,37.856 C2.272,37.601 1.288,37.248 0.36,36.8 L8.664,1.904 L16.104,0.752 L13.128,13.136 C13.768,12.848 14.408,12.624 15.048,12.464 C15.688,12.305 16.376,12.224 17.112,12.224 L17.112,12.224 Z M10.872,32.768 C11.992,32.768 13.048,32.496 14.04,31.952 C15.032,31.408 15.888,30.68 16.608,29.768 C17.328,28.856 17.896,27.824 18.312,26.672 C18.728,25.519 18.936,24.32 18.936,23.072 C18.936,21.536 18.68,20.336 18.168,19.472 C17.656,18.608 16.711,18.176 15.336,18.176 C14.888,18.176 14.304,18.256 13.584,18.416 C12.864,18.576 12.216,18.912 11.64,19.424 L8.472,32.576 C8.664,32.608 8.832,32.641 8.976,32.672 C9.12,32.704 9.272,32.728 9.432,32.744 C9.592,32.761 9.784,32.768 10.008,32.768 L10.872,32.768 L10.872,32.768 Z" id="Fill-21" fill="#000000" sketch:type="MSShapeGroup"></path>
            <path d="M32.664,38 L25.56,38 L31.56,12.752 L38.712,12.752 L32.664,38 L32.664,38 Z M36.12,9.68 C35.127,9.68 34.232,9.385 33.432,8.792 C32.631,8.2 32.232,7.297 32.232,6.08 C32.232,5.408 32.368,4.776 32.64,4.184 C32.911,3.592 33.271,3.08 33.72,2.648 C34.168,2.216 34.687,1.872 35.28,1.616 C35.872,1.36 36.504,1.232 37.176,1.232 C38.167,1.232 39.064,1.528 39.864,2.12 C40.663,2.713 41.064,3.616 41.064,4.832 C41.064,5.504 40.927,6.137 40.656,6.728 C40.383,7.32 40.024,7.832 39.576,8.264 C39.128,8.696 38.607,9.04 38.016,9.296 C37.423,9.553 36.791,9.68 36.12,9.68 L36.12,9.68 Z" id="Fill-22" fill="#000000" sketch:type="MSShapeGroup"></path>
            <path d="M43.608,6.464 L51.047,5.311 L49.223,12.752 L57.191,12.752 L55.751,18.608 L47.832,18.608 L45.719,27.44 C45.527,28.177 45.407,28.864 45.36,29.504 C45.312,30.145 45.391,30.696 45.599,31.16 C45.807,31.624 46.167,31.984 46.679,32.24 C47.191,32.496 47.895,32.624 48.791,32.624 C49.559,32.624 50.303,32.552 51.023,32.408 C51.743,32.264 52.471,32.065 53.208,31.808 L53.735,37.28 C52.775,37.633 51.735,37.936 50.615,38.192 C49.495,38.447 48.168,38.576 46.631,38.576 C44.423,38.576 42.711,38.247 41.495,37.592 C40.279,36.936 39.415,36.04 38.903,34.904 C38.391,33.769 38.167,32.464 38.231,30.992 C38.295,29.521 38.52,27.968 38.903,26.336 L43.608,6.464" id="Fill-23" fill="#000000" sketch:type="MSShapeGroup"></path>
            <path d="M55.03,27.92 C55.03,25.744 55.382,23.696 56.086,21.776 C56.79,19.856 57.798,18.176 59.111,16.736 C60.422,15.296 62.015,14.16 63.886,13.328 C65.758,12.496 67.847,12.08 70.151,12.08 C71.59,12.08 72.878,12.217 74.015,12.488 C75.15,12.76 76.182,13.12 77.111,13.568 L74.663,19.136 C74.022,18.88 73.358,18.648 72.671,18.44 C71.982,18.232 71.142,18.128 70.151,18.128 C67.751,18.128 65.862,18.936 64.486,20.552 C63.11,22.168 62.423,24.368 62.423,27.152 C62.423,28.784 62.775,30.103 63.479,31.112 C64.182,32.12 65.478,32.624 67.367,32.624 C68.295,32.624 69.191,32.528 70.055,32.336 C70.919,32.144 71.687,31.904 72.359,31.616 L72.886,37.328 C71.99,37.681 71.006,37.992 69.935,38.264 C68.862,38.535 67.559,38.672 66.023,38.672 C64.038,38.672 62.358,38.384 60.983,37.808 C59.606,37.232 58.47,36.456 57.575,35.48 C56.678,34.504 56.03,33.36 55.631,32.048 C55.23,30.736 55.03,29.36 55.03,27.92" id="Fill-24" fill="#000000" sketch:type="MSShapeGroup"></path>
            <path d="M84.455,38.672 C82.758,38.672 81.287,38.415 80.039,37.904 C78.791,37.393 77.759,36.673 76.943,35.744 C76.127,34.816 75.51,33.721 75.095,32.456 C74.679,31.192 74.471,29.792 74.471,28.256 C74.471,26.336 74.783,24.416 75.407,22.496 C76.031,20.576 76.95,18.848 78.167,17.311 C79.383,15.776 80.871,14.521 82.631,13.544 C84.391,12.568 86.406,12.08 88.679,12.08 C90.342,12.08 91.807,12.337 93.071,12.848 C94.335,13.36 95.375,14.08 96.191,15.008 C97.007,15.936 97.623,17.032 98.039,18.296 C98.455,19.56 98.663,20.96 98.663,22.496 C98.663,24.416 98.359,26.336 97.751,28.256 C97.143,30.176 96.247,31.904 95.063,33.44 C93.878,34.976 92.399,36.232 90.623,37.208 C88.847,38.184 86.791,38.672 84.455,38.672 L84.455,38.672 Z M88.007,18.128 C86.951,18.128 86.023,18.433 85.223,19.04 C84.423,19.648 83.751,20.416 83.207,21.344 C82.663,22.272 82.254,23.288 81.983,24.392 C81.711,25.496 81.575,26.545 81.575,27.536 C81.575,29.168 81.831,30.424 82.343,31.304 C82.855,32.185 83.783,32.624 85.127,32.624 C86.183,32.624 87.111,32.32 87.911,31.712 C88.71,31.104 89.382,30.337 89.927,29.408 C90.471,28.48 90.878,27.464 91.151,26.36 C91.422,25.256 91.559,24.208 91.559,23.216 C91.559,21.584 91.302,20.328 90.791,19.448 C90.279,18.568 89.351,18.128 88.007,18.128 L88.007,18.128 Z" id="Fill-25" fill="#000000" sketch:type="MSShapeGroup"></path>
            <path d="M117.478,18.896 C116.838,18.736 116.206,18.584 115.582,18.44 C114.959,18.296 114.038,18.224 112.822,18.224 C112.374,18.224 111.878,18.265 111.334,18.344 C110.79,18.424 110.342,18.512 109.99,18.608 L105.334,38 L98.182,38 L103.943,14.096 C105.318,13.648 106.862,13.225 108.574,12.824 C110.286,12.424 112.214,12.224 114.359,12.224 C115.158,12.224 116.046,12.296 117.023,12.44 C117.998,12.584 118.854,12.816 119.59,13.136 L117.478,18.896" id="Fill-26" fill="#000000" sketch:type="MSShapeGroup"></path>
            <path d="M116.711,28.112 C116.711,26.065 117.071,24.08 117.791,22.16 C118.511,20.24 119.527,18.536 120.839,17.048 C122.15,15.56 123.743,14.36 125.615,13.448 C127.487,12.536 129.558,12.08 131.831,12.08 C132.95,12.08 133.991,12.24 134.951,12.56 C135.911,12.88 136.751,13.345 137.471,13.952 C138.191,14.56 138.75,15.305 139.151,16.184 C139.55,17.065 139.751,18.065 139.751,19.184 C139.751,20.977 139.35,22.496 138.551,23.744 C137.751,24.992 136.638,26.008 135.215,26.792 C133.791,27.576 132.102,28.144 130.151,28.496 C128.198,28.849 126.071,29.024 123.767,29.024 C123.99,30.368 124.479,31.32 125.231,31.88 C125.982,32.44 127.175,32.72 128.807,32.72 C129.831,32.72 130.871,32.632 131.927,32.456 C132.983,32.28 133.974,32.017 134.903,31.664 L135.431,37.28 C134.534,37.633 133.391,37.952 131.999,38.24 C130.607,38.528 129.095,38.672 127.463,38.672 C125.478,38.672 123.806,38.392 122.447,37.832 C121.086,37.272 119.982,36.512 119.135,35.552 C118.287,34.592 117.671,33.473 117.287,32.192 C116.903,30.912 116.711,29.552 116.711,28.112 L116.711,28.112 Z M130.679,17.744 C129.047,17.744 127.614,18.328 126.383,19.496 C125.15,20.664 124.343,22.208 123.959,24.128 C125.943,24.065 127.542,23.897 128.759,23.624 C129.975,23.352 130.919,23.024 131.591,22.64 C132.263,22.256 132.711,21.841 132.935,21.392 C133.158,20.944 133.271,20.496 133.271,20.048 C133.271,18.512 132.407,17.744 130.679,17.744 L130.679,17.744 Z" id="Fill-27" fill="#000000" sketch:type="MSShapeGroup"></path>
        </g>
    </g>
</svg>