<?xml version="1.0" encoding="UTF-8" standalone="no"?>
<svg width="53px" height="20px" viewBox="0 0 53 20" version="1.1" xmlns="http://www.w3.org/2000/svg" xmlns:xlink="http://www.w3.org/1999/xlink" xmlns:sketch="http://www.bohemiancoding.com/sketch/ns">
    <!-- Generator: Sketch 3.0.3 (7891) - http://www.bohemiancoding.com/sketch -->
    <title>bitpay-white-logo 2</title>
    <desc>Created with Sketch.</desc>
    <defs></defs>
    <g id="Page-1" stroke="none" stroke-width="1" fill="none" fill-rule="evenodd" sketch:type="MSPage">
        <g id="bitpay-white-logo-2" sketch:type="MSLayerGroup" transform="translate(0.000000, 1.000000)" fill="#7D7D7D">
            <g id="Group" sketch:type="MSShapeGroup">
                <path d="M53.0084009,4.23168 L50.2528951,4.23168 L48.6584476,10.7664 L48.4345874,11.66304 C48.2807762,11.70384 48.126965,11.74464 47.9731538,11.77176 C47.6933287,11.826 47.3995431,11.85324 47.0919207,11.85324 C46.7422937,11.85324 46.4624685,11.799 46.2526923,11.70384 C46.0568765,11.6088 45.9030653,11.47284 45.8190559,11.28264 C45.7351702,11.106 45.7072494,10.88868 45.7212098,10.64412 C45.7351702,10.39968 45.7910117,10.12788 45.8610606,9.8562 L46.700289,6.45984 L47.2457319,4.20456 L44.4343846,4.20456 L43.1615198,9.42156 C43.0077086,10.0464 42.9236993,10.64412 42.8959021,11.21484 C42.8678578,11.78544 42.965704,12.27444 43.1615198,12.72276 C43.3573357,13.15752 43.7070862,13.49712 44.1826037,13.75524 C44.6582448,14.01324 45.3435385,14.13564 46.2106876,14.13564 C46.8120956,14.13564 47.3437016,14.08128 47.7912984,13.98624 C47.8051352,13.98624 47.8331795,13.97268 47.8471399,13.97268 L47.8471399,13.97268 C47.7212494,14.51604 47.4694685,14.9508 47.0778368,15.2904 C46.6722448,15.63 46.0847972,15.80664 45.3015338,15.80664 C44.9657436,15.80664 44.6581212,15.79308 44.378296,15.7524 L43.8328531,17.96676 C44.1964406,18.00756 44.6021562,18.03468 45.0497529,18.03468 C45.8889814,18.03468 46.6162797,17.93964 47.2456084,17.76288 C47.8750606,17.57268 48.4065431,17.301 48.8681002,16.9206 C49.315697,16.5402 49.6933683,16.06464 50.0011142,15.50772 C50.3087366,14.93712 50.5465571,14.27136 50.7284126,13.48344 L52.6306061,5.71248 L53.0084009,4.23168 L53.0084009,4.23168 Z" id="y_2_"></path>
                <path d="M41.4692261,9.8154 C41.301331,10.4946 41.245366,11.1876 41.3152914,11.8668 C41.3852168,12.55968 41.665042,13.60572 41.9306597,14.13564 L39.2731235,14.13564 C38.9514172,13.60572 38.9655012,13.34772 38.8954522,13.18464 C38.5458252,13.45632 38.1681538,13.6872 37.7486014,13.86384 C37.329049,14.04048 36.8673683,14.13564 36.3358858,14.13564 C35.7205175,14.13564 35.1889114,14.02692 34.7553986,13.82316 C34.3217622,13.6194 33.9580513,13.33416 33.6783497,12.98088 C33.3985245,12.6276 33.2027086,12.21996 33.0769417,11.74452 C32.9509277,11.26896 32.8950862,10.7664 32.8950862,10.22292 C32.8950862,9.3942 33.0488974,8.61984 33.342683,7.88604 C33.6503054,7.15248 34.0699814,6.51384 34.6013403,5.97048 C35.1329464,5.42712 36.4336084,4.218 38.559662,4.218 L42.8256061,4.218 L41.4692261,9.8154 L41.4692261,9.8154 Z M39.525028,6.48684 C38.2382028,6.48684 38.0005058,6.48684 37.4688998,6.74496 C37.0912284,6.93516 36.7836061,7.22052 36.5178648,7.54656 C36.2521235,7.8726 36.0282634,8.25312 35.8744522,8.68776 C35.720641,9.12252 35.6366317,9.57084 35.6366317,10.03272 C35.6366317,10.60344 35.7346014,11.0652 35.9304172,11.40504 C36.1262331,11.74464 36.4898205,11.9076 37.021303,11.9076 C37.3011282,11.9076 37.5668695,11.85324 37.7907296,11.74464 C38.0145897,11.63592 38.2662471,11.45928 38.518028,11.20128 C38.5460723,10.90236 38.5879534,10.58988 38.6439184,10.26384 C38.6998834,9.9378 38.7699324,9.62544 38.8258974,9.35364 L39.525028,6.48684 L39.525028,6.48684 Z" id="a_2_"></path>
                <path d="M32.1399907,8.15784 C32.1399907,9.04092 31.9861795,9.8424 31.6925175,10.57608 C31.3987319,11.30964 30.9791795,11.9346 30.447697,12.4644 C29.9160909,12.99432 29.2867622,13.40184 28.5455035,13.70076 C27.8042448,13.99956 27.007021,14.14908 26.1397483,14.14908 C25.7201958,14.14908 25.3005198,14.10828 24.8668834,14.04036 L24.027655,17.31456 L21.2722727,17.31456 L24.4752517,4.24512 L28.1537483,4.24512 C28.8531259,4.24512 29.4545338,4.35372 29.9440117,4.5576 C30.4475734,4.76136 30.8531655,5.04672 31.1888322,5.4 C31.5105385,5.75316 31.7482354,6.17436 31.9021702,6.64992 C32.0700653,7.1118 32.1399907,7.61448 32.1399907,8.15784 L32.1399907,8.15784 Z M25.3844056,11.8668 C25.5941818,11.92116 25.8599231,11.93472 26.167669,11.93472 C26.6572704,11.93472 27.0907832,11.85312 27.4963753,11.6766 C27.888007,11.49996 28.2377576,11.2554 28.5174592,10.94304 C28.7972844,10.63056 29.0070606,10.25016 29.1748322,9.81552 C29.3286434,9.38076 29.4126527,8.89164 29.4126527,8.36184 C29.4126527,7.8456 29.3007226,7.39728 29.0630256,7.04412 C28.8252051,6.67728 28.4196131,6.48696 27.8321655,6.48696 L26.7411562,6.48696 L25.3844056,11.8668 L25.3844056,11.8668 Z" id="p_2_"></path>
                <path d="M19.5938159,11.8668 C19.2441888,11.8668 18.9643636,11.81256 18.7545874,11.7174 C18.5587716,11.62224 18.4049604,11.4864 18.320951,11.2962 C18.2370653,11.11956 18.2091445,10.90224 18.2231049,10.65768 C18.2370653,10.41324 18.2930303,10.14144 18.3629557,9.86976 L19.2021841,6.47328 L22.3352378,6.47328 L22.9087249,4.21812 L19.7615874,4.21812 L20.4890093,1.36512 L17.5517716,1.81344 L15.6914592,9.44856 C15.537648,10.07352 15.4537622,10.67124 15.4258415,11.24184 C15.3977972,11.81256 15.4956434,12.30156 15.6914592,12.74988 C15.8872751,13.18464 16.2370256,13.52424 16.7125431,13.78236 C17.1881841,14.04036 17.8734779,14.16276 18.740627,14.16276 C19.342035,14.16276 19.873641,14.1084 20.3212378,14.01324 C20.3631189,13.99968 20.4330443,13.98612 20.475049,13.97256 L21.0485361,11.64936 C20.8527203,11.71728 20.6569044,11.75808 20.475049,11.78532 C20.1952238,11.83956 19.9015618,11.8668 19.5938159,11.8668 L19.5938159,11.8668 Z" id="t_2_"></path>
                <path d="M12.5864499,4.23168 L10.1527739,14.1492 L12.9081562,14.1492 L15.3278718,4.23168 L12.5864499,4.23168 Z" id="i_bottom_6_"></path>
                <path d="M15.6216573,3.09036 L16.0412098,1.365 L13.285704,1.365 L12.8661515,3.09036 L15.6216573,3.09036 Z" id="i_top_2_"></path>
                <path d="M6.48823776,4.24524 C7.07568531,4.24524 7.59308392,4.35384 8.02672028,4.55772 C8.46035664,4.7616 8.80998368,5.03328 9.10376923,5.38644 C9.38347086,5.7396 9.59324709,6.14724 9.73322145,6.60912 C9.87307226,7.071 9.94299767,7.57368 9.94299767,8.11704 C9.94299767,8.94576 9.78906294,9.72012 9.46735664,10.46736 C9.14565035,11.20104 8.7260979,11.85312 8.18053147,12.3966 C7.63508858,12.93996 6.99167599,13.37472 6.25041725,13.6872 C5.50903497,13.99968 4.71181119,14.16276 3.844662,14.16276 C3.73273193,14.16276 3.53691608,14.16276 3.25709091,14.1492 C2.97738928,14.1492 2.65568298,14.12196 2.30605594,14.0676 C1.94246853,14.01324 1.5647972,13.94532 1.1731655,13.85016 C0.767573427,13.75512 0.389902098,13.61916 0.0401515152,13.4562 L3.24325408,0.38676 L6.11044289,-0.048 L4.97755245,4.58472 C5.22933333,4.476 5.45319347,4.39452 5.70485082,4.34016 C5.94267133,4.27236 6.20841259,4.24524 6.48823776,4.24524 L6.48823776,4.24524 Z M4.08235897,11.93472 C4.51599534,11.93472 4.92158741,11.83956 5.29925874,11.62224 C5.67705361,11.4186 6.01259674,11.1468 6.29242191,10.8072 C6.57212354,10.46748 6.79586014,10.07352 6.94967133,9.65232 C7.10360606,9.21768 7.18749184,8.76936 7.18749184,8.30736 C7.18749184,7.73676 7.08964569,7.28844 6.89382984,6.9624 C6.69801399,6.63636 6.29242191,6.48684 5.76081585,6.48684 C5.59304429,6.48684 5.41118881,6.5004 5.13136364,6.56844 C4.851662,6.6228 4.61396503,6.75864 4.3901049,6.94884 L3.18728904,11.88048 C3.55087646,11.93484 3.66280653,11.9484 3.76077622,11.9484 C3.83070163,11.93472 3.94250816,11.93472 4.08235897,11.93472 L4.08235897,11.93472 Z" id="b_2_"></path>
            </g>
        </g>
    </g>
</svg>