<?xml version="1.0" encoding="UTF-8" standalone="no"?>
<svg width="122px" height="64px" viewBox="0 0 122 64" version="1.1" xmlns="http://www.w3.org/2000/svg" xmlns:xlink="http://www.w3.org/1999/xlink" xmlns:sketch="http://www.bohemiancoding.com/sketch/ns">
    <!-- Generator: Sketch 3.1.1 (8761) - http://www.bohemiancoding.com/sketch -->
    <title>Artboard 4</title>
    <desc>Created with Sketch.</desc>
    <defs></defs>
    <g id="Page-1" stroke="none" stroke-width="1" fill="none" fill-rule="evenodd" sketch:type="MSPage">
        <g id="Artboard-4" sketch:type="MSArtboardGroup">
            <g id="Imported-Layers" sketch:type="MSLayerGroup" fill="#6B6B6A">
                <path d="M80.81,17.213 L80.81,3.87 L82.47,3.87 L82.47,15.732 L88.671,15.732 L88.671,17.213 L80.81,17.213" id="Fill-1" sketch:type="MSShapeGroup"></path>
                <path d="M97.511,17.213 L97.511,16.112 C96.71,16.993 95.61,17.453 94.31,17.453 C92.669,17.453 90.929,16.352 90.929,14.252 C90.929,12.092 92.669,11.071 94.31,11.071 C95.63,11.071 96.73,11.491 97.511,12.392 L97.511,10.651 C97.511,9.352 96.47,8.611 95.07,8.611 C93.909,8.611 92.97,9.031 92.109,9.951 L91.409,8.911 C92.449,7.831 93.689,7.31 95.269,7.31 C97.311,7.31 99.011,8.231 99.011,10.571 L99.011,17.213 L97.511,17.213 L97.511,17.213 Z M97.511,15.173 L97.511,13.352 C96.931,12.552 95.91,12.151 94.85,12.151 C93.449,12.151 92.47,13.032 92.47,14.273 C92.47,15.492 93.449,16.373 94.85,16.373 C95.91,16.373 96.931,15.973 97.511,15.173 L97.511,15.173 Z" id="Fill-2" sketch:type="MSShapeGroup"></path>
                <path d="M102.528,17.213 L102.528,3.87 L104.029,3.87 L104.029,9.011 C104.81,7.951 105.97,7.31 107.29,7.31 C109.811,7.31 111.591,9.311 111.591,12.392 C111.591,15.532 109.811,17.453 107.29,17.453 C105.93,17.453 104.749,16.753 104.029,15.773 L104.029,17.213 L102.528,17.213 L102.528,17.213 Z M106.909,16.112 C108.87,16.112 110.03,14.532 110.03,12.392 C110.03,10.251 108.87,8.651 106.909,8.651 C105.729,8.651 104.549,9.371 104.029,10.211 L104.029,14.593 C104.549,15.433 105.729,16.112 106.909,16.112 L106.909,16.112 Z" id="Fill-3" sketch:type="MSShapeGroup"></path>
                <path d="M113.709,15.933 L114.489,14.852 C115.129,15.593 116.35,16.232 117.67,16.232 C119.15,16.232 119.95,15.532 119.95,14.572 C119.95,12.231 113.969,13.672 113.969,10.092 C113.969,8.591 115.27,7.31 117.569,7.31 C119.21,7.31 120.37,7.931 121.15,8.711 L120.45,9.751 C119.87,9.051 118.809,8.531 117.569,8.531 C116.249,8.531 115.43,9.191 115.43,10.052 C115.43,12.172 121.41,10.772 121.41,14.532 C121.41,16.152 120.11,17.453 117.609,17.453 C116.029,17.453 114.689,16.973 113.709,15.933" id="Fill-4" sketch:type="MSShapeGroup"></path>
                <path d="M59,5.43 L55.946,5.43 L54.169,12.904 L54.172,12.904 L53.928,13.933 C53.758,13.98 53.588,14.023 53.42,14.057 C53.103,14.12 52.777,14.152 52.439,14.152 C52.046,14.152 51.736,14.096 51.512,13.983 C51.287,13.871 51.129,13.713 51.037,13.509 C50.946,13.305 50.911,13.063 50.932,12.782 C50.953,12.501 51.006,12.199 51.09,11.875 L52.018,7.996 L52.629,5.424 L52.629,5.423 L49.509,5.423 L48.096,11.39 C47.928,12.107 47.829,12.789 47.801,13.435 C47.773,14.082 47.871,14.655 48.096,15.153 C48.321,15.653 48.7,16.046 49.235,16.334 C49.769,16.622 50.521,16.766 51.491,16.766 C52.165,16.766 52.748,16.71 53.24,16.598 C53.26,16.593 53.28,16.588 53.299,16.583 L53.298,16.589 C53.161,17.205 52.884,17.704 52.439,18.094 C51.995,18.484 51.335,18.679 50.459,18.679 C50.086,18.679 49.746,18.656 49.438,18.614 L48.837,21.143 C49.244,21.196 49.695,21.223 50.192,21.223 C51.123,21.223 51.937,21.117 52.634,20.905 C53.332,20.693 53.93,20.371 54.43,19.94 C54.929,19.51 55.346,18.969 55.682,18.32 C56.016,17.67 56.287,16.9 56.492,16.011 L58.606,7.126 C58.603,7.125 58.6,7.124 58.598,7.123 L59,5.43" id="Fill-5" sketch:type="MSShapeGroup"></path>
                <path d="M46.187,11.814 C45.995,12.595 45.94,13.379 46.023,14.167 C46.105,14.955 46.406,16.162 46.7,16.766 L43.744,16.766 C43.383,16.155 43.399,15.869 43.331,15.677 C42.947,15.993 42.522,16.253 42.057,16.458 C41.591,16.663 41.07,16.766 40.495,16.766 C39.81,16.766 39.225,16.646 38.739,16.407 C38.252,16.167 37.855,15.845 37.547,15.441 C37.238,15.037 37.016,14.565 36.879,14.023 C36.742,13.482 36.673,12.903 36.673,12.287 C36.673,11.342 36.841,10.451 37.177,9.616 C37.512,8.78 37.978,8.051 38.574,7.427 C39.17,6.804 40.608,5.43 42.968,5.43 L47.707,5.43 L46.187,11.814 L46.187,11.814 Z M44.018,7.998 C42.594,7.998 42.322,7.998 41.738,8.301 C41.324,8.516 40.981,8.839 40.68,9.215 C40.379,9.592 40.142,10.027 39.971,10.52 C39.8,11.013 39.714,11.527 39.714,12.061 C39.714,12.718 39.824,13.239 40.043,13.623 C40.262,14.006 40.667,14.198 41.256,14.198 C41.571,14.198 41.855,14.136 42.108,14.013 C42.362,13.89 42.632,13.684 42.92,13.397 C42.947,13.054 42.992,12.695 43.053,12.318 C43.115,11.941 43.193,11.592 43.262,11.277 L44.018,7.998 L44.018,7.998 Z" id="Fill-6" sketch:type="MSShapeGroup"></path>
                <path d="M35.824,9.919 C35.824,10.925 35.658,11.846 35.327,12.68 C34.997,13.515 34.538,14.235 33.952,14.842 C33.366,15.449 32.662,15.921 31.842,16.259 C31.021,16.596 30.129,16.766 29.163,16.766 C28.694,16.766 28.225,16.724 27.757,16.641 L26.826,20.385 L23.764,20.385 L27.318,5.43 L31.397,5.43 C32.169,5.43 32.835,5.547 33.394,5.782 C33.952,6.016 34.41,6.337 34.769,6.743 C35.127,7.15 35.393,7.626 35.565,8.171 C35.738,8.716 35.824,9.298 35.824,9.919 L35.824,9.919 Z M28.315,14.159 C28.55,14.214 28.839,14.242 29.184,14.242 C29.722,14.242 30.211,14.142 30.653,13.942 C31.094,13.742 31.47,13.463 31.78,13.104 C32.09,12.746 32.331,12.315 32.504,11.811 C32.676,11.308 32.763,10.753 32.763,10.146 C32.763,9.553 32.631,9.05 32.37,8.636 C32.107,8.222 31.648,8.003 31,8 C30.547,7.998 29.794,7.998 29.794,7.998 L28.315,14.159 L28.315,14.159 Z" id="Fill-7" sketch:type="MSShapeGroup"></path>
                <path d="M21.886,14.154 C21.492,14.154 21.183,14.098 20.958,13.986 C20.733,13.873 20.575,13.715 20.484,13.511 C20.392,13.308 20.357,13.065 20.378,12.784 C20.399,12.503 20.452,12.201 20.536,11.877 L21.464,7.998 L24.943,7.998 L25.575,5.426 L22.075,5.426 L22.876,2.158 L19.609,2.664 L17.543,11.392 C17.374,12.109 17.275,12.791 17.248,13.437 C17.219,14.084 17.318,14.657 17.543,15.156 C17.767,15.655 18.147,16.048 18.681,16.336 C19.215,16.624 19.967,16.769 20.937,16.769 C21.611,16.769 22.195,16.712 22.687,16.6 C22.738,16.588 22.815,16.57 22.865,16.558 L23.501,13.897 C23.287,13.969 23.073,14.018 22.866,14.059 C22.55,14.123 22.223,14.154 21.886,14.154" id="Fill-8" sketch:type="MSShapeGroup"></path>
                <path d="M14.095,5.423 L11.398,16.769 L14.453,16.769 L17.149,5.423 L14.095,5.423" id="Fill-9" sketch:type="MSShapeGroup"></path>
                <path d="M17.466,4.111 L17.934,2.141 L14.88,2.141 L14.411,4.111 L17.466,4.111" id="Fill-10" sketch:type="MSShapeGroup"></path>
                <path d="M7.325,5.431 C7.983,5.431 8.552,5.548 9.032,5.781 C9.512,6.015 9.909,6.33 10.225,6.728 C10.541,7.125 10.774,7.592 10.925,8.126 C11.075,8.661 11.151,9.237 11.151,9.854 C11.151,10.801 10.976,11.695 10.626,12.539 C10.277,13.382 9.8,14.116 9.197,14.74 C8.593,15.364 7.88,15.858 7.057,16.221 C6.234,16.584 5.343,16.766 4.383,16.766 C4.26,16.766 4.043,16.763 3.735,16.756 C3.426,16.749 3.073,16.718 2.676,16.663 C2.277,16.608 1.856,16.526 1.41,16.417 C0.964,16.307 0.543,16.156 0.145,15.964 L3.704,1.009 L6.893,0.515 L5.633,5.815 C5.907,5.692 6.165,5.603 6.44,5.534 C6.714,5.466 7.009,5.431 7.325,5.431 L7.325,5.431 Z M4.65,14.236 C5.13,14.236 5.583,14.12 6.008,13.886 C6.433,13.653 6.8,13.341 7.109,12.95 C7.417,12.559 7.661,12.117 7.839,11.623 C8.017,11.13 8.106,10.616 8.106,10.081 C8.106,9.422 7.996,8.908 7.777,8.538 C7.558,8.167 7.102,7.998 6.512,7.998 C6.32,7.998 6.121,8.017 5.813,8.085 C5.504,8.154 5.238,8.296 4.991,8.516 L3.65,14.159 C4.047,14.228 4.184,14.236 4.28,14.236 L4.65,14.236 L4.65,14.236 Z" id="Fill-11" sketch:type="MSShapeGroup"></path>
                <path d="M68.301,-0.208 L69.301,-0.208 L69.301,21.94 L68.301,21.94 L68.301,-0.208 Z" id="Fill-12" sketch:type="MSShapeGroup"></path>
            </g>
            <g id="Imported-Layers" sketch:type="MSLayerGroup" transform="translate(0.000000, 41.000000)">
                <path d="M80.81,17.213 L80.81,3.87 L82.47,3.87 L82.47,15.732 L88.671,15.732 L88.671,17.213 L80.81,17.213" id="Fill-1" fill="#A39F9A" sketch:type="MSShapeGroup"></path>
                <path d="M97.511,17.213 L97.511,16.112 C96.71,16.993 95.61,17.453 94.31,17.453 C92.669,17.453 90.929,16.352 90.929,14.252 C90.929,12.092 92.669,11.071 94.31,11.071 C95.63,11.071 96.73,11.491 97.511,12.392 L97.511,10.651 C97.511,9.352 96.47,8.611 95.07,8.611 C93.909,8.611 92.97,9.031 92.109,9.951 L91.409,8.911 C92.449,7.831 93.689,7.31 95.269,7.31 C97.311,7.31 99.011,8.231 99.011,10.571 L99.011,17.213 L97.511,17.213 L97.511,17.213 Z M97.511,15.173 L97.511,13.352 C96.931,12.552 95.91,12.151 94.85,12.151 C93.449,12.151 92.47,13.032 92.47,14.273 C92.47,15.492 93.449,16.373 94.85,16.373 C95.91,16.373 96.931,15.973 97.511,15.173 L97.511,15.173 Z" id="Fill-2" fill="#A39F9A" sketch:type="MSShapeGroup"></path>
                <path d="M102.528,17.213 L102.528,3.87 L104.029,3.87 L104.029,9.011 C104.81,7.951 105.97,7.31 107.29,7.31 C109.811,7.31 111.591,9.311 111.591,12.392 C111.591,15.532 109.811,17.453 107.29,17.453 C105.93,17.453 104.749,16.753 104.029,15.773 L104.029,17.213 L102.528,17.213 L102.528,17.213 Z M106.909,16.112 C108.87,16.112 110.03,14.532 110.03,12.392 C110.03,10.251 108.87,8.651 106.909,8.651 C105.729,8.651 104.549,9.371 104.029,10.211 L104.029,14.593 C104.549,15.433 105.729,16.112 106.909,16.112 L106.909,16.112 Z" id="Fill-3" fill="#A39F9A" sketch:type="MSShapeGroup"></path>
                <path d="M113.709,15.933 L114.489,14.852 C115.129,15.593 116.35,16.232 117.67,16.232 C119.15,16.232 119.95,15.532 119.95,14.572 C119.95,12.231 113.969,13.672 113.969,10.092 C113.969,8.591 115.27,7.31 117.569,7.31 C119.21,7.31 120.37,7.931 121.15,8.711 L120.45,9.751 C119.87,9.051 118.809,8.531 117.569,8.531 C116.249,8.531 115.43,9.191 115.43,10.052 C115.43,12.172 121.41,10.772 121.41,14.532 C121.41,16.152 120.11,17.453 117.609,17.453 C116.029,17.453 114.689,16.973 113.709,15.933" id="Fill-4" fill="#A39F9A" sketch:type="MSShapeGroup"></path>
                <path d="M59,5.43 L55.946,5.43 L54.169,12.904 L54.172,12.904 L53.928,13.933 C53.758,13.98 53.588,14.023 53.42,14.057 C53.103,14.12 52.777,14.152 52.439,14.152 C52.046,14.152 51.736,14.096 51.512,13.983 C51.287,13.871 51.129,13.713 51.037,13.509 C50.946,13.305 50.911,13.063 50.932,12.782 C50.953,12.501 51.006,12.199 51.09,11.875 L52.018,7.996 L52.629,5.424 L52.629,5.423 L49.509,5.423 L48.096,11.39 C47.928,12.107 47.829,12.789 47.801,13.435 C47.773,14.082 47.871,14.655 48.096,15.153 C48.321,15.653 48.7,16.046 49.235,16.334 C49.769,16.622 50.521,16.766 51.491,16.766 C52.165,16.766 52.748,16.71 53.24,16.598 C53.26,16.593 53.28,16.588 53.299,16.583 L53.298,16.589 C53.161,17.205 52.884,17.704 52.439,18.094 C51.995,18.484 51.335,18.679 50.459,18.679 C50.086,18.679 49.746,18.656 49.438,18.614 L48.837,21.143 C49.244,21.196 49.695,21.223 50.192,21.223 C51.123,21.223 51.937,21.117 52.634,20.905 C53.332,20.693 53.93,20.371 54.43,19.94 C54.929,19.51 55.346,18.969 55.682,18.32 C56.016,17.67 56.287,16.9 56.492,16.011 L58.606,7.126 C58.603,7.125 58.6,7.124 58.598,7.123 L59,5.43" id="Fill-5" fill="#A39F9A" sketch:type="MSShapeGroup"></path>
                <path d="M46.187,11.814 C45.995,12.595 45.94,13.379 46.023,14.167 C46.105,14.955 46.406,16.162 46.7,16.766 L43.744,16.766 C43.383,16.155 43.399,15.869 43.331,15.677 C42.947,15.993 42.522,16.253 42.057,16.458 C41.591,16.663 41.07,16.766 40.495,16.766 C39.81,16.766 39.225,16.646 38.739,16.407 C38.252,16.167 37.855,15.845 37.547,15.441 C37.238,15.037 37.016,14.565 36.879,14.023 C36.742,13.482 36.673,12.903 36.673,12.287 C36.673,11.342 36.841,10.451 37.177,9.616 C37.512,8.78 37.978,8.051 38.574,7.427 C39.17,6.804 40.608,5.43 42.968,5.43 L47.707,5.43 L46.187,11.814 L46.187,11.814 Z M44.018,7.998 C42.594,7.998 42.322,7.998 41.738,8.301 C41.324,8.516 40.981,8.839 40.68,9.215 C40.379,9.592 40.142,10.027 39.971,10.52 C39.8,11.013 39.714,11.527 39.714,12.061 C39.714,12.718 39.824,13.239 40.043,13.623 C40.262,14.006 40.667,14.198 41.256,14.198 C41.571,14.198 41.855,14.136 42.108,14.013 C42.362,13.89 42.632,13.684 42.92,13.397 C42.947,13.054 42.992,12.695 43.053,12.318 C43.115,11.941 43.193,11.592 43.262,11.277 L44.018,7.998 L44.018,7.998 Z" id="Fill-6" fill="#A39F9A" sketch:type="MSShapeGroup"></path>
                <path d="M35.824,9.919 C35.824,10.925 35.658,11.846 35.327,12.68 C34.997,13.515 34.538,14.235 33.952,14.842 C33.366,15.449 32.662,15.921 31.842,16.259 C31.021,16.596 30.129,16.766 29.163,16.766 C28.694,16.766 28.225,16.724 27.757,16.641 L26.826,20.385 L23.764,20.385 L27.318,5.43 L31.397,5.43 C32.169,5.43 32.835,5.547 33.394,5.782 C33.952,6.016 34.41,6.337 34.769,6.743 C35.127,7.15 35.393,7.626 35.565,8.171 C35.738,8.716 35.824,9.298 35.824,9.919 L35.824,9.919 Z M28.315,14.159 C28.55,14.214 28.839,14.242 29.184,14.242 C29.722,14.242 30.211,14.142 30.653,13.942 C31.094,13.742 31.47,13.463 31.78,13.104 C32.09,12.746 32.331,12.315 32.504,11.811 C32.676,11.308 32.763,10.753 32.763,10.146 C32.763,9.553 32.631,9.05 32.37,8.636 C32.107,8.222 31.648,8.003 31,8 C30.547,7.998 29.794,7.998 29.794,7.998 L28.315,14.159 L28.315,14.159 Z" id="Fill-7" fill="#A39F9A" sketch:type="MSShapeGroup"></path>
                <path d="M21.886,14.154 C21.492,14.154 21.183,14.098 20.958,13.986 C20.733,13.873 20.575,13.715 20.484,13.511 C20.392,13.308 20.357,13.065 20.378,12.784 C20.399,12.503 20.452,12.201 20.536,11.877 L21.464,7.998 L24.943,7.998 L25.575,5.426 L22.075,5.426 L22.876,2.158 L19.609,2.664 L17.543,11.392 C17.374,12.109 17.275,12.791 17.248,13.437 C17.219,14.084 17.318,14.657 17.543,15.156 C17.767,15.655 18.147,16.048 18.681,16.336 C19.215,16.624 19.967,16.769 20.937,16.769 C21.611,16.769 22.195,16.712 22.687,16.6 C22.738,16.588 22.815,16.57 22.865,16.558 L23.501,13.897 C23.287,13.969 23.073,14.018 22.866,14.059 C22.55,14.123 22.223,14.154 21.886,14.154" id="Fill-8" fill="#A39F9A" sketch:type="MSShapeGroup"></path>
                <path d="M14.095,5.423 L11.398,16.769 L14.453,16.769 L17.149,5.423 L14.095,5.423" id="Fill-9" fill="#A39F9A" sketch:type="MSShapeGroup"></path>
                <path d="M17.466,4.111 L17.934,2.141 L14.88,2.141 L14.411,4.111 L17.466,4.111" id="Fill-10" fill="#AFABA7" sketch:type="MSShapeGroup"></path>
                <path d="M7.325,5.431 C7.983,5.431 8.552,5.548 9.032,5.781 C9.512,6.015 9.909,6.33 10.225,6.728 C10.541,7.125 10.774,7.592 10.925,8.126 C11.075,8.661 11.151,9.237 11.151,9.854 C11.151,10.801 10.976,11.695 10.626,12.539 C10.277,13.382 9.8,14.116 9.197,14.74 C8.593,15.364 7.88,15.858 7.057,16.221 C6.234,16.584 5.343,16.766 4.383,16.766 C4.26,16.766 4.043,16.763 3.735,16.756 C3.426,16.749 3.073,16.718 2.676,16.663 C2.277,16.608 1.856,16.526 1.41,16.417 C0.964,16.307 0.543,16.156 0.145,15.964 L3.704,1.009 L6.893,0.515 L5.633,5.815 C5.907,5.692 6.165,5.603 6.44,5.534 C6.714,5.466 7.009,5.431 7.325,5.431 L7.325,5.431 Z M4.65,14.236 C5.13,14.236 5.583,14.12 6.008,13.886 C6.433,13.653 6.8,13.341 7.109,12.95 C7.417,12.559 7.661,12.117 7.839,11.623 C8.017,11.13 8.106,10.616 8.106,10.081 C8.106,9.422 7.996,8.908 7.777,8.538 C7.558,8.167 7.102,7.998 6.512,7.998 C6.32,7.998 6.121,8.017 5.813,8.085 C5.504,8.154 5.238,8.296 4.991,8.516 L3.65,14.159 C4.047,14.228 4.184,14.236 4.28,14.236 L4.65,14.236 L4.65,14.236 Z" id="Fill-11" fill="#A39F9A" sketch:type="MSShapeGroup"></path>
                <path d="M68.301,-0.208 L69.301,-0.208 L69.301,21.94 L68.301,21.94 L68.301,-0.208 Z" id="Fill-12" fill="#A39F9A" sketch:type="MSShapeGroup"></path>
            </g>
        </g>
    </g>
</svg>