<?xml version="1.0" encoding="UTF-8" standalone="no"?>
<svg width="86px" height="17px" viewBox="0 0 86 17" version="1.1" xmlns="http://www.w3.org/2000/svg" xmlns:xlink="http://www.w3.org/1999/xlink" xmlns:sketch="http://www.bohemiancoding.com/sketch/ns">
    <!-- Generator: Sketch 3.1.1 (8761) - http://www.bohemiancoding.com/sketch -->
    <title>Artboard 7</title>
    <desc>Created with Sketch.</desc>
    <defs></defs>
    <g id="Page-1" stroke="none" stroke-width="1" fill="none" fill-rule="evenodd" sketch:type="MSPage">
        <g id="Artboard-7" sketch:type="MSArtboardGroup">
            <g id="Imported-Layers" sketch:type="MSLayerGroup">
                <path d="M56.676,11.948 L56.676,2.501 L57.852,2.501 L57.852,10.9 L62.242,10.9 L62.242,11.948 L56.676,11.948" id="Fill-1" fill="#FFFFFF" sketch:type="MSShapeGroup"></path>
                <path d="M68.5,11.948 L68.5,11.169 C67.933,11.793 67.154,12.118 66.234,12.118 C65.073,12.118 63.84,11.339 63.84,9.852 C63.84,8.322 65.073,7.6 66.234,7.6 C67.169,7.6 67.948,7.897 68.5,8.534 L68.5,7.302 C68.5,6.382 67.764,5.858 66.772,5.858 C65.951,5.858 65.285,6.155 64.676,6.806 L64.18,6.07 C64.917,5.305 65.795,4.937 66.914,4.937 C68.359,4.937 69.562,5.589 69.562,7.246 L69.562,11.948 L68.5,11.948 L68.5,11.948 Z M68.5,10.504 L68.5,9.215 C68.089,8.648 67.367,8.364 66.616,8.364 C65.625,8.364 64.931,8.988 64.931,9.866 C64.931,10.73 65.625,11.354 66.616,11.354 C67.367,11.354 68.089,11.07 68.5,10.504 L68.5,10.504 Z" id="Fill-2" fill="#FFFFFF" sketch:type="MSShapeGroup"></path>
                <path d="M72.052,11.948 L72.052,2.501 L73.114,2.501 L73.114,6.141 C73.667,5.39 74.488,4.937 75.423,4.937 C77.208,4.937 78.468,6.354 78.468,8.534 C78.468,10.758 77.208,12.118 75.423,12.118 C74.46,12.118 73.624,11.622 73.114,10.928 L73.114,11.948 L72.052,11.948 L72.052,11.948 Z M75.154,11.169 C76.542,11.169 77.364,10.05 77.364,8.534 C77.364,7.019 76.542,5.886 75.154,5.886 C74.318,5.886 73.482,6.396 73.114,6.99 L73.114,10.093 C73.482,10.687 74.318,11.169 75.154,11.169 L75.154,11.169 Z" id="Fill-3" fill="#FFFFFF" sketch:type="MSShapeGroup"></path>
                <path d="M79.967,11.042 L80.519,10.277 C80.972,10.801 81.836,11.254 82.771,11.254 C83.819,11.254 84.386,10.758 84.386,10.078 C84.386,8.421 80.151,9.441 80.151,6.906 C80.151,5.843 81.072,4.937 82.7,4.937 C83.861,4.937 84.683,5.376 85.235,5.928 L84.74,6.665 C84.329,6.169 83.578,5.801 82.7,5.801 C81.765,5.801 81.184,6.269 81.184,6.878 C81.184,8.379 85.42,7.387 85.42,10.05 C85.42,11.197 84.499,12.118 82.728,12.118 C81.609,12.118 80.66,11.778 79.967,11.042" id="Fill-4" fill="#FFFFFF" sketch:type="MSShapeGroup"></path>
                <path d="M41.236,3.607 L39.074,3.607 L37.816,8.898 L37.819,8.898 L37.646,9.626 C37.525,9.66 37.405,9.691 37.286,9.714 C37.062,9.759 36.831,9.782 36.592,9.782 C36.313,9.782 36.094,9.742 35.935,9.662 C35.776,9.583 35.664,9.471 35.599,9.326 C35.534,9.182 35.51,9.01 35.525,8.811 C35.54,8.613 35.577,8.399 35.637,8.17 L36.293,5.423 L36.726,3.602 L34.517,3.602 L33.517,7.826 C33.398,8.334 33.328,8.817 33.308,9.274 C33.288,9.732 33.358,10.137 33.517,10.491 C33.676,10.844 33.945,11.122 34.323,11.326 C34.701,11.53 35.234,11.632 35.92,11.632 C36.398,11.632 36.811,11.592 37.159,11.513 C37.173,11.51 37.186,11.506 37.2,11.503 L37.199,11.507 C37.103,11.943 36.907,12.296 36.592,12.572 C36.277,12.848 35.81,12.986 35.19,12.986 C34.926,12.986 34.685,12.97 34.467,12.94 L34.042,14.731 C34.329,14.768 34.649,14.787 35.001,14.787 C35.66,14.787 36.236,14.712 36.73,14.562 C37.224,14.412 37.647,14.185 38.001,13.879 C38.354,13.574 38.65,13.192 38.887,12.732 C39.124,12.272 39.316,11.727 39.461,11.098 L40.957,4.808 C40.955,4.807 40.953,4.806 40.952,4.805 L41.236,3.607" id="Fill-5" fill="#FFFFFF" sketch:type="MSShapeGroup"></path>
                <path d="M32.165,8.127 C32.03,8.68 31.991,9.235 32.049,9.792 C32.107,10.35 32.321,11.204 32.529,11.632 L30.436,11.632 C30.181,11.2 30.192,10.997 30.144,10.861 C29.872,11.084 29.571,11.268 29.242,11.414 C28.912,11.56 28.543,11.632 28.136,11.632 C27.651,11.632 27.237,11.547 26.893,11.378 C26.548,11.208 26.267,10.98 26.049,10.694 C25.831,10.408 25.673,10.073 25.576,9.69 C25.479,9.307 25.431,8.898 25.431,8.461 C25.431,7.792 25.549,7.162 25.787,6.57 C26.024,5.979 26.354,5.462 26.776,5.021 C27.198,4.58 28.216,3.607 29.887,3.607 L33.241,3.607 L32.165,8.127 L32.165,8.127 Z M30.63,5.425 C29.622,5.425 29.429,5.425 29.016,5.639 C28.723,5.792 28.48,6.02 28.267,6.287 C28.054,6.554 27.886,6.861 27.765,7.21 C27.644,7.559 27.583,7.923 27.583,8.301 C27.583,8.766 27.661,9.135 27.816,9.407 C27.971,9.678 28.257,9.814 28.674,9.814 C28.897,9.814 29.099,9.771 29.278,9.683 C29.458,9.596 29.649,9.45 29.853,9.246 C29.872,9.004 29.904,8.75 29.947,8.483 C29.991,8.217 30.046,7.969 30.095,7.746 L30.63,5.425 L30.63,5.425 Z" id="Fill-6" fill="#FFFFFF" sketch:type="MSShapeGroup"></path>
                <path d="M24.829,6.785 C24.829,7.497 24.712,8.149 24.478,8.74 C24.244,9.33 23.919,9.84 23.504,10.27 C23.089,10.7 22.591,11.034 22.01,11.273 C21.429,11.512 20.797,11.632 20.114,11.632 C19.782,11.632 19.45,11.602 19.118,11.544 L18.459,14.194 L16.292,14.194 L18.808,3.607 L21.696,3.607 C22.242,3.607 22.713,3.69 23.109,3.856 C23.504,4.022 23.828,4.249 24.082,4.537 C24.336,4.825 24.524,5.162 24.646,5.547 C24.768,5.933 24.829,6.345 24.829,6.785 L24.829,6.785 Z M19.514,9.786 C19.679,9.826 19.885,9.845 20.129,9.845 C20.509,9.845 20.856,9.774 21.168,9.633 C21.481,9.491 21.747,9.294 21.966,9.04 C22.186,8.786 22.357,8.481 22.479,8.125 C22.601,7.768 22.662,7.375 22.662,6.946 C22.662,6.526 22.569,6.17 22.384,5.877 C22.198,5.584 21.873,5.428 21.414,5.426 C21.093,5.425 20.561,5.425 20.561,5.425 L19.514,9.786 L19.514,9.786 Z" id="Fill-7" fill="#FFFFFF" sketch:type="MSShapeGroup"></path>
                <path d="M14.962,9.783 C14.683,9.783 14.464,9.744 14.305,9.664 C14.146,9.584 14.034,9.472 13.969,9.328 C13.904,9.184 13.88,9.012 13.895,8.813 C13.91,8.614 13.947,8.4 14.007,8.171 L14.663,5.425 L17.126,5.425 L17.574,3.604 L15.096,3.604 L15.663,1.291 L13.35,1.649 L11.887,7.828 C11.768,8.335 11.698,8.818 11.678,9.276 C11.658,9.733 11.728,10.139 11.887,10.492 C12.046,10.845 12.315,11.124 12.693,11.328 C13.071,11.532 13.604,11.634 14.29,11.634 C14.768,11.634 15.181,11.594 15.529,11.514 C15.565,11.506 15.62,11.493 15.655,11.485 L16.105,9.601 C15.954,9.652 15.802,9.687 15.656,9.716 C15.432,9.761 15.201,9.783 14.962,9.783" id="Fill-8" fill="#FFFFFF" sketch:type="MSShapeGroup"></path>
                <path d="M9.446,3.602 L7.537,11.634 L9.7,11.634 L11.609,3.602 L9.446,3.602" id="Fill-9" fill="#FFFFFF" sketch:type="MSShapeGroup"></path>
                <path d="M11.833,2.674 L12.164,1.278 L10.002,1.278 L9.67,2.674 L11.833,2.674" id="Fill-10" fill="#FFFFFF" sketch:type="MSShapeGroup"></path>
                <path d="M4.654,3.608 C5.12,3.608 5.522,3.691 5.862,3.856 C6.202,4.021 6.483,4.244 6.707,4.525 C6.93,4.807 7.095,5.137 7.202,5.516 C7.309,5.894 7.362,6.302 7.362,6.739 C7.362,7.409 7.239,8.043 6.991,8.64 C6.743,9.237 6.406,9.756 5.979,10.198 C5.551,10.64 5.047,10.989 4.464,11.246 C3.882,11.503 3.251,11.632 2.571,11.632 C2.484,11.632 2.331,11.63 2.112,11.625 C1.894,11.62 1.644,11.598 1.362,11.56 C1.081,11.52 0.782,11.462 0.467,11.385 C0.151,11.307 -0.147,11.2 -0.429,11.065 L2.09,0.477 L4.348,0.127 L3.456,3.88 C3.65,3.792 3.833,3.73 4.027,3.681 C4.222,3.632 4.43,3.608 4.654,3.608 L4.654,3.608 Z M2.76,9.841 C3.1,9.841 3.421,9.759 3.722,9.594 C4.022,9.428 4.282,9.208 4.501,8.931 C4.719,8.654 4.891,8.341 5.018,7.991 C5.144,7.642 5.207,7.278 5.207,6.899 C5.207,6.433 5.129,6.069 4.974,5.807 C4.819,5.545 4.496,5.425 4.078,5.425 C3.942,5.425 3.802,5.438 3.583,5.487 C3.365,5.535 3.176,5.636 3.002,5.792 L2.052,9.786 C2.333,9.835 2.43,9.841 2.498,9.841 L2.76,9.841 L2.76,9.841 Z" id="Fill-11" fill="#FFFFFF" sketch:type="MSShapeGroup"></path>
                <path d="M48.175,-0.385 L48.175,15.299" id="Stroke-12" stroke="#FFFFFF" sketch:type="MSShapeGroup"></path>
            </g>
        </g>
    </g>
</svg>