<?xml version="1.0" encoding="UTF-8" standalone="no"?>
<svg width="95px" height="64px" viewBox="0 0 95 64" version="1.1" xmlns="http://www.w3.org/2000/svg" xmlns:xlink="http://www.w3.org/1999/xlink" xmlns:sketch="http://www.bohemiancoding.com/sketch/ns">
    <!-- Generator: Sketch 3.2.1 (9971) - http://www.bohemiancoding.com/sketch -->
    <title>Group + Group + Group + Group</title>
    <desc>Created with Sketch.</desc>
    <defs></defs>
    <g id="Page-1" stroke="none" stroke-width="1" fill="none" fill-rule="evenodd" sketch:type="MSPage">
        <g id="Group-+-Group-+-Group-+-Group" sketch:type="MSLayerGroup">
            <g id="Group-+-Group" fill="#6B6B6A" sketch:type="MSShapeGroup">
                <g id="Group" transform="translate(16.364912, 5.050884)">
                    <path d="M49.7702404,4.15161147 L47.2475874,4.15161147 L45.7793535,10.3190041 L45.7820493,10.3190041 L45.5805336,11.1683208 C45.4400118,11.2070332 45.29949,11.2423793 45.1606531,11.2706562 C44.8988175,11.3224972 44.6295682,11.3487543 44.3505465,11.3487543 C44.0256951,11.3487543 43.7695882,11.302636 43.5845847,11.2093896 C43.3989072,11.1171531 43.2681579,10.9865407 43.1923367,10.8182259 C43.1171896,10.649911 43.0882091,10.4502896 43.1053952,10.2183518 C43.1229183,9.98641392 43.166726,9.73730795 43.2361445,9.47002397 L44.0027803,6.26901223 L44.5072435,4.14656202 L44.5072435,4.14555213 L41.9299993,4.14555213 L40.762691,9.06977127 C40.6238541,9.66122964 40.5423042,10.2240745 40.5190524,10.7572959 C40.4961376,11.2911906 40.5770135,11.7638187 40.762691,12.1748435 C40.9487055,12.5875515 41.2617625,12.9117259 41.7035469,13.1493865 C42.1446573,13.3870471 42.7660535,13.5058773 43.5673986,13.5058773 C44.1240941,13.5058773 44.6056425,13.4597591 45.0120437,13.3671859 C45.0285558,13.3631464 45.045068,13.3591068 45.0609062,13.3550672 L45.0598952,13.3597801 C44.947006,13.8680909 44.7181947,14.2801256 44.3505465,14.6019436 C43.9835723,14.9237616 43.4383342,15.0846706 42.7148322,15.0846706 C42.4064929,15.0846706 42.1257863,15.0654827 41.8713643,15.0308098 L41.3749887,17.1179139 C41.7109605,17.1616758 42.0836634,17.1838934 42.4941084,17.1838934 C43.2634401,17.1838934 43.9357207,17.0963696 44.5116243,16.9216588 C45.0882018,16.7466114 45.5822185,16.4806739 45.9950224,16.125193 C46.4074893,15.7703853 46.7518857,15.3240143 47.0292225,14.7884365 C47.3052114,14.2518487 47.529305,13.6166285 47.6984703,12.8831124 L49.444715,5.5509811 C49.4423562,5.55030784 49.4399973,5.54929795 49.4383124,5.54862469 L49.7702404,4.15161147" id="Fill-1"></path>
                    <path d="M39.1859486,9.41952952 C39.0272297,10.0641754 38.981737,10.7111776 39.0504815,11.3612096 C39.1182151,12.0115781 39.3665714,13.0076654 39.6095359,13.5058773 L37.1677588,13.5058773 C36.869529,13.0019427 36.8826714,12.7656287 36.8267322,12.6074127 C36.5092945,12.8679641 36.1581584,13.0827338 35.7739981,13.2517219 C35.3891637,13.4210467 34.9588367,13.5058773 34.483691,13.5058773 C33.917897,13.5058773 33.4346637,13.4069082 33.0333172,13.2096432 C32.6309598,13.011705 32.3030755,12.7461041 32.0486536,12.4125041 C31.7932206,12.0792407 31.609902,11.6897602 31.4966758,11.2423793 C31.3834496,10.7960083 31.3264995,10.3183308 31.3264995,9.81001996 C31.3264995,9.03004896 31.4653364,8.29484972 31.7430102,7.60576874 C32.019673,6.9160145 32.4045074,6.31445724 32.8968392,5.79941381 C33.389171,5.28538027 34.5773723,4.15161147 36.5268176,4.15161147 L40.4415464,4.15161147 L39.1859486,9.41952952 L39.1859486,9.41952952 Z M37.3942112,6.27069538 C36.2178044,6.27069538 35.9930369,6.27069538 35.5108145,6.52047461 C35.168777,6.69787846 34.8853745,6.96448917 34.6366812,7.27486175 C34.3879879,7.58590758 34.1922009,7.94509147 34.0510052,8.35174013 C33.9098094,8.75872543 33.838706,9.18287884 33.838706,9.62352711 C33.838706,10.1655009 33.9296914,10.595377 34.1106511,10.9124822 C34.2912739,11.2285775 34.6258978,11.3867934 35.1125009,11.3867934 C35.3726516,11.3867934 35.6071916,11.3356257 35.8161209,11.2343002 C36.0260612,11.132638 36.2491438,10.96264 36.4870536,10.7259894 C36.5092945,10.4428838 36.5466996,10.1466497 36.59691,9.83560382 C36.6481314,9.52422135 36.7124951,9.23640296 36.7694452,8.97652484 L37.3942112,6.27069538 L37.3942112,6.27069538 Z" id="Fill-2"></path>
                    <path d="M30.6252383,7.8558846 C30.6252383,8.68601342 30.4880864,9.44612326 30.2147933,10.1341944 C29.9421743,10.8232753 29.5630687,11.4174267 29.0788244,11.9183317 C28.5949172,12.4192367 28.0132849,12.8087173 27.3359495,13.0874466 C26.6576032,13.3658394 25.9209589,13.5058773 25.1229837,13.5058773 C24.7354535,13.5058773 24.3479233,13.4712045 23.9614041,13.4028687 L23.1924094,16.492456 L20.6630167,16.492456 L23.5988106,4.15161147 L26.9683013,4.15161147 C27.6058727,4.15161147 28.1561656,4.24788756 28.617832,4.44212289 C29.0788244,4.63501171 29.4572561,4.89993927 29.7538009,5.23488582 C30.0496718,5.57084225 30.2693845,5.9636891 30.4112543,6.41342637 C30.554135,6.86316364 30.6252383,7.34353421 30.6252383,7.8558846 L30.6252383,7.8558846 Z M24.4223965,11.3548136 C24.6164986,11.399922 24.8550824,11.4231494 25.1401698,11.4231494 C25.5846501,11.4231494 25.9886924,11.3406752 26.3536448,11.1757266 C26.7179231,11.0104414 27.0286212,10.7801867 27.2847282,10.4839526 C27.5408351,10.1887284 27.7399919,9.83291078 27.8828726,9.41717311 C28.0247423,9.0021087 28.0965196,8.54395569 28.0965196,8.04305071 C28.0965196,7.55392776 27.9876742,7.13886335 27.7720052,6.79718422 C27.5546513,6.45550508 27.1755457,6.27473494 26.6404171,6.27237853 C26.2660292,6.27069538 25.6439591,6.27069538 25.6439591,6.27069538 L24.4223965,11.3548136 L24.4223965,11.3548136 Z" id="Fill-3"></path>
                    <path d="M19.1115481,11.3504374 C18.7860227,11.3504374 18.5309268,11.3043192 18.3449123,11.2120826 C18.1592348,11.1188362 18.0284855,10.9882239 17.9533383,10.819909 C17.8775172,10.6522674 17.8485367,10.4519728 17.8657228,10.2200349 C17.8832459,9.98809707 17.9270536,9.73899109 17.9964721,9.47137049 L18.7631079,6.27069538 L21.6368969,6.27069538 L22.1588833,4.14824517 L19.2675711,4.14824517 L19.9294053,1.45150471 L17.2305103,1.86892553 L15.5240295,9.07145441 C15.3841817,9.66291278 15.3026318,10.2257576 15.280391,10.7589791 C15.2561282,11.2928738 15.338015,11.7655018 15.5240295,12.1775366 C15.7090331,12.5892347 16.022764,12.9134091 16.4638745,13.1510697 C16.9049849,13.3887302 17.5263811,13.5085704 18.3277262,13.5085704 C18.8844217,13.5085704 19.366981,13.4614422 19.7730453,13.3688691 C19.8155051,13.3591068 19.8788578,13.3442951 19.9203067,13.3341962 L20.4456629,11.1383607 C20.2687469,11.1979442 20.0921679,11.2383397 19.9209807,11.2720027 C19.660156,11.3248536 19.3898958,11.3504374 19.1115481,11.3504374" id="Fill-4"></path>
                    <path d="M12.6755142,4.14555213 L10.4477211,13.5085704 L12.971385,13.5085704 L15.1985042,4.14555213 L12.6755142,4.14555213" id="Fill-5"></path>
                    <path d="M15.4603398,3.06295105 L15.846859,1.43736626 L13.324206,1.43736626 L12.9366758,3.06295105 L15.4603398,3.06295105" id="Fill-6"></path>
                    <path d="M7.08328513,4.15228473 C7.62683833,4.15228473 8.09659231,4.24889745 8.49322103,4.441113 C8.88984975,4.63433845 9.21773398,4.89421657 9.47889563,5.22243052 C9.73972029,5.55030784 9.93213745,5.93541221 10.0571581,6.3763971 C10.1808307,6.81771863 10.2438465,7.29303975 10.2438465,7.80202385 C10.2438465,8.58367799 10.0992809,9.32123365 9.81014969,10.0177205 C9.52169244,10.7135341 9.12775958,11.3191309 8.62969905,11.8341743 C8.13062757,12.3492177 7.54158169,12.7565397 6.86188745,13.0561401 C6.18185622,13.3557405 5.44588585,13.5058773 4.6529654,13.5058773 C4.5511966,13.5058773 4.37192177,13.5035209 4.11749978,13.4977982 C3.86240382,13.4920755 3.57057674,13.4664917 3.24269251,13.4210467 C2.91312336,13.3756017 2.56535714,13.3079391 2.19703498,13.218059 C1.82837583,13.1271689 1.48060961,13.002616 1.15205141,12.8440634 L4.09188909,0.503218868 L6.72642037,0.0955603115 L5.6854806,4.46905327 C5.91193302,4.36772773 6.12490613,4.29434246 6.35203252,4.23745204 C6.57848494,4.18123488 6.82212348,4.15228473 7.08328513,4.15228473 L7.08328513,4.15228473 Z M4.87335213,11.4181 C5.26998085,11.4181 5.64403172,11.3224972 5.99516777,11.1292717 C6.34630381,10.9370562 6.6495883,10.6795345 6.90468426,10.3570432 C7.15910625,10.0342153 7.36062194,9.66964538 7.50788341,9.26198682 C7.6548079,8.85500152 7.72827015,8.43084811 7.72827015,7.98952659 C7.72827015,7.445533 7.63762178,7.02137959 7.45666203,6.71605646 C7.27570229,6.41006007 6.89895555,6.27069538 6.41167847,6.27069538 C6.25295958,6.27069538 6.08851199,6.28618034 5.83409,6.3423975 C5.57899405,6.39928792 5.35928128,6.51643505 5.15506972,6.69787846 L4.04740736,11.3548136 C4.3752916,11.411704 4.48851781,11.4181 4.56770876,11.4181 L4.87335213,11.4181 L4.87335213,11.4181 Z" id="Fill-7"></path>
                    <path d="M53.278905,0.518703834 L54.5072072,0.297874756 L52.2207791,9.89417738 C52.1223801,10.3119348 52.027014,10.7078113 51.9350177,11.0824802 C51.8426844,11.457149 51.7968548,11.8038776 51.7968548,12.1230026 C51.7968548,12.3195943 51.8150518,12.5007011 51.8521199,12.6666595 C51.8881771,12.8322813 51.9619763,12.9797251 52.0718327,13.1086543 C52.1816891,13.2375835 52.3380491,13.3510277 52.5402387,13.4493236 C52.7417544,13.5476194 53.0022421,13.63346 53.3203539,13.7071819 L53.0453759,14.7571299 C52.1520346,14.6463787 51.5286165,14.3733721 51.1741106,13.9374366 C50.8192677,13.5018378 50.6423518,12.9521215 50.6423518,12.288961 C50.6423518,11.9940734 50.6666145,11.6843741 50.716151,11.3585165 C50.7646765,11.0336689 50.8324101,10.692663 50.9186777,10.3365088 L53.278905,0.518703834" id="Fill-8"></path>
                    <path d="M60.299604,14.7019226 C60.2261417,14.5544788 60.162115,14.3858274 60.1071868,14.195295 C60.0515847,14.0050992 60.0121577,13.8118737 59.9875579,13.615282 C59.556557,14.0327028 59.1043261,14.3397091 58.6298544,14.5359642 C58.1557196,14.7322193 57.6660836,14.8308518 57.1609465,14.8308518 C56.7673506,14.8308518 56.3912778,14.7631892 56.0344131,14.6282007 C55.6772113,14.4932122 55.3631434,14.2845018 55.0922093,14.0017329 C54.8209381,13.7196372 54.6025733,13.354394 54.4364408,12.9060032 C54.2699713,12.4579491 54.1870735,11.9267475 54.1870735,11.3127349 C54.1870735,10.3304495 54.3471404,9.44006393 54.6666,8.64191493 C54.9863967,7.84376593 55.4325618,7.1654571 56.0044216,6.60665181 C56.5762814,6.04784652 57.2529428,5.61494074 58.0340688,5.30793446 C58.8151949,5.00126481 59.6670873,4.84742504 60.5897461,4.84742504 C61.3520012,4.84742504 62.0842647,4.97635421 62.7855259,5.23421256 L61.3658175,10.96264 C61.2920182,11.2696463 61.2303504,11.5584746 61.1814879,11.8284516 C61.1322884,12.0987652 61.1076887,12.3566236 61.1076887,12.6020266 C61.1076887,12.9336069 61.1380171,13.2466725 61.2000219,13.5415601 C61.2610158,13.8361111 61.3718831,14.161632 61.531613,14.5177862 L60.299604,14.7019226 L60.299604,14.7019226 Z M61.3705352,6.10002413 C61.1484636,6.05087619 60.9459369,6.01418355 60.7609334,5.98960959 C60.5759298,5.96503562 60.3851976,5.95258032 60.1883997,5.95258032 C59.4247967,5.95258032 58.7474613,6.10002413 58.1563936,6.39457511 C57.5649888,6.68946272 57.0662543,7.07625023 56.6598531,7.55527428 C56.2537889,8.0339617 55.9424168,8.58031169 55.7274218,9.19432425 C55.5117528,9.80867344 55.4042553,10.4348047 55.4042553,11.0730546 C55.4042553,11.5769892 55.4531178,11.9974397 55.5515168,12.3350793 C55.6502527,12.6727189 55.7860568,12.9426959 55.958255,13.1453469 C56.1307901,13.347998 56.3312949,13.4954418 56.5590952,13.5873417 C56.7868956,13.6795783 57.0305341,13.7256965 57.2889999,13.7256965 C57.7944741,13.7256965 58.2686088,13.6058564 58.7120782,13.3665127 C59.1562214,13.1268323 59.575091,12.7861631 59.9690239,12.3441683 C59.9690239,12.012588 60.0182234,11.6321965 60.1166223,11.2023204 C60.2150213,10.7724442 60.3070176,10.3856567 60.3932852,10.0416212 L61.3705352,6.10002413 L61.3705352,6.10002413 Z" id="Fill-9"></path>
                    <path d="M65.8170229,5.58430744 C66.186356,5.33890439 66.5799518,5.15443132 66.9981475,5.03156148 C67.4163431,4.90902828 67.828473,4.84742504 68.2345372,4.84742504 C69.2801948,4.84742504 70.0555921,5.16688662 70.5597183,5.80513651 C71.0638446,6.44372304 71.3165816,7.30953461 71.3165816,8.40223459 C71.3165816,9.18826492 71.1811146,9.96520625 70.9108544,10.7323853 C70.6405942,11.499901 70.2412696,12.1846058 69.7128806,12.7861631 C69.1844917,13.388057 68.5270383,13.87617 67.7405205,14.2505022 C66.9540027,14.6251711 66.0451602,14.8123372 65.012982,14.8123372 C64.1401966,14.8123372 63.310882,14.6342601 62.5247012,14.2781059 L65.8251104,0.518703834 L67.0790233,0.297874756 L65.8170229,5.58430744 L65.8170229,5.58430744 Z M63.9262125,13.5045308 C64.3683339,13.639856 64.8043896,13.7071819 65.2343796,13.7071819 C66.0330288,13.7071819 66.7363118,13.5476194 67.3442288,13.2281578 C67.9528196,12.9090329 68.4596417,12.498008 68.864695,11.9940734 C69.2700853,11.490812 69.5770766,10.9320067 69.7860059,10.3179942 C69.9952722,9.70398161 70.0997369,9.09636501 70.0997369,8.49447112 C70.0997369,7.61048155 69.9063088,6.96549906 69.5201265,6.56019691 C69.1339442,6.15523139 68.6463302,5.95258032 68.0576213,5.95258032 C67.6650364,5.95258032 67.2451558,6.04178719 66.7976427,6.21952767 C66.3501296,6.3979414 65.911715,6.65243345 65.4827359,6.9840137 L63.9262125,13.5045308 L63.9262125,13.5045308 Z" id="Fill-10"></path>
                    <path d="M71.2057143,13.0810507 C71.6603041,13.3267903 72.0596286,13.4924122 72.404362,13.5782527 C72.7480844,13.6644299 73.1356146,13.7071819 73.5656046,13.7071819 C73.8729329,13.7071819 74.1677928,13.6735189 74.4508584,13.6058564 C74.7335869,13.5385304 74.9795843,13.4372049 75.1888506,13.3018798 C75.397443,13.1668912 75.5632385,12.9888141 75.6862372,12.7676484 C75.8088989,12.5468194 75.8705668,12.288961 75.8705668,11.9940734 C75.8705668,11.6749485 75.7812663,11.4110308 75.6033394,11.2023204 C75.4250756,10.9932733 75.2040149,10.8125032 74.9394834,10.6586634 C74.6752889,10.5054969 74.3891905,10.3546868 74.0821992,10.207243 C73.7748709,10.0601358 73.4891096,9.88845468 73.2245781,9.69186294 C72.9600466,9.49560783 72.7389859,9.24953152 72.561059,8.95498054 C72.3824581,8.66009293 72.2934947,8.27970138 72.2934947,7.81313263 C72.2934947,7.28496064 72.3918937,6.83387685 72.5886916,6.45920801 C72.7851525,6.08453916 73.049684,5.77753288 73.3812751,5.53818917 C73.7135401,5.29850883 74.0943306,5.12379802 74.5246576,5.01304685 C74.9549846,4.90263231 75.397443,4.84742504 75.8520327,4.84742504 C76.2456286,4.84742504 76.6361916,4.88142464 77.0230478,4.94875058 C77.410241,5.01641315 77.781933,5.11773868 78.1387978,5.25272719 L77.6596083,6.32118983 C77.4011425,6.21043866 77.1059456,6.12156843 76.7743546,6.05390586 C76.4424265,5.98657992 76.0983671,5.95258032 75.7415024,5.95258032 C75.4466425,5.95258032 75.1612181,5.98355025 74.8842182,6.04481686 C74.6075554,6.10608346 74.3645908,6.20774563 74.1559985,6.34879347 C73.9467322,6.48984131 73.7779038,6.66791842 73.6488394,6.88268816 C73.519438,7.09779453 73.4550743,7.35901917 73.4550743,7.66568882 C73.4550743,7.9851504 73.5443747,8.24906808 73.7226386,8.45777849 C73.9005655,8.6664889 74.1192673,8.85062534 74.3770591,9.01018781 C74.6351879,9.16975028 74.9212863,9.32056039 75.2346803,9.46160823 C75.5480743,9.60265607 75.8338357,9.77164417 76.0919645,9.96823591 C76.3504302,10.1648277 76.5681211,10.4008051 76.746722,10.677178 C76.9246489,10.953551 77.0139493,11.3066756 77.0139493,11.7362151 C77.0139493,12.2768423 76.9125175,12.7434111 76.7096539,13.1362579 C76.5071272,13.5294414 76.2395629,13.8485664 75.9072979,14.0939694 C75.5757069,14.3397091 75.1945793,14.5208159 74.7642523,14.6372897 C74.3339254,14.7537636 73.891467,14.8123372 73.4365402,14.8123372 C72.9576877,14.8123372 72.4781612,14.7598229 71.9986348,14.6558044 C71.5194453,14.5514492 71.0827156,14.3885204 70.6894567,14.1676913 L71.2057143,13.0810507" id="Fill-11"></path>
                </g>
                <g id="Group">
                    <path d="M6.64750868,3.00695146 C6.64750868,3.33417476 6.35804034,3.59924272 6.00092831,3.59924272 C5.64358302,3.59924272 5.35411468,3.33417476 5.35411468,3.00695146 C5.35411468,2.67994175 5.64358302,2.41487379 6.00092831,2.41487379 C6.35804034,2.41487379 6.64750868,2.67994175 6.64750868,3.00695146" id="Fill-12"></path>
                    <path d="M8.21334347,1.82258252 C8.21334347,2.25297087 7.83220627,2.60176699 7.36243251,2.60176699 C6.89242549,2.60176699 6.51128829,2.25297087 6.51128829,1.82258252 C6.51128829,1.39219417 6.89242549,1.04339806 7.36243251,1.04339806 C7.83220627,1.04339806 8.21334347,1.39219417 8.21334347,1.82258252" id="Fill-13"></path>
                    <path d="M6.78372908,0.513475728 C6.78372908,0.702932039 6.61601938,0.856504854 6.40935624,0.856504854 C6.20245985,0.856504854 6.03475015,0.702932039 6.03475015,0.513475728 C6.03475015,0.32423301 6.20245985,0.170660194 6.40935624,0.170660194 C6.61601938,0.170660194 6.78372908,0.32423301 6.78372908,0.513475728" id="Fill-14"></path>
                    <path d="M11.6881298,12.9020388 C12.0848951,12.3742524 12.3172162,11.7356117 12.3172162,11.0472039 C12.3172162,9.23273786 10.7047305,7.76172816 8.7153063,7.76172816 L7.86229605,7.76172816 L7.86229605,5.67984466 C7.86229605,5.56365049 7.97285849,5.47778641 8.10604659,5.47543689 C8.28728503,5.47223301 8.43400186,5.3404466 8.43096955,5.18132039 C8.427704,5.02091262 8.26442612,4.89724272 8.08038864,4.89724272 L4.42109827,4.89724272 C4.23706078,4.89724272 4.07401616,5.02091262 4.07075061,5.18132039 C4.06748505,5.3404466 4.21420188,5.47223301 4.39544032,5.47543689 C4.52862841,5.47778641 4.63942411,5.56365049 4.63942411,5.67984466 L4.63942411,7.3343301 C4.64012387,7.3341165 4.64082363,7.3341165 4.64175665,7.3341165 L5.36321159,7.3341165 C5.49056833,7.3341165 5.59483291,7.42959223 5.59483291,7.54621359 C5.59483291,7.66283495 5.49056833,7.75831068 5.36321159,7.75831068 L4.64175665,7.75831068 C4.64082363,7.75831068 4.64012387,7.75809709 4.63942411,7.75809709 L4.63942411,7.76172816 L0.989930413,7.76172816 C0.572872077,7.76172816 0.231621324,8.07421359 0.231621324,8.4561165 C0.231621324,8.83801942 0.572872077,9.15050485 0.989930413,9.15050485 L1.179566,9.15050485 C1.88632593,9.15050485 2.45919801,9.67508738 2.45919801,10.3222718 L2.45919801,16.3113981 C2.45919801,16.9585825 1.88632593,17.483165 1.179566,17.483165 L0.989930413,17.483165 C0.572872077,17.483165 0.231621324,17.7956505 0.231621324,18.1775534 C0.231621324,18.5594563 0.572872077,18.8719417 0.989930413,18.8719417 L4.63942411,18.8719417 L4.63942411,18.8785631 C4.64012387,18.8785631 4.64082363,18.8783495 4.64175665,18.8783495 L5.36321159,18.8783495 C5.49056833,18.8783495 5.59483291,18.9738252 5.59483291,19.0904466 C5.59483291,19.207068 5.49056833,19.3025437 5.36321159,19.3025437 L4.64175665,19.3025437 C4.64082363,19.3025437 4.64012387,19.3023301 4.63942411,19.3023301 L4.63942411,20.4625631 C4.63942411,21.234699 5.36461111,21.8665049 6.25074345,21.8665049 C7.13710904,21.8665049 7.86229605,21.234699 7.86229605,20.4625631 L7.86229605,18.8719417 L9.33133039,18.8719417 C11.3730036,18.8719417 13.0281747,17.3622718 13.0281747,15.4999612 C13.0281747,14.4546408 12.5066185,13.5206019 11.6881298,12.9020388 L11.6881298,12.9020388 Z M5.44508378,9.6278835 L7.67266046,9.6278835 C8.50677714,9.6278835 9.18927864,10.2528544 9.18927864,11.0166602 C9.18927864,11.780466 8.50677714,12.4054369 7.67266046,12.4054369 L5.44508378,12.4054369 L5.44508378,9.6278835 L5.44508378,9.6278835 Z M8.43096955,17.0057864 L5.35038261,17.0057864 L5.35038261,14.228233 L8.43096955,14.228233 C9.26508623,14.228233 9.94758773,14.8532039 9.94758773,15.6170097 C9.94758773,16.3808155 9.26508623,17.0057864 8.43096955,17.0057864 L8.43096955,17.0057864 Z" id="Fill-15"></path>
                </g>
            </g>
            <g id="Group-+-Group" transform="translate(0.000000, 41.000000)" fill="#A39F9A" sketch:type="MSShapeGroup">
                <g id="Group">
                    <g transform="translate(17.364912, 5.050884)">
                        <path d="M48.7702404,4.15161147 L46.2475874,4.15161147 L44.7793535,10.3190041 L44.7820493,10.3190041 L44.5805336,11.1683208 C44.4400118,11.2070332 44.29949,11.2423793 44.1606531,11.2706562 C43.8988175,11.3224972 43.6295682,11.3487543 43.3505465,11.3487543 C43.0256951,11.3487543 42.7695882,11.302636 42.5845847,11.2093896 C42.3989072,11.1171531 42.2681579,10.9865407 42.1923367,10.8182259 C42.1171896,10.649911 42.0882091,10.4502896 42.1053952,10.2183518 C42.1229183,9.98641392 42.166726,9.73730795 42.2361445,9.47002397 L43.0027803,6.26901223 L43.5072435,4.14656202 L43.5072435,4.14555213 L40.9299993,4.14555213 L39.762691,9.06977127 C39.6238541,9.66122964 39.5423042,10.2240745 39.5190524,10.7572959 C39.4961376,11.2911906 39.5770135,11.7638187 39.762691,12.1748435 C39.9487055,12.5875515 40.2617625,12.9117259 40.7035469,13.1493865 C41.1446573,13.3870471 41.7660535,13.5058773 42.5673986,13.5058773 C43.1240941,13.5058773 43.6056425,13.4597591 44.0120437,13.3671859 C44.0285558,13.3631464 44.045068,13.3591068 44.0609062,13.3550672 L44.0598952,13.3597801 C43.947006,13.8680909 43.7181947,14.2801256 43.3505465,14.6019436 C42.9835723,14.9237616 42.4383342,15.0846706 41.7148322,15.0846706 C41.4064929,15.0846706 41.1257863,15.0654827 40.8713643,15.0308098 L40.3749887,17.1179139 C40.7109605,17.1616758 41.0836634,17.1838934 41.4941084,17.1838934 C42.2634401,17.1838934 42.9357207,17.0963696 43.5116243,16.9216588 C44.0882018,16.7466114 44.5822185,16.4806739 44.9950224,16.125193 C45.4074893,15.7703853 45.7518857,15.3240143 46.0292225,14.7884365 C46.3052114,14.2518487 46.529305,13.6166285 46.6984703,12.8831124 L48.444715,5.5509811 C48.4423562,5.55030784 48.4399973,5.54929795 48.4383124,5.54862469 L48.7702404,4.15161147" id="Fill-1"></path>
                        <path d="M38.1859486,9.41952952 C38.0272297,10.0641754 37.981737,10.7111776 38.0504815,11.3612096 C38.1182151,12.0115781 38.3665714,13.0076654 38.6095359,13.5058773 L36.1677588,13.5058773 C35.869529,13.0019427 35.8826714,12.7656287 35.8267322,12.6074127 C35.5092945,12.8679641 35.1581584,13.0827338 34.7739981,13.2517219 C34.3891637,13.4210467 33.9588367,13.5058773 33.483691,13.5058773 C32.917897,13.5058773 32.4346637,13.4069082 32.0333172,13.2096432 C31.6309598,13.011705 31.3030755,12.7461041 31.0486536,12.4125041 C30.7932206,12.0792407 30.609902,11.6897602 30.4966758,11.2423793 C30.3834496,10.7960083 30.3264995,10.3183308 30.3264995,9.81001996 C30.3264995,9.03004896 30.4653364,8.29484972 30.7430102,7.60576874 C31.019673,6.9160145 31.4045074,6.31445724 31.8968392,5.79941381 C32.389171,5.28538027 33.5773723,4.15161147 35.5268176,4.15161147 L39.4415464,4.15161147 L38.1859486,9.41952952 L38.1859486,9.41952952 Z M36.3942112,6.27069538 C35.2178044,6.27069538 34.9930369,6.27069538 34.5108145,6.52047461 C34.168777,6.69787846 33.8853745,6.96448917 33.6366812,7.27486175 C33.3879879,7.58590758 33.1922009,7.94509147 33.0510052,8.35174013 C32.9098094,8.75872543 32.838706,9.18287884 32.838706,9.62352711 C32.838706,10.1655009 32.9296914,10.595377 33.1106511,10.9124822 C33.2912739,11.2285775 33.6258978,11.3867934 34.1125009,11.3867934 C34.3726516,11.3867934 34.6071916,11.3356257 34.8161209,11.2343002 C35.0260612,11.132638 35.2491438,10.96264 35.4870536,10.7259894 C35.5092945,10.4428838 35.5466996,10.1466497 35.59691,9.83560382 C35.6481314,9.52422135 35.7124951,9.23640296 35.7694452,8.97652484 L36.3942112,6.27069538 L36.3942112,6.27069538 Z" id="Fill-2"></path>
                        <path d="M29.6252383,7.8558846 C29.6252383,8.68601342 29.4880864,9.44612326 29.2147933,10.1341944 C28.9421743,10.8232753 28.5630687,11.4174267 28.0788244,11.9183317 C27.5949172,12.4192367 27.0132849,12.8087173 26.3359495,13.0874466 C25.6576032,13.3658394 24.9209589,13.5058773 24.1229837,13.5058773 C23.7354535,13.5058773 23.3479233,13.4712045 22.9614041,13.4028687 L22.1924094,16.492456 L19.6630167,16.492456 L22.5988106,4.15161147 L25.9683013,4.15161147 C26.6058727,4.15161147 27.1561656,4.24788756 27.617832,4.44212289 C28.0788244,4.63501171 28.4572561,4.89993927 28.7538009,5.23488582 C29.0496718,5.57084225 29.2693845,5.9636891 29.4112543,6.41342637 C29.554135,6.86316364 29.6252383,7.34353421 29.6252383,7.8558846 L29.6252383,7.8558846 Z M23.4223965,11.3548136 C23.6164986,11.399922 23.8550824,11.4231494 24.1401698,11.4231494 C24.5846501,11.4231494 24.9886924,11.3406752 25.3536448,11.1757266 C25.7179231,11.0104414 26.0286212,10.7801867 26.2847282,10.4839526 C26.5408351,10.1887284 26.7399919,9.83291078 26.8828726,9.41717311 C27.0247423,9.0021087 27.0965196,8.54395569 27.0965196,8.04305071 C27.0965196,7.55392776 26.9876742,7.13886335 26.7720052,6.79718422 C26.5546513,6.45550508 26.1755457,6.27473494 25.6404171,6.27237853 C25.2660292,6.27069538 24.6439591,6.27069538 24.6439591,6.27069538 L23.4223965,11.3548136 L23.4223965,11.3548136 Z" id="Fill-3"></path>
                        <path d="M18.1115481,11.3504374 C17.7860227,11.3504374 17.5309268,11.3043192 17.3449123,11.2120826 C17.1592348,11.1188362 17.0284855,10.9882239 16.9533383,10.819909 C16.8775172,10.6522674 16.8485367,10.4519728 16.8657228,10.2200349 C16.8832459,9.98809707 16.9270536,9.73899109 16.9964721,9.47137049 L17.7631079,6.27069538 L20.6368969,6.27069538 L21.1588833,4.14824517 L18.2675711,4.14824517 L18.9294053,1.45150471 L16.2305103,1.86892553 L14.5240295,9.07145441 C14.3841817,9.66291278 14.3026318,10.2257576 14.280391,10.7589791 C14.2561282,11.2928738 14.338015,11.7655018 14.5240295,12.1775366 C14.7090331,12.5892347 15.022764,12.9134091 15.4638745,13.1510697 C15.9049849,13.3887302 16.5263811,13.5085704 17.3277262,13.5085704 C17.8844217,13.5085704 18.366981,13.4614422 18.7730453,13.3688691 C18.8155051,13.3591068 18.8788578,13.3442951 18.9203067,13.3341962 L19.4456629,11.1383607 C19.2687469,11.1979442 19.0921679,11.2383397 18.9209807,11.2720027 C18.660156,11.3248536 18.3898958,11.3504374 18.1115481,11.3504374" id="Fill-4"></path>
                        <path d="M11.6755142,4.14555213 L9.44772109,13.5085704 L11.971385,13.5085704 L14.1985042,4.14555213 L11.6755142,4.14555213" id="Fill-5"></path>
                        <path d="M14.4603398,3.06295105 L14.846859,1.43736626 L12.324206,1.43736626 L11.9366758,3.06295105 L14.4603398,3.06295105" id="Fill-6"></path>
                        <path d="M6.08328513,4.15228473 C6.62683833,4.15228473 7.09659231,4.24889745 7.49322103,4.441113 C7.88984975,4.63433845 8.21773398,4.89421657 8.47889563,5.22243052 C8.73972029,5.55030784 8.93213745,5.93541221 9.05715806,6.3763971 C9.18083074,6.81771863 9.24384651,7.29303975 9.24384651,7.80202385 C9.24384651,8.58367799 9.09928091,9.32123365 8.81014969,10.0177205 C8.52169244,10.7135341 8.12775958,11.3191309 7.62969905,11.8341743 C7.13062757,12.3492177 6.54158169,12.7565397 5.86188745,13.0561401 C5.18185622,13.3557405 4.44588585,13.5058773 3.6529654,13.5058773 C3.5511966,13.5058773 3.37192177,13.5035209 3.11749978,13.4977982 C2.86240382,13.4920755 2.57057674,13.4664917 2.24269251,13.4210467 C1.91312336,13.3756017 1.56535714,13.3079391 1.19703498,13.218059 C0.828375828,13.1271689 0.480609611,13.002616 0.152051411,12.8440634 L3.09188909,0.503218868 L5.72642037,0.0955603115 L4.6854806,4.46905327 C4.91193302,4.36772773 5.12490613,4.29434246 5.35203252,4.23745204 C5.57848494,4.18123488 5.82212348,4.15228473 6.08328513,4.15228473 L6.08328513,4.15228473 Z M3.87335213,11.4181 C4.26998085,11.4181 4.64403172,11.3224972 4.99516777,11.1292717 C5.34630381,10.9370562 5.6495883,10.6795345 5.90468426,10.3570432 C6.15910625,10.0342153 6.36062194,9.66964538 6.50788341,9.26198682 C6.6548079,8.85500152 6.72827015,8.43084811 6.72827015,7.98952659 C6.72827015,7.445533 6.63762178,7.02137959 6.45666203,6.71605646 C6.27570229,6.41006007 5.89895555,6.27069538 5.41167847,6.27069538 C5.25295958,6.27069538 5.08851199,6.28618034 4.83409,6.3423975 C4.57899405,6.39928792 4.35928128,6.51643505 4.15506972,6.69787846 L3.04740736,11.3548136 C3.3752916,11.411704 3.48851781,11.4181 3.56770876,11.4181 L3.87335213,11.4181 L3.87335213,11.4181 Z" id="Fill-7"></path>
                        <path d="M52.278905,0.518703834 L53.5072072,0.297874756 L51.2207791,9.89417738 C51.1223801,10.3119348 51.027014,10.7078113 50.9350177,11.0824802 C50.8426844,11.457149 50.7968548,11.8038776 50.7968548,12.1230026 C50.7968548,12.3195943 50.8150518,12.5007011 50.8521199,12.6666595 C50.8881771,12.8322813 50.9619763,12.9797251 51.0718327,13.1086543 C51.1816891,13.2375835 51.3380491,13.3510277 51.5402387,13.4493236 C51.7417544,13.5476194 52.0022421,13.63346 52.3203539,13.7071819 L52.0453759,14.7571299 C51.1520346,14.6463787 50.5286165,14.3733721 50.1741106,13.9374366 C49.8192677,13.5018378 49.6423518,12.9521215 49.6423518,12.288961 C49.6423518,11.9940734 49.6666145,11.6843741 49.716151,11.3585165 C49.7646765,11.0336689 49.8324101,10.692663 49.9186777,10.3365088 L52.278905,0.518703834" id="Fill-8"></path>
                        <path d="M59.299604,14.7019226 C59.2261417,14.5544788 59.162115,14.3858274 59.1071868,14.195295 C59.0515847,14.0050992 59.0121577,13.8118737 58.9875579,13.615282 C58.556557,14.0327028 58.1043261,14.3397091 57.6298544,14.5359642 C57.1557196,14.7322193 56.6660836,14.8308518 56.1609465,14.8308518 C55.7673506,14.8308518 55.3912778,14.7631892 55.0344131,14.6282007 C54.6772113,14.4932122 54.3631434,14.2845018 54.0922093,14.0017329 C53.8209381,13.7196372 53.6025733,13.354394 53.4364408,12.9060032 C53.2699713,12.4579491 53.1870735,11.9267475 53.1870735,11.3127349 C53.1870735,10.3304495 53.3471404,9.44006393 53.6666,8.64191493 C53.9863967,7.84376593 54.4325618,7.1654571 55.0044216,6.60665181 C55.5762814,6.04784652 56.2529428,5.61494074 57.0340688,5.30793446 C57.8151949,5.00126481 58.6670873,4.84742504 59.5897461,4.84742504 C60.3520012,4.84742504 61.0842647,4.97635421 61.7855259,5.23421256 L60.3658175,10.96264 C60.2920182,11.2696463 60.2303504,11.5584746 60.1814879,11.8284516 C60.1322884,12.0987652 60.1076887,12.3566236 60.1076887,12.6020266 C60.1076887,12.9336069 60.1380171,13.2466725 60.2000219,13.5415601 C60.2610158,13.8361111 60.3718831,14.161632 60.531613,14.5177862 L59.299604,14.7019226 L59.299604,14.7019226 Z M60.3705352,6.10002413 C60.1484636,6.05087619 59.9459369,6.01418355 59.7609334,5.98960959 C59.5759298,5.96503562 59.3851976,5.95258032 59.1883997,5.95258032 C58.4247967,5.95258032 57.7474613,6.10002413 57.1563936,6.39457511 C56.5649888,6.68946272 56.0662543,7.07625023 55.6598531,7.55527428 C55.2537889,8.0339617 54.9424168,8.58031169 54.7274218,9.19432425 C54.5117528,9.80867344 54.4042553,10.4348047 54.4042553,11.0730546 C54.4042553,11.5769892 54.4531178,11.9974397 54.5515168,12.3350793 C54.6502527,12.6727189 54.7860568,12.9426959 54.958255,13.1453469 C55.1307901,13.347998 55.3312949,13.4954418 55.5590952,13.5873417 C55.7868956,13.6795783 56.0305341,13.7256965 56.2889999,13.7256965 C56.7944741,13.7256965 57.2686088,13.6058564 57.7120782,13.3665127 C58.1562214,13.1268323 58.575091,12.7861631 58.9690239,12.3441683 C58.9690239,12.012588 59.0182234,11.6321965 59.1166223,11.2023204 C59.2150213,10.7724442 59.3070176,10.3856567 59.3932852,10.0416212 L60.3705352,6.10002413 L60.3705352,6.10002413 Z" id="Fill-9"></path>
                        <path d="M64.8170229,5.58430744 C65.186356,5.33890439 65.5799518,5.15443132 65.9981475,5.03156148 C66.4163431,4.90902828 66.828473,4.84742504 67.2345372,4.84742504 C68.2801948,4.84742504 69.0555921,5.16688662 69.5597183,5.80513651 C70.0638446,6.44372304 70.3165816,7.30953461 70.3165816,8.40223459 C70.3165816,9.18826492 70.1811146,9.96520625 69.9108544,10.7323853 C69.6405942,11.499901 69.2412696,12.1846058 68.7128806,12.7861631 C68.1844917,13.388057 67.5270383,13.87617 66.7405205,14.2505022 C65.9540027,14.6251711 65.0451602,14.8123372 64.012982,14.8123372 C63.1401966,14.8123372 62.310882,14.6342601 61.5247012,14.2781059 L64.8251104,0.518703834 L66.0790233,0.297874756 L64.8170229,5.58430744 L64.8170229,5.58430744 Z M62.9262125,13.5045308 C63.3683339,13.639856 63.8043896,13.7071819 64.2343796,13.7071819 C65.0330288,13.7071819 65.7363118,13.5476194 66.3442288,13.2281578 C66.9528196,12.9090329 67.4596417,12.498008 67.864695,11.9940734 C68.2700853,11.490812 68.5770766,10.9320067 68.7860059,10.3179942 C68.9952722,9.70398161 69.0997369,9.09636501 69.0997369,8.49447112 C69.0997369,7.61048155 68.9063088,6.96549906 68.5201265,6.56019691 C68.1339442,6.15523139 67.6463302,5.95258032 67.0576213,5.95258032 C66.6650364,5.95258032 66.2451558,6.04178719 65.7976427,6.21952767 C65.3501296,6.3979414 64.911715,6.65243345 64.4827359,6.9840137 L62.9262125,13.5045308 L62.9262125,13.5045308 Z" id="Fill-10"></path>
                        <path d="M70.2057143,13.0810507 C70.6603041,13.3267903 71.0596286,13.4924122 71.404362,13.5782527 C71.7480844,13.6644299 72.1356146,13.7071819 72.5656046,13.7071819 C72.8729329,13.7071819 73.1677928,13.6735189 73.4508584,13.6058564 C73.7335869,13.5385304 73.9795843,13.4372049 74.1888506,13.3018798 C74.397443,13.1668912 74.5632385,12.9888141 74.6862372,12.7676484 C74.8088989,12.5468194 74.8705668,12.288961 74.8705668,11.9940734 C74.8705668,11.6749485 74.7812663,11.4110308 74.6033394,11.2023204 C74.4250756,10.9932733 74.2040149,10.8125032 73.9394834,10.6586634 C73.6752889,10.5054969 73.3891905,10.3546868 73.0821992,10.207243 C72.7748709,10.0601358 72.4891096,9.88845468 72.2245781,9.69186294 C71.9600466,9.49560783 71.7389859,9.24953152 71.561059,8.95498054 C71.3824581,8.66009293 71.2934947,8.27970138 71.2934947,7.81313263 C71.2934947,7.28496064 71.3918937,6.83387685 71.5886916,6.45920801 C71.7851525,6.08453916 72.049684,5.77753288 72.3812751,5.53818917 C72.7135401,5.29850883 73.0943306,5.12379802 73.5246576,5.01304685 C73.9549846,4.90263231 74.397443,4.84742504 74.8520327,4.84742504 C75.2456286,4.84742504 75.6361916,4.88142464 76.0230478,4.94875058 C76.410241,5.01641315 76.781933,5.11773868 77.1387978,5.25272719 L76.6596083,6.32118983 C76.4011425,6.21043866 76.1059456,6.12156843 75.7743546,6.05390586 C75.4424265,5.98657992 75.0983671,5.95258032 74.7415024,5.95258032 C74.4466425,5.95258032 74.1612181,5.98355025 73.8842182,6.04481686 C73.6075554,6.10608346 73.3645908,6.20774563 73.1559985,6.34879347 C72.9467322,6.48984131 72.7779038,6.66791842 72.6488394,6.88268816 C72.519438,7.09779453 72.4550743,7.35901917 72.4550743,7.66568882 C72.4550743,7.9851504 72.5443747,8.24906808 72.7226386,8.45777849 C72.9005655,8.6664889 73.1192673,8.85062534 73.3770591,9.01018781 C73.6351879,9.16975028 73.9212863,9.32056039 74.2346803,9.46160823 C74.5480743,9.60265607 74.8338357,9.77164417 75.0919645,9.96823591 C75.3504302,10.1648277 75.5681211,10.4008051 75.746722,10.677178 C75.9246489,10.953551 76.0139493,11.3066756 76.0139493,11.7362151 C76.0139493,12.2768423 75.9125175,12.7434111 75.7096539,13.1362579 C75.5071272,13.5294414 75.2395629,13.8485664 74.9072979,14.0939694 C74.5757069,14.3397091 74.1945793,14.5208159 73.7642523,14.6372897 C73.3339254,14.7537636 72.891467,14.8123372 72.4365402,14.8123372 C71.9576877,14.8123372 71.4781612,14.7598229 70.9986348,14.6558044 C70.5194453,14.5514492 70.0827156,14.3885204 69.6894567,14.1676913 L70.2057143,13.0810507" id="Fill-11"></path>
                    </g>
                    <g>
                        <path d="M6.64750868,3.00695146 C6.64750868,3.33417476 6.35804034,3.59924272 6.00092831,3.59924272 C5.64358302,3.59924272 5.35411468,3.33417476 5.35411468,3.00695146 C5.35411468,2.67994175 5.64358302,2.41487379 6.00092831,2.41487379 C6.35804034,2.41487379 6.64750868,2.67994175 6.64750868,3.00695146" id="Fill-12"></path>
                        <path d="M8.21334347,1.82258252 C8.21334347,2.25297087 7.83220627,2.60176699 7.36243251,2.60176699 C6.89242549,2.60176699 6.51128829,2.25297087 6.51128829,1.82258252 C6.51128829,1.39219417 6.89242549,1.04339806 7.36243251,1.04339806 C7.83220627,1.04339806 8.21334347,1.39219417 8.21334347,1.82258252" id="Fill-13"></path>
                        <path d="M6.78372908,0.513475728 C6.78372908,0.702932039 6.61601938,0.856504854 6.40935624,0.856504854 C6.20245985,0.856504854 6.03475015,0.702932039 6.03475015,0.513475728 C6.03475015,0.32423301 6.20245985,0.170660194 6.40935624,0.170660194 C6.61601938,0.170660194 6.78372908,0.32423301 6.78372908,0.513475728" id="Fill-14"></path>
                        <path d="M11.6881298,12.9020388 C12.0848951,12.3742524 12.3172162,11.7356117 12.3172162,11.0472039 C12.3172162,9.23273786 10.7047305,7.76172816 8.7153063,7.76172816 L7.86229605,7.76172816 L7.86229605,5.67984466 C7.86229605,5.56365049 7.97285849,5.47778641 8.10604659,5.47543689 C8.28728503,5.47223301 8.43400186,5.3404466 8.43096955,5.18132039 C8.427704,5.02091262 8.26442612,4.89724272 8.08038864,4.89724272 L4.42109827,4.89724272 C4.23706078,4.89724272 4.07401616,5.02091262 4.07075061,5.18132039 C4.06748505,5.3404466 4.21420188,5.47223301 4.39544032,5.47543689 C4.52862841,5.47778641 4.63942411,5.56365049 4.63942411,5.67984466 L4.63942411,7.3343301 C4.64012387,7.3341165 4.64082363,7.3341165 4.64175665,7.3341165 L5.36321159,7.3341165 C5.49056833,7.3341165 5.59483291,7.42959223 5.59483291,7.54621359 C5.59483291,7.66283495 5.49056833,7.75831068 5.36321159,7.75831068 L4.64175665,7.75831068 C4.64082363,7.75831068 4.64012387,7.75809709 4.63942411,7.75809709 L4.63942411,7.76172816 L0.989930413,7.76172816 C0.572872077,7.76172816 0.231621324,8.07421359 0.231621324,8.4561165 C0.231621324,8.83801942 0.572872077,9.15050485 0.989930413,9.15050485 L1.179566,9.15050485 C1.88632593,9.15050485 2.45919801,9.67508738 2.45919801,10.3222718 L2.45919801,16.3113981 C2.45919801,16.9585825 1.88632593,17.483165 1.179566,17.483165 L0.989930413,17.483165 C0.572872077,17.483165 0.231621324,17.7956505 0.231621324,18.1775534 C0.231621324,18.5594563 0.572872077,18.8719417 0.989930413,18.8719417 L4.63942411,18.8719417 L4.63942411,18.8785631 C4.64012387,18.8785631 4.64082363,18.8783495 4.64175665,18.8783495 L5.36321159,18.8783495 C5.49056833,18.8783495 5.59483291,18.9738252 5.59483291,19.0904466 C5.59483291,19.207068 5.49056833,19.3025437 5.36321159,19.3025437 L4.64175665,19.3025437 C4.64082363,19.3025437 4.64012387,19.3023301 4.63942411,19.3023301 L4.63942411,20.4625631 C4.63942411,21.234699 5.36461111,21.8665049 6.25074345,21.8665049 C7.13710904,21.8665049 7.86229605,21.234699 7.86229605,20.4625631 L7.86229605,18.8719417 L9.33133039,18.8719417 C11.3730036,18.8719417 13.0281747,17.3622718 13.0281747,15.4999612 C13.0281747,14.4546408 12.5066185,13.5206019 11.6881298,12.9020388 L11.6881298,12.9020388 Z M5.44508378,9.6278835 L7.67266046,9.6278835 C8.50677714,9.6278835 9.18927864,10.2528544 9.18927864,11.0166602 C9.18927864,11.780466 8.50677714,12.4054369 7.67266046,12.4054369 L5.44508378,12.4054369 L5.44508378,9.6278835 L5.44508378,9.6278835 Z M8.43096955,17.0057864 L5.35038261,17.0057864 L5.35038261,14.228233 L8.43096955,14.228233 C9.26508623,14.228233 9.94758773,14.8532039 9.94758773,15.6170097 C9.94758773,16.3808155 9.26508623,17.0057864 8.43096955,17.0057864 L8.43096955,17.0057864 Z" id="Fill-15"></path>
                    </g>
                </g>
            </g>
        </g>
    </g>
</svg>