<?xml version="1.0" encoding="UTF-8" standalone="no"?>
<svg width="54px" height="33px" viewBox="0 0 54 33" version="1.1" xmlns="http://www.w3.org/2000/svg" xmlns:xlink="http://www.w3.org/1999/xlink" xmlns:sketch="http://www.bohemiancoding.com/sketch/ns">
    <!-- Generator: Sketch 3.1.1 (8761) - http://www.bohemiancoding.com/sketch -->
    <title>Artboard 10</title>
    <desc>Created with Sketch.</desc>
    <defs></defs>
    <g id="Page-1" stroke="none" stroke-width="1" fill="none" fill-rule="evenodd" sketch:type="MSPage">
        <g id="Artboard-10" sketch:type="MSArtboardGroup" fill="#FFFFFF">
            <g id="Imported-Layers" sketch:type="MSLayerGroup">
                <path d="M0.368,32.588 L0.368,0.312 L53.202,0.312 L53.202,27.242 L5.714,27.242 L0.368,32.588 L0.368,32.588 Z M1.368,1.312 L1.368,30.174 L5.3,26.242 L52.202,26.242 L52.202,1.312 L1.368,1.312 L1.368,1.312 Z" id="Fill-1" sketch:type="MSShapeGroup"></path>
                <path d="M8.795,18.245 C8.823,17.797 8.851,16.97 8.851,16.2 L8.851,8.3 L10.98,8.3 L10.98,12.208 L11.008,12.208 C11.414,11.619 12.129,11.241 13.081,11.241 C14.72,11.241 15.925,12.6 15.911,14.701 C15.911,17.166 14.342,18.399 12.773,18.399 C11.975,18.399 11.204,18.105 10.714,17.292 L10.686,17.292 L10.601,18.245 L8.795,18.245 L8.795,18.245 Z M10.98,15.331 C10.98,15.472 10.994,15.598 11.022,15.71 C11.162,16.284 11.652,16.718 12.268,16.718 C13.18,16.718 13.739,16.018 13.739,14.785 C13.739,13.721 13.264,12.88 12.268,12.88 C11.694,12.88 11.162,13.314 11.022,13.931 C10.994,14.057 10.98,14.182 10.98,14.322 L10.98,15.331 L10.98,15.331 Z" id="Fill-2" sketch:type="MSShapeGroup"></path>
                <path d="M23.681,14.743 C23.681,17.25 21.901,18.399 20.066,18.399 C18.063,18.399 16.522,17.082 16.522,14.869 C16.522,12.656 17.979,11.241 20.179,11.241 C22.28,11.241 23.681,12.684 23.681,14.743 L23.681,14.743 Z M18.722,14.813 C18.722,15.989 19.212,16.872 20.123,16.872 C20.949,16.872 21.481,16.046 21.481,14.813 C21.481,13.79 21.089,12.754 20.123,12.754 C19.101,12.754 18.722,13.805 18.722,14.813 L18.722,14.813 Z" id="Fill-3" sketch:type="MSShapeGroup"></path>
                <path d="M25.987,11.396 L26.533,14.196 C26.674,14.911 26.813,15.667 26.926,16.452 L26.954,16.452 C27.094,15.667 27.29,14.883 27.458,14.211 L28.186,11.396 L29.867,11.396 L30.554,14.127 C30.736,14.897 30.918,15.667 31.058,16.452 L31.086,16.452 C31.185,15.667 31.324,14.897 31.478,14.112 L32.066,11.396 L34.153,11.396 L32.053,18.245 L30.05,18.245 L29.405,15.836 C29.237,15.163 29.111,14.547 28.971,13.706 L28.943,13.706 C28.817,14.561 28.677,15.191 28.495,15.836 L27.808,18.245 L25.806,18.245 L23.816,11.396 L25.987,11.396" id="Fill-4" sketch:type="MSShapeGroup"></path>
                <path d="M36.222,15.499 C36.292,16.382 37.16,16.802 38.155,16.802 C38.884,16.802 39.472,16.704 40.046,16.522 L40.326,17.965 C39.626,18.245 38.771,18.385 37.847,18.385 C35.521,18.385 34.19,17.04 34.19,14.897 C34.19,13.16 35.269,11.241 37.65,11.241 C39.864,11.241 40.704,12.964 40.704,14.659 C40.704,15.023 40.662,15.346 40.634,15.499 L36.222,15.499 L36.222,15.499 Z M38.729,14.043 C38.729,13.524 38.505,12.656 37.524,12.656 C36.628,12.656 36.264,13.469 36.208,14.043 L38.729,14.043 L38.729,14.043 Z" id="Fill-5" sketch:type="MSShapeGroup"></path>
                <path d="M41.625,13.65 C41.625,12.641 41.597,11.983 41.569,11.396 L43.404,11.396 L43.474,12.656 L43.53,12.656 C43.88,11.661 44.721,11.241 45.379,11.241 C45.575,11.241 45.673,11.241 45.827,11.269 L45.827,13.272 C45.673,13.244 45.491,13.216 45.253,13.216 C44.469,13.216 43.936,13.637 43.796,14.295 C43.768,14.434 43.754,14.602 43.754,14.771 L43.754,18.245 L41.625,18.245 L41.625,13.65" id="Fill-6" sketch:type="MSShapeGroup"></path>
            </g>
        </g>
    </g>
</svg>