<?xml version="1.0" encoding="UTF-8" standalone="no"?>
<svg width="88px" height="34px" viewBox="0 0 88 34" version="1.1" xmlns="http://www.w3.org/2000/svg" xmlns:xlink="http://www.w3.org/1999/xlink" xmlns:sketch="http://www.bohemiancoding.com/sketch/ns">
    <!-- Generator: Sketch 3.2 (9961) - http://www.bohemiancoding.com/sketch -->
    <title>Imported Layers</title>
    <desc>Created with Sketch.</desc>
    <defs></defs>
    <g id="Page-1" stroke="none" stroke-width="1" fill="none" fill-rule="evenodd" sketch:type="MSPage">
        <g id="Imported-Layers" sketch:type="MSLayerGroup">
            <path d="M87.333,17.164 L81.169,11.362 L81.169,0.327 L0.899,0.327 L0.899,33.813 L81.169,33.813 L81.169,22.789 L87.333,17.164" id="Fill-1" fill="#F9F8F8" sketch:type="MSShapeGroup"></path>
            <path d="M16.85,21.566 C16.886,20.99 16.922,19.928 16.922,18.937 L16.922,8.783 L19.659,8.783 L19.659,13.806 L19.695,13.806 C20.217,13.05 21.136,12.564 22.359,12.564 C24.467,12.564 26.015,14.31 25.997,17.012 C25.997,20.181 23.981,21.764 21.964,21.764 C20.938,21.764 19.947,21.387 19.316,20.343 L19.281,20.343 L19.173,21.566 L16.85,21.566 L16.85,21.566 Z M19.659,17.821 C19.659,18.002 19.677,18.164 19.713,18.307 C19.893,19.046 20.523,19.604 21.315,19.604 C22.485,19.604 23.206,18.704 23.206,17.119 C23.206,15.751 22.594,14.671 21.315,14.671 C20.577,14.671 19.893,15.228 19.713,16.021 C19.677,16.183 19.659,16.345 19.659,16.525 L19.659,17.821 L19.659,17.821 Z" id="Fill-2" fill="#000000" sketch:type="MSShapeGroup"></path>
            <path d="M35.986,17.065 C35.986,20.288 33.699,21.764 31.341,21.764 C28.767,21.764 26.785,20.072 26.785,17.227 C26.785,14.383 28.658,12.564 31.485,12.564 C34.186,12.564 35.986,14.419 35.986,17.065 L35.986,17.065 Z M29.612,17.155 C29.612,18.668 30.242,19.802 31.413,19.802 C32.476,19.802 33.159,18.74 33.159,17.155 C33.159,15.841 32.655,14.509 31.413,14.509 C30.099,14.509 29.612,15.859 29.612,17.155 L29.612,17.155 Z" id="Fill-3" fill="#000000" sketch:type="MSShapeGroup"></path>
            <path d="M38.955,12.762 L39.657,16.363 C39.837,17.281 40.017,18.254 40.161,19.262 L40.197,19.262 C40.377,18.254 40.629,17.245 40.846,16.381 L41.781,12.762 L43.942,12.762 L44.824,16.273 C45.059,17.264 45.293,18.254 45.473,19.262 L45.509,19.262 C45.635,18.254 45.814,17.264 46.013,16.255 L46.769,12.762 L49.452,12.762 L46.751,21.566 L44.176,21.566 L43.348,18.47 C43.132,17.605 42.97,16.813 42.79,15.733 L42.754,15.733 C42.592,16.831 42.412,17.642 42.178,18.47 L41.295,21.566 L38.721,21.566 L36.164,12.762 L38.955,12.762" id="Fill-4" fill="#000000" sketch:type="MSShapeGroup"></path>
            <path d="M52.112,18.038 C52.202,19.172 53.318,19.712 54.597,19.712 C55.533,19.712 56.289,19.586 57.027,19.352 L57.388,21.207 C56.487,21.566 55.389,21.747 54.201,21.747 C51.212,21.747 49.501,20.018 49.501,17.264 C49.501,15.03 50.888,12.564 53.949,12.564 C56.794,12.564 57.874,14.778 57.874,16.957 C57.874,17.426 57.82,17.84 57.784,18.038 L52.112,18.038 L52.112,18.038 Z M55.335,16.165 C55.335,15.499 55.047,14.383 53.787,14.383 C52.635,14.383 52.166,15.427 52.094,16.165 L55.335,16.165 L55.335,16.165 Z" id="Fill-5" fill="#000000" sketch:type="MSShapeGroup"></path>
            <path d="M59.06,15.661 C59.06,14.364 59.023,13.518 58.987,12.762 L61.346,12.762 L61.436,14.383 L61.508,14.383 C61.958,13.104 63.038,12.564 63.885,12.564 C64.137,12.564 64.263,12.564 64.461,12.599 L64.461,15.175 C64.263,15.139 64.028,15.102 63.723,15.102 C62.715,15.102 62.03,15.643 61.85,16.489 C61.814,16.669 61.796,16.886 61.796,17.102 L61.796,21.566 L59.06,21.566 L59.06,15.661" id="Fill-6" fill="#000000" sketch:type="MSShapeGroup"></path>
        </g>
    </g>
</svg>