<?xml version="1.0" encoding="UTF-8" standalone="no"?>
<svg width="18px" height="57px" viewBox="0 0 18 57" version="1.1" xmlns="http://www.w3.org/2000/svg" xmlns:xlink="http://www.w3.org/1999/xlink" xmlns:sketch="http://www.bohemiancoding.com/sketch/ns">
    <!-- Generator: Sketch 3.1.1 (8761) - http://www.bohemiancoding.com/sketch -->
    <title>Artboard 2</title>
    <desc>Created with Sketch.</desc>
    <defs></defs>
    <g id="Page-1" stroke="none" stroke-width="1" fill="none" fill-rule="evenodd" sketch:type="MSPage">
        <g id="Artboard-2" sketch:type="MSArtboardGroup">
            <g id="Imported-Layers" sketch:type="MSLayerGroup" fill="#6B6B6A">
                <path d="M11.243,0.092 L-0.025,0.092 L-0.025,22.41 L17.416,22.41 L17.416,6.262 L11.243,0.092 L11.243,0.092 Z M11.863,3.539 L13.971,5.646 L11.863,5.646 L11.863,3.539 L11.863,3.539 Z M1.975,20.41 L1.975,2.092 L9.863,2.092 L9.863,7.646 L15.417,7.646 L15.417,20.41 L1.975,20.41 L1.975,20.41 Z" id="Fill-1" sketch:type="MSShapeGroup"></path>
                <path d="M3.751,9.355 L11.54,9.355 L11.54,11.355 L3.751,11.355 L3.751,9.355 Z" id="Fill-2" sketch:type="MSShapeGroup"></path>
                <path d="M3.751,12.605 L11.54,12.605 L11.54,14.605 L3.751,14.605 L3.751,12.605 Z" id="Fill-3" sketch:type="MSShapeGroup"></path>
                <path d="M3.751,15.856 L9.102,15.856 L9.102,17.856 L3.751,17.856 L3.751,15.856 Z" id="Fill-4" sketch:type="MSShapeGroup"></path>
            </g>
            <g id="Imported-Layers" sketch:type="MSLayerGroup" transform="translate(0.000000, 34.000000)" fill="#A39F9A">
                <path d="M11.243,0.092 L-0.025,0.092 L-0.025,22.41 L17.416,22.41 L17.416,6.262 L11.243,0.092 L11.243,0.092 Z M11.863,3.539 L13.971,5.646 L11.863,5.646 L11.863,3.539 L11.863,3.539 Z M1.975,20.41 L1.975,2.092 L9.863,2.092 L9.863,7.646 L15.417,7.646 L15.417,20.41 L1.975,20.41 L1.975,20.41 Z" id="Fill-1" sketch:type="MSShapeGroup"></path>
                <path d="M3.751,9.355 L11.54,9.355 L11.54,11.355 L3.751,11.355 L3.751,9.355 Z" id="Fill-2" sketch:type="MSShapeGroup"></path>
                <path d="M3.751,12.605 L11.54,12.605 L11.54,14.605 L3.751,14.605 L3.751,12.605 Z" id="Fill-3" sketch:type="MSShapeGroup"></path>
                <path d="M3.751,15.856 L9.102,15.856 L9.102,17.856 L3.751,17.856 L3.751,15.856 Z" id="Fill-4" sketch:type="MSShapeGroup"></path>
            </g>
        </g>
    </g>
</svg>