<?xml version="1.0" encoding="UTF-8" standalone="no"?>
<svg width="14px" height="49px" viewBox="0 0 14 49" version="1.1" xmlns="http://www.w3.org/2000/svg" xmlns:xlink="http://www.w3.org/1999/xlink" xmlns:sketch="http://www.bohemiancoding.com/sketch/ns">
    <!-- Generator: Sketch 3.2.1 (9971) - http://www.bohemiancoding.com/sketch -->
    <title>Imported Layers + Imported Layers 2</title>
    <desc>Created with Sketch.</desc>
    <defs></defs>
    <g id="Page-1" stroke="none" stroke-width="1" fill="none" fill-rule="evenodd" sketch:type="MSPage">
        <g id="Imported-Layers-+-Imported-Layers-2" sketch:type="MSLayerGroup">
            <g id="Imported-Layers" fill="#6B6A65" sketch:type="MSShapeGroup">
                <path d="M7.89455882,1.40688312 C8.07058824,1.29238095 8.24661765,1.17688312 8.42058824,1.05939394 C8.20647059,1.04744589 7.99338235,1.03848485 7.77926471,1.02852814 C7.85544118,0.856277056 7.93264706,0.684025974 8.00676471,0.510779221 C7.82764706,0.582467532 7.64955882,0.656147186 7.47147059,0.72982684 C7.46426471,0.51974026 7.45602941,0.30965368 7.44470588,0.0995670996 C7.32323529,0.270822511 7.20485294,0.445064935 7.08955882,0.62030303 C6.95264706,0.428138528 6.81470588,0.237965368 6.67779412,0.0467965368 C6.66852941,0.272813853 6.66029412,0.498831169 6.65205882,0.724848485 C6.46161765,0.635238095 6.27014706,0.545627706 6.07867647,0.457012987 C6.18367647,0.65017316 6.29176471,0.842337662 6.40088235,1.03251082 C6.16,1.04047619 5.91808824,1.04943723 5.67720588,1.06238095 C5.88102941,1.17688312 6.08691176,1.2874026 6.29485294,1.39593074 C6.12294118,1.51242424 5.95205882,1.62891775 5.78220588,1.74839827 C5.98808824,1.75735931 6.195,1.76532468 6.40191176,1.77329004 C6.29794118,1.96147186 6.195,2.15064935 6.09514706,2.34082251 C6.25882353,2.27709957 6.42147059,2.21238095 6.58411765,2.145671 C6.59029412,2.18948052 6.60161765,2.2761039 6.60779412,2.31991342 C6.46882353,2.59571429 6.34117647,2.87748918 6.21970588,3.16025974 C6.60573529,2.99 6.98352941,2.80480519 7.36132353,2.61861472 C7.38191176,2.65545455 7.42514706,2.7291342 7.44676471,2.76497835 C7.47147059,2.53995671 7.49308824,2.31393939 7.50647059,2.08792208 C7.69279412,2.18748918 7.88014706,2.28506494 8.06955882,2.38164502 C7.97485294,2.18450216 7.88014706,1.98835498 7.78338235,1.79320346 C7.96661765,1.77528139 8.14882353,1.75735931 8.33205882,1.73844156 C8.18691176,1.62692641 8.04073529,1.51640693 7.89455882,1.40688312" id="Fill-1"></path>
                <path d="M6.12705882,3.73774892 C6.65205882,3.39324675 7.23367647,3.13935065 7.78338235,2.83367965 C7.87088235,3.0278355 7.95014706,3.22497835 8.02117647,3.42510823 C7.20794118,3.87515152 6.40397059,4.34411255 5.56088235,4.74038961 C5.69367647,4.38493506 5.77294118,3.95679654 6.12705882,3.73774892" id="Fill-2"></path>
                <path d="M5.86970588,5.06199134 C6.65720588,4.66272727 7.42102941,4.22164502 8.20647059,3.81939394 C8.29191176,4.01354978 8.36911765,4.21168831 8.43911765,4.41281385 C7.24808824,5.05103896 6.07970588,5.73108225 4.865,6.32848485 C4.97308824,6.03774892 5.05647059,5.72909091 5.25102941,5.47818182 C5.42088235,5.29497835 5.6525,5.18246753 5.86970588,5.06199134" id="Fill-3"></path>
                <path d="M7.50338235,5.35670996 C7.87602941,5.14662338 8.26411765,4.96341991 8.65838235,4.79515152 C8.72529412,4.98233766 8.79323529,5.16852814 8.86014706,5.35670996 C8.24558824,5.70917749 7.62485294,6.05268398 6.99176471,6.37329004 C6.52132353,6.62619048 5.96647059,6.54155844 5.45485294,6.51168831 C6.10235294,6.06961039 6.825,5.74900433 7.50338235,5.35670996" id="Fill-4"></path>
                <path d="M7.63617647,6.515671 C8.09426471,6.22991342 8.57191176,5.97502165 9.06191176,5.74402597 C9.11029412,5.98199134 9.19470588,6.21 9.29867647,6.43004329 C8.75411765,6.55151515 8.19102941,6.56744589 7.63617647,6.515671" id="Fill-5"></path>
                <path d="M13.7179412,12.7883983 C13.7158824,12.2786147 13.5264706,11.7937229 13.4842647,11.2899134 C13.5048529,10.7970563 13.7488235,10.3430303 13.7941176,9.8521645 C13.9402941,8.49307359 13.7117647,7.13199134 13.4575,5.79878788 C13.3802941,5.43536797 13.3123529,5.0530303 13.0838235,4.74636364 C12.6401471,4.74138528 12.3097059,5.07393939 11.9751471,5.30891775 C11.1938235,5.88541126 10.4629412,6.52164502 9.73617647,7.15987013 C8.81691176,6.98861472 7.87808824,7.06030303 6.94852941,7.054329 C6.02,7.06030303 5.07808824,6.98064935 4.16397059,7.18575758 C3.26632353,6.36831169 2.34397059,5.56779221 1.33102941,4.88575758 C1.13852941,4.74337662 0.774117647,4.6308658 0.669117647,4.92857143 C0.380882353,5.63350649 0.318088235,6.40316017 0.178088235,7.14393939 C0.0164705882,8.4174026 -0.129705882,9.77051948 0.380882353,10.9892208 C0.516764706,11.2859307 0.464264706,11.6115152 0.383970588,11.9141991 C0.205882353,12.5952381 0.0875,16.0551948 0.0607352941,16.2702597 C0.0669117647,16.9961039 -0.00102941176,17.7259307 0.0875,18.4477922 C0.159558824,19.020303 0.56,19.4902597 1.03558824,19.8118615 C2.07838235,20.5287446 5.08220588,22.6455411 5.63088235,22.8257576 C6.15588235,22.997013 6.71897059,22.9731169 7.26558824,22.9850649 C7.75455882,22.9312987 8.26102941,22.8884848 8.70264706,22.6624675 C9.20911765,22.4045887 11.8835294,20.5197835 12.7729412,19.9203896 C13.0879412,19.701342 13.4142647,19.4733333 13.6201471,19.1477489 C13.8630882,18.7693939 13.9382353,18.3173593 13.9454412,17.8782684 C13.9577941,17.1215584 13.7344118,13.730303 13.7179412,12.7883983 L13.7179412,12.7883983 Z M0.877058824,10.74329 C0.450882353,9.69683983 0.841029412,6.21995671 1.19926471,5.69822511 C1.49573529,5.71017316 3.17573529,6.98961039 3.72852941,7.51233766 C3.14897059,8.26406926 1.23529412,10.4117316 0.877058824,10.74329 L0.877058824,10.74329 Z M4.11888235,12.7341342 C4.63008824,12.7341342 5.04442647,13.1348918 5.04442647,13.629342 C5.04442647,13.6847013 5.03855882,13.7386667 5.02857353,13.7911385 C4.44654412,13.681316 3.61375,13.5240996 3.21248529,13.4475325 C3.29936765,13.040303 3.67211765,12.7341342 4.11888235,12.7341342 L4.11888235,12.7341342 Z M9.23680882,17.929645 C9.16310294,18.0129827 9.08641176,18.0938312 9.00529412,18.1709957 C8.95629412,18.2217749 8.90183824,18.2617013 8.84347059,18.2930649 C8.80455882,18.313974 8.76389706,18.3310996 8.72189706,18.3452381 C8.596,18.3874545 8.45805882,18.4019913 8.31980882,18.4079654 C8.27369118,18.4099567 8.22757353,18.4109524 8.18176471,18.4117489 C8.13605882,18.4125455 8.09066176,18.4130433 8.04619118,18.414039 C8.02385294,18.4145368 8.00182353,18.4151342 7.98,18.4159307 C7.74323529,18.4119481 7.50636765,18.4107532 7.26939706,18.4102554 C6.55858824,18.4085628 5.84736765,18.412645 5.13779412,18.3641558 C4.73632353,17.9559307 4.36161765,17.5228139 4.04455882,17.0498701 C4.15058824,16.9761905 4.25661765,16.9035065 4.36367647,16.8308225 C4.67970588,17.1952381 4.94735294,17.6293506 5.37970588,17.8772727 C5.80588235,18.0345887 6.27632353,17.9609091 6.72205882,17.9609091 C6.71485294,17.6584242 6.70661765,17.356039 6.69117647,17.0535541 C5.90305882,16.9308874 5.29405882,16.2625931 5.24989706,15.4398701 C5.24516176,15.4250346 5.24052941,15.4099004 5.23558824,15.3950649 C5.23960294,15.3949654 5.24361765,15.3949654 5.24773529,15.3949654 C5.24722059,15.3781385 5.24516176,15.3618095 5.24516176,15.3449827 C5.24516176,15.3410996 5.24577941,15.3374156 5.24577941,15.333632 L8.65714706,15.333632 C8.65714706,15.3374156 8.65766176,15.3410996 8.65766176,15.3449827 C8.65766176,15.3657922 8.65529412,15.3861039 8.65457353,15.4067143 C8.66002941,15.4069134 8.66538235,15.4069134 8.67073529,15.407013 C8.66404412,15.4279221 8.65786765,15.449329 8.65148529,15.4704372 C8.59383824,16.2826061 7.98494118,16.9380563 7.20166176,17.0551472 C7.18735294,17.3653983 7.17911765,17.6765455 7.17294118,17.9877922 C7.62897059,17.9967532 8.10867647,18.0843723 8.54720588,17.931039 C9.01455882,17.6512554 9.30485294,17.1783117 9.6775,16.798961 C9.73308824,16.9134632 9.78970588,17.0269697 9.84941176,17.1394805 C9.65104412,17.4061212 9.45782353,17.6794329 9.23680882,17.929645 L9.23680882,17.929645 Z M8.99304412,13.7911385 C8.98305882,13.7386667 8.97719118,13.6847013 8.97719118,13.629342 C8.97719118,13.1348918 9.39152941,12.7341342 9.90273529,12.7341342 C10.3495,12.7341342 10.72225,13.040303 10.8091324,13.4475325 C10.4078676,13.5240996 9.57517647,13.681316 8.99304412,13.7911385 L8.99304412,13.7911385 Z M13.0045588,10.6954978 C12.0914706,9.62515152 11.1526471,8.57571429 10.2426471,7.50437229 C10.9930882,6.82831169 11.7569118,6.13233766 12.6854412,5.69025974 C12.9870588,6.46787879 13.2886765,9.86311688 13.0045588,10.6954978 L13.0045588,10.6954978 Z" id="Fill-6"></path>
            </g>
            <g id="Imported-Layers-2" transform="translate(0.000000, 26.000000)" fill="#A39F9A" sketch:type="MSShapeGroup">
                <path d="M7.89455882,1.40688312 C8.07058824,1.29238095 8.24661765,1.17688312 8.42058824,1.05939394 C8.20647059,1.04744589 7.99338235,1.03848485 7.77926471,1.02852814 C7.85544118,0.856277056 7.93264706,0.684025974 8.00676471,0.510779221 C7.82764706,0.582467532 7.64955882,0.656147186 7.47147059,0.72982684 C7.46426471,0.51974026 7.45602941,0.30965368 7.44470588,0.0995670996 C7.32323529,0.270822511 7.20485294,0.445064935 7.08955882,0.62030303 C6.95264706,0.428138528 6.81470588,0.237965368 6.67779412,0.0467965368 C6.66852941,0.272813853 6.66029412,0.498831169 6.65205882,0.724848485 C6.46161765,0.635238095 6.27014706,0.545627706 6.07867647,0.457012987 C6.18367647,0.65017316 6.29176471,0.842337662 6.40088235,1.03251082 C6.16,1.04047619 5.91808824,1.04943723 5.67720588,1.06238095 C5.88102941,1.17688312 6.08691176,1.2874026 6.29485294,1.39593074 C6.12294118,1.51242424 5.95205882,1.62891775 5.78220588,1.74839827 C5.98808824,1.75735931 6.195,1.76532468 6.40191176,1.77329004 C6.29794118,1.96147186 6.195,2.15064935 6.09514706,2.34082251 C6.25882353,2.27709957 6.42147059,2.21238095 6.58411765,2.145671 C6.59029412,2.18948052 6.60161765,2.2761039 6.60779412,2.31991342 C6.46882353,2.59571429 6.34117647,2.87748918 6.21970588,3.16025974 C6.60573529,2.99 6.98352941,2.80480519 7.36132353,2.61861472 C7.38191176,2.65545455 7.42514706,2.7291342 7.44676471,2.76497835 C7.47147059,2.53995671 7.49308824,2.31393939 7.50647059,2.08792208 C7.69279412,2.18748918 7.88014706,2.28506494 8.06955882,2.38164502 C7.97485294,2.18450216 7.88014706,1.98835498 7.78338235,1.79320346 C7.96661765,1.77528139 8.14882353,1.75735931 8.33205882,1.73844156 C8.18691176,1.62692641 8.04073529,1.51640693 7.89455882,1.40688312" id="Fill-1"></path>
                <path d="M6.12705882,3.73774892 C6.65205882,3.39324675 7.23367647,3.13935065 7.78338235,2.83367965 C7.87088235,3.0278355 7.95014706,3.22497835 8.02117647,3.42510823 C7.20794118,3.87515152 6.40397059,4.34411255 5.56088235,4.74038961 C5.69367647,4.38493506 5.77294118,3.95679654 6.12705882,3.73774892" id="Fill-2"></path>
                <path d="M5.86970588,5.06199134 C6.65720588,4.66272727 7.42102941,4.22164502 8.20647059,3.81939394 C8.29191176,4.01354978 8.36911765,4.21168831 8.43911765,4.41281385 C7.24808824,5.05103896 6.07970588,5.73108225 4.865,6.32848485 C4.97308824,6.03774892 5.05647059,5.72909091 5.25102941,5.47818182 C5.42088235,5.29497835 5.6525,5.18246753 5.86970588,5.06199134" id="Fill-3"></path>
                <path d="M7.50338235,5.35670996 C7.87602941,5.14662338 8.26411765,4.96341991 8.65838235,4.79515152 C8.72529412,4.98233766 8.79323529,5.16852814 8.86014706,5.35670996 C8.24558824,5.70917749 7.62485294,6.05268398 6.99176471,6.37329004 C6.52132353,6.62619048 5.96647059,6.54155844 5.45485294,6.51168831 C6.10235294,6.06961039 6.825,5.74900433 7.50338235,5.35670996" id="Fill-4"></path>
                <path d="M7.63617647,6.515671 C8.09426471,6.22991342 8.57191176,5.97502165 9.06191176,5.74402597 C9.11029412,5.98199134 9.19470588,6.21 9.29867647,6.43004329 C8.75411765,6.55151515 8.19102941,6.56744589 7.63617647,6.515671" id="Fill-5"></path>
                <path d="M13.7179412,12.7883983 C13.7158824,12.2786147 13.5264706,11.7937229 13.4842647,11.2899134 C13.5048529,10.7970563 13.7488235,10.3430303 13.7941176,9.8521645 C13.9402941,8.49307359 13.7117647,7.13199134 13.4575,5.79878788 C13.3802941,5.43536797 13.3123529,5.0530303 13.0838235,4.74636364 C12.6401471,4.74138528 12.3097059,5.07393939 11.9751471,5.30891775 C11.1938235,5.88541126 10.4629412,6.52164502 9.73617647,7.15987013 C8.81691176,6.98861472 7.87808824,7.06030303 6.94852941,7.054329 C6.02,7.06030303 5.07808824,6.98064935 4.16397059,7.18575758 C3.26632353,6.36831169 2.34397059,5.56779221 1.33102941,4.88575758 C1.13852941,4.74337662 0.774117647,4.6308658 0.669117647,4.92857143 C0.380882353,5.63350649 0.318088235,6.40316017 0.178088235,7.14393939 C0.0164705882,8.4174026 -0.129705882,9.77051948 0.380882353,10.9892208 C0.516764706,11.2859307 0.464264706,11.6115152 0.383970588,11.9141991 C0.205882353,12.5952381 0.0875,16.0551948 0.0607352941,16.2702597 C0.0669117647,16.9961039 -0.00102941176,17.7259307 0.0875,18.4477922 C0.159558824,19.020303 0.56,19.4902597 1.03558824,19.8118615 C2.07838235,20.5287446 5.08220588,22.6455411 5.63088235,22.8257576 C6.15588235,22.997013 6.71897059,22.9731169 7.26558824,22.9850649 C7.75455882,22.9312987 8.26102941,22.8884848 8.70264706,22.6624675 C9.20911765,22.4045887 11.8835294,20.5197835 12.7729412,19.9203896 C13.0879412,19.701342 13.4142647,19.4733333 13.6201471,19.1477489 C13.8630882,18.7693939 13.9382353,18.3173593 13.9454412,17.8782684 C13.9577941,17.1215584 13.7344118,13.730303 13.7179412,12.7883983 L13.7179412,12.7883983 Z M0.877058824,10.74329 C0.450882353,9.69683983 0.841029412,6.21995671 1.19926471,5.69822511 C1.49573529,5.71017316 3.17573529,6.98961039 3.72852941,7.51233766 C3.14897059,8.26406926 1.23529412,10.4117316 0.877058824,10.74329 L0.877058824,10.74329 Z M4.11888235,12.7341342 C4.63008824,12.7341342 5.04442647,13.1348918 5.04442647,13.629342 C5.04442647,13.6847013 5.03855882,13.7386667 5.02857353,13.7911385 C4.44654412,13.681316 3.61375,13.5240996 3.21248529,13.4475325 C3.29936765,13.040303 3.67211765,12.7341342 4.11888235,12.7341342 L4.11888235,12.7341342 Z M9.23680882,17.929645 C9.16310294,18.0129827 9.08641176,18.0938312 9.00529412,18.1709957 C8.95629412,18.2217749 8.90183824,18.2617013 8.84347059,18.2930649 C8.80455882,18.313974 8.76389706,18.3310996 8.72189706,18.3452381 C8.596,18.3874545 8.45805882,18.4019913 8.31980882,18.4079654 C8.27369118,18.4099567 8.22757353,18.4109524 8.18176471,18.4117489 C8.13605882,18.4125455 8.09066176,18.4130433 8.04619118,18.414039 C8.02385294,18.4145368 8.00182353,18.4151342 7.98,18.4159307 C7.74323529,18.4119481 7.50636765,18.4107532 7.26939706,18.4102554 C6.55858824,18.4085628 5.84736765,18.412645 5.13779412,18.3641558 C4.73632353,17.9559307 4.36161765,17.5228139 4.04455882,17.0498701 C4.15058824,16.9761905 4.25661765,16.9035065 4.36367647,16.8308225 C4.67970588,17.1952381 4.94735294,17.6293506 5.37970588,17.8772727 C5.80588235,18.0345887 6.27632353,17.9609091 6.72205882,17.9609091 C6.71485294,17.6584242 6.70661765,17.356039 6.69117647,17.0535541 C5.90305882,16.9308874 5.29405882,16.2625931 5.24989706,15.4398701 C5.24516176,15.4250346 5.24052941,15.4099004 5.23558824,15.3950649 C5.23960294,15.3949654 5.24361765,15.3949654 5.24773529,15.3949654 C5.24722059,15.3781385 5.24516176,15.3618095 5.24516176,15.3449827 C5.24516176,15.3410996 5.24577941,15.3374156 5.24577941,15.333632 L8.65714706,15.333632 C8.65714706,15.3374156 8.65766176,15.3410996 8.65766176,15.3449827 C8.65766176,15.3657922 8.65529412,15.3861039 8.65457353,15.4067143 C8.66002941,15.4069134 8.66538235,15.4069134 8.67073529,15.407013 C8.66404412,15.4279221 8.65786765,15.449329 8.65148529,15.4704372 C8.59383824,16.2826061 7.98494118,16.9380563 7.20166176,17.0551472 C7.18735294,17.3653983 7.17911765,17.6765455 7.17294118,17.9877922 C7.62897059,17.9967532 8.10867647,18.0843723 8.54720588,17.931039 C9.01455882,17.6512554 9.30485294,17.1783117 9.6775,16.798961 C9.73308824,16.9134632 9.78970588,17.0269697 9.84941176,17.1394805 C9.65104412,17.4061212 9.45782353,17.6794329 9.23680882,17.929645 L9.23680882,17.929645 Z M8.99304412,13.7911385 C8.98305882,13.7386667 8.97719118,13.6847013 8.97719118,13.629342 C8.97719118,13.1348918 9.39152941,12.7341342 9.90273529,12.7341342 C10.3495,12.7341342 10.72225,13.040303 10.8091324,13.4475325 C10.4078676,13.5240996 9.57517647,13.681316 8.99304412,13.7911385 L8.99304412,13.7911385 Z M13.0045588,10.6954978 C12.0914706,9.62515152 11.1526471,8.57571429 10.2426471,7.50437229 C10.9930882,6.82831169 11.7569118,6.13233766 12.6854412,5.69025974 C12.9870588,6.46787879 13.2886765,9.86311688 13.0045588,10.6954978 L13.0045588,10.6954978 Z" id="Fill-6"></path>
            </g>
        </g>
    </g>
</svg>