<?xml version="1.0" encoding="UTF-8" standalone="no"?>
<svg width="28px" height="62px" viewBox="0 0 28 62" version="1.1" xmlns="http://www.w3.org/2000/svg" xmlns:xlink="http://www.w3.org/1999/xlink" xmlns:sketch="http://www.bohemiancoding.com/sketch/ns">
    <!-- Generator: Sketch 3.1.1 (8761) - http://www.bohemiancoding.com/sketch -->
    <title>Artboard 3</title>
    <desc>Created with Sketch.</desc>
    <defs></defs>
    <g id="Page-1" stroke="none" stroke-width="1" fill="none" fill-rule="evenodd" sketch:type="MSPage">
        <g id="Artboard-3" sketch:type="MSArtboardGroup">
            <g id="Imported-Layers" sketch:type="MSLayerGroup" transform="translate(1.000000, 0.000000)" fill="#6B6B6A">
                <path d="M12.948,22.747 C11.457,22.747 10.173,22.673 9.425,22.542 C6.03,21.949 -0.291,20.846 -0.291,11.915 C-0.291,9.849 0.342,8.015 1.591,6.459 C1.31,5.451 1.039,3.531 1.978,1.148 L2.152,0.708 L2.604,0.564 C2.69,0.535 2.937,0.471 3.343,0.471 C4.306,0.471 5.961,0.819 8.453,2.435 C9.948,2.06 11.527,1.866 13.153,1.858 C14.788,1.866 16.369,2.06 17.866,2.435 C20.356,0.819 22.008,0.471 22.971,0.471 C23.377,0.471 23.623,0.535 23.711,0.564 L24.161,0.708 L24.335,1.148 C25.275,3.529 25.006,5.449 24.725,6.458 C25.973,8.011 26.604,9.844 26.604,11.915 C26.604,19.87 21.677,21.744 16.856,22.528 C16.025,22.663 14.527,22.747 12.948,22.747 L12.948,22.747 Z M3.628,2.488 C3.004,4.548 3.523,6.006 3.644,6.298 L3.885,6.885 L3.458,7.353 C2.297,8.623 1.709,10.158 1.709,11.915 C1.709,18.619 5.359,19.802 9.77,20.571 C10.399,20.682 11.587,20.747 12.948,20.747 C14.405,20.747 15.813,20.672 16.535,20.554 C20.618,19.89 24.605,18.676 24.605,11.915 C24.605,10.153 24.017,8.619 22.859,7.355 L22.431,6.886 L22.672,6.299 C22.792,6.006 23.311,4.547 22.686,2.488 C22.039,2.562 20.719,2.911 18.606,4.344 L18.224,4.602 L17.778,4.479 C16.341,4.08 14.742,3.866 13.153,3.858 C11.574,3.866 9.977,4.08 8.542,4.479 L8.097,4.602 L7.714,4.344 C5.598,2.91 4.275,2.562 3.628,2.488 L3.628,2.488 Z" id="Fill-1" sketch:type="MSShapeGroup"></path>
                <path d="M9.763,14.667 C9.763,15.691 9.214,16.521 8.538,16.521 C7.861,16.521 7.313,15.691 7.313,14.667 C7.313,13.643 7.861,12.812 8.538,12.812 C9.214,12.812 9.763,13.643 9.763,14.667" id="Fill-2" sketch:type="MSShapeGroup"></path>
                <path d="M19,14.667 C19,15.691 18.452,16.521 17.775,16.521 C17.099,16.521 16.551,15.691 16.551,14.667 C16.551,13.643 17.099,12.812 17.775,12.812 C18.452,12.812 19,13.643 19,14.667" id="Fill-3" sketch:type="MSShapeGroup"></path>
            </g>
            <g id="Imported-Layers-2" sketch:type="MSLayerGroup" transform="translate(1.000000, 39.000000)" fill="#A39F9A">
                <path d="M12.948,22.747 C11.457,22.747 10.173,22.673 9.425,22.542 C6.03,21.949 -0.291,20.846 -0.291,11.915 C-0.291,9.849 0.342,8.015 1.591,6.459 C1.31,5.451 1.039,3.531 1.978,1.148 L2.152,0.708 L2.604,0.564 C2.69,0.535 2.937,0.471 3.343,0.471 C4.306,0.471 5.961,0.819 8.453,2.435 C9.948,2.06 11.527,1.866 13.153,1.858 C14.788,1.866 16.369,2.06 17.866,2.435 C20.356,0.819 22.008,0.471 22.971,0.471 C23.377,0.471 23.623,0.535 23.711,0.564 L24.161,0.708 L24.335,1.148 C25.275,3.529 25.006,5.449 24.725,6.458 C25.973,8.011 26.604,9.844 26.604,11.915 C26.604,19.87 21.677,21.744 16.856,22.528 C16.025,22.663 14.527,22.747 12.948,22.747 L12.948,22.747 Z M3.628,2.488 C3.004,4.548 3.523,6.006 3.644,6.298 L3.885,6.885 L3.458,7.353 C2.297,8.623 1.709,10.158 1.709,11.915 C1.709,18.619 5.359,19.802 9.77,20.571 C10.399,20.682 11.587,20.747 12.948,20.747 C14.405,20.747 15.813,20.672 16.535,20.554 C20.618,19.89 24.605,18.676 24.605,11.915 C24.605,10.153 24.017,8.619 22.859,7.355 L22.431,6.886 L22.672,6.299 C22.792,6.006 23.311,4.547 22.686,2.488 C22.039,2.562 20.719,2.911 18.606,4.344 L18.224,4.602 L17.778,4.479 C16.341,4.08 14.742,3.866 13.153,3.858 C11.574,3.866 9.977,4.08 8.542,4.479 L8.097,4.602 L7.714,4.344 C5.598,2.91 4.275,2.562 3.628,2.488 L3.628,2.488 Z" id="Fill-1" sketch:type="MSShapeGroup"></path>
                <path d="M9.763,14.667 C9.763,15.691 9.214,16.521 8.538,16.521 C7.861,16.521 7.313,15.691 7.313,14.667 C7.313,13.643 7.861,12.812 8.538,12.812 C9.214,12.812 9.763,13.643 9.763,14.667" id="Fill-2" sketch:type="MSShapeGroup"></path>
                <path d="M19,14.667 C19,15.691 18.452,16.521 17.775,16.521 C17.099,16.521 16.551,15.691 16.551,14.667 C16.551,13.643 17.099,12.812 17.775,12.812 C18.452,12.812 19,13.643 19,14.667" id="Fill-3" sketch:type="MSShapeGroup"></path>
            </g>
        </g>
    </g>
</svg>