<?xml version="1.0" encoding="UTF-8" standalone="no"?>
<svg width="28px" height="23px" viewBox="0 0 28 23" version="1.1" xmlns="http://www.w3.org/2000/svg" xmlns:xlink="http://www.w3.org/1999/xlink" xmlns:sketch="http://www.bohemiancoding.com/sketch/ns">
    <!-- Generator: Sketch 3.1.1 (8761) - http://www.bohemiancoding.com/sketch -->
    <title>Imported Layers</title>
    <desc>Created with Sketch.</desc>
    <defs></defs>
    <g id="Page-1" stroke="none" stroke-width="1" fill="none" fill-rule="evenodd" sketch:type="MSPage">
        <g id="Imported-Layers" sketch:type="MSLayerGroup" transform="translate(0.000000, 1.000000)">
            <path d="M13.418,21.935 C11.924,21.935 10.637,21.86 9.888,21.729 C6.492,21.137 0.171,20.035 0.171,11.102 C0.171,9.036 0.804,7.203 2.053,5.646 C1.771,4.64 1.5,2.721 2.44,0.336 L2.614,-0.104 L3.065,-0.249 C3.153,-0.277 3.399,-0.342 3.805,-0.342 C4.769,-0.342 6.423,0.007 8.915,1.622 C10.412,1.247 11.99,1.054 13.616,1.047 C15.249,1.054 16.83,1.247 18.329,1.622 C20.818,0.007 22.471,-0.342 23.433,-0.342 C23.839,-0.342 24.086,-0.277 24.173,-0.249 L24.623,-0.104 L24.797,0.336 C25.739,2.719 25.469,4.639 25.187,5.646 C26.435,7.199 27.066,9.031 27.066,11.102 C27.066,20.128 20.483,21.201 17.319,21.717 C16.489,21.852 14.995,21.935 13.418,21.935 L13.418,21.935 Z M4.09,1.676 C3.466,3.736 3.985,5.192 4.106,5.485 L4.348,6.072 L3.92,6.541 C2.76,7.81 2.171,9.346 2.171,11.102 C2.171,17.808 5.822,18.99 10.232,19.759 C10.864,19.869 12.054,19.936 13.418,19.936 C14.873,19.936 16.278,19.859 16.997,19.742 C21.08,19.077 25.066,17.862 25.066,11.102 C25.066,9.341 24.479,7.807 23.321,6.542 L22.892,6.072 L23.134,5.484 C23.255,5.192 23.774,3.736 23.149,1.676 C22.502,1.749 21.182,2.099 19.069,3.531 L18.686,3.79 L18.24,3.667 C16.802,3.268 15.203,3.054 13.616,3.047 C12.037,3.054 10.44,3.268 9.005,3.667 L8.559,3.79 L8.176,3.531 C6.06,2.098 4.737,1.749 4.09,1.676 L4.09,1.676 Z" id="Fill-1" fill="#FFFFFF" sketch:type="MSShapeGroup"></path>
            <path d="M10.225,13.854 C10.225,14.879 9.676,15.709 9,15.709 C8.324,15.709 7.775,14.879 7.775,13.854 C7.775,12.83 8.324,12 9,12 C9.676,12 10.225,12.83 10.225,13.854" id="Fill-2" fill="#FCFCFA" sketch:type="MSShapeGroup"></path>
            <path d="M19.462,13.854 C19.462,14.879 18.914,15.709 18.237,15.709 C17.561,15.709 17.013,14.879 17.013,13.854 C17.013,12.83 17.561,12 18.237,12 C18.914,12 19.462,12.83 19.462,13.854" id="Fill-3" fill="#FCFCFA" sketch:type="MSShapeGroup"></path>
        </g>
    </g>
</svg>