<?xml version="1.0" encoding="UTF-8" standalone="no"?>
<svg width="77px" height="17px" viewBox="0 0 77 17" version="1.1" xmlns="http://www.w3.org/2000/svg" xmlns:xlink="http://www.w3.org/1999/xlink" xmlns:sketch="http://www.bohemiancoding.com/sketch/ns">
    <title>Group copy 4 + bitcore copy 5@2x</title>
    <description>Created with Sketch (http://www.bohemiancoding.com/sketch)</description>
    <defs>
        <linearGradient x1="15.2309634%" y1="37.2440314%" x2="136.882932%" y2="24.3752426%" id="linearGradient-1">
            <stop stop-color="#F4F4F4" offset="0%"></stop>
            <stop stop-color="#62707E" offset="100%"></stop>
        </linearGradient>
    </defs>
    <g id="Page-1" stroke="none" stroke-width="1" fill="none" fill-rule="evenodd" sketch:type="MSPage">
        <g id="Artboard-1-1" sketch:type="MSArtboardGroup" transform="translate(-908.000000, -2484.000000)">
            <g id="Group-copy-4-+-bitcore-copy-5" sketch:type="MSLayerGroup" transform="translate(909.000000, 2486.000000)">
                <g id="Group-copy-4" transform="translate(-0.061340, 1.001797)" sketch:type="MSShapeGroup">
                    <g id="Group" transform="translate(0.049904, 0.000000)">
                        <path d="M6.94283252,12.4856694 C10.7553944,12.4856694 13.8460861,9.45911512 13.8460861,5.72567083 C13.8460861,3.49409584 13.0766699,2.25996843 12.3984792,1.57050139 C11.7202885,0.881034374 8.9957367,0.0911067241 6.83766577,0.0911064315 C4.95196408,0.0911061759 4.24950296,0.010060827 2.85869511,0.53057191 C1.4678872,1.05108285 0.0395789232,3.30454553 0.0395789232,5.72567083 C0.0395789232,9.45911512 3.13027065,12.4856694 6.94283252,12.4856694 Z" id="Oval-6" stroke="#D9D9D9" stroke-width="0.2" fill="#FFFFFF"></path>
                        <path d="M1.77067762,1.23674675 C1.77067762,1.23674675 2.69181353,-0.185460819 7.20078878,0.022270277 C11.709764,0.230001379 12.4836019,1.66552148 12.4836019,1.66552148 L12.6711847,3.07824754 L12.4836019,4.75201264 L12.0213351,6.72466953 L11.7283243,7.49357034 L6.7789881,5.26340674 L4.76380434,4.02761388 L3.02813207,2.6940448 L2.13150701,1.79574818 L1.77067762,1.23674675 Z" id="Path-133" stroke="#D9D9D9" stroke-width="0.2" fill="url(#linearGradient-1)"></path>
                        <path d="M4.21110922,1.26631537 L3.47218355,2.39098457 L3.1703123,2.93248567 L7.3946182,5.84006258 L11.7243139,7.13466821 C11.7243139,7.13466821 12.1445654,5.64428487 12.3214824,4.40137022 C12.4042143,3.82014538 12.4215597,3.26148618 12.4252975,2.97623423 C12.4342865,2.29025258 11.5255733,1.63406119 11.5255733,1.63406119 L11.6051777,3.84911736 L11.1367467,6.22808183 L8.20576213,4.76951206 L6.23296066,3.59742133 L4.45047058,2.30787244 L4.24697131,1.81646054 L4.21110922,1.26631537 Z" id="Path" opacity="0.8" fill="#121B23"></path>
                        <path d="M1.11794265,2.12499849 C1.35467571,1.71737251 1.80643434,1.26284076 1.80643434,1.26284076 C1.80643434,1.26284076 3.2619953,3.4953737 7.4441807,5.38371805 C11.6263665,7.27206215 11.6263665,7.11795449 11.6263665,7.11795449 C11.6263665,7.11795449 11.9270385,6.29293874 12.2282698,4.9430856 C12.5295011,3.59323245 12.4123936,1.67886541 12.4123936,1.67886541 C12.4123936,1.67886541 12.7097855,1.95939571 12.9615695,2.35077689 C13.2133535,2.74215806 13.3459508,3.14876457 13.3459508,3.14876457 C13.3459508,3.14876457 13.6094187,4.01484794 13.0271053,5.48151952 C12.4447921,6.94819111 11.9284152,7.79694314 11.9284152,7.79694314 C11.9284152,7.79694314 8.29188706,6.81235572 6.27046166,6.0122415 C4.24903628,5.21212728 1.78650271,3.97799712 1.18881281,3.00769432 C0.903286035,2.54416392 0.881209578,2.53262446 1.11794265,2.12499849 Z" id="Path-131" stroke="#DADADA" stroke-width="0.2" fill="#E7E7E7"></path>
                        <path d="M4.24473256,1.23105554 C4.24473256,1.23105554 5.82537906,0.930583642 7.78164507,1.07383311 C9.73791109,1.21708252 10.6176948,1.3320399 11.3855124,1.89426255 C12.1533301,2.45648519 11.138069,6.39416363 11.138069,6.39416363 C11.138069,6.39416363 8.05129508,4.88586137 6.92978389,4.16423045 C5.80827273,3.44259949 4.65956873,2.61063456 4.22800537,2.13344438 C3.796442,1.65625421 4.24473256,1.23105554 4.24473256,1.23105554 Z" id="Path-132" fill="#005B84"></path>
                        <path d="M4.33845741,1.16003473 C4.33845741,1.16003473 5.09513385,0.645036615 6.91813189,0.71132815 C8.74112995,0.777619536 10.7281468,0.994302224 11.4959645,1.55652487 C12.2637821,2.11874751 11.2124221,6.06446798 11.2124221,6.06446798 C11.2124221,6.06446798 8.1655461,4.54529983 7.06645224,3.8419949 C5.9673585,3.13868987 4.77002078,2.27289688 4.33845742,1.79570671 C3.90689406,1.31851653 4.33845741,1.16003473 4.33845741,1.16003473 Z" id="Path-132" fill="#3498DB"></path>
                        <path d="M5.72464339,11.501424 C6.76466977,10.2447158 6.68390106,10.2037358 5.35048711,11.1880279 C5.35048711,11.1880279 6.70083074,10.4197935 5.31816827,11.206541 C3.9355058,11.9932885 5.31816827,11.206541 5.31816827,11.206541 C3.99269469,11.8147112 4.22705107,12.0417951 5.66987738,11.5290931 C5.66987738,11.5290931 4.49507435,12.1015031 5.66987738,11.5290931 C6.84468047,10.9566831 5.72464339,11.501424 5.72464339,11.501424 Z" id="Path-116" fill-opacity="0.233800551" fill="#D8D8D8" transform="translate(5.259220, 10.843077) rotate(50.000000) translate(-5.259220, -10.843077) "></path>
                    </g>
                </g>
                <path d="M25.6735644,3.87786679 C26.2242335,3.87786679 26.7003257,3.97537965 27.1018553,4.17040829 C27.5033848,4.36543693 27.8360758,4.62929526 28.099938,4.96199118 C28.3638003,5.29468709 28.558826,5.68473853 28.685021,6.13215718 C28.8112161,6.57957583 28.8743126,7.06140407 28.8743126,7.57765636 C28.8743126,8.3692432 28.7280433,9.1177978 28.4355004,9.82334259 C28.1429574,10.5288874 27.7443019,11.1426448 27.2395219,11.6646332 C26.7347419,12.1866216 26.1381926,12.5996173 25.4498562,12.9036325 C24.7615198,13.2076477 24.0158333,13.3596531 23.2127741,13.3596531 C23.1095237,13.3596531 22.9288381,13.3567851 22.670712,13.3510489 C22.4125858,13.3453128 22.1171792,13.3195006 21.7844833,13.2736115 C21.4517874,13.2277224 21.0990203,13.1588898 20.7261714,13.0671116 C20.3533225,12.9753334 20.0005554,12.8491403 19.6678595,12.6885285 L22.6448995,0.178077217 L25.3121896,-0.234922549 L24.2452736,4.20482494 C24.474719,4.10157448 24.704161,4.02126977 24.9336065,3.96390841 C25.163052,3.90654704 25.4097021,3.87786679 25.6735644,3.87786679 Z M23.4364824,11.2430293 C23.8380119,11.2430293 24.2165912,11.1455164 24.5722317,10.9504878 C24.9278722,10.7554591 25.2347509,10.4944688 25.492877,10.1675091 C25.7510032,9.84054928 25.954633,9.47057402 26.1037725,9.05757219 C26.2529121,8.64457036 26.3274807,8.21436657 26.3274807,7.76694792 C26.3274807,7.21627881 26.2357039,6.78607502 26.0521475,6.47632365 C25.8685912,6.16657228 25.5301642,6.01169891 25.0368564,6.01169891 C24.8762446,6.01169891 24.6668788,6.04037917 24.4087526,6.09774053 C24.1506265,6.1551019 23.9183164,6.27555896 23.7118155,6.45911533 L22.5760662,11.174196 C22.6448998,11.1856683 22.7051283,11.1971404 22.7567536,11.2086126 C22.8083788,11.2200849 22.8628713,11.228689 22.9202326,11.2344251 C22.977594,11.2401613 23.0464266,11.2430293 23.1267325,11.2430293 L23.4364824,11.2430293 Z M32.1094774,13.1187366 L29.5626456,13.1187366 L31.713686,4.06715835 L34.2777262,4.06715835 L32.1094774,13.1187366 Z M33.3484767,2.96582564 C32.9928363,2.96582564 32.6716174,2.8597087 32.3848106,2.64747165 C32.0980038,2.4352346 31.9546025,2.11114775 31.9546025,1.67520137 C31.9546025,1.43428363 32.003359,1.20770964 32.1008733,0.995472588 C32.1983876,0.783235535 32.3274487,0.599681919 32.4880606,0.444806233 C32.6486724,0.289930546 32.835094,0.16660546 33.0473311,0.0748272755 C33.2595681,-0.0169509092 33.4861421,-0.0628393132 33.7270599,-0.0628393132 C34.0827003,-0.0628393132 34.4039192,0.0432776211 34.690726,0.255514673 C34.9775328,0.467751725 35.1209341,0.791838579 35.1209341,1.22778496 C35.1209341,1.46870269 35.0721776,1.69527669 34.9746633,1.90751374 C34.877149,2.11975079 34.7480879,2.30330441 34.587476,2.45818009 C34.4268642,2.61305578 34.2404426,2.73638087 34.0282055,2.82815905 C33.8159685,2.91993723 33.5893945,2.96582564 33.3484767,2.96582564 Z M36.8933914,1.81286796 L39.5606816,1.39986819 L38.9067653,4.06715835 L41.763347,4.06715835 L41.2470973,6.16657383 L38.4077239,6.16657383 L37.6505576,9.33290537 C37.581724,9.59676765 37.5387036,9.84341782 37.5214952,10.0728633 C37.5042868,10.3023087 37.5329671,10.5002025 37.6075368,10.6665504 C37.6821066,10.8328984 37.8111677,10.9619595 37.9947241,11.0537377 C38.1782805,11.1455159 38.4306667,11.1914043 38.7518904,11.1914043 C39.0272249,11.1914043 39.2939513,11.1655921 39.5520774,11.1139669 C39.8102035,11.0623416 40.0711938,10.990641 40.3350561,10.8988628 L40.5243477,12.8606117 C40.1801795,12.9868067 39.8073362,13.0957917 39.4058066,13.1875699 C39.0042771,13.279348 38.5281849,13.3252364 37.9775158,13.3252364 C37.1859289,13.3252364 36.5721715,13.2076474 36.1362252,12.9724658 C35.7002788,12.7372842 35.3905321,12.4160654 35.2069757,12.0087997 C35.0234193,11.601534 34.9431146,11.1340459 34.9660592,10.6063213 C34.9890037,10.0785968 35.0693084,9.52219985 35.2069757,8.93711393 L36.8933914,1.81286796 Z M41.8493886,9.5049886 C41.8493886,8.72487403 41.9755817,7.99065957 42.2279717,7.30232318 C42.4803617,6.6139868 42.8417329,6.0117015 43.3120961,5.49544921 C43.7824593,4.97919692 44.3531963,4.57193733 45.0243243,4.27365823 C45.6954523,3.97537913 46.4440069,3.82624182 47.2700105,3.82624182 C47.7862628,3.82624182 48.2480149,3.87499825 48.6552806,3.97251257 C49.0625463,4.07002689 49.4325215,4.19908803 49.7652174,4.35969985 L48.8875929,6.35586539 C48.6581475,6.2640872 48.4201014,6.18091447 48.1734475,6.10634469 C47.9267936,6.03177492 47.625651,5.99449059 47.2700105,5.99449059 C46.40959,5.99449059 45.7327361,6.28416114 45.2394283,6.86351093 C44.7461206,7.44286072 44.4994704,8.23156767 44.4994704,9.22965543 C44.4994704,9.81474135 44.6256635,10.2879655 44.8780535,10.6493421 C45.1304436,11.0107187 45.5950636,11.1914043 46.2719278,11.1914043 C46.6046237,11.1914043 46.9258425,11.156988 47.2355939,11.0881544 C47.5453453,11.0193207 47.8206757,10.93328 48.0615934,10.8300295 L48.250885,12.87782 C47.9296613,13.004015 47.5768942,13.115868 47.1925731,13.2133823 C46.8082519,13.3108967 46.3407638,13.3596531 45.7900947,13.3596531 C45.0788138,13.3596531 44.4765285,13.2564042 43.9832207,13.0499033 C43.489913,12.8434023 43.0826534,12.5652039 42.7614297,12.2152996 C42.4402061,11.8653952 42.2078961,11.4552676 42.0644926,10.9849044 C41.9210892,10.5145412 41.8493886,10.0212409 41.8493886,9.5049886 Z M53.2585071,13.3596531 C52.6504767,13.3596531 52.12276,13.2678763 51.6753414,13.0843199 C51.2279227,12.9007635 50.8579475,12.6426413 50.5654045,12.3099453 C50.2728615,11.9772494 50.0520236,11.58433 49.902884,11.1311752 C49.7537445,10.6780204 49.6791758,10.176116 49.6791758,9.62544687 C49.6791758,8.93711048 49.7910288,8.24878442 50.0147381,7.56044804 C50.2384475,6.87211165 50.5682704,6.2526182 51.0042167,5.70194909 C51.4401631,5.15127998 51.9736158,4.70100002 52.6045908,4.35109569 C53.2355659,4.00119136 53.9583082,3.82624182 54.7728396,3.82624182 C55.3693978,3.82624182 55.8942464,3.91801863 56.3474012,4.101575 C56.800556,4.28513137 57.1733993,4.54325364 57.4659423,4.87594956 C57.7584852,5.20864548 57.9793232,5.60156494 58.1284627,6.05471972 C58.2776023,6.50787451 58.3521709,7.00977893 58.3521709,7.56044804 C58.3521709,8.24878442 58.243186,8.93711048 58.0252128,9.62544687 C57.8072396,10.3137833 57.4860208,10.9332767 57.0615467,11.4839458 C56.6370725,12.0346149 56.1064879,12.4848949 55.4697767,12.8347992 C54.8330656,13.1847035 54.0959831,13.3596531 53.2585071,13.3596531 Z M54.5319231,5.99449059 C54.1533381,5.99449059 53.8206471,6.10347555 53.5338403,6.32144874 C53.2470335,6.53942193 53.0061194,6.81475235 52.8110907,7.14744827 C52.6160621,7.48014419 52.4697928,7.8443834 52.3722785,8.24017682 C52.2747642,8.63597024 52.2260077,9.01168155 52.2260077,9.36732201 C52.2260077,9.95240794 52.3177845,10.4026879 52.5013409,10.7181754 C52.6848973,11.0336629 53.0175882,11.1914043 53.4994237,11.1914043 C53.8780087,11.1914043 54.2106996,11.0824194 54.4975064,10.8644462 C54.7843133,10.646473 55.0252274,10.3711426 55.220256,10.0384466 C55.4152847,9.70575072 55.561554,9.34151151 55.6590683,8.94571809 C55.7565826,8.54992467 55.805339,8.17421336 55.805339,7.81857289 C55.805339,7.23348696 55.7135622,6.783207 55.5300059,6.46771949 C55.3464495,6.15223198 55.0137586,5.99449059 54.5319231,5.99449059 Z M65.9582499,6.26982377 C65.7288045,6.2124624 65.5022305,6.15796992 65.2785212,6.10634469 C65.0548118,6.05471947 64.7249889,6.02890724 64.2890426,6.02890724 C64.1284307,6.02890724 63.9506132,6.04324736 63.7555845,6.07192805 C63.5605559,6.10060873 63.3999465,6.13215701 63.2737515,6.16657383 L61.6045441,13.1187366 L59.0405039,13.1187366 L61.1055027,4.54899141 C61.5988104,4.38837959 62.1523393,4.23637425 62.7661059,4.09297083 C63.3798725,3.94956742 64.0710666,3.87786679 64.8397089,3.87786679 C65.1265157,3.87786679 65.4448665,3.90367902 65.7947709,3.95530425 C66.1446752,4.00692947 66.4515539,4.09010221 66.7154162,4.20482494 L65.9582499,6.26982377 Z M66.543333,9.5738219 C66.543333,8.83959642 66.6723941,8.12832616 66.9305202,7.43998977 C67.1886464,6.75165339 67.5528856,6.14076401 68.0232488,5.60730331 C68.493612,5.07384261 69.064349,4.64363882 69.735477,4.31667904 C70.406605,3.98971926 71.1494235,3.82624182 71.9639549,3.82624182 C72.3654844,3.82624182 72.7383277,3.88360232 73.0824959,3.99832505 C73.4266641,4.11304779 73.7278068,4.27939325 73.9859329,4.49736644 C74.244059,4.71533963 74.4448208,4.98206598 74.5882242,5.29755349 C74.7316276,5.613041 74.8033283,5.97154415 74.8033283,6.37307371 C74.8033283,7.015521 74.659927,7.5604458 74.3731202,8.00786445 C74.0863134,8.4552831 73.6876578,8.81952231 73.1771417,9.100593 C72.6666255,9.38166369 72.0614722,9.58529348 71.3616636,9.71148849 C70.6618549,9.83768349 69.8989602,9.90078005 69.0729565,9.90078005 C69.1532624,10.3826155 69.328212,10.7239105 69.5978104,10.9246753 C69.8674088,11.1254401 70.2947446,11.225821 70.8798305,11.225821 C71.2469432,11.225821 71.6197865,11.1942727 71.9983715,11.1311752 C72.3769565,11.0680777 72.7325917,10.9734328 73.0652876,10.8472378 L73.2545792,12.8606117 C72.9333555,12.9868067 72.5232279,13.1015277 72.024184,13.2047782 C71.5251401,13.3080286 70.9830834,13.3596531 70.3979974,13.3596531 C69.6867165,13.3596531 69.0872992,13.2592722 68.5997276,13.0585074 C68.112156,12.8577426 67.7163685,12.5852802 67.4123533,12.2411121 C67.1083381,11.8969439 66.8875001,11.4954203 66.7498328,11.0365294 C66.6121656,10.5776385 66.543333,10.0900742 66.543333,9.5738219 Z M71.5509551,5.856824 C70.9658692,5.856824 70.4524927,6.06618985 70.0108102,6.48492781 C69.5691276,6.90366578 69.2794571,7.45719465 69.1417898,8.14553104 C69.8530707,8.12258649 70.4266758,8.06235796 70.8626222,7.96484364 C71.2985685,7.86732932 71.6369955,7.74974029 71.8779133,7.61207301 C72.118831,7.47440573 72.2794404,7.32526842 72.3597463,7.1646566 C72.4400522,7.00404477 72.4802046,6.84343536 72.4802046,6.68282353 C72.4802046,6.13215443 72.1704579,5.856824 71.5509551,5.856824 Z" id="bitcore-copy-5" fill="#FFFFFF" sketch:type="MSShapeGroup"></path>
            </g>
        </g>
    </g>
</svg>