<?xml version="1.0" encoding="UTF-8" standalone="no"?>
<svg width="211px" height="146px" viewBox="0 0 211 146" version="1.1" xmlns="http://www.w3.org/2000/svg" xmlns:xlink="http://www.w3.org/1999/xlink" xmlns:sketch="http://www.bohemiancoding.com/sketch/ns">
    <title>Group copy + bitcore copy@2x</title>
    <description>Created with Sketch (http://www.bohemiancoding.com/sketch)</description>
    <defs>
        <linearGradient x1="15.2309634%" y1="37.2440314%" x2="136.882932%" y2="24.3752426%" id="linearGradient-1">
            <stop stop-color="#2C3E50" offset="0%"></stop>
            <stop stop-color="#162431" offset="100%"></stop>
        </linearGradient>
    </defs>
    <g id="Page-1" stroke="none" stroke-width="1" fill="none" fill-rule="evenodd" sketch:type="MSPage">
        <g id="Artboard-1-1" sketch:type="MSArtboardGroup" transform="translate(-508.000000, -78.000000)">
            <g id="Group-copy-+-bitcore-copy" sketch:type="MSLayerGroup" transform="translate(527.000000, 92.000000)">
                <g id="Group-copy" transform="translate(56.000000, 0.000000)" sketch:type="MSShapeGroup">
                    <path d="M27.7247788,45.5262582 C41.4011902,45.5262582 52.4881111,34.4905912 52.4881111,20.8774044 C52.4881111,12.7404551 49.7280635,8.2404798 47.2952596,5.7264893 C44.8624557,3.21249885 35.088951,0.332200712 27.3475249,0.332199645 C20.583141,0.332198713 18.0632744,0.0366846016 13.0741723,1.93461424 C8.08506994,3.83254338 2.96144643,12.0493014 2.96144643,20.8774044 C2.96144643,34.4905912 14.0483673,45.5262582 27.7247788,45.5262582 Z" id="Oval-6" stroke="#30414E" stroke-width="0.5" fill="#34495E"></path>
                    <path d="M9.17123892,4.50952609 C9.17123892,4.50952609 12.4755351,-0.676242249 28.6501187,0.0812036867 C44.8247024,0.838649646 47.6006113,6.07295924 47.6006113,6.07295924 L48.273508,11.2241553 L47.6006113,17.3271731 L45.9423691,24.5200343 L44.8912818,27.3236627 L27.1370365,19.1918597 L19.9081749,14.6858117 L13.6819761,9.82324421 L10.4656051,6.54780235 L9.17123892,4.50952609 Z" id="Path-133" stroke="#30414E" stroke-width="0.5" fill="url(#linearGradient-1)"></path>
                    <path d="M17.9255484,4.6173416 L15.2748763,8.71820146 L14.1920046,10.6926666 L29.3454231,21.2945089 L44.8768956,26.0150047 C44.8768956,26.0150047 46.9769749,14.1870434 47.0190566,10.9227241 C47.0513016,8.4214423 44.1639738,5.95824617 44.1639738,5.95824617 L44.4495306,14.0349633 L42.7691761,22.7093361 L32.2551564,17.3909809 L25.1783284,13.1172088 L18.7841849,8.41515129 L18.0541928,6.62332546 L17.9255484,4.6173416 Z" id="Path" opacity="0.5" fill="#000000"></path>
                    <path d="M6.99999998,8.00000002 C7.99999995,6 9.50000007,4.5 9.50000007,4.5 C9.50000007,4.5 14.5208896,12.7451145 29.5232136,19.6305485 C44.5255389,26.5159816 44.5255389,25.9540618 44.5255389,25.9540618 C44.5255389,25.9540618 45.6041086,22.9458226 46.6846847,18.0238788 C47.7652609,13.101935 47.3451732,6.12161494 47.3451732,6.12161494 C47.3451732,6.12161494 48.4119767,7.14450725 49.3151756,8.57159295 C50.2183743,9.99867868 50.694027,11.4812802 50.694027,11.4812802 C50.694027,11.4812802 51.6391385,14.6392635 49.5502655,19.9871602 C47.4613931,25.3350568 45.6090472,28.4298452 45.6090472,28.4298452 C45.6090472,28.4298452 32.5641035,24.8397628 25.3128519,21.9223216 C18.0616003,19.0048804 9.22800663,14.5048951 7.08397506,10.9668985 C6.05973421,9.27673642 5.99999984,10 6.99999998,8.00000002 Z" id="Path-131" stroke="#31414F" stroke-width="0.5" fill="#243443"></path>
                    <path d="M18.046162,4.48877435 C18.046162,4.48877435 23.7162528,3.3931694 30.7337648,3.91549722 C37.7512769,4.43782479 40.9072346,4.85699171 43.6615478,6.90701342 C46.4158613,8.95703513 42.7739197,23.314917 42.7739197,23.314917 C42.7739197,23.314917 31.7010526,17.8152232 27.6779707,15.1839541 C23.654889,12.5526849 19.5342612,9.51910704 17.9861583,7.7791376 C16.4380553,6.03916816 18.046162,4.48877435 18.046162,4.48877435 Z" id="Path-132" fill="#0E5E93"></path>
                    <path d="M18.3823715,4.22981251 C18.3823715,4.22981251 21.0967192,2.35198471 27.6361727,2.59370227 C34.1756264,2.83541929 41.3034479,3.62550525 44.0577612,5.67552696 C46.8120746,7.72554867 43.0406387,22.112754 43.0406387,22.112754 C43.0406387,22.112754 32.1108935,16.5734401 28.1682271,14.0089928 C24.225561,11.444545 19.9304745,8.28762058 18.3823716,6.54765114 C16.8342687,4.8076817 18.3823715,4.22981251 18.3823715,4.22981251 Z" id="Path-132" fill="#3498DB"></path>
                    <path d="M28.7062458,36.2798051 C29.4815556,34.8221102 29.2584844,34.675309 28.1406727,35.892259 C28.1406727,35.892259 26.8566706,37.9934946 21.8967876,40.8621969 C16.9369046,43.7308993 16.0645435,43.8041381 16.0645435,43.8041381 C14.5308678,44.3969082 14.6135192,44.6604325 16.2413697,44.3314086 C16.2413697,44.3314086 18.9441874,44.1254801 23.1584376,42.0383124 C27.372688,39.9511449 28.7062458,36.2798051 28.7062458,36.2798051 Z" id="Path-116" fill-opacity="0.1" fill="#FFFFFF" transform="translate(21.685327, 39.536906) rotate(50.000000) translate(-21.685327, -39.536906) "></path>
                    <ellipse id="Oval-6" fill="#F5F5F5" cx="27.7247788" cy="58.009901" rx="27.7247788" ry="4.05445545"></ellipse>
                    <ellipse id="Oval-6" fill="#E9E9E9" cx="27.8814159" cy="57.8539604" rx="15.9769912" ry="2.33910891"></ellipse>
                </g>
                <path d="M18.7046954,86.4605481 C20.4387143,86.4605481 21.9378955,86.7676093 23.2022843,87.381741 C24.466673,87.9958726 25.5142936,88.8267442 26.3451777,89.8743806 C27.1760617,90.9220169 27.7901841,92.1502618 28.1875635,93.5591521 C28.5849428,94.9680424 28.7836294,96.4852861 28.7836294,98.1109288 C28.7836294,100.603581 28.3230376,102.960727 27.4018401,105.182439 C26.4806426,107.404151 25.2253041,109.33683 23.6357868,110.980535 C22.0462695,112.624241 20.1677773,113.924735 18.0002538,114.882058 C15.8327303,115.839381 13.484615,116.318035 10.9558376,116.318035 C10.630709,116.318035 10.0617426,116.309004 9.24892132,116.290941 C8.4361,116.272879 7.5058851,116.191598 6.45824873,116.047096 C5.41061236,115.902595 4.29977321,115.685846 3.12569797,115.396842 C1.95162273,115.107839 0.84078358,114.710466 -0.206852792,114.204711 L9.16763959,74.8101674 L17.5667513,73.5096597 L14.2071066,87.4901166 C14.9296144,87.1649881 15.6521114,86.9121141 16.3746193,86.7314872 C17.0971271,86.5508602 17.8738114,86.4605481 18.7046954,86.4605481 Z M11.6602792,109.652934 C12.9246679,109.652934 14.116788,109.345873 15.2366751,108.731741 C16.3565623,108.117609 17.322902,107.295769 18.1357234,106.266195 C18.9485447,105.236622 19.5897608,104.071595 20.0593909,102.771081 C20.529021,101.470567 20.7638325,100.115885 20.7638325,98.7069948 C20.7638325,96.972976 20.4748337,95.6182941 19.8968274,94.6429085 C19.3188211,93.6675229 18.2531381,93.1798374 16.6997462,93.1798374 C16.1939907,93.1798374 15.5347122,93.2701495 14.7218909,93.4507765 C13.9090695,93.6314035 13.1775413,94.0107144 12.5272843,94.5887207 L8.95088832,109.436183 C9.16764068,109.472308 9.35729614,109.508433 9.51986041,109.544558 C9.68242467,109.580684 9.85401771,109.607777 10.0346447,109.62584 C10.2152716,109.643903 10.4320207,109.652934 10.6848985,109.652934 L11.6602792,109.652934 Z M38.9709391,115.559406 L30.9511421,115.559406 L37.7246193,87.0566141 L45.7986041,87.0566141 L38.9709391,115.559406 Z M42.8724619,83.5885938 C41.7525748,83.5885938 40.741079,83.2544389 39.8379442,82.5861191 C38.9348094,81.9177994 38.4832487,80.8972724 38.4832487,79.5245075 C38.4832487,78.7658742 38.6367793,78.0524084 38.9438452,77.3840887 C39.250911,76.7157689 39.6573156,76.1377713 40.1630711,75.6500785 C40.6688266,75.1623857 41.2558554,74.7740436 41.9241751,74.4850405 C42.5924949,74.1960373 43.3059607,74.0515379 44.0645939,74.0515379 C45.1844811,74.0515379 46.1959769,74.3856928 47.0991117,75.0540125 C48.0022465,75.7223323 48.4538071,76.7428593 48.4538071,78.1156242 C48.4538071,78.8742574 48.3002765,79.5877232 47.9932107,80.256043 C47.6861448,80.9243628 47.2797403,81.5023604 46.7739848,81.9900531 C46.2682293,82.4777459 45.6812005,82.8660881 45.0128807,83.1550912 C44.344561,83.4440944 43.6310952,83.5885938 42.8724619,83.5885938 Z M54.0351523,79.95801 L62.434264,78.6575024 L60.3751269,87.0566141 L69.3703046,87.0566141 L67.7446701,93.6675278 L58.8036802,93.6675278 L56.4194162,103.638086 C56.2026639,104.46897 56.0671957,105.245654 56.0130076,105.968162 C55.9588195,106.69067 56.0491317,107.313824 56.2839467,107.837642 C56.5187617,108.36146 56.9251663,108.767865 57.5031726,109.056868 C58.0811789,109.345871 58.8759256,109.49037 59.8874365,109.49037 C60.754446,109.49037 61.5943487,109.409089 62.4071701,109.246525 C63.2199914,109.083961 64.0418317,108.858181 64.8727157,108.569178 L65.4687817,114.746589 C64.38502,115.143968 63.2109623,115.487154 61.9465736,115.776157 C60.6821849,116.06516 59.1830036,116.20966 57.4489848,116.20966 C54.9563327,116.20966 53.0236532,115.83938 51.6508883,115.098809 C50.2781234,114.358239 49.3027525,113.346743 48.7247462,112.064292 C48.1467399,110.78184 47.893866,109.309753 47.9661168,107.647985 C48.0383675,105.986217 48.2912415,104.234161 48.7247462,102.391766 L54.0351523,79.95801 Z M69.6412437,104.179964 C69.6412437,101.723438 70.038617,99.4114472 70.8333756,97.2439237 C71.6281343,95.0764002 72.766067,93.1798455 74.2472081,91.5542029 C75.7283492,89.9285602 77.5255605,88.6461281 79.6388959,87.7068679 C81.7522314,86.7676077 84.1093779,86.2979846 86.7104061,86.2979846 C88.3360487,86.2979846 89.790074,86.4515152 91.0725254,86.7585811 C92.3549768,87.0656469 93.5200032,87.4720515 94.5676396,87.977807 L91.8040609,94.2635938 C91.0815531,93.9745906 90.3319624,93.7126855 89.5552665,93.4778704 C88.7785706,93.2430554 87.8302932,93.1256496 86.7104061,93.1256496 C84.0010017,93.1256496 81.8696355,94.0378021 80.3162437,95.8621344 C78.7628518,97.6864667 77.9861675,100.17005 77.9861675,103.312959 C77.9861675,105.155354 78.3835409,106.645504 79.1782995,107.783454 C79.9730581,108.921404 81.4361146,109.49037 83.5675127,109.49037 C84.6151491,109.49037 85.6266449,109.381996 86.6020305,109.165244 C87.577416,108.948491 88.4444125,108.677555 89.2030457,108.352426 L89.7991117,114.800776 C88.7876007,115.198156 87.6767616,115.550373 86.4665609,115.857439 C85.2563603,116.164505 83.7842726,116.318035 82.0502538,116.318035 C79.8104795,116.318035 77.9139249,115.992912 76.360533,115.342655 C74.8071411,114.692398 73.5247089,113.81637 72.513198,112.714546 C71.501687,111.612721 70.7701588,110.321258 70.3185914,108.840117 C69.867024,107.358976 69.6412437,105.805607 69.6412437,104.179964 Z M105.567766,116.318035 C103.653121,116.318035 101.991378,116.029037 100.582487,115.45103 C99.173597,114.873024 98.0085706,114.060215 97.0873731,113.012579 C96.1661756,111.964942 95.4707722,110.727666 95.0011421,109.300713 C94.531512,107.87376 94.2967005,106.293298 94.2967005,104.559279 C94.2967005,102.391756 94.6489178,100.224264 95.3533629,98.056741 C96.0578081,95.8892174 97.0963975,93.9384755 98.4691624,92.2044567 C99.8419273,90.4704379 101.521733,89.0525375 103.508629,87.950713 C105.495526,86.8488886 107.771392,86.2979846 110.336294,86.2979846 C112.214815,86.2979846 113.867527,86.5869834 115.29448,87.1649897 C116.721433,87.742996 117.89549,88.5558051 118.816688,89.6034415 C119.737885,90.6510778 120.433289,91.888354 120.902919,93.315307 C121.372549,94.7422599 121.60736,96.3227221 121.60736,98.056741 C121.60736,100.224264 121.264174,102.391756 120.577792,104.559279 C119.891409,106.726803 118.879914,108.677544 117.543274,110.411563 C116.206635,112.145582 114.53586,113.563482 112.530901,114.665307 C110.525942,115.767131 108.20492,116.318035 105.567766,116.318035 Z M109.577665,93.1256496 C108.385527,93.1256496 107.337906,93.4688357 106.434772,94.1552181 C105.531637,94.8416006 104.773015,95.708597 104.158883,96.7562334 C103.544752,97.8038697 103.08416,98.9508337 102.777094,100.19716 C102.470028,101.443486 102.316497,102.626575 102.316497,103.746462 C102.316497,105.588857 102.605496,107.006757 103.183503,108.000205 C103.761509,108.993654 104.809129,109.49037 106.326396,109.49037 C107.518534,109.49037 108.566155,109.147184 109.469289,108.460802 C110.372424,107.774419 111.131046,106.907423 111.745178,105.859787 C112.359309,104.81215 112.819901,103.665186 113.126967,102.41886 C113.434033,101.172534 113.587563,99.9894454 113.587563,98.8695582 C113.587563,97.0271632 113.298565,95.6092629 112.720558,94.6158146 C112.142552,93.6223663 111.094931,93.1256496 109.577665,93.1256496 Z M145.558376,93.9926547 C144.835868,93.8120277 144.122402,93.6404347 143.417957,93.4778704 C142.713512,93.3153061 141.674922,93.2340252 140.302157,93.2340252 C139.796402,93.2340252 139.236467,93.2791813 138.622335,93.3694948 C138.008203,93.4598083 137.502455,93.5591516 137.105076,93.6675278 L131.848858,115.559406 L123.774873,115.559406 L130.277411,88.5738729 C131.830803,88.0681175 133.573827,87.5894632 135.506536,87.1378958 C137.439244,86.6863284 139.615766,86.4605481 142.036168,86.4605481 C142.939302,86.4605481 143.941767,86.541829 145.043591,86.7043933 C146.145416,86.8669575 147.111756,87.1288627 147.94264,87.4901166 L145.558376,93.9926547 Z M147.400761,104.396716 C147.400761,102.08469 147.807166,99.8449498 148.619987,97.6774262 C149.432809,95.5099027 150.579773,93.5862544 152.060914,91.9064237 C153.542055,90.226593 155.339266,88.8719111 157.452602,87.8423374 C159.565937,86.8127637 161.905021,86.2979846 164.469924,86.2979846 C165.734313,86.2979846 166.90837,86.4786089 167.992132,86.8398628 C169.075894,87.2011167 170.024171,87.724927 170.836992,88.4113095 C171.649814,89.0976919 172.281999,89.9375947 172.733566,90.931043 C173.185133,91.9244913 173.410914,93.0533929 173.410914,94.3177816 C173.410914,96.3408035 172.959353,98.0567339 172.056218,99.4656242 C171.153083,100.874515 169.897745,102.021479 168.290165,102.906551 C166.682585,103.791623 164.776999,104.432839 162.57335,104.830218 C160.369701,105.227597 157.967399,105.426284 155.366371,105.426284 C155.619248,106.943551 156.170152,108.018265 157.019099,108.650459 C157.868046,109.282654 159.213696,109.598746 161.056091,109.598746 C162.212104,109.598746 163.386162,109.499403 164.578299,109.300713 C165.770437,109.102023 166.890308,108.803993 167.937944,108.406614 L168.53401,114.746589 C167.522499,115.143968 166.231036,115.505216 164.659581,115.830345 C163.088127,116.155474 161.381227,116.318035 159.538832,116.318035 C157.299058,116.318035 155.411535,116.001943 153.876206,115.369749 C152.340876,114.737554 151.094569,113.879589 150.137246,112.795827 C149.179923,111.712065 148.48452,110.447696 148.051015,109.00268 C147.617511,107.557664 147.400761,106.022358 147.400761,104.396716 Z M163.169416,92.6921471 C161.327021,92.6921471 159.710434,93.3514256 158.319607,94.6700024 C156.928779,95.9885792 156.016627,97.7316032 155.583122,99.8991268 C157.822896,99.826876 159.629139,99.6372205 161.001904,99.3301547 C162.374668,99.0230888 163.440352,98.6528091 164.198985,98.2193044 C164.957618,97.7857997 165.463366,97.3161767 165.716244,96.8104212 C165.969121,96.3046657 166.095558,95.7989178 166.095558,95.2931623 C166.095558,93.5591435 165.120187,92.6921471 163.169416,92.6921471 Z" id="bitcore-copy" fill="#34495E" sketch:type="MSShapeGroup"></path>
            </g>
        </g>
    </g>
</svg>