<?xml version="1.0" encoding="UTF-8" standalone="no"?>
<svg width="211px" height="146px" viewBox="0 0 211 146" version="1.1" xmlns="http://www.w3.org/2000/svg" xmlns:xlink="http://www.w3.org/1999/xlink" xmlns:sketch="http://www.bohemiancoding.com/sketch/ns">
    <title>Group copy + bitcore copy@2x</title>
    <description>Created with Sketch (http://www.bohemiancoding.com/sketch)</description>
    <defs>
        <linearGradient x1="15.2309634%" y1="37.2440314%" x2="136.882932%" y2="24.3752426%" id="linearGradient-1">
            <stop stop-color="#2C3E50" offset="0%"></stop>
            <stop stop-color="#162431" offset="100%"></stop>
        </linearGradient>
        <filter x="-20%" y="-20%" width="140%" height="140%" filterUnits="objectBoundingBox" id="filter-2">
            <feOffset dx="0.5" dy="0" in="SourceAlpha" result="shadowOffsetInner1"></feOffset>
            <feGaussianBlur stdDeviation="0" in="shadowOffsetInner1" result="shadowBlurInner1"></feGaussianBlur>
            <feComposite in="shadowBlurInner1" in2="SourceAlpha" operator="arithmetic" k2="-1" k3="1" result="shadowInnerInner1"></feComposite>
            <feColorMatrix values="0 0 0 0 1   0 0 0 0 1   0 0 0 0 1  0 0 0 0.7 0" in="shadowInnerInner1" type="matrix" result="shadowMatrixInner1"></feColorMatrix>
            <feMerge>
                <feMergeNode in="SourceGraphic"></feMergeNode>
                <feMergeNode in="shadowMatrixInner1"></feMergeNode>
            </feMerge>
        </filter>
    </defs>
    <g id="Page-1" stroke="none" stroke-width="1" fill="none" fill-rule="evenodd" sketch:type="MSPage">
        <g id="Artboard-1-1" sketch:type="MSArtboardGroup" transform="translate(-508.000000, -78.000000)">
            <g id="Group-copy-+-bitcore-copy" sketch:type="MSLayerGroup" transform="translate(523.000000, 92.000000)">
                <g id="Group-copy" transform="translate(60.000000, 0.000000)" sketch:type="MSShapeGroup">
                    <path d="M27.7247788,45.5262582 C41.4011902,45.5262582 52.4881111,34.4905912 52.4881111,20.8774044 C52.4881111,12.7404551 49.7280635,8.2404798 47.2952596,5.7264893 C44.8624557,3.21249885 35.088951,0.332200712 27.3475249,0.332199645 C20.583141,0.332198713 18.0632744,0.0366846016 13.0741723,1.93461424 C8.08506994,3.83254338 2.96144643,12.0493014 2.96144643,20.8774044 C2.96144643,34.4905912 14.0483673,45.5262582 27.7247788,45.5262582 Z" id="Oval-6" stroke="#30414E" stroke-width="0.5" fill="#34495E"></path>
                    <path d="M9.17123892,4.50952609 C9.17123892,4.50952609 12.4755351,-0.676242249 28.6501187,0.0812036867 C44.8247024,0.838649646 47.6006113,6.07295924 47.6006113,6.07295924 L48.273508,11.2241553 L47.6006113,17.3271731 L45.9423691,24.5200343 L44.8912818,27.3236627 L27.1370365,19.1918597 L19.9081749,14.6858117 L13.6819761,9.82324421 L10.4656051,6.54780235 L9.17123892,4.50952609 Z" id="Path-133" stroke="#30414E" stroke-width="0.5" fill="url(#linearGradient-1)"></path>
                    <path d="M17.9255484,4.6173416 L15.2748763,8.71820146 L14.1920046,10.6926666 L29.3454231,21.2945089 L44.8768956,26.0150047 C44.8768956,26.0150047 46.9769749,14.1870434 47.0190566,10.9227241 C47.0513016,8.4214423 44.1639738,5.95824617 44.1639738,5.95824617 L44.4495306,14.0349633 L42.7691761,22.7093361 L32.2551564,17.3909809 L25.1783284,13.1172088 L18.7841849,8.41515129 L18.0541928,6.62332546 L17.9255484,4.6173416 Z" id="Path" opacity="0.5" fill="#000000"></path>
                    <path d="M6.82974981,7.74834149 C7.67895801,6.26202267 9.29950533,4.60467221 9.29950533,4.60467221 C9.29950533,4.60467221 14.5208896,12.7451145 29.5232136,19.6305485 C44.5255389,26.5159816 44.5255389,25.9540618 44.5255389,25.9540618 C44.5255389,25.9540618 45.6041086,22.9458226 46.6846847,18.0238788 C47.7652609,13.101935 47.3451732,6.12161494 47.3451732,6.12161494 C47.3451732,6.12161494 48.4119767,7.14450725 49.3151756,8.57159295 C50.2183743,9.99867868 50.694027,11.4812802 50.694027,11.4812802 C50.694027,11.4812802 51.6391385,14.6392635 49.5502655,19.9871602 C47.4613931,25.3350568 45.6090472,28.4298452 45.6090472,28.4298452 C45.6090472,28.4298452 32.5641035,24.8397628 25.3128519,21.9223216 C18.0616003,19.0048804 9.22800663,14.5048951 7.08397506,10.9668985 C6.05973421,9.27673642 5.9805416,9.23466032 6.82974981,7.74834149 Z" id="Path-131" stroke="#31414F" stroke-width="0.5" fill="#243443"></path>
                    <path d="M18.046162,4.48877435 C18.046162,4.48877435 23.7162528,3.3931694 30.7337648,3.91549722 C37.7512769,4.43782479 40.9072346,4.85699171 43.6615478,6.90701342 C46.4158613,8.95703513 42.7739197,23.314917 42.7739197,23.314917 C42.7739197,23.314917 31.7010526,17.8152232 27.6779707,15.1839541 C23.654889,12.5526849 19.5342612,9.51910704 17.9861583,7.7791376 C16.4380553,6.03916816 18.046162,4.48877435 18.046162,4.48877435 Z" id="Path-132" fill="#0E5E93"></path>
                    <path d="M18.3823715,4.22981251 C18.3823715,4.22981251 21.0967192,2.35198471 27.6361727,2.59370227 C34.1756264,2.83541929 41.3034479,3.62550525 44.0577612,5.67552696 C46.8120746,7.72554867 43.0406387,22.112754 43.0406387,22.112754 C43.0406387,22.112754 32.1108935,16.5734401 28.1682271,14.0089928 C24.225561,11.444545 19.9304745,8.28762058 18.3823716,6.54765114 C16.8342687,4.8076817 18.3823715,4.22981251 18.3823715,4.22981251 Z" id="Path-132" fill="#3498DB" filter="url(#filter-2)"></path>
                    <path d="M28.7062458,36.2798051 C29.4815556,34.8221102 29.2584844,34.675309 28.1406727,35.892259 C28.1406727,35.892259 26.8566706,37.9934946 21.8967876,40.8621969 C16.9369046,43.7308993 16.0645435,43.8041381 16.0645435,43.8041381 C14.5308678,44.3969082 14.6135192,44.6604325 16.2413697,44.3314086 C16.2413697,44.3314086 18.9441874,44.1254801 23.1584376,42.0383124 C27.372688,39.9511449 28.7062458,36.2798051 28.7062458,36.2798051 Z" id="Path-116" fill-opacity="0.1" fill="#FFFFFF" transform="translate(21.685327, 39.536906) rotate(50.000000) translate(-21.685327, -39.536906) "></path>
                    <ellipse id="Oval-6" fill="#F5F5F5" cx="27.7247788" cy="58.009901" rx="27.7247788" ry="4.05445545"></ellipse>
                    <ellipse id="Oval-6" fill="#E9E9E9" cx="27.8814159" cy="57.8539604" rx="15.9769912" ry="2.33910891"></ellipse>
                </g>
                <text id="bitcore-copy" fill="#34495E" sketch:type="MSTextLayer" font-family="Ubuntu" font-size="54.1878173" font-style="italic" font-weight="bold">
                    <tspan x="0" y="115.559406">bitcore</tspan>
                </text>
            </g>
        </g>
    </g>
</svg>