<?xml version="1.0" encoding="UTF-8" standalone="no"?>
<svg width="62px" height="33px" viewBox="0 0 62 33" version="1.1" xmlns="http://www.w3.org/2000/svg" xmlns:xlink="http://www.w3.org/1999/xlink" xmlns:sketch="http://www.bohemiancoding.com/sketch/ns">
    <!-- Generator: Sketch 3.1.1 (8761) - http://www.bohemiancoding.com/sketch -->
    <title>Artboard 10</title>
    <desc>Created with Sketch.</desc>
    <defs></defs>
    <g id="Page-1" stroke="none" stroke-width="1" fill="none" fill-rule="evenodd" sketch:type="MSPage">
        <g id="Artboard-10" sketch:type="MSArtboardGroup" fill="#FFFFFF">
            <g id="Imported-Layers" sketch:type="MSLayerGroup">
                <path d="M61.201,32.588 L55.856,27.242 L0.368,27.242 L0.368,0.313 L61.201,0.313 L61.201,32.588 L61.201,32.588 Z M1.368,26.242 L56.27,26.242 L60.201,30.174 L60.201,1.312 L1.368,1.312 L1.368,26.242 L1.368,26.242 Z" id="Fill-1" sketch:type="MSShapeGroup"></path>
                <path d="M8.851,13.247 C8.851,12.393 8.823,11.664 8.795,11.062 L10.644,11.062 L10.742,12 L10.784,12 C11.064,11.566 11.765,10.907 12.899,10.907 C14.3,10.907 15.351,11.832 15.351,13.85 L15.351,17.911 L13.222,17.911 L13.222,14.115 C13.222,13.233 12.913,12.631 12.142,12.631 C11.555,12.631 11.204,13.037 11.064,13.429 C11.008,13.555 10.98,13.766 10.98,13.961 L10.98,17.911 L8.851,17.911 L8.851,13.247" id="Fill-2" sketch:type="MSShapeGroup"></path>
                <path d="M23.471,14.409 C23.471,16.917 21.691,18.065 19.856,18.065 C17.854,18.065 16.313,16.749 16.313,14.535 C16.313,12.322 17.769,10.907 19.969,10.907 C22.07,10.907 23.471,12.351 23.471,14.409 L23.471,14.409 Z M18.512,14.479 C18.512,15.656 19.002,16.539 19.913,16.539 C20.739,16.539 21.271,15.712 21.271,14.479 C21.271,13.457 20.879,12.421 19.913,12.421 C18.891,12.421 18.512,13.471 18.512,14.479 L18.512,14.479 Z" id="Fill-3" sketch:type="MSShapeGroup"></path>
                <path d="M31.114,7.966 L31.114,15.866 C31.114,16.637 31.143,17.449 31.17,17.911 L29.279,17.911 L29.181,16.903 L29.153,16.903 C28.719,17.673 27.892,18.065 27.01,18.065 C25.385,18.065 24.082,16.679 24.082,14.55 C24.068,12.238 25.511,10.907 27.15,10.907 C27.99,10.907 28.648,11.202 28.957,11.678 L28.985,11.678 L28.985,7.966 L31.114,7.966 L31.114,7.966 Z M28.985,13.961 C28.985,13.85 28.971,13.695 28.957,13.583 C28.831,13.009 28.369,12.532 27.71,12.532 C26.744,12.532 26.239,13.401 26.239,14.479 C26.239,15.643 26.813,16.37 27.696,16.37 C28.312,16.37 28.803,15.95 28.929,15.348 C28.971,15.194 28.985,15.04 28.985,14.857 L28.985,13.961 L28.985,13.961 Z" id="Fill-4" sketch:type="MSShapeGroup"></path>
                <path d="M34.107,15.166 C34.178,16.049 35.046,16.469 36.041,16.469 C36.769,16.469 37.357,16.37 37.932,16.189 L38.212,17.631 C37.512,17.911 36.657,18.052 35.732,18.052 C33.407,18.052 32.076,16.707 32.076,14.564 C32.076,12.826 33.155,10.907 35.536,10.907 C37.75,10.907 38.59,12.631 38.59,14.325 C38.59,14.689 38.548,15.012 38.52,15.166 L34.107,15.166 L34.107,15.166 Z M36.615,13.709 C36.615,13.19 36.391,12.322 35.41,12.322 C34.514,12.322 34.149,13.135 34.094,13.709 L36.615,13.709 L36.615,13.709 Z" id="Fill-5" sketch:type="MSShapeGroup"></path>
                <path d="M39.133,16.776 C39.133,16.02 39.651,15.474 40.393,15.474 C41.136,15.474 41.641,16.007 41.641,16.776 C41.641,17.52 41.136,18.065 40.38,18.065 C39.651,18.065 39.133,17.52 39.133,16.776" id="Fill-6" sketch:type="MSShapeGroup"></path>
                <path d="M41.162,19.172 C41.723,19.13 42.157,19.004 42.423,18.724 C42.731,18.401 42.843,17.856 42.843,16.497 L42.843,11.062 L44.986,11.062 L44.986,17.001 C44.986,18.5 44.65,19.41 44.019,19.999 C43.39,20.587 42.396,20.839 41.372,20.839 L41.162,19.172 L41.162,19.172 Z M45.042,9.156 C45.042,9.745 44.608,10.222 43.894,10.222 C43.222,10.222 42.787,9.745 42.787,9.156 C42.787,8.54 43.222,8.078 43.922,8.078 C44.608,8.078 45.028,8.54 45.042,9.156 L45.042,9.156 Z" id="Fill-7" sketch:type="MSShapeGroup"></path>
                <path d="M46.287,16.049 C46.679,16.286 47.491,16.567 48.122,16.567 C48.766,16.567 49.032,16.343 49.032,15.992 C49.032,15.643 48.822,15.474 48.023,15.208 C46.609,14.731 46.062,13.961 46.076,13.148 C46.076,11.874 47.169,10.907 48.864,10.907 C49.662,10.907 50.377,11.09 50.797,11.3 L50.419,12.771 C50.11,12.603 49.522,12.378 48.935,12.378 C48.416,12.378 48.122,12.589 48.122,12.938 C48.122,13.261 48.388,13.429 49.228,13.723 C50.531,14.171 51.077,14.83 51.092,15.838 C51.092,17.113 50.083,18.052 48.122,18.052 C47.226,18.052 46.427,17.856 45.908,17.575 L46.287,16.049" id="Fill-8" sketch:type="MSShapeGroup"></path>
            </g>
        </g>
    </g>
</svg>