<?xml version="1.0" encoding="UTF-8" standalone="no"?>
<svg width="338px" height="318px" viewBox="0 0 338 318" version="1.1" xmlns="http://www.w3.org/2000/svg" xmlns:xlink="http://www.w3.org/1999/xlink" xmlns:sketch="http://www.bohemiancoding.com/sketch/ns">
    <!-- Generator: Sketch 3.2 (9961) - http://www.bohemiancoding.com/sketch -->
    <title>Imported Layers</title>
    <desc>Created with Sketch.</desc>
    <defs></defs>
    <g id="Page-1" stroke="none" stroke-width="1" fill="none" fill-rule="evenodd" sketch:type="MSPage">
        <path d="M337.649,93.388 L332.367,0 L331.357,0 L336.619,92.884 L255.516,53.157 L284.925,0 L283.782,0 L255.714,50.734 L262.881,0 L261.872,0 L254.507,52.126 L211.669,0 L210.375,0 L254.01,53.096 L46.377,128.717 L95.644,0 L94.574,0 L45.432,128.389 L0,47.627 L0,49.666 L44.794,129.293 L44.781,129.298 L44.912,129.519 L0,185.51 L0,187.108 L45.446,130.451 L45.605,130.735 L45.615,130.708 L146.782,301.704 L0,253.444 L0,254.497 L146.737,302.742 L6.924,316.445 L0,314.333 L0,315.378 L6.727,317.43 L6.823,317.458 L6.824,317.458 L6.914,317.45 L148.334,303.738 L148.348,303.761 L148.682,303.556 L148.867,303.443 L148.998,303.486 L148.944,303.395 L251.012,240.741 L251.118,240.677 L251.118,240.676 L251.357,240.53 L251.34,240.483 L337.456,94.563 L337.723,94.694 L337.693,94.161 L338.037,93.578 L337.649,93.388 L337.649,93.388 Z M249.098,240.743 L148.69,302.378 L46.257,129.826 L254.16,54.105 L246.086,120.351 L236.128,200.835 L250.142,240.102 L249.098,240.743 L249.098,240.743 Z M250.862,239.142 L237.157,200.742 L237.292,200.758 L247.051,120.694 L255.283,54.155 L336.542,93.959 L250.862,239.142 L250.862,239.142 Z" id="Imported-Layers" fill="#FFFFFF" sketch:type="MSShapeGroup"></path>
    </g>
</svg>