<?xml version="1.0" encoding="UTF-8" standalone="no"?>
<svg width="332px" height="265px" viewBox="0 0 332 265" version="1.1" xmlns="http://www.w3.org/2000/svg" xmlns:xlink="http://www.w3.org/1999/xlink" xmlns:sketch="http://www.bohemiancoding.com/sketch/ns">
    <!-- Generator: Sketch 3.2.1 (9971) - http://www.bohemiancoding.com/sketch -->
    <title>Fill 2</title>
    <desc>Created with Sketch.</desc>
    <defs></defs>
    <g id="Page-1" stroke="none" stroke-width="1" fill="none" fill-rule="evenodd" sketch:type="MSPage">
        <path d="M299.229,152.13 L194.198,42.079 L50.665,0.409 L50.523,0.367 L0,15.566 L0,17.175 L45.771,3.15 L0,28.096 L0,29.235 L50.544,1.687 L50.608,1.667 L146.478,54.736 L0,55.756 L0,56.757 L146.994,55.733 L46.921,175.091 L45.842,174.987 L0,118.764 L0,120.347 L45.604,176.279 L0,180.642 L0,181.646 L45.703,177.274 L0,255.622 L0,257.607 L46.789,177.397 L97.928,264.333 L99.088,264.333 L47.797,177.139 L175.256,191.733 L223.967,197.353 L195.076,264.333 L196.165,264.333 L224.687,198.209 L266.108,264.333 L267.288,264.333 L225.168,197.094 L225.216,196.983 L298.321,154.401 L297.818,153.537 L224.627,196.168 L149.507,56.712 L298.454,153.655 L298.573,153.471 L299.157,155.505 L298.706,155.529 L304.433,264.333 L305.435,264.333 L299.83,157.851 L330.368,264.333 L331.409,264.333 L299.263,152.249 L299.229,152.13 L299.229,152.13 Z M54.063,2.436 L193.66,42.964 L193.794,43.105 L149.379,54.371 L149.384,54.392 L148.381,54.647 L54.063,2.436 L54.063,2.436 Z M223.538,196.255 L175.523,190.757 L47.477,175.984 L147.888,56.223 L147.3,55.731 L147.839,55.727 L223.538,196.255 L223.538,196.255 Z M149.367,55.428 L193.401,44.236 L194.362,43.993 L194.362,43.992 L194.261,43.594 L297.687,151.963 L149.367,55.428 L149.367,55.428 Z" id="Fill-2" fill="#979794" sketch:type="MSShapeGroup"></path>
    </g>
</svg>