<?xml version="1.0" encoding="UTF-8" standalone="no"?>
<svg width="548px" height="675px" viewBox="0 0 548 675" version="1.1" xmlns="http://www.w3.org/2000/svg" xmlns:xlink="http://www.w3.org/1999/xlink" xmlns:sketch="http://www.bohemiancoding.com/sketch/ns">
    <!-- Generator: Sketch 3.2.1 (9971) - http://www.bohemiancoding.com/sketch -->
    <title>Imported Layers</title>
    <desc>Created with Sketch.</desc>
    <defs></defs>
    <g id="Page-1" stroke="none" stroke-width="1" fill="none" fill-rule="evenodd" sketch:type="MSPage">
        <path d="M547.404,585.647 L547.404,584.299 L504.606,622.914 L518.09,582.573 L518.255,582.492 L518.218,582.418 L547.404,563.796 L547.404,562.611 L519.169,580.626 L547.404,533.617 L547.404,531.673 L517.62,581.262 L456.806,419.588 L547.404,402.679 L547.404,401.662 L456.476,418.631 L537.554,230.665 L547.404,246.389 L547.404,244.505 L538.036,229.549 L538.12,229.354 L547.404,223.946 L547.404,222.788 L537.465,228.577 L449.585,65.434 L547.404,129.099 L547.404,127.907 L449.444,64.149 L501.176,51.001 L502.151,50.754 L502.151,50.753 L502.011,50.204 L547.404,97.767 L547.404,96.319 L501.934,48.675 L334.419,0.042 L334.277,0 L168.098,49.989 L167.975,50.026 L43.915,176.181 L43.727,176.403 L0,339.62 L36.984,506.502 L166.909,627.437 L166.998,627.52 L331.207,673.666 L331.211,674.341 L332.211,674.334 L332.206,673.465 L503.482,625.275 L547.404,585.647 L547.404,585.647 Z M516.788,581.89 L516.788,581.89 L516.793,581.902 L516.73,581.902 L359.889,581.146 L332.126,581.012 L456.036,420.378 L516.788,581.89 L516.788,581.89 Z M144.164,577.648 L143.7,576.838 L143.7,576.837 L32.295,382.321 L32.064,381.918 L33.218,382.183 L33.218,382.184 L203.749,421.423 L144.164,577.648 L144.164,577.648 Z M144.976,578.324 L144.972,578.614 L144.883,578.569 L144.976,578.324 L144.976,578.324 Z M31.714,379.133 L31.698,379.16 L45.112,178.032 L213.946,67.122 L124.884,224.395 L125.515,224.753 L125.287,224.775 L125.217,224.599 L125.114,224.768 L46.029,177.928 L45.519,178.788 L124.506,225.57 L124.556,225.692 L31.714,379.133 L31.714,379.133 Z M214.734,66.604 L215.887,65.846 L215.908,65.886 L216.418,65.608 L216.421,66.028 L216.272,65.845 L215.497,66.477 L328.698,205.315 L125.849,224.721 L215.229,66.885 L214.734,66.604 L214.734,66.604 Z M328.769,203.82 L216.447,66.06 L447.06,64.454 L330.107,203.945 L328.769,203.82 L328.769,203.82 Z M328.804,206.309 L204.319,419.71 L136.205,251.757 L125.711,225.82 L125.761,225.737 L125.763,225.734 L328.804,206.309 L328.804,206.309 Z M125.05,226.911 L135.273,252.119 L203.291,420.223 L31.848,380.842 L125.05,226.911 L125.05,226.911 Z M204.501,422.257 L330.068,580.992 L144.977,578.323 L204.501,422.257 L204.501,422.257 Z M329.917,206.386 L455.05,419.114 L205.018,420.497 L329.917,206.386 L329.917,206.386 Z M455.615,418.102 L330.936,206.147 L479.776,223.189 L536.849,229.774 L455.615,418.102 L455.615,418.102 Z M536.376,228.664 L480.137,222.225 L330.555,204.968 L447.86,65.057 L447.14,64.453 L447.918,64.448 L536.376,228.664 L536.376,228.664 Z M501.397,49.561 L501.667,49.844 L449.685,63.03 L449.692,63.055 L448.489,63.36 L337.713,2.04 L501.397,49.561 L501.397,49.561 Z M334.384,1.34 L446.599,63.457 L217.437,65.053 L334.267,1.376 L334.384,1.34 L334.384,1.34 Z M215.43,65.008 L215.46,65.063 L170.893,51.44 L329.495,2.839 L215.43,65.008 L215.43,65.008 Z M206.725,39.414 L169.185,50.918 L168.837,50.812 L206.725,39.414 L206.725,39.414 Z M44.625,176.912 L44.72,176.788 L168.509,50.91 L168.61,50.879 L168.538,51.116 L168.458,51.141 L168.494,51.26 L168.357,51.71 L168.661,51.803 L168.751,52.097 L169.186,51.963 L214.236,65.735 L44.546,177.206 L44.625,176.912 L44.625,176.912 Z M44.429,177.644 L44.446,177.67 L44.423,177.668 L44.429,177.644 L44.429,177.644 Z M1.224,340.522 L1.029,339.643 L44.037,179.107 L30.654,379.793 L1.277,340.483 L1.224,340.522 L1.224,340.522 Z M37.942,506.028 L37.893,505.982 L1.715,342.74 L30.643,381.45 L142.741,577.175 L38.074,505.835 L37.942,506.028 L37.942,506.028 Z M41.664,509.492 L143.862,579.149 L165.449,624.711 L41.664,509.492 L41.664,509.492 Z M167.502,626.623 L167.427,626.553 L145.33,579.913 L327.392,671.555 L167.502,626.623 L167.502,626.623 Z M146.643,579.455 L330.107,581.993 L330.1,582.002 L330.615,582.005 L331.166,671.379 L331.192,671.379 L331.198,672.351 L146.643,579.455 L146.643,579.455 Z M331.107,580.695 L205.174,421.496 L454.796,420.116 L331.107,580.695 L331.107,580.695 Z M332.196,672.048 L331.616,582.01 L515.146,582.894 L332.196,672.048 L332.196,672.048 Z M502.986,624.375 L335.749,671.429 L516.831,583.186 L503.114,624.223 L503.144,624.233 L502.986,624.375 L502.986,624.375 Z" id="Imported-Layers" fill="#FFFFFF" sketch:type="MSShapeGroup"></path>
    </g>
</svg>