<?xml version="1.0" encoding="UTF-8" standalone="no"?>
<svg width="339px" height="315px" viewBox="0 0 339 315" version="1.1" xmlns="http://www.w3.org/2000/svg" xmlns:xlink="http://www.w3.org/1999/xlink" xmlns:sketch="http://www.bohemiancoding.com/sketch/ns">
    <!-- Generator: Sketch 3.2.1 (9971) - http://www.bohemiancoding.com/sketch -->
    <title>Fill 1</title>
    <desc>Created with Sketch.</desc>
    <defs></defs>
    <g id="Page-1" stroke="none" stroke-width="1" fill="none" fill-rule="evenodd" sketch:type="MSPage">
        <path d="M338.869,26.345 L331.409,0.333 L330.368,0.333 L337.822,26.324 L308.866,65.516 L305.435,0.333 L304.433,0.333 L307.841,65.07 L267.288,0.333 L266.108,0.333 L307.535,66.466 L308.334,65.966 L308.542,65.955 L308.172,66.455 L308.158,66.474 L155.333,94.995 L196.165,0.333 L195.076,0.333 L154.467,94.478 L99.088,0.333 L97.928,0.333 L153.868,95.432 L0,96.283 L0,97.283 L153.629,96.434 L47.808,233.816 L0,173.379 L0,174.991 L46.768,234.113 L0,233.438 L0,234.466 L46.807,235.114 L46.8,235.123 L47.316,235.125 L47.788,311.624 L47.81,311.624 L47.814,312.339 L0,288.271 L0,289.391 L43.929,311.503 L0,299.158 L0,300.197 L47.823,313.636 L47.826,314.16 L48.826,314.153 L48.822,313.464 L195.521,272.189 L303.197,175.038 L338.911,26.728 L338.942,26.6 L338.919,26.521 L338.986,26.431 L338.869,26.345 L338.869,26.345 Z M307.727,67.571 L207.612,234.254 L155.595,95.963 L307.727,67.571 L307.727,67.571 Z M154.815,96.731 L206.785,234.895 L48.826,234.133 L154.815,96.731 L154.815,96.731 Z M48.813,312.081 L48.317,235.13 L205.169,235.887 L48.813,312.081 L48.813,312.081 Z M195.118,271.206 L195.025,271.29 L52.536,311.38 L206.799,236.206 L195.102,271.2 L195.118,271.206 L195.118,271.206 Z M196.602,269.867 L208.058,235.592 L208.173,235.536 L208.142,235.473 L298.909,177.56 L196.602,269.867 L196.602,269.867 Z M302.077,174.353 L209.143,233.648 L307.94,69.158 L302.077,174.353 L302.077,174.353 Z M303.303,170.33 L309.044,67.321 L309.728,66.181 L309.6,66.205 L337.455,28.504 L303.303,170.33 L303.303,170.33 Z" id="Fill-1" fill="#FFFFFF" sketch:type="MSShapeGroup"></path>
    </g>
</svg>