<?xml version="1.0" encoding="UTF-8" standalone="no"?>
<svg width="333px" height="263px" viewBox="0 0 333 263" version="1.1" xmlns="http://www.w3.org/2000/svg" xmlns:xlink="http://www.w3.org/1999/xlink" xmlns:sketch="http://www.bohemiancoding.com/sketch/ns">
    <!-- Generator: Sketch 3.2 (9961) - http://www.bohemiancoding.com/sketch -->
    <title>Imported Layers</title>
    <desc>Created with Sketch.</desc>
    <defs></defs>
    <g id="Page-1" stroke="none" stroke-width="1" fill="none" fill-rule="evenodd" sketch:type="MSPage">
        <path d="M94.681,262.484 L95.752,262.484 L132.101,167.517 L210.146,262.484 L211.44,262.484 L132.964,166.993 L276.261,160.918 L261.911,262.484 L262.921,262.484 L277.256,161.023 L326.603,185.366 L283.937,262.484 L285.08,262.484 L327.045,186.633 L331.342,262.484 L332.351,262.484 L327.959,184.821 L252.52,70.108 L188.348,24.008 L127.944,0 L0,4.755 L0,5.756 L124.752,1.12 L0,49.467 L0,50.538 L127.771,1.008 L187.457,24.731 L131.667,165.853 L0,103.49 L0,104.597 L131.309,166.79 L94.681,262.484 L94.681,262.484 Z M183.53,37.385 L188.335,25.231 L251.787,70.813 L326.284,184.093 L277.403,159.981 L277.419,159.867 L132.689,166.003 L183.53,37.385 L183.53,37.385 Z" id="Imported-Layers" fill="#9F9E9F" sketch:type="MSShapeGroup"></path>
    </g>
</svg>