<?xml version="1.0" encoding="UTF-8" standalone="no"?>
<svg width="547px" height="674px" viewBox="0 0 547 674" version="1.1" xmlns="http://www.w3.org/2000/svg" xmlns:xlink="http://www.w3.org/1999/xlink" xmlns:sketch="http://www.bohemiancoding.com/sketch/ns">
    <!-- Generator: Sketch 3.2 (9961) - http://www.bohemiancoding.com/sketch -->
    <title>Imported Layers</title>
    <desc>Created with Sketch.</desc>
    <defs></defs>
    <g id="Page-1" stroke="none" stroke-width="1" fill="none" fill-rule="evenodd" sketch:type="MSPage">
        <g id="Imported-Layers" sketch:type="MSLayerGroup" fill="#FFFFFF">
            <path d="M546.286,602.125 L395.614,672.389 L407.763,626.441 L407.888,626.551 L469.614,556.538 L521.428,497.982 L546.286,542.007 L546.286,539.973 L522.181,497.282 L546.286,485.214 L546.286,484.095 L523.719,495.394 L546.286,470.76 L546.286,469.279 L521.939,495.856 L502.692,274.182 L546.286,301.448 L546.286,300.269 L503.026,273.212 L546.286,244.054 L546.286,242.847 L502.532,272.338 L502.531,272.327 L502.268,272.509 L377.348,57.913 L546.286,97.744 L546.286,96.82 L377.193,56.85 L431.611,1.144 L546.286,73.655 L546.286,72.52 L431.804,0.082 L431.674,0 L231.239,6.257 L231.09,6.262 L230.969,6.347 C224.859,10.613 81.331,110.843 79.805,112.369 C78.277,113.897 15.561,241.569 8.415,256.122 L8.375,256.205 L0.008,346.896 L0,346.983 L24.622,441.795 L44.523,503.816 L110.768,586.835 L110.83,586.913 L255.292,666.704 L255.292,666.706 L394.831,673.793 L394.955,673.8 L394.956,673.799 L395.237,673.814 L395.256,673.742 L395.271,673.774 L546.286,603.349 L546.286,602.125 L546.286,602.125 Z M520.981,496.376 L272.353,432.356 L501.684,274.127 L520.981,496.376 L520.981,496.376 Z M501.442,273.079 L271.759,431.55 L293.254,190.323 L293.272,190.294 L376.247,58.01 L501.442,273.079 L501.442,273.079 Z M291.943,190.543 L114.891,477.819 L90.185,194.048 L291.943,190.543 L291.943,190.543 Z M90.303,193.046 L201.214,49.375 L291.94,189.543 L90.303,193.046 L90.303,193.046 Z M292.081,192.227 L270.721,431.935 L270.707,431.932 L270.69,432.188 L115.235,479.167 L292.081,192.227 L292.081,192.227 Z M231.483,7.25 L430.31,1.044 L375.83,56.814 L375.793,56.852 L292.842,189.097 L201.856,48.525 L231.483,7.25 L231.483,7.25 Z M9.353,256.481 C33.302,207.712 78.937,115.095 80.511,113.077 C82.496,111.281 209.694,22.426 229.075,8.889 L200.855,48.204 L89.205,192.839 L1.212,344.724 L9.353,256.481 L9.353,256.481 Z M38.024,480.289 L25.579,441.506 L1.041,347.015 L89.243,194.76 L114.032,479.49 L45.293,502.937 L38.024,480.289 L38.024,480.289 Z M111.487,586.134 L45.806,503.819 L113.9,480.592 L254.628,665.003 L111.487,586.134 L111.487,586.134 Z M114.937,480.301 L270.603,433.259 L270.574,433.583 L270.598,433.567 L255.455,664.569 L114.937,480.301 L114.937,480.301 Z M394.477,672.774 L312.858,668.629 L256.362,665.238 L271.626,433.201 L520.518,497.289 L468.907,555.828 L406.857,625.952 L406.827,626.067 L394.477,672.774 L394.477,672.774 Z" sketch:type="MSShapeGroup"></path>
        </g>
    </g>
</svg>