<?xml version="1.0" encoding="UTF-8" standalone="no"?>
<svg width="212px" height="147px" viewBox="0 0 212 147" version="1.1" xmlns="http://www.w3.org/2000/svg" xmlns:xlink="http://www.w3.org/1999/xlink" xmlns:sketch="http://www.bohemiancoding.com/sketch/ns">
    <!-- Generator: Sketch 3.2 (9961) - http://www.bohemiancoding.com/sketch -->
    <title>Imported Layers</title>
    <desc>Created with Sketch.</desc>
    <defs></defs>
    <g id="Page-1" stroke="none" stroke-width="1" fill="none" fill-rule="evenodd" sketch:type="MSPage">
        <g id="Imported-Layers" sketch:type="MSLayerGroup">
            <path d="M45.891,22.11 C42.921,22.11 40.504,19.694 40.504,16.724 C40.504,13.753 42.921,11.337 45.891,11.337 C48.861,11.337 51.278,13.753 51.278,16.724 C51.278,19.694 48.861,22.11 45.891,22.11 L45.891,22.11 Z M45.891,13.337 C44.023,13.337 42.504,14.856 42.504,16.724 C42.504,18.591 44.023,20.11 45.891,20.11 C47.759,20.11 49.278,18.591 49.278,16.724 C49.278,14.856 47.759,13.337 45.891,13.337 L45.891,13.337 Z M33.193,22.11 C30.223,22.11 27.806,19.694 27.806,16.724 C27.806,13.753 30.223,11.337 33.193,11.337 C36.163,11.337 38.58,13.753 38.58,16.724 C38.58,19.694 36.163,22.11 33.193,22.11 L33.193,22.11 Z M33.193,13.337 C31.325,13.337 29.806,14.856 29.806,16.724 C29.806,18.591 31.325,20.11 33.193,20.11 C35.061,20.11 36.58,18.591 36.58,16.724 C36.58,14.856 35.061,13.337 33.193,13.337 L33.193,13.337 Z M20.495,22.11 C17.524,22.11 15.108,19.694 15.108,16.724 C15.108,13.753 17.524,11.337 20.495,11.337 C23.465,11.337 25.881,13.753 25.881,16.724 C25.881,19.694 23.465,22.11 20.495,22.11 L20.495,22.11 Z M20.495,13.337 C18.627,13.337 17.108,14.856 17.108,16.724 C17.108,18.591 18.627,20.11 20.495,20.11 C22.362,20.11 23.881,18.591 23.881,16.724 C23.881,14.856 22.362,13.337 20.495,13.337 L20.495,13.337 Z" id="Fill-1" fill="#FFFFFF" sketch:type="MSShapeGroup"></path>
            <path d="M1.712,27.893 L210.15,27.893 L210.15,145.076 L1.712,145.076 L1.712,27.893 Z" id="Fill-2" fill="#000000" sketch:type="MSShapeGroup"></path>
            <path d="M0.705,0.322 L211.158,0.322 L211.158,146.49 L0.705,146.49 L0.705,0.322 Z M4.705,142.49 L207.158,142.49 L207.158,4.322 L4.705,4.322 L4.705,142.49 Z" id="Fill-3" fill="#FFFFFF" sketch:type="MSShapeGroup"></path>
        </g>
    </g>
</svg>