<?xml version="1.0" encoding="UTF-8" standalone="no"?>
<svg width="423px" height="234px" viewBox="0 0 423 234" version="1.1" xmlns="http://www.w3.org/2000/svg" xmlns:xlink="http://www.w3.org/1999/xlink" xmlns:sketch="http://www.bohemiancoding.com/sketch/ns">
    <!-- Generator: Sketch 3.1.1 (8761) - http://www.bohemiancoding.com/sketch -->
    <title>Imported Layers</title>
    <desc>Created with Sketch.</desc>
    <defs></defs>
    <g id="Page-1" stroke="none" stroke-width="1" fill="none" fill-rule="evenodd" sketch:type="MSPage">
        <g id="Imported-Layers" sketch:type="MSLayerGroup" transform="translate(1.000000, 0.000000)">
            <path d="M-0.465,233.301 L29.383,181.44 L78.633,164.65 L80.499,143.01 L129.375,78.463 L138.33,82.94 L148.403,51.226 L163.701,46.003 L178.625,4.961 L202.504,8.692 L226.382,1.603 L238.695,53.465 L245.038,47.495 L256.604,79.955 L269.662,91.521 L285.333,128.459 L326.001,141.517 L360.746,181.813 L384.205,177.335 L421.516,216.511 L421.516,233.301 L-0.465,233.301" id="Fill-1" fill="#3F3F3F" sketch:type="MSShapeGroup"></path>
            <path d="M129.002,77.437 L138.33,82.94 L133.2,141.797 L113.891,157.468 L80.499,143.01 L129.002,77.437" id="Fill-2" fill="#444444" sketch:type="MSShapeGroup"></path>
            <path d="M138.354,82.895 L149.709,117.452 L175.454,89.469 L164.82,62.046 L175.454,49.734 L165.38,45.257 L148.03,50.853 L138.354,82.895" id="Fill-3" fill="#444444" sketch:type="MSShapeGroup"></path>
            <path d="M57.366,215.952 L29.521,181.402 L78.796,164.028 L75.835,204.199 L57.366,215.952" id="Fill-4" fill="#444444" sketch:type="MSShapeGroup"></path>
            <path d="M266.678,105.42 L271.714,93.667 L255.735,77.493 L263.319,105.42 L263.319,112.695 L266.678,105.42" id="Fill-5" fill="#444444" sketch:type="MSShapeGroup"></path>
            <path d="M374.132,196.923 L360.7,181.813 L384.205,177.335 L374.132,196.923" id="Fill-6" fill="#444444" sketch:type="MSShapeGroup"></path>
            <path d="M284.948,127.588 L298.018,163.344 L308.652,158.867 L312.569,173.418 L319.285,177.335 L326.001,141.517 L284.948,127.588" id="Fill-7" fill="#444444" sketch:type="MSShapeGroup"></path>
            <path d="M216.023,58.968 L191.398,46.656 L163.415,46.656 L178.625,4.961 L202.778,8.692 L227.216,0.204 L247.084,90.309 L216.023,58.968" id="Fill-8" fill="#444444" sketch:type="MSShapeGroup"></path>
            <path d="M224.703,141.238 L191.684,113.255 L173.215,88.07 L181.61,74.639 L228.621,113.255 L224.703,141.238" id="Fill-9" fill="#444444" sketch:type="MSShapeGroup"></path>
            <path d="M58.765,233.301 L80.592,209.236 L95.143,196.923 L99.06,177.335 L124.805,151.591 L124.805,124.168 L141.594,142.077 L141.594,179.014 L151.668,179.014 L158.944,156.068 L175.174,161.665 L185.247,133.123 L256.883,101.782 L253.525,128.645 L268.077,122.489 L268.077,152.711 L288.224,161.665 L283.747,177.335 L278.15,213.153 L293.261,202.52 L307.812,161.665 L322.363,161.665 L330.198,154.949 L333.557,172.299 L350.346,183.492 L360.98,203.079 L369.934,205.878 L390.082,210.355 L398.477,233.301 L58.765,233.301" id="Fill-10" fill="#494949" sketch:type="MSShapeGroup"></path>
            <path d="M238.909,53.263 L245.038,47.495 L242.692,70.326 L238.909,53.263" id="Fill-11" fill="#444444" sketch:type="MSShapeGroup"></path>
            <path d="M163.701,211.194 L156.425,182.652 L174.894,160.826 C174.894,160.826 184.408,177.056 184.408,175.377 C184.408,173.698 192.803,141.797 192.803,141.797 L253.805,102.062 L247.649,149.073 L267.797,122.769 L267.797,176.496 L282.908,160.826 L277.311,206.717 L248.768,225.746 L178.811,196.084 L163.701,211.194" id="Fill-12" fill="#444444" sketch:type="MSShapeGroup"></path>
        </g>
    </g>
</svg>