<svg xmlns="http://www.w3.org/2000/svg" width="15" height="17" viewBox="0 0 15 17">
    <path fill="#4F6EF7" d="M14.0526316,3 L4.57894737,3 C3.71052632,3 3,3.69545455 3,4.54545455 L3,15.3636364 L4.57894737,15.3636364 L4.57894737,4.54545455 L14.0526316,4.54545455 L14.0526316,3 Z M16.4210526,6.09090909 L7.73684211,6.09090909 C6.86842105,6.09090909 6.15789474,6.78636364 6.15789474,7.63636364 L6.15789474,18.4545455 C6.15789474,19.3045455 6.86842105,20 7.73684211,20 L16.4210526,20 C17.2894737,20 18,19.3045455 18,18.4545455 L18,7.63636364 C18,6.78636364 17.2894737,6.09090909 16.4210526,6.09090909 Z M16.4210526,18.4545455 L7.73684211,18.4545455 L7.73684211,7.63636364 L16.4210526,7.63636364 L16.4210526,18.4545455 Z" transform="translate(-3 -3)"/>
</svg>
