<svg width="16" height="16" viewBox="0 0 16 16" fill="none" xmlns="http://www.w3.org/2000/svg">
<path d="M7.49999 13.0462V8.28717L3.33333 5.87434V10.518C3.33333 10.5521 3.34188 10.5842 3.35899 10.6142C3.37611 10.6441 3.40172 10.6697 3.43583 10.691L7.49999 13.0462ZM8.49999 13.0462L12.5642 10.691C12.5983 10.6697 12.6239 10.6441 12.641 10.6142C12.6581 10.5842 12.6667 10.5521 12.6667 10.518V5.87434L8.49999 8.28717V13.0462ZM7.99999 7.42567L12.1167 5.04617L8.10249 2.72434C8.06838 2.703 8.03422 2.69234 7.99999 2.69234C7.96577 2.69234 7.93161 2.703 7.89749 2.72434L3.88333 5.04617L7.99999 7.42567ZM2.93599 11.5692C2.74622 11.4598 2.59833 11.3137 2.49233 11.1308C2.38633 10.9478 2.33333 10.7469 2.33333 10.5282V5.47184C2.33333 5.25306 2.38633 5.05217 2.49233 4.86917C2.59833 4.68628 2.74622 4.54017 2.93599 4.43084L7.39749 1.86284C7.58716 1.75339 7.78799 1.69867 7.99999 1.69867C8.21199 1.69867 8.41283 1.75339 8.60249 1.86284L13.064 4.43084C13.2538 4.54017 13.4017 4.68628 13.5077 4.86917C13.6137 5.05217 13.6667 5.25306 13.6667 5.47184V10.5282C13.6667 10.7469 13.6137 10.9478 13.5077 11.1308C13.4017 11.3137 13.2538 11.4598 13.064 11.5692L8.60249 14.1372C8.41283 14.2466 8.21199 14.3013 7.99999 14.3013C7.78799 14.3013 7.58716 14.2466 7.39749 14.1372L2.93599 11.5692Z" fill="#2240C4"/>
</svg>
