<svg width="24" height="24" viewBox="0 0 24 24" fill="none" xmlns="http://www.w3.org/2000/svg">
<path fill-rule="evenodd" clip-rule="evenodd" d="M17.3279 15.2059L23.0609 20.9389L20.9389 23.0609L15.2059 17.3279C11.3811 20.0493 6.10892 19.3856 3.07801 15.8011C0.0471017 12.2165 0.268858 6.9074 3.58813 3.58813C6.9074 0.268858 12.2165 0.0471017 15.8011 3.07801C19.3856 6.10892 20.0493 11.3811 17.3279 15.2059ZM9.99986 2.99986C6.13387 2.99986 2.99986 6.13387 2.99986 9.99986C3.00427 13.864 6.13569 16.9955 9.99986 16.9999C13.8659 16.9999 16.9999 13.8659 16.9999 9.99986C16.9999 6.13387 13.8659 2.99986 9.99986 2.99986Z" fill="#252525"/>
</svg>
