<?xml version="1.0" encoding="UTF-8" standalone="no"?>
<svg width="109px" height="74px" viewBox="0 0 109 74" version="1.1" xmlns="http://www.w3.org/2000/svg" xmlns:xlink="http://www.w3.org/1999/xlink" xmlns:sketch="http://www.bohemiancoding.com/sketch/ns">
    <!-- Generator: Sketch 3.1.1 (8761) - http://www.bohemiancoding.com/sketch -->
    <title>Artboard 4</title>
    <desc>Created with Sketch.</desc>
    <defs></defs>
    <g id="Page-1" stroke="none" stroke-width="1" fill="none" fill-rule="evenodd" sketch:type="MSPage">
        <g id="Artboard-4" sketch:type="MSArtboardGroup">
            <g id="Imported-Layers" sketch:type="MSLayerGroup" fill="#6B6A65">
                <path d="M1.106,0.915 C2.025,0.733 3.888,0.597 5.636,0.597 C7.774,0.597 9.085,0.802 10.211,1.462 C11.292,2.031 12.074,3.078 12.074,4.467 C12.074,5.833 11.269,7.107 9.521,7.745 L9.521,7.791 C11.292,8.269 12.603,9.589 12.603,11.569 C12.603,12.959 11.959,14.051 10.993,14.825 C9.867,15.713 7.981,16.214 4.9,16.214 C3.175,16.214 1.887,16.1 1.106,15.986 L1.106,0.915 L1.106,0.915 Z M4.578,6.789 L5.727,6.789 C7.567,6.789 8.556,6.037 8.556,4.899 C8.556,3.738 7.659,3.123 6.072,3.123 C5.313,3.123 4.877,3.169 4.578,3.215 L4.578,6.789 L4.578,6.789 Z M4.578,13.596 C4.923,13.642 5.336,13.642 5.935,13.642 C7.521,13.642 8.924,13.05 8.924,11.434 C8.924,9.885 7.521,9.271 5.773,9.271 L4.578,9.271 L4.578,13.596 L4.578,13.596 Z" id="Fill-1" sketch:type="MSShapeGroup"></path>
                <path d="M17.342,1.826 C17.342,2.782 16.606,3.556 15.457,3.556 C14.353,3.556 13.617,2.782 13.64,1.826 C13.617,0.824 14.353,0.073 15.48,0.073 C16.606,0.073 17.319,0.824 17.342,1.826 L17.342,1.826 Z M13.732,4.922 L17.227,4.922 L17.227,16.055 L13.732,16.055 L13.732,4.922 Z" id="Fill-2" sketch:type="MSShapeGroup"></path>
                <path d="M22.793,1.734 L22.793,4.922 L25.3,4.922 L25.3,7.472 L22.793,7.472 L22.793,11.502 C22.793,12.845 23.115,13.459 24.173,13.459 C24.61,13.459 24.955,13.414 25.208,13.368 L25.231,15.986 C24.771,16.169 23.943,16.282 22.954,16.282 C21.828,16.282 20.885,15.895 20.333,15.326 C19.689,14.666 19.367,13.596 19.367,12.025 L19.367,7.472 L17.873,7.472 L17.873,4.922 L19.367,4.922 L19.367,2.509 L22.793,1.734" id="Fill-3" sketch:type="MSShapeGroup"></path>
                <path d="M26.29,0.915 C27.209,0.733 29.072,0.597 30.82,0.597 C32.958,0.597 34.269,0.802 35.395,1.462 C36.477,2.031 37.258,3.078 37.258,4.467 C37.258,5.833 36.454,7.107 34.706,7.745 L34.706,7.791 C36.477,8.269 37.787,9.589 37.787,11.569 C37.787,12.959 37.143,14.051 36.178,14.825 C35.051,15.713 33.165,16.214 30.084,16.214 C28.359,16.214 27.071,16.1 26.29,15.986 L26.29,0.915 L26.29,0.915 Z M29.762,6.789 L30.912,6.789 C32.752,6.789 33.74,6.037 33.74,4.899 C33.74,3.738 32.843,3.123 31.256,3.123 C30.498,3.123 30.061,3.169 29.762,3.215 L29.762,6.789 L29.762,6.789 Z M29.762,13.596 C30.107,13.642 30.52,13.642 31.119,13.642 C32.705,13.642 34.108,13.05 34.108,11.434 C34.108,9.885 32.705,9.271 30.958,9.271 L29.762,9.271 L29.762,13.596 L29.762,13.596 Z" id="Fill-4" sketch:type="MSShapeGroup"></path>
                <path d="M50.023,10.363 C50.023,14.439 47.102,16.305 44.09,16.305 C40.802,16.305 38.273,14.165 38.273,10.568 C38.273,6.971 40.664,4.672 44.274,4.672 C47.724,4.672 50.023,7.017 50.023,10.363 L50.023,10.363 Z M41.883,10.476 C41.883,12.39 42.687,13.823 44.182,13.823 C45.539,13.823 46.413,12.48 46.413,10.476 C46.413,8.815 45.769,7.131 44.182,7.131 C42.503,7.131 41.883,8.838 41.883,10.476 L41.883,10.476 Z" id="Fill-5" sketch:type="MSShapeGroup"></path>
                <path d="M53.705,4.922 L54.809,6.766 C55.13,7.335 55.43,7.904 55.729,8.428 L55.774,8.428 C56.073,7.836 56.349,7.267 56.648,6.721 L57.637,4.922 L61.431,4.922 L57.729,10.227 L61.477,16.055 L57.522,16.055 L56.395,14.051 C56.073,13.505 55.797,12.935 55.522,12.366 L55.453,12.366 C55.177,12.959 54.877,13.505 54.602,14.051 L53.544,16.055 L49.704,16.055 L53.521,10.386 L49.796,4.922 L53.705,4.922" id="Fill-6" sketch:type="MSShapeGroup"></path>
                <path d="M8.343,30.702 C7.831,30.959 6.807,31.215 5.494,31.215 C2.453,31.215 0.164,29.294 0.164,25.757 C0.164,22.379 2.453,20.09 5.798,20.09 C7.143,20.09 7.991,20.378 8.359,20.57 L8.023,21.707 C7.495,21.451 6.743,21.259 5.846,21.259 C3.317,21.259 1.637,22.875 1.637,25.709 C1.637,28.35 3.157,30.046 5.782,30.046 C6.631,30.046 7.495,29.87 8.055,29.598 L8.343,30.702" id="Fill-7" sketch:type="MSShapeGroup"></path>
                <path d="M9.236,19.69 L10.645,19.69 L10.645,24.524 L10.677,24.524 C10.901,24.124 11.253,23.771 11.685,23.531 C12.102,23.292 12.598,23.132 13.126,23.132 C14.167,23.132 15.831,23.771 15.831,26.445 L15.831,31.055 L14.422,31.055 L14.422,26.604 C14.422,25.356 13.958,24.3 12.63,24.3 C11.717,24.3 10.997,24.94 10.741,25.709 C10.661,25.9 10.645,26.108 10.645,26.381 L10.645,31.055 L9.236,31.055 L9.236,19.69" id="Fill-8" sketch:type="MSShapeGroup"></path>
                <path d="M17.316,25.725 C17.316,24.812 17.3,24.028 17.252,23.308 L18.484,23.308 L18.532,24.828 L18.597,24.828 C18.949,23.788 19.797,23.132 20.741,23.132 C20.901,23.132 21.014,23.147 21.142,23.18 L21.142,24.508 C20.998,24.476 20.854,24.46 20.661,24.46 C19.669,24.46 18.965,25.212 18.773,26.269 C18.741,26.461 18.709,26.685 18.709,26.925 L18.709,31.055 L17.316,31.055 L17.316,25.725" id="Fill-9" sketch:type="MSShapeGroup"></path>
                <path d="M28.759,27.117 C28.759,29.982 26.774,31.23 24.901,31.23 C22.805,31.23 21.188,29.694 21.188,27.245 C21.188,24.652 22.885,23.132 25.029,23.132 C27.254,23.132 28.759,24.748 28.759,27.117 L28.759,27.117 Z M22.612,27.197 C22.612,28.894 23.589,30.175 24.965,30.175 C26.31,30.175 27.318,28.91 27.318,27.165 C27.318,25.853 26.662,24.187 24.998,24.187 C23.333,24.187 22.612,25.725 22.612,27.197 L22.612,27.197 Z" id="Fill-10" sketch:type="MSShapeGroup"></path>
                <path d="M29.732,25.404 C29.732,24.605 29.716,23.948 29.668,23.308 L30.9,23.308 L30.964,24.556 L31.013,24.556 C31.445,23.819 32.165,23.132 33.445,23.132 C34.502,23.132 35.302,23.771 35.638,24.684 L35.67,24.684 C35.911,24.252 36.214,23.916 36.535,23.676 C36.999,23.323 37.511,23.132 38.248,23.132 C39.272,23.132 40.793,23.804 40.793,26.493 L40.793,31.055 L39.416,31.055 L39.416,26.669 C39.416,25.181 38.872,24.284 37.735,24.284 C36.935,24.284 36.31,24.876 36.07,25.564 C36.006,25.757 35.959,26.013 35.959,26.269 L35.959,31.055 L34.582,31.055 L34.582,26.413 C34.582,25.181 34.038,24.284 32.965,24.284 C32.085,24.284 31.445,24.988 31.221,25.692 C31.141,25.9 31.108,26.141 31.108,26.381 L31.108,31.055 L29.732,31.055 L29.732,25.404" id="Fill-11" sketch:type="MSShapeGroup"></path>
                <path d="M43.06,27.437 C43.092,29.342 44.309,30.126 45.717,30.126 C46.726,30.126 47.334,29.95 47.862,29.727 L48.102,30.734 C47.606,30.959 46.758,31.215 45.525,31.215 C43.14,31.215 41.716,29.646 41.716,27.309 C41.716,24.973 43.092,23.132 45.349,23.132 C47.878,23.132 48.55,25.356 48.55,26.781 C48.55,27.069 48.519,27.293 48.502,27.437 L43.06,27.437 L43.06,27.437 Z M47.19,26.429 C47.206,25.532 46.822,24.14 45.237,24.14 C43.812,24.14 43.188,25.452 43.076,26.429 L47.19,26.429 L47.19,26.429 Z" id="Fill-12" sketch:type="MSShapeGroup"></path>
                <path d="M57.718,25.997 L53.524,25.997 L53.524,29.886 L58.198,29.886 L58.198,31.055 L52.131,31.055 L52.131,20.266 L57.958,20.266 L57.958,21.435 L53.524,21.435 L53.524,24.844 L57.718,24.844 L57.718,25.997" id="Fill-13" sketch:type="MSShapeGroup"></path>
                <path d="M59.812,23.308 L60.916,24.973 C61.204,25.404 61.444,25.805 61.7,26.236 L61.749,26.236 C62.004,25.772 62.261,25.372 62.517,24.956 L63.605,23.308 L65.125,23.308 L62.485,27.053 L65.206,31.055 L63.605,31.055 L62.469,29.31 C62.165,28.861 61.908,28.43 61.636,27.966 L61.604,27.966 C61.348,28.43 61.076,28.846 60.788,29.31 L59.667,31.055 L58.115,31.055 L60.868,27.102 L58.243,23.308 L59.812,23.308" id="Fill-14" sketch:type="MSShapeGroup"></path>
                <path d="M67.46,21.083 L67.46,23.308 L69.477,23.308 L69.477,24.38 L67.46,24.38 L67.46,28.558 C67.46,29.518 67.732,30.062 68.516,30.062 C68.884,30.062 69.157,30.015 69.333,29.966 L69.397,31.022 C69.125,31.135 68.692,31.215 68.148,31.215 C67.492,31.215 66.964,31.007 66.627,30.622 C66.227,30.206 66.083,29.518 66.083,28.605 L66.083,24.38 L64.883,24.38 L64.883,23.308 L66.083,23.308 L66.083,21.451 L67.46,21.083" id="Fill-15" sketch:type="MSShapeGroup"></path>
                <path d="M71.044,27.437 C71.076,29.342 72.292,30.126 73.701,30.126 C74.709,30.126 75.317,29.95 75.846,29.727 L76.085,30.734 C75.589,30.959 74.741,31.215 73.509,31.215 C71.124,31.215 69.699,29.646 69.699,27.309 C69.699,24.973 71.076,23.132 73.333,23.132 C75.861,23.132 76.534,25.356 76.534,26.781 C76.534,27.069 76.502,27.293 76.486,27.437 L71.044,27.437 L71.044,27.437 Z M75.173,26.429 C75.189,25.532 74.805,24.14 73.221,24.14 C71.796,24.14 71.172,25.452 71.06,26.429 L75.173,26.429 L75.173,26.429 Z" id="Fill-16" sketch:type="MSShapeGroup"></path>
                <path d="M77.475,25.404 C77.475,24.605 77.459,23.948 77.411,23.308 L78.66,23.308 L78.74,24.588 L78.772,24.588 C79.156,23.851 80.052,23.132 81.333,23.132 C82.405,23.132 84.07,23.771 84.07,26.429 L84.07,31.055 L82.661,31.055 L82.661,26.589 C82.661,25.341 82.197,24.3 80.869,24.3 C79.94,24.3 79.22,24.956 78.98,25.74 C78.916,25.917 78.884,26.156 78.884,26.396 L78.884,31.055 L77.475,31.055 L77.475,25.404" id="Fill-17" sketch:type="MSShapeGroup"></path>
                <path d="M85.363,29.614 C85.779,29.886 86.516,30.175 87.22,30.175 C88.244,30.175 88.725,29.662 88.725,29.021 C88.725,28.35 88.324,27.981 87.284,27.598 C85.891,27.102 85.235,26.333 85.235,25.404 C85.235,24.156 86.244,23.132 87.908,23.132 C88.692,23.132 89.381,23.355 89.813,23.611 L89.461,24.636 C89.157,24.444 88.596,24.187 87.876,24.187 C87.044,24.187 86.58,24.668 86.58,25.244 C86.58,25.885 87.044,26.173 88.052,26.557 C89.397,27.069 90.085,27.741 90.085,28.894 C90.085,30.254 89.029,31.215 87.188,31.215 C86.339,31.215 85.555,31.007 85.011,30.687 L85.363,29.614" id="Fill-18" sketch:type="MSShapeGroup"></path>
                <path d="M92.66,21.131 C92.675,21.611 92.323,21.995 91.763,21.995 C91.267,21.995 90.915,21.611 90.915,21.131 C90.915,20.635 91.283,20.25 91.795,20.25 C92.323,20.25 92.66,20.635 92.66,21.131 L92.66,21.131 Z M91.091,23.308 L92.5,23.308 L92.5,31.055 L91.091,31.055 L91.091,23.308 Z" id="Fill-19" sketch:type="MSShapeGroup"></path>
                <path d="M101.045,27.117 C101.045,29.982 99.06,31.23 97.188,31.23 C95.091,31.23 93.475,29.694 93.475,27.245 C93.475,24.652 95.171,23.132 97.316,23.132 C99.541,23.132 101.045,24.748 101.045,27.117 L101.045,27.117 Z M94.899,27.197 C94.899,28.894 95.875,30.175 97.252,30.175 C98.597,30.175 99.605,28.91 99.605,27.165 C99.605,25.853 98.949,24.187 97.284,24.187 C95.619,24.187 94.899,25.725 94.899,27.197 L94.899,27.197 Z" id="Fill-20" sketch:type="MSShapeGroup"></path>
                <path d="M102.019,25.404 C102.019,24.605 102.003,23.948 101.955,23.308 L103.204,23.308 L103.284,24.588 L103.315,24.588 C103.7,23.851 104.596,23.132 105.877,23.132 C106.949,23.132 108.614,23.771 108.614,26.429 L108.614,31.055 L107.205,31.055 L107.205,26.589 C107.205,25.341 106.741,24.3 105.413,24.3 C104.484,24.3 103.764,24.956 103.523,25.74 C103.459,25.917 103.428,26.156 103.428,26.396 L103.428,31.055 L102.019,31.055 L102.019,25.404" id="Fill-21" sketch:type="MSShapeGroup"></path>
            </g>
            <path d="M1.106,41.915 C2.025,41.733 3.888,41.597 5.636,41.597 C7.774,41.597 9.085,41.802 10.211,42.462 C11.292,43.031 12.074,44.078 12.074,45.467 C12.074,46.833 11.269,48.107 9.521,48.745 L9.521,48.791 C11.292,49.269 12.603,50.589 12.603,52.569 C12.603,53.959 11.959,55.051 10.993,55.825 C9.867,56.713 7.981,57.214 4.9,57.214 C3.175,57.214 1.887,57.1 1.106,56.986 L1.106,41.915 L1.106,41.915 Z M4.578,47.789 L5.727,47.789 C7.567,47.789 8.556,47.037 8.556,45.899 C8.556,44.738 7.659,44.123 6.072,44.123 C5.313,44.123 4.877,44.169 4.578,44.215 L4.578,47.789 L4.578,47.789 Z M4.578,54.596 C4.923,54.642 5.336,54.642 5.935,54.642 C7.521,54.642 8.924,54.05 8.924,52.434 C8.924,50.885 7.521,50.271 5.773,50.271 L4.578,50.271 L4.578,54.596 L4.578,54.596 Z" id="Fill-1" fill="#A39F9A" sketch:type="MSShapeGroup"></path>
            <path d="M17.342,42.826 C17.342,43.782 16.606,44.556 15.457,44.556 C14.353,44.556 13.617,43.782 13.64,42.826 C13.617,41.824 14.353,41.073 15.48,41.073 C16.606,41.073 17.319,41.824 17.342,42.826 L17.342,42.826 Z M13.732,45.922 L17.227,45.922 L17.227,57.055 L13.732,57.055 L13.732,45.922 Z" id="Fill-2" fill="#A39F9A" sketch:type="MSShapeGroup"></path>
            <path d="M22.793,42.734 L22.793,45.922 L25.3,45.922 L25.3,48.472 L22.793,48.472 L22.793,52.502 C22.793,53.845 23.115,54.459 24.173,54.459 C24.61,54.459 24.955,54.414 25.208,54.368 L25.231,56.986 C24.771,57.169 23.943,57.282 22.954,57.282 C21.828,57.282 20.885,56.895 20.333,56.326 C19.689,55.666 19.367,54.596 19.367,53.025 L19.367,48.472 L17.873,48.472 L17.873,45.922 L19.367,45.922 L19.367,43.509 L22.793,42.734" id="Fill-3" fill="#A39F9A" sketch:type="MSShapeGroup"></path>
            <path d="M26.29,41.915 C27.209,41.733 29.072,41.597 30.82,41.597 C32.958,41.597 34.269,41.802 35.395,42.462 C36.477,43.031 37.258,44.078 37.258,45.467 C37.258,46.833 36.454,48.107 34.706,48.745 L34.706,48.791 C36.477,49.269 37.787,50.589 37.787,52.569 C37.787,53.959 37.143,55.051 36.178,55.825 C35.051,56.713 33.165,57.214 30.084,57.214 C28.359,57.214 27.071,57.1 26.29,56.986 L26.29,41.915 L26.29,41.915 Z M29.762,47.789 L30.912,47.789 C32.752,47.789 33.74,47.037 33.74,45.899 C33.74,44.738 32.843,44.123 31.256,44.123 C30.498,44.123 30.061,44.169 29.762,44.215 L29.762,47.789 L29.762,47.789 Z M29.762,54.596 C30.107,54.642 30.52,54.642 31.119,54.642 C32.705,54.642 34.108,54.05 34.108,52.434 C34.108,50.885 32.705,50.271 30.958,50.271 L29.762,50.271 L29.762,54.596 L29.762,54.596 Z" id="Fill-4" fill="#A39F9A" sketch:type="MSShapeGroup"></path>
            <path d="M50.023,51.363 C50.023,55.439 47.102,57.305 44.09,57.305 C40.802,57.305 38.273,55.165 38.273,51.568 C38.273,47.971 40.664,45.672 44.274,45.672 C47.724,45.672 50.023,48.017 50.023,51.363 L50.023,51.363 Z M41.883,51.476 C41.883,53.39 42.687,54.823 44.182,54.823 C45.539,54.823 46.413,53.48 46.413,51.476 C46.413,49.815 45.769,48.131 44.182,48.131 C42.503,48.131 41.883,49.838 41.883,51.476 L41.883,51.476 Z" id="Fill-5" fill="#A39F9A" sketch:type="MSShapeGroup"></path>
            <path d="M53.705,45.922 L54.809,47.766 C55.13,48.335 55.43,48.904 55.729,49.428 L55.774,49.428 C56.073,48.836 56.349,48.267 56.648,47.721 L57.637,45.922 L61.431,45.922 L57.729,51.227 L61.477,57.055 L57.522,57.055 L56.395,55.051 C56.073,54.505 55.797,53.935 55.522,53.366 L55.453,53.366 C55.177,53.959 54.877,54.505 54.602,55.051 L53.544,57.055 L49.704,57.055 L53.521,51.386 L49.796,45.922 L53.705,45.922" id="Fill-6" fill="#A39F9A" sketch:type="MSShapeGroup"></path>
            <path d="M8.343,71.702 C7.831,71.959 6.807,72.215 5.494,72.215 C2.453,72.215 0.164,70.294 0.164,66.757 C0.164,63.379 2.453,61.09 5.798,61.09 C7.143,61.09 7.991,61.378 8.359,61.57 L8.023,62.707 C7.495,62.451 6.743,62.259 5.846,62.259 C3.317,62.259 1.637,63.875 1.637,66.709 C1.637,69.35 3.157,71.046 5.782,71.046 C6.631,71.046 7.495,70.87 8.055,70.598 L8.343,71.702" id="Fill-7" fill="#A39F9A" sketch:type="MSShapeGroup"></path>
            <path d="M9.236,60.69 L10.645,60.69 L10.645,65.524 L10.677,65.524 C10.901,65.124 11.253,64.771 11.685,64.531 C12.102,64.292 12.598,64.132 13.126,64.132 C14.167,64.132 15.831,64.771 15.831,67.445 L15.831,72.055 L14.422,72.055 L14.422,67.604 C14.422,66.356 13.958,65.3 12.63,65.3 C11.717,65.3 10.997,65.94 10.741,66.709 C10.661,66.9 10.645,67.108 10.645,67.381 L10.645,72.055 L9.236,72.055 L9.236,60.69" id="Fill-8" fill="#A39F9A" sketch:type="MSShapeGroup"></path>
            <path d="M17.316,66.725 C17.316,65.812 17.3,65.028 17.252,64.308 L18.484,64.308 L18.532,65.828 L18.597,65.828 C18.949,64.788 19.797,64.132 20.741,64.132 C20.901,64.132 21.014,64.147 21.142,64.18 L21.142,65.508 C20.998,65.476 20.854,65.46 20.661,65.46 C19.669,65.46 18.965,66.212 18.773,67.269 C18.741,67.461 18.709,67.685 18.709,67.925 L18.709,72.055 L17.316,72.055 L17.316,66.725" id="Fill-9" fill="#A39F9A" sketch:type="MSShapeGroup"></path>
            <path d="M28.759,68.117 C28.759,70.982 26.774,72.23 24.901,72.23 C22.805,72.23 21.188,70.694 21.188,68.245 C21.188,65.652 22.885,64.132 25.029,64.132 C27.254,64.132 28.759,65.748 28.759,68.117 L28.759,68.117 Z M22.612,68.197 C22.612,69.894 23.589,71.175 24.965,71.175 C26.31,71.175 27.318,69.91 27.318,68.165 C27.318,66.853 26.662,65.187 24.998,65.187 C23.333,65.187 22.612,66.725 22.612,68.197 L22.612,68.197 Z" id="Fill-10" fill="#A39F9A" sketch:type="MSShapeGroup"></path>
            <path d="M29.732,66.404 C29.732,65.605 29.716,64.948 29.668,64.308 L30.9,64.308 L30.964,65.556 L31.013,65.556 C31.445,64.819 32.165,64.132 33.445,64.132 C34.502,64.132 35.302,64.771 35.638,65.684 L35.67,65.684 C35.911,65.252 36.214,64.916 36.535,64.676 C36.999,64.323 37.511,64.132 38.248,64.132 C39.272,64.132 40.793,64.804 40.793,67.493 L40.793,72.055 L39.416,72.055 L39.416,67.669 C39.416,66.181 38.872,65.284 37.735,65.284 C36.935,65.284 36.31,65.876 36.07,66.564 C36.006,66.757 35.959,67.013 35.959,67.269 L35.959,72.055 L34.582,72.055 L34.582,67.413 C34.582,66.181 34.038,65.284 32.965,65.284 C32.085,65.284 31.445,65.988 31.221,66.692 C31.141,66.9 31.108,67.141 31.108,67.381 L31.108,72.055 L29.732,72.055 L29.732,66.404" id="Fill-11" fill="#A39F9A" sketch:type="MSShapeGroup"></path>
            <path d="M43.06,68.437 C43.092,70.342 44.309,71.126 45.717,71.126 C46.726,71.126 47.334,70.95 47.862,70.727 L48.102,71.734 C47.606,71.959 46.758,72.215 45.525,72.215 C43.14,72.215 41.716,70.646 41.716,68.309 C41.716,65.973 43.092,64.132 45.349,64.132 C47.878,64.132 48.55,66.356 48.55,67.781 C48.55,68.069 48.519,68.293 48.502,68.437 L43.06,68.437 L43.06,68.437 Z M47.19,67.429 C47.206,66.532 46.822,65.14 45.237,65.14 C43.812,65.14 43.188,66.452 43.076,67.429 L47.19,67.429 L47.19,67.429 Z" id="Fill-12" fill="#A39F9A" sketch:type="MSShapeGroup"></path>
            <path d="M57.718,66.997 L53.524,66.997 L53.524,70.886 L58.198,70.886 L58.198,72.055 L52.131,72.055 L52.131,61.266 L57.958,61.266 L57.958,62.435 L53.524,62.435 L53.524,65.844 L57.718,65.844 L57.718,66.997" id="Fill-13" fill="#A39F9A" sketch:type="MSShapeGroup"></path>
            <path d="M59.812,64.308 L60.916,65.973 C61.204,66.404 61.444,66.805 61.7,67.236 L61.749,67.236 C62.004,66.772 62.261,66.372 62.517,65.956 L63.605,64.308 L65.125,64.308 L62.485,68.053 L65.206,72.055 L63.605,72.055 L62.469,70.31 C62.165,69.861 61.908,69.43 61.636,68.966 L61.604,68.966 C61.348,69.43 61.076,69.846 60.788,70.31 L59.667,72.055 L58.115,72.055 L60.868,68.102 L58.243,64.308 L59.812,64.308" id="Fill-14" fill="#A39F9A" sketch:type="MSShapeGroup"></path>
            <path d="M67.46,62.083 L67.46,64.308 L69.477,64.308 L69.477,65.38 L67.46,65.38 L67.46,69.558 C67.46,70.518 67.732,71.062 68.516,71.062 C68.884,71.062 69.157,71.015 69.333,70.966 L69.397,72.022 C69.125,72.135 68.692,72.215 68.148,72.215 C67.492,72.215 66.964,72.007 66.627,71.622 C66.227,71.206 66.083,70.518 66.083,69.605 L66.083,65.38 L64.883,65.38 L64.883,64.308 L66.083,64.308 L66.083,62.451 L67.46,62.083" id="Fill-15" fill="#A39F9A" sketch:type="MSShapeGroup"></path>
            <path d="M71.044,68.437 C71.076,70.342 72.292,71.126 73.701,71.126 C74.709,71.126 75.317,70.95 75.846,70.727 L76.085,71.734 C75.589,71.959 74.741,72.215 73.509,72.215 C71.124,72.215 69.699,70.646 69.699,68.309 C69.699,65.973 71.076,64.132 73.333,64.132 C75.861,64.132 76.534,66.356 76.534,67.781 C76.534,68.069 76.502,68.293 76.486,68.437 L71.044,68.437 L71.044,68.437 Z M75.173,67.429 C75.189,66.532 74.805,65.14 73.221,65.14 C71.796,65.14 71.172,66.452 71.06,67.429 L75.173,67.429 L75.173,67.429 Z" id="Fill-16" fill="#A39F9A" sketch:type="MSShapeGroup"></path>
            <path d="M77.475,66.404 C77.475,65.605 77.459,64.948 77.411,64.308 L78.66,64.308 L78.74,65.588 L78.772,65.588 C79.156,64.851 80.052,64.132 81.333,64.132 C82.405,64.132 84.07,64.771 84.07,67.429 L84.07,72.055 L82.661,72.055 L82.661,67.589 C82.661,66.341 82.197,65.3 80.869,65.3 C79.94,65.3 79.22,65.956 78.98,66.74 C78.916,66.917 78.884,67.156 78.884,67.396 L78.884,72.055 L77.475,72.055 L77.475,66.404" id="Fill-17" fill="#A39F9A" sketch:type="MSShapeGroup"></path>
            <path d="M85.363,70.614 C85.779,70.886 86.516,71.175 87.22,71.175 C88.244,71.175 88.725,70.662 88.725,70.021 C88.725,69.35 88.324,68.981 87.284,68.598 C85.891,68.102 85.235,67.333 85.235,66.404 C85.235,65.156 86.244,64.132 87.908,64.132 C88.692,64.132 89.381,64.355 89.813,64.611 L89.461,65.636 C89.157,65.444 88.596,65.187 87.876,65.187 C87.044,65.187 86.58,65.668 86.58,66.244 C86.58,66.885 87.044,67.173 88.052,67.557 C89.397,68.069 90.085,68.741 90.085,69.894 C90.085,71.254 89.029,72.215 87.188,72.215 C86.339,72.215 85.555,72.007 85.011,71.687 L85.363,70.614" id="Fill-18" fill="#A39F9A" sketch:type="MSShapeGroup"></path>
            <path d="M92.66,62.131 C92.675,62.611 92.323,62.995 91.763,62.995 C91.267,62.995 90.915,62.611 90.915,62.131 C90.915,61.635 91.283,61.25 91.795,61.25 C92.323,61.25 92.66,61.635 92.66,62.131 L92.66,62.131 Z M91.091,64.308 L92.5,64.308 L92.5,72.055 L91.091,72.055 L91.091,64.308 Z" id="Fill-19" fill="#A39F9A" sketch:type="MSShapeGroup"></path>
            <path d="M101.045,68.117 C101.045,70.982 99.06,72.23 97.188,72.23 C95.091,72.23 93.475,70.694 93.475,68.245 C93.475,65.652 95.171,64.132 97.316,64.132 C99.541,64.132 101.045,65.748 101.045,68.117 L101.045,68.117 Z M94.899,68.197 C94.899,69.894 95.875,71.175 97.252,71.175 C98.597,71.175 99.605,69.91 99.605,68.165 C99.605,66.853 98.949,65.187 97.284,65.187 C95.619,65.187 94.899,66.725 94.899,68.197 L94.899,68.197 Z" id="Fill-20" fill="#A39F9A" sketch:type="MSShapeGroup"></path>
            <path d="M102.019,66.404 C102.019,65.605 102.003,64.948 101.955,64.308 L103.204,64.308 L103.284,65.588 L103.315,65.588 C103.7,64.851 104.596,64.132 105.877,64.132 C106.949,64.132 108.614,64.771 108.614,67.429 L108.614,72.055 L107.205,72.055 L107.205,67.589 C107.205,66.341 106.741,65.3 105.413,65.3 C104.484,65.3 103.764,65.956 103.523,66.74 C103.459,66.917 103.428,67.156 103.428,67.396 L103.428,72.055 L102.019,72.055 L102.019,66.404" id="Fill-21" fill="#A39F9A" sketch:type="MSShapeGroup"></path>
        </g>
    </g>
</svg>