<?xml version="1.0" encoding="utf-8"?>
<!-- Generator: Adobe Illustrator 17.1.0, SVG Export Plug-In . SVG Version: 6.00 Build 0)  -->
<!DOCTYPE svg PUBLIC "-//W3C//DTD SVG 1.1//EN" "http://www.w3.org/Graphics/SVG/1.1/DTD/svg11.dtd">
<svg version="1.1" id="Bitcoin_Logo" xmlns="http://www.w3.org/2000/svg" xmlns:xlink="http://www.w3.org/1999/xlink" x="0px"
	 y="0px" viewBox="0 0 144 144" enable-background="new 0 0 144 144" xml:space="preserve">
<g id="Bitcoin_Logo_1_">
	<path id="PMS_130_Coin" fill="#F7A800" d="M141.8,89.4c-9.6,38.5-48.6,62-87.2,52.4c-38.5-9.6-62-48.6-52.4-87.1
		c9.6-38.5,48.6-62,87.1-52.4C127.9,11.8,151.4,50.9,141.8,89.4z"/>
	<path id="Bitcoin_Symbol" fill="#FFFFFF" d="M106.1,62.7c1.3-9.6-6-14.6-16-18l3.1-13l-7.9-1.9l-3,12.7c-2.1-0.5-4.2-1-6.3-1.4
		l3-12.7L71,26.5l-3.1,13c-1.7-0.4-3.4-0.7-5.1-1.1l0,0l-10.9-2.6l-2,8.4c0,0,5.9,1.3,5.7,1.4c3.2,0.8,3.8,2.9,3.7,4.5l-3.5,14.8
		c0.2,0.1,0.5,0.1,0.8,0.3c-0.3-0.1-0.5-0.1-0.8-0.2L51,85.7c-0.4,1-1.4,2.4-3.6,1.9c0.1,0.1-5.8-1.4-5.8-1.4l-3.8,9.1l10.3,2.4
		c1.9,0.5,3.8,0.9,5.6,1.4l-3.1,13.1l7.9,1.9l3.1-13c2.2,0.6,4.3,1.1,6.3,1.6l-3.1,12.9l7.9,1.9l3.1-13.1c13.5,2.4,23.6,1.3,27.7-11
		c3.3-9.8-0.3-15.4-7.5-19.1C101.3,73.1,105.1,69.7,106.1,62.7z M88.3,88.2C86,98,69.4,92.9,64.1,91.6l4.1-17.4
		C73.6,75.5,90.7,77.9,88.3,88.2z M90.5,62.7c-2.1,8.9-15.9,4.6-20.4,3.5l3.8-15.8C78.3,51.5,92.7,53.4,90.5,62.7z"/>
</g>
</svg>
