<?xml version="1.0" encoding="UTF-8" standalone="no"?>
<svg width="123px" height="79px" viewBox="0 0 123 79" version="1.1" xmlns="http://www.w3.org/2000/svg" xmlns:xlink="http://www.w3.org/1999/xlink" xmlns:sketch="http://www.bohemiancoding.com/sketch/ns">
    <!-- Generator: Sketch 3.2.1 (9971) - http://www.bohemiancoding.com/sketch -->
    <title>Imported Layers + Imported Layers 2</title>
    <desc>Created with Sketch.</desc>
    <defs></defs>
    <g id="Page-1" stroke="none" stroke-width="1" fill="none" fill-rule="evenodd" sketch:type="MSPage">
        <g id="Imported-Layers-+-Imported-Layers-2" sketch:type="MSLayerGroup">
            <g id="Imported-Layers" fill="#6B6A65" sketch:type="MSShapeGroup">
                <path d="M76.3176326,1.0969697 C76.9379408,0.996969697 77.6128483,1.07424242 78.1133416,1.48787879 C79.0839951,2.18939394 79.187127,3.77424242 78.2938224,4.58333333 C77.3777682,5.58030303 75.5031936,5.31212121 74.9617509,4.05454545 C74.3793588,2.91818182 75.0497164,1.36515152 76.3176326,1.0969697" id="Fill-1"></path>
                <path d="M112.020999,7.42121212 C111.923933,6.56212121 112.415327,5.7969697 112.771739,5.05454545 C116.120493,7.48181818 119.53143,9.82424242 122.880185,12.2515152 C122.822552,12.7848485 122.957534,13.4787879 122.441874,13.8287879 C121.122392,14.8575758 119.714945,15.7681818 118.330247,16.7045455 C116.806017,17.7151515 115.289371,18.7424242 113.687793,19.6272727 C113.310148,19.8378788 112.753539,20.080303 112.42746,19.6590909 C112.025549,19.1075758 111.9664,18.3939394 111.752552,17.7621212 C114.731245,16.1181818 117.702355,14.4621212 120.685598,12.8257576 C118.114883,11.3984848 115.492602,10.0560606 112.988619,8.51060606 C112.580641,8.24545455 112.077115,7.95909091 112.020999,7.42121212" id="Fill-2"></path>
                <path d="M9.90824908,5.30606061 C10.5725401,5.91363636 11.6721085,5.96666667 12.3894821,5.42878788 C13.3464858,4.57727273 13.5178668,3.08636364 13.062873,1.93636364 C12.6154624,0.904545455 11.5037608,0.371212121 10.4466584,0.201515152 C8.62668311,-0.106060606 6.68689273,0.222727273 5.13233046,1.23636364 C3.91749692,2.04848485 3.10609125,3.49090909 3.23045623,4.96818182 C3.26533909,5.98484848 3.77644883,6.90151515 4.38917386,7.68484848 C5.11868064,8.65 6.02108508,9.46363636 6.79305795,10.3909091 C7.6727127,11.4363636 8.40373613,12.6909091 8.45378545,14.0893939 C8.46440197,14.9787879 8.34307028,15.9606061 7.72731196,16.6515152 C6.83249075,17.7333333 5.06863132,17.9166667 3.93418002,17.1257576 C2.9498767,16.4 2.81337855,14.8242424 3.62478422,13.9212121 C4.24812577,13.1848485 5.24911221,12.9590909 6.17274969,12.9227273 C6.00743527,12.4712121 5.88003699,11.9484848 5.46295931,11.6545455 C4.79260173,11.1348485 3.89323058,11.1333333 3.08789149,11.2181818 C1.96860666,11.5257576 0.941837238,12.2590909 0.471676942,13.3439394 C-0.175930949,14.8257576 -0.153181258,16.7272727 0.893304562,18.0257576 C1.8745746,19.2606061 3.52013564,19.6439394 5.02464858,19.730303 C6.89163995,19.7878788 8.86024661,19.4030303 10.3859926,18.2666667 C11.5795931,17.3818182 12.3909988,16.0075758 12.6048459,14.5378788 C12.7838101,13.0909091 12.6655117,11.5515152 11.9147719,10.2712121 C11.3642293,9.32272727 10.6301726,8.48333333 9.77933416,7.79242424 C8.77834772,6.93030303 7.68332922,6.05909091 7.16463625,4.8030303 C6.85979038,4.0030303 6.8537238,3.04545455 7.31023428,2.30151515 C7.89110974,1.44545455 9.07409371,1.24242424 10.0219975,1.49242424 C10.6529223,1.63484848 11.0169174,2.26969697 11.0942663,2.87121212 C11.1488656,3.82727273 10.6316893,4.71363636 9.90824908,5.30606061" id="Fill-3"></path>
                <path d="M30.4436375,9.2030303 C31.0487793,8.13939394 30.4254377,6.47272727 29.1271887,6.3469697 C27.8152898,6.22878788 26.717238,7.14545455 25.8284834,7.9969697 C25.9482984,7.4969697 26.0605302,6.99545455 26.172762,6.49393939 C24.9154624,6.49393939 23.6581628,6.49393939 22.4008631,6.49090909 C22.0899507,8.01060606 21.7532552,9.52272727 21.4408261,11.0409091 C21.1602466,12.2606061 20.9539827,13.4969697 20.6461036,14.7090909 C20.344291,15.7393939 19.5404686,16.8681818 18.3590012,16.8636364 C17.8160419,16.9560606 17.3155487,16.4469697 17.4262639,15.9060606 C17.588545,14.5969697 17.9555734,13.3212121 18.2027867,12.0242424 C18.5243157,10.5348485 18.8306782,9.04393939 19.1522072,7.55454545 C19.6557337,7.55151515 20.1577435,7.5530303 20.6597534,7.56212121 C20.7431689,7.20606061 20.8190012,6.8469697 20.8933169,6.48939394 C20.3822072,6.49090909 19.8726141,6.49242424 19.363021,6.4969697 C19.6572503,5.14393939 19.9818126,3.79545455 20.2108261,2.43030303 C18.9338101,2.60606061 17.6567941,2.77272727 16.3797781,2.94848485 C16.109815,4.11818182 15.8565351,5.29393939 15.6138718,6.47121212 C15.3166091,6.49393939 15.0193465,6.51666667 14.7236005,6.55454545 C14.6750678,6.88333333 14.6250185,7.21363636 14.5734525,7.54242424 C14.8418989,7.5469697 15.1103453,7.55 15.3803083,7.55454545 C15.1346116,8.83939394 14.8464488,10.1151515 14.5749692,11.3939394 C14.2852898,12.8045455 13.9288779,14.2045455 13.7256473,15.630303 C13.6664982,16.5272727 13.6422318,17.5 14.1366584,18.2954545 C14.4733539,18.8560606 15.0800123,19.1666667 15.6790875,19.3727273 C17.2533662,19.6454545 18.9201603,19.0530303 20.001529,17.8848485 C19.8938471,18.3454545 19.7967818,18.8075758 19.705783,19.2727273 C20.9585327,19.2727273 22.2097657,19.2727273 23.4625154,19.2712121 C23.9978915,16.6666667 24.5605672,14.0681818 25.1080764,11.4666667 C25.2551911,10.8515152 25.3067571,10.2075758 25.534254,9.61515152 C26.0317139,9.04848485 26.717238,8.61212121 27.4861776,8.55757576 C27.6969914,9.05454545 27.7485573,9.65454545 28.139852,10.0515152 C28.9558076,10.4742424 30.0781258,10.0409091 30.4436375,9.2030303" id="Fill-4"></path>
                <path d="M108.361332,16.4530303 C108.061036,15.3681818 108.538779,14.2712121 108.74656,13.2121212 C109.127238,11.580303 109.720247,9.87878788 109.327435,8.19393939 C109.190937,7.47878788 108.647978,6.92121212 107.998853,6.62878788 C106.203144,5.83484848 104.095006,6.78636364 103.092503,8.37272727 C102.899889,7.70454545 102.608693,6.96666667 101.923169,6.66969697 C100.420173,5.93636364 98.5000986,6.43787879 97.4020469,7.66060606 C97.4975956,7.27272727 97.590111,6.88484848 97.6795931,6.49545455 C96.4192602,6.49242424 95.1589273,6.49545455 93.8985943,6.4969697 C93.5088163,8.36818182 93.1008385,10.2348485 92.7140937,12.1075758 C92.3349322,13.5363636 92.322799,15.1757576 91.2854131,16.3333333 C90.8289026,16.9121212 89.8339827,17.0787879 89.2788903,16.5681818 C88.9725277,15.7833333 89.3410727,14.9348485 89.4715043,14.1439394 C90.0068804,11.7787879 90.433058,9.38787879 91.0154501,7.03484848 C91.0366831,6.89848485 91.0791492,6.62272727 91.1003822,6.48636364 C89.8445993,6.49393939 88.5903329,6.48939394 87.3345499,6.49090909 C86.8659063,8.64090909 86.4230456,10.7954545 85.9650185,12.9484848 C85.6874723,14.2075758 85.5524908,15.6560606 84.501455,16.55 C84.1723428,16.8818182 83.6824661,16.8424242 83.2547719,16.8712121 C83.0303083,16.5151515 82.8073613,16.1136364 82.8907768,15.6772727 C83.0439581,14.7484848 83.2638718,13.8318182 83.4595191,12.9121212 C83.9114797,10.7712121 84.3604069,8.63181818 84.8169174,6.49242424 C83.5565845,6.49242424 82.2962515,6.48939394 81.0359186,6.49545455 C80.7052898,8.17121212 80.3488779,9.84090909 79.9848829,11.5106061 C79.7771023,12.480303 79.5905549,13.4560606 79.3736745,14.4242424 C79.1825771,15.2651515 78.7230333,16.05 78.0284094,16.5742424 C77.4293342,16.9257576 76.5254131,17.0530303 76.0764858,16.4060606 C76.01582,15.5121212 76.285783,14.6515152 76.4617139,13.7878788 C76.9834402,11.3560606 77.4763502,8.91969697 78.0208261,6.49393939 C76.7589766,6.4969697 75.497127,6.48939394 74.2352774,6.5 C73.6923181,9.12575758 73.1266091,11.7469697 72.5821332,14.3727273 C72.445635,15.0030303 72.1407891,15.580303 71.8010604,16.1227273 C71.3976326,16.7106061 70.6393095,17.0393939 69.9477189,16.7833333 C69.4942417,16.5712121 69.4593588,16.0136364 69.445709,15.5818182 C69.7824044,13.6575758 70.4694451,11.8015152 70.6559926,9.85151515 C70.7060419,8.93333333 70.701492,7.88030303 70.011418,7.17727273 C68.9922318,6.15909091 67.3057213,6.15606061 66.072688,6.76818182 C65.340148,7.10909091 64.8366215,7.75454545 64.2951788,8.32575758 C64.0525154,7.68333333 63.7916523,6.95 63.1091615,6.6530303 C61.6273983,5.97272727 59.7877065,6.44090909 58.6653884,7.58333333 C58.7397041,7.22272727 58.8094698,6.86212121 58.8762022,6.5 C57.6249692,6.50454545 56.3737361,6.47121212 55.1225031,6.51969697 C54.8282737,7.97878788 54.5021948,9.43181818 54.2003822,10.8893939 C53.7999877,12.4530303 53.6968557,14.1136364 53.0158816,15.5924242 C52.7292355,16.1757576 52.2621085,16.7757576 51.5674846,16.8469697 C51.2565721,16.8590909 50.8865105,16.9106061 50.6362639,16.6863636 C50.3663009,16.4272727 50.3450678,16.0272727 50.3754007,15.6787879 C51.0078422,12.6151515 51.7145993,9.56666667 52.3288409,6.5 C51.0624414,6.49545455 49.7960419,6.48484848 48.5296424,6.50454545 C48.4780764,6.80909091 48.4265105,7.11363636 48.3810111,7.41969697 C48.1535142,7.00151515 47.8486683,6.58484848 47.3557583,6.47575758 C45.4387176,5.95454545 43.3791122,6.86060606 42.1278792,8.32575758 C40.5551171,10.1924242 39.8195438,12.6409091 39.655746,15.0454545 C38.7154254,16.069697 37.5369914,17.0439394 36.0946609,17.1621212 C35.4819359,17.1954545 34.7766954,17.2439394 34.2746856,16.8242424 C34.0168557,16.5636364 33.9319236,16.1893939 33.7741924,15.8681818 C33.7575092,15.2924242 33.7666091,14.7136364 33.822725,14.1393939 C35.5820345,14.0136364 37.3261776,13.2590909 38.4924784,11.9151515 C39.4449322,10.8106061 39.951492,9.23939394 39.5344143,7.80757576 C39.3311837,7.06666667 38.6107768,6.59848485 37.8934032,6.43939394 C36.5451048,6.16818182 35.1058076,6.40454545 33.9061406,7.07272727 C31.9906165,8.22575758 30.8667818,10.3166667 30.3238224,12.4257576 C29.9962269,13.7833333 29.7535635,15.2106061 30.0356597,16.6 C30.1494081,17.4378788 30.5953021,18.2469697 31.3096424,18.7181818 C31.907201,19.1484848 32.6412577,19.3257576 33.3631813,19.4166667 C34.9222935,19.55 36.5238718,19.1378788 37.8054377,18.2333333 C38.5561776,17.7727273 39.1249199,17.0909091 39.7619112,16.4969697 C39.9348089,17.4484848 40.3989026,18.4075758 41.2497411,18.9272727 C42.4827744,19.6787879 44.1480518,19.5833333 45.3204192,18.7530303 C45.9376942,18.3712121 46.397238,17.8015152 46.8431319,17.2409091 C47.0402959,17.8090909 47.2420099,18.4378788 47.7667694,18.7939394 C48.6433909,19.430303 49.8157583,19.3333333 50.8121948,19.0772727 C51.5432182,18.9045455 52.1377435,18.4242424 52.7080025,17.9621212 C52.6109371,18.3954545 52.5199383,18.830303 52.4350062,19.2666667 C53.6771393,19.2757576 54.9192725,19.2621212 56.1614057,19.2757576 C56.3964858,18.3772727 56.5527004,17.4621212 56.7544143,16.5575758 C57.1062762,14.9333333 57.4444883,13.3045455 57.788767,11.6772727 C57.981381,10.7106061 58.3271763,9.70151515 59.0961159,9.03787879 C59.434328,8.74242424 60.0136868,8.61666667 60.389815,8.9030303 C60.7538101,9.38181818 60.6415783,10.0348485 60.5475462,10.5863636 C60.2320838,12.0560606 59.927238,13.5287879 59.6132922,15 C59.3160296,16.4121212 59.0081504,17.8227273 58.718471,19.2363636 C59.9681874,19.3045455 61.2209371,19.2560606 62.4721702,19.2651515 C62.7284834,17.969697 63.0227127,16.6833333 63.2881258,15.3893939 C63.5368557,14.2090909 63.7871023,13.030303 64.0358323,11.85 C64.2163132,10.9030303 64.5120592,9.92878788 65.1793835,9.20606061 C65.5175956,8.86666667 66.0560049,8.61212121 66.5231319,8.83484848 C66.9887423,9.08636364 67.0266584,9.68333333 67.0205919,10.1530303 C66.9568927,11.2969697 66.6065475,12.3969697 66.3638841,13.5121212 C66.0954377,14.7318182 65.7177928,15.9787879 65.9377065,17.2393939 C66.0560049,18.2151515 66.8249445,19.019697 67.7561652,19.2863636 C68.8769667,19.5984848 70.1479162,19.4363636 71.1140197,18.7681818 C71.6281628,18.419697 72.0270407,17.9333333 72.398619,17.4409091 C72.6185327,18.3833333 73.3753391,19.1484848 74.3262762,19.35 C76.1781011,19.7272727 78.1269914,18.7893939 79.1643773,17.2439394 C79.3296917,17.7121212 79.435857,18.2318182 79.804402,18.5939394 C80.6082244,19.4318182 81.895857,19.6106061 82.9787423,19.2924242 C84.1268434,19.0151515 84.9716153,18.1106061 85.6146732,17.1712121 C85.7284217,17.7818182 85.9195191,18.4227273 86.421529,18.8333333 C87.0509371,19.4606061 88.0064242,19.4939394 88.8360296,19.4060606 C89.8430826,19.2287879 90.7545869,18.7272727 91.4825771,18.0166667 C91.3764118,18.4318182 91.2793465,18.8484848 91.1807645,19.2651515 C92.4410974,19.2772727 93.7044636,19.2666667 94.9663132,19.2712121 C95.4015906,17.0606061 95.9020838,14.8621212 96.3585943,12.6545455 C96.5982244,11.4227273 96.8242047,10.0818182 97.7372256,9.1469697 C98.0693711,8.76515152 98.597164,8.76515152 99.0612577,8.73636364 C99.2857213,9.16363636 99.5374846,9.63636364 99.3994698,10.1333333 C99.0400247,11.9136364 98.6547965,13.6878788 98.2786683,15.4636364 C98.0178052,16.7318182 97.7296424,17.9954545 97.4884957,19.269697 C98.7291122,19.280303 99.9697287,19.2621212 101.211862,19.2833333 C101.501541,18.1727273 101.697189,17.0409091 101.948952,15.9212121 C102.270481,14.4333333 102.572293,12.9424242 102.896856,11.4560606 C103.087953,10.5984848 103.404932,9.71818182 104.069223,9.11060606 C104.33767,8.85 104.728964,8.71363636 105.103576,8.77575758 C105.50397,8.87727273 105.746634,9.30606061 105.754217,9.7 C105.823983,10.7257576 105.543403,11.730303 105.312873,12.719697 C104.967078,14.4909091 104.184488,16.4015152 104.961011,18.1666667 C105.449371,19.2863636 106.824969,19.5833333 107.927571,19.4045455 C108.45688,19.1878788 109.011973,18.9666667 109.397201,18.5227273 C109.856745,18.05 110.006893,17.3848485 110.088792,16.7530303 C109.527633,16.8090909 108.69651,17.0878788 108.361332,16.4530303 L108.361332,16.4530303 Z M35.9156967,8.46363636 C36.2129593,8.08030303 36.6588533,7.73333333 37.1745129,7.78787879 C37.4839088,7.95151515 37.6022072,8.31666667 37.6264735,8.64545455 C37.6825894,10.680303 36.0628113,12.6 34.0305055,12.8454545 C34.3869174,11.2924242 34.9040937,9.72272727 35.9156967,8.46363636 L35.9156967,8.46363636 Z M48.0018496,9.20909091 C47.549889,11.2212121 47.2010604,13.2621212 46.6656843,15.2530303 C46.3274723,16.0969697 45.5752158,16.9348485 44.5878792,16.8590909 C44.1237855,16.9 43.9084217,16.4363636 43.6612084,16.1363636 C43.5307768,15.3575758 43.5110604,14.5606061 43.6399753,13.780303 C43.8993218,12.0954545 44.3907152,10.3924242 45.4205179,9.00606061 C45.805746,8.50151515 46.3471887,8.01212121 47.0236128,8.03030303 C47.6424044,7.94090909 48.2005302,8.61818182 48.0018496,9.20909091 L48.0018496,9.20909091 Z" id="Fill-5"></path>
            </g>
            <g id="Imported-Layers-2" transform="translate(0.000000, 59.000000)" fill="#A39F9A" sketch:type="MSShapeGroup">
                <path d="M76.3176326,1.0969697 C76.9379408,0.996969697 77.6128483,1.07424242 78.1133416,1.48787879 C79.0839951,2.18939394 79.187127,3.77424242 78.2938224,4.58333333 C77.3777682,5.58030303 75.5031936,5.31212121 74.9617509,4.05454545 C74.3793588,2.91818182 75.0497164,1.36515152 76.3176326,1.0969697" id="Fill-1"></path>
                <path d="M112.020999,7.42121212 C111.923933,6.56212121 112.415327,5.7969697 112.771739,5.05454545 C116.120493,7.48181818 119.53143,9.82424242 122.880185,12.2515152 C122.822552,12.7848485 122.957534,13.4787879 122.441874,13.8287879 C121.122392,14.8575758 119.714945,15.7681818 118.330247,16.7045455 C116.806017,17.7151515 115.289371,18.7424242 113.687793,19.6272727 C113.310148,19.8378788 112.753539,20.080303 112.42746,19.6590909 C112.025549,19.1075758 111.9664,18.3939394 111.752552,17.7621212 C114.731245,16.1181818 117.702355,14.4621212 120.685598,12.8257576 C118.114883,11.3984848 115.492602,10.0560606 112.988619,8.51060606 C112.580641,8.24545455 112.077115,7.95909091 112.020999,7.42121212" id="Fill-2"></path>
                <path d="M9.90824908,5.30606061 C10.5725401,5.91363636 11.6721085,5.96666667 12.3894821,5.42878788 C13.3464858,4.57727273 13.5178668,3.08636364 13.062873,1.93636364 C12.6154624,0.904545455 11.5037608,0.371212121 10.4466584,0.201515152 C8.62668311,-0.106060606 6.68689273,0.222727273 5.13233046,1.23636364 C3.91749692,2.04848485 3.10609125,3.49090909 3.23045623,4.96818182 C3.26533909,5.98484848 3.77644883,6.90151515 4.38917386,7.68484848 C5.11868064,8.65 6.02108508,9.46363636 6.79305795,10.3909091 C7.6727127,11.4363636 8.40373613,12.6909091 8.45378545,14.0893939 C8.46440197,14.9787879 8.34307028,15.9606061 7.72731196,16.6515152 C6.83249075,17.7333333 5.06863132,17.9166667 3.93418002,17.1257576 C2.9498767,16.4 2.81337855,14.8242424 3.62478422,13.9212121 C4.24812577,13.1848485 5.24911221,12.9590909 6.17274969,12.9227273 C6.00743527,12.4712121 5.88003699,11.9484848 5.46295931,11.6545455 C4.79260173,11.1348485 3.89323058,11.1333333 3.08789149,11.2181818 C1.96860666,11.5257576 0.941837238,12.2590909 0.471676942,13.3439394 C-0.175930949,14.8257576 -0.153181258,16.7272727 0.893304562,18.0257576 C1.8745746,19.2606061 3.52013564,19.6439394 5.02464858,19.730303 C6.89163995,19.7878788 8.86024661,19.4030303 10.3859926,18.2666667 C11.5795931,17.3818182 12.3909988,16.0075758 12.6048459,14.5378788 C12.7838101,13.0909091 12.6655117,11.5515152 11.9147719,10.2712121 C11.3642293,9.32272727 10.6301726,8.48333333 9.77933416,7.79242424 C8.77834772,6.93030303 7.68332922,6.05909091 7.16463625,4.8030303 C6.85979038,4.0030303 6.8537238,3.04545455 7.31023428,2.30151515 C7.89110974,1.44545455 9.07409371,1.24242424 10.0219975,1.49242424 C10.6529223,1.63484848 11.0169174,2.26969697 11.0942663,2.87121212 C11.1488656,3.82727273 10.6316893,4.71363636 9.90824908,5.30606061" id="Fill-3"></path>
                <path d="M30.4436375,9.2030303 C31.0487793,8.13939394 30.4254377,6.47272727 29.1271887,6.3469697 C27.8152898,6.22878788 26.717238,7.14545455 25.8284834,7.9969697 C25.9482984,7.4969697 26.0605302,6.99545455 26.172762,6.49393939 C24.9154624,6.49393939 23.6581628,6.49393939 22.4008631,6.49090909 C22.0899507,8.01060606 21.7532552,9.52272727 21.4408261,11.0409091 C21.1602466,12.2606061 20.9539827,13.4969697 20.6461036,14.7090909 C20.344291,15.7393939 19.5404686,16.8681818 18.3590012,16.8636364 C17.8160419,16.9560606 17.3155487,16.4469697 17.4262639,15.9060606 C17.588545,14.5969697 17.9555734,13.3212121 18.2027867,12.0242424 C18.5243157,10.5348485 18.8306782,9.04393939 19.1522072,7.55454545 C19.6557337,7.55151515 20.1577435,7.5530303 20.6597534,7.56212121 C20.7431689,7.20606061 20.8190012,6.8469697 20.8933169,6.48939394 C20.3822072,6.49090909 19.8726141,6.49242424 19.363021,6.4969697 C19.6572503,5.14393939 19.9818126,3.79545455 20.2108261,2.43030303 C18.9338101,2.60606061 17.6567941,2.77272727 16.3797781,2.94848485 C16.109815,4.11818182 15.8565351,5.29393939 15.6138718,6.47121212 C15.3166091,6.49393939 15.0193465,6.51666667 14.7236005,6.55454545 C14.6750678,6.88333333 14.6250185,7.21363636 14.5734525,7.54242424 C14.8418989,7.5469697 15.1103453,7.55 15.3803083,7.55454545 C15.1346116,8.83939394 14.8464488,10.1151515 14.5749692,11.3939394 C14.2852898,12.8045455 13.9288779,14.2045455 13.7256473,15.630303 C13.6664982,16.5272727 13.6422318,17.5 14.1366584,18.2954545 C14.4733539,18.8560606 15.0800123,19.1666667 15.6790875,19.3727273 C17.2533662,19.6454545 18.9201603,19.0530303 20.001529,17.8848485 C19.8938471,18.3454545 19.7967818,18.8075758 19.705783,19.2727273 C20.9585327,19.2727273 22.2097657,19.2727273 23.4625154,19.2712121 C23.9978915,16.6666667 24.5605672,14.0681818 25.1080764,11.4666667 C25.2551911,10.8515152 25.3067571,10.2075758 25.534254,9.61515152 C26.0317139,9.04848485 26.717238,8.61212121 27.4861776,8.55757576 C27.6969914,9.05454545 27.7485573,9.65454545 28.139852,10.0515152 C28.9558076,10.4742424 30.0781258,10.0409091 30.4436375,9.2030303" id="Fill-4"></path>
                <path d="M108.361332,16.4530303 C108.061036,15.3681818 108.538779,14.2712121 108.74656,13.2121212 C109.127238,11.580303 109.720247,9.87878788 109.327435,8.19393939 C109.190937,7.47878788 108.647978,6.92121212 107.998853,6.62878788 C106.203144,5.83484848 104.095006,6.78636364 103.092503,8.37272727 C102.899889,7.70454545 102.608693,6.96666667 101.923169,6.66969697 C100.420173,5.93636364 98.5000986,6.43787879 97.4020469,7.66060606 C97.4975956,7.27272727 97.590111,6.88484848 97.6795931,6.49545455 C96.4192602,6.49242424 95.1589273,6.49545455 93.8985943,6.4969697 C93.5088163,8.36818182 93.1008385,10.2348485 92.7140937,12.1075758 C92.3349322,13.5363636 92.322799,15.1757576 91.2854131,16.3333333 C90.8289026,16.9121212 89.8339827,17.0787879 89.2788903,16.5681818 C88.9725277,15.7833333 89.3410727,14.9348485 89.4715043,14.1439394 C90.0068804,11.7787879 90.433058,9.38787879 91.0154501,7.03484848 C91.0366831,6.89848485 91.0791492,6.62272727 91.1003822,6.48636364 C89.8445993,6.49393939 88.5903329,6.48939394 87.3345499,6.49090909 C86.8659063,8.64090909 86.4230456,10.7954545 85.9650185,12.9484848 C85.6874723,14.2075758 85.5524908,15.6560606 84.501455,16.55 C84.1723428,16.8818182 83.6824661,16.8424242 83.2547719,16.8712121 C83.0303083,16.5151515 82.8073613,16.1136364 82.8907768,15.6772727 C83.0439581,14.7484848 83.2638718,13.8318182 83.4595191,12.9121212 C83.9114797,10.7712121 84.3604069,8.63181818 84.8169174,6.49242424 C83.5565845,6.49242424 82.2962515,6.48939394 81.0359186,6.49545455 C80.7052898,8.17121212 80.3488779,9.84090909 79.9848829,11.5106061 C79.7771023,12.480303 79.5905549,13.4560606 79.3736745,14.4242424 C79.1825771,15.2651515 78.7230333,16.05 78.0284094,16.5742424 C77.4293342,16.9257576 76.5254131,17.0530303 76.0764858,16.4060606 C76.01582,15.5121212 76.285783,14.6515152 76.4617139,13.7878788 C76.9834402,11.3560606 77.4763502,8.91969697 78.0208261,6.49393939 C76.7589766,6.4969697 75.497127,6.48939394 74.2352774,6.5 C73.6923181,9.12575758 73.1266091,11.7469697 72.5821332,14.3727273 C72.445635,15.0030303 72.1407891,15.580303 71.8010604,16.1227273 C71.3976326,16.7106061 70.6393095,17.0393939 69.9477189,16.7833333 C69.4942417,16.5712121 69.4593588,16.0136364 69.445709,15.5818182 C69.7824044,13.6575758 70.4694451,11.8015152 70.6559926,9.85151515 C70.7060419,8.93333333 70.701492,7.88030303 70.011418,7.17727273 C68.9922318,6.15909091 67.3057213,6.15606061 66.072688,6.76818182 C65.340148,7.10909091 64.8366215,7.75454545 64.2951788,8.32575758 C64.0525154,7.68333333 63.7916523,6.95 63.1091615,6.6530303 C61.6273983,5.97272727 59.7877065,6.44090909 58.6653884,7.58333333 C58.7397041,7.22272727 58.8094698,6.86212121 58.8762022,6.5 C57.6249692,6.50454545 56.3737361,6.47121212 55.1225031,6.51969697 C54.8282737,7.97878788 54.5021948,9.43181818 54.2003822,10.8893939 C53.7999877,12.4530303 53.6968557,14.1136364 53.0158816,15.5924242 C52.7292355,16.1757576 52.2621085,16.7757576 51.5674846,16.8469697 C51.2565721,16.8590909 50.8865105,16.9106061 50.6362639,16.6863636 C50.3663009,16.4272727 50.3450678,16.0272727 50.3754007,15.6787879 C51.0078422,12.6151515 51.7145993,9.56666667 52.3288409,6.5 C51.0624414,6.49545455 49.7960419,6.48484848 48.5296424,6.50454545 C48.4780764,6.80909091 48.4265105,7.11363636 48.3810111,7.41969697 C48.1535142,7.00151515 47.8486683,6.58484848 47.3557583,6.47575758 C45.4387176,5.95454545 43.3791122,6.86060606 42.1278792,8.32575758 C40.5551171,10.1924242 39.8195438,12.6409091 39.655746,15.0454545 C38.7154254,16.069697 37.5369914,17.0439394 36.0946609,17.1621212 C35.4819359,17.1954545 34.7766954,17.2439394 34.2746856,16.8242424 C34.0168557,16.5636364 33.9319236,16.1893939 33.7741924,15.8681818 C33.7575092,15.2924242 33.7666091,14.7136364 33.822725,14.1393939 C35.5820345,14.0136364 37.3261776,13.2590909 38.4924784,11.9151515 C39.4449322,10.8106061 39.951492,9.23939394 39.5344143,7.80757576 C39.3311837,7.06666667 38.6107768,6.59848485 37.8934032,6.43939394 C36.5451048,6.16818182 35.1058076,6.40454545 33.9061406,7.07272727 C31.9906165,8.22575758 30.8667818,10.3166667 30.3238224,12.4257576 C29.9962269,13.7833333 29.7535635,15.2106061 30.0356597,16.6 C30.1494081,17.4378788 30.5953021,18.2469697 31.3096424,18.7181818 C31.907201,19.1484848 32.6412577,19.3257576 33.3631813,19.4166667 C34.9222935,19.55 36.5238718,19.1378788 37.8054377,18.2333333 C38.5561776,17.7727273 39.1249199,17.0909091 39.7619112,16.4969697 C39.9348089,17.4484848 40.3989026,18.4075758 41.2497411,18.9272727 C42.4827744,19.6787879 44.1480518,19.5833333 45.3204192,18.7530303 C45.9376942,18.3712121 46.397238,17.8015152 46.8431319,17.2409091 C47.0402959,17.8090909 47.2420099,18.4378788 47.7667694,18.7939394 C48.6433909,19.430303 49.8157583,19.3333333 50.8121948,19.0772727 C51.5432182,18.9045455 52.1377435,18.4242424 52.7080025,17.9621212 C52.6109371,18.3954545 52.5199383,18.830303 52.4350062,19.2666667 C53.6771393,19.2757576 54.9192725,19.2621212 56.1614057,19.2757576 C56.3964858,18.3772727 56.5527004,17.4621212 56.7544143,16.5575758 C57.1062762,14.9333333 57.4444883,13.3045455 57.788767,11.6772727 C57.981381,10.7106061 58.3271763,9.70151515 59.0961159,9.03787879 C59.434328,8.74242424 60.0136868,8.61666667 60.389815,8.9030303 C60.7538101,9.38181818 60.6415783,10.0348485 60.5475462,10.5863636 C60.2320838,12.0560606 59.927238,13.5287879 59.6132922,15 C59.3160296,16.4121212 59.0081504,17.8227273 58.718471,19.2363636 C59.9681874,19.3045455 61.2209371,19.2560606 62.4721702,19.2651515 C62.7284834,17.969697 63.0227127,16.6833333 63.2881258,15.3893939 C63.5368557,14.2090909 63.7871023,13.030303 64.0358323,11.85 C64.2163132,10.9030303 64.5120592,9.92878788 65.1793835,9.20606061 C65.5175956,8.86666667 66.0560049,8.61212121 66.5231319,8.83484848 C66.9887423,9.08636364 67.0266584,9.68333333 67.0205919,10.1530303 C66.9568927,11.2969697 66.6065475,12.3969697 66.3638841,13.5121212 C66.0954377,14.7318182 65.7177928,15.9787879 65.9377065,17.2393939 C66.0560049,18.2151515 66.8249445,19.019697 67.7561652,19.2863636 C68.8769667,19.5984848 70.1479162,19.4363636 71.1140197,18.7681818 C71.6281628,18.419697 72.0270407,17.9333333 72.398619,17.4409091 C72.6185327,18.3833333 73.3753391,19.1484848 74.3262762,19.35 C76.1781011,19.7272727 78.1269914,18.7893939 79.1643773,17.2439394 C79.3296917,17.7121212 79.435857,18.2318182 79.804402,18.5939394 C80.6082244,19.4318182 81.895857,19.6106061 82.9787423,19.2924242 C84.1268434,19.0151515 84.9716153,18.1106061 85.6146732,17.1712121 C85.7284217,17.7818182 85.9195191,18.4227273 86.421529,18.8333333 C87.0509371,19.4606061 88.0064242,19.4939394 88.8360296,19.4060606 C89.8430826,19.2287879 90.7545869,18.7272727 91.4825771,18.0166667 C91.3764118,18.4318182 91.2793465,18.8484848 91.1807645,19.2651515 C92.4410974,19.2772727 93.7044636,19.2666667 94.9663132,19.2712121 C95.4015906,17.0606061 95.9020838,14.8621212 96.3585943,12.6545455 C96.5982244,11.4227273 96.8242047,10.0818182 97.7372256,9.1469697 C98.0693711,8.76515152 98.597164,8.76515152 99.0612577,8.73636364 C99.2857213,9.16363636 99.5374846,9.63636364 99.3994698,10.1333333 C99.0400247,11.9136364 98.6547965,13.6878788 98.2786683,15.4636364 C98.0178052,16.7318182 97.7296424,17.9954545 97.4884957,19.269697 C98.7291122,19.280303 99.9697287,19.2621212 101.211862,19.2833333 C101.501541,18.1727273 101.697189,17.0409091 101.948952,15.9212121 C102.270481,14.4333333 102.572293,12.9424242 102.896856,11.4560606 C103.087953,10.5984848 103.404932,9.71818182 104.069223,9.11060606 C104.33767,8.85 104.728964,8.71363636 105.103576,8.77575758 C105.50397,8.87727273 105.746634,9.30606061 105.754217,9.7 C105.823983,10.7257576 105.543403,11.730303 105.312873,12.719697 C104.967078,14.4909091 104.184488,16.4015152 104.961011,18.1666667 C105.449371,19.2863636 106.824969,19.5833333 107.927571,19.4045455 C108.45688,19.1878788 109.011973,18.9666667 109.397201,18.5227273 C109.856745,18.05 110.006893,17.3848485 110.088792,16.7530303 C109.527633,16.8090909 108.69651,17.0878788 108.361332,16.4530303 L108.361332,16.4530303 Z M35.9156967,8.46363636 C36.2129593,8.08030303 36.6588533,7.73333333 37.1745129,7.78787879 C37.4839088,7.95151515 37.6022072,8.31666667 37.6264735,8.64545455 C37.6825894,10.680303 36.0628113,12.6 34.0305055,12.8454545 C34.3869174,11.2924242 34.9040937,9.72272727 35.9156967,8.46363636 L35.9156967,8.46363636 Z M48.0018496,9.20909091 C47.549889,11.2212121 47.2010604,13.2621212 46.6656843,15.2530303 C46.3274723,16.0969697 45.5752158,16.9348485 44.5878792,16.8590909 C44.1237855,16.9 43.9084217,16.4363636 43.6612084,16.1363636 C43.5307768,15.3575758 43.5110604,14.5606061 43.6399753,13.780303 C43.8993218,12.0954545 44.3907152,10.3924242 45.4205179,9.00606061 C45.805746,8.50151515 46.3471887,8.01212121 47.0236128,8.03030303 C47.6424044,7.94090909 48.2005302,8.61818182 48.0018496,9.20909091 L48.0018496,9.20909091 Z" id="Fill-5"></path>
            </g>
        </g>
    </g>
</svg>